<svg xmlns="http://www.w3.org/2000/svg" xmlns:xlink="http://www.w3.org/1999/xlink" width="108" height="108" viewBox="0 0 108 108">
  <defs>
    <filter id="Trazado_978624" x="0" y="0" width="108" height="108" filterUnits="userSpaceOnUse">
      <feOffset dy="3" input="SourceAlpha"/>
      <feGaussianBlur stdDeviation="3" result="blur"/>
      <feFlood flood-opacity="0.161"/>
      <feComposite operator="in" in2="blur"/>
      <feComposite in="SourceGraphic"/>
    </filter>
    <filter id="Trazado_1076716" x="0" y="0" width="108" height="108" filterUnits="userSpaceOnUse">
      <feOffset dy="3" input="SourceAlpha"/>
      <feGaussianBlur stdDeviation="3" result="blur-2"/>
      <feFlood flood-opacity="0.161"/>
      <feComposite operator="in" in2="blur-2"/>
      <feComposite in="SourceGraphic"/>
    </filter>
  </defs>
  <g id="Grupo_1220113" data-name="Grupo 1220113" transform="translate(-615 -526)">
    <g id="Grupo_1219856" data-name="Grupo 1219856" transform="translate(624 532)">
      <g id="Grupo_1215980" data-name="Grupo 1215980" transform="translate(0)">
        <g id="Grupo_1208503" data-name="Grupo 1208503">
          <g id="Grupo_1200660" data-name="Grupo 1200660">
            <g id="Grupo_1181203" data-name="Grupo 1181203">
              <g id="Grupo_1172348" data-name="Grupo 1172348">
                <g id="Grupo_1171897" data-name="Grupo 1171897">
                  <g id="Grupo_1171052" data-name="Grupo 1171052">
                    <g id="Grupo_1164581" data-name="Grupo 1164581">
                      <g id="Grupo_1144123" data-name="Grupo 1144123">
                        <g transform="matrix(1, 0, 0, 1, -9, -6)" filter="url(#Trazado_978624)">
                          <g id="Trazado_978624-2" data-name="Trazado 978624" transform="translate(9 6)" fill="#fcf5f0">
                            <path d="M 45 88.5 C 39.12687683105469 88.5 33.43022537231445 87.35007476806641 28.06830024719238 85.08217620849609 C 22.88852500915527 82.89131164550781 18.23629951477051 79.75458526611328 14.2408504486084 75.75914764404297 C 10.24541282653809 71.76370239257812 7.108687400817871 67.11147308349609 4.917825222015381 61.93170166015625 C 2.649924993515015 56.56977462768555 1.5 50.87312316894531 1.5 45 C 1.5 39.12687683105469 2.649924993515015 33.43022537231445 4.917825222015381 28.06830024719238 C 7.108687400817871 22.88852500915527 10.24541282653809 18.23629951477051 14.2408504486084 14.2408504486084 C 18.23629951477051 10.24541282653809 22.88852500915527 7.108687400817871 28.06830024719238 4.917825222015381 C 33.43022537231445 2.649924993515015 39.12687683105469 1.5 45 1.5 C 50.87312316894531 1.5 56.56977462768555 2.649924993515015 61.93170166015625 4.917825222015381 C 67.11147308349609 7.108687400817871 71.76370239257812 10.24541282653809 75.75914764404297 14.2408504486084 C 79.75458526611328 18.23629951477051 82.89131164550781 22.88852500915527 85.08217620849609 28.06830024719238 C 87.35007476806641 33.43022537231445 88.5 39.12687683105469 88.5 45 C 88.5 50.87312316894531 87.35007476806641 56.56977462768555 85.08217620849609 61.93170166015625 C 82.89131164550781 67.11147308349609 79.75458526611328 71.76370239257812 75.75914764404297 75.75914764404297 C 71.76370239257812 79.75458526611328 67.11147308349609 82.89131164550781 61.93170166015625 85.08217620849609 C 56.56977462768555 87.35007476806641 50.87312316894531 88.5 45 88.5 Z" stroke="none"/>
                            <path d="M 45 3 C 39.32871246337891 3 33.82865524291992 4.110054016113281 28.65262985229492 6.299339294433594 C 23.65165710449219 8.414573669433594 19.15968322753906 11.44334411621094 15.301513671875 15.301513671875 C 11.44334411621094 19.15968322753906 8.414573669433594 23.65165710449219 6.299339294433594 28.65262985229492 C 4.110054016113281 33.82865524291992 3 39.32871246337891 3 45 C 3 50.67128753662109 4.110054016113281 56.17134475708008 6.299339294433594 61.34737396240234 C 8.414573669433594 66.34834289550781 11.44334411621094 70.84031677246094 15.301513671875 74.698486328125 C 19.15968322753906 78.55665588378906 23.65165710449219 81.58542633056641 28.65262985229492 83.70066070556641 C 33.82865524291992 85.88994598388672 39.32871246337891 87 45 87 C 50.67128753662109 87 56.17134475708008 85.88994598388672 61.34737396240234 83.70066070556641 C 66.34834289550781 81.58542633056641 70.84031677246094 78.55665588378906 74.698486328125 74.698486328125 C 78.55665588378906 70.84031677246094 81.58542633056641 66.34834289550781 83.70066070556641 61.34737396240234 C 85.88994598388672 56.17134475708008 87 50.67128753662109 87 45 C 87 39.32871246337891 85.88994598388672 33.82865524291992 83.70066070556641 28.65262985229492 C 81.58542633056641 23.65165710449219 78.55665588378906 19.15968322753906 74.698486328125 15.301513671875 C 70.84031677246094 11.44334411621094 66.34834289550781 8.414573669433594 61.34737396240234 6.299339294433594 C 56.17134475708008 4.110054016113281 50.67128753662109 3 45 3 M 45 0 C 69.85281372070312 0 90 20.14718627929688 90 45 C 90 69.85281372070312 69.85281372070312 90 45 90 C 20.14718627929688 90 0 69.85281372070312 0 45 C 0 20.14718627929688 20.14718627929688 0 45 0 Z" stroke="none" fill="#eca675"/>
                          </g>
                        </g>
                        <g transform="matrix(1, 0, 0, 1, -9, -6)" filter="url(#Trazado_1076716)">
                          <g id="Trazado_1076716-2" data-name="Trazado 1076716" transform="translate(9 6)" fill="#fcf5f0">
                            <path d="M 45 88.5 C 39.12687683105469 88.5 33.43022537231445 87.35007476806641 28.06830024719238 85.08217620849609 C 22.88852500915527 82.89131164550781 18.23629951477051 79.75458526611328 14.2408504486084 75.75914764404297 C 10.24541282653809 71.76370239257812 7.108687400817871 67.11147308349609 4.917825222015381 61.93170166015625 C 2.649924993515015 56.56977462768555 1.5 50.87312316894531 1.5 45 C 1.5 39.12687683105469 2.649924993515015 33.43022537231445 4.917825222015381 28.06830024719238 C 7.108687400817871 22.88852500915527 10.24541282653809 18.23629951477051 14.2408504486084 14.2408504486084 C 18.23629951477051 10.24541282653809 22.88852500915527 7.108687400817871 28.06830024719238 4.917825222015381 C 33.43022537231445 2.649924993515015 39.12687683105469 1.5 45 1.5 C 50.87312316894531 1.5 56.56977462768555 2.649924993515015 61.93170166015625 4.917825222015381 C 67.11147308349609 7.108687400817871 71.76370239257812 10.24541282653809 75.75914764404297 14.2408504486084 C 79.75458526611328 18.23629951477051 82.89131164550781 22.88852500915527 85.08217620849609 28.06830024719238 C 87.35007476806641 33.43022537231445 88.5 39.12687683105469 88.5 45 C 88.5 50.87312316894531 87.35007476806641 56.56977462768555 85.08217620849609 61.93170166015625 C 82.89131164550781 67.11147308349609 79.75458526611328 71.76370239257812 75.75914764404297 75.75914764404297 C 71.76370239257812 79.75458526611328 67.11147308349609 82.89131164550781 61.93170166015625 85.08217620849609 C 56.56977462768555 87.35007476806641 50.87312316894531 88.5 45 88.5 Z" stroke="none"/>
                            <path d="M 45 3 C 39.32871246337891 3 33.82865524291992 4.110054016113281 28.65262985229492 6.299339294433594 C 23.65165710449219 8.414573669433594 19.15968322753906 11.44334411621094 15.301513671875 15.301513671875 C 11.44334411621094 19.15968322753906 8.414573669433594 23.65165710449219 6.299339294433594 28.65262985229492 C 4.110054016113281 33.82865524291992 3 39.32871246337891 3 45 C 3 50.67128753662109 4.110054016113281 56.17134475708008 6.299339294433594 61.34737396240234 C 8.414573669433594 66.34834289550781 11.44334411621094 70.84031677246094 15.301513671875 74.698486328125 C 19.15968322753906 78.55665588378906 23.65165710449219 81.58542633056641 28.65262985229492 83.70066070556641 C 33.82865524291992 85.88994598388672 39.32871246337891 87 45 87 C 50.67128753662109 87 56.17134475708008 85.88994598388672 61.34737396240234 83.70066070556641 C 66.34834289550781 81.58542633056641 70.84031677246094 78.55665588378906 74.698486328125 74.698486328125 C 78.55665588378906 70.84031677246094 81.58542633056641 66.34834289550781 83.70066070556641 61.34737396240234 C 85.88994598388672 56.17134475708008 87 50.67128753662109 87 45 C 87 39.32871246337891 85.88994598388672 33.82865524291992 83.70066070556641 28.65262985229492 C 81.58542633056641 23.65165710449219 78.55665588378906 19.15968322753906 74.698486328125 15.301513671875 C 70.84031677246094 11.44334411621094 66.34834289550781 8.414573669433594 61.34737396240234 6.299339294433594 C 56.17134475708008 4.110054016113281 50.67128753662109 3 45 3 M 45 0 C 69.85281372070312 0 90 20.14718627929688 90 45 C 90 69.85281372070312 69.85281372070312 90 45 90 C 20.14718627929688 90 0 69.85281372070312 0 45 C 0 20.14718627929688 20.14718627929688 0 45 0 Z" stroke="none" fill="#eca675"/>
                          </g>
                        </g>
                      </g>
                    </g>
                  </g>
                </g>
              </g>
            </g>
          </g>
        </g>
      </g>
    </g>
    <g id="_6._Signature" data-name="6. Signature" transform="translate(637 550)">
      <rect id="Rectángulo_421239" data-name="Rectángulo 421239" width="53" height="75" rx="16" transform="translate(1 1)" fill="#f6f6f6"/>
      <path id="Trazado_1168578" data-name="Trazado 1168578" d="M58.531,466.406H10.406A2.406,2.406,0,0,1,8,464v3.609a2.406,2.406,0,0,0,2.406,2.406H58.531a2.406,2.406,0,0,0,2.406-2.406V464A2.406,2.406,0,0,1,58.531,466.406Z" transform="translate(-6.797 -394.219)" fill="#dcdcdc"/>
      <path id="Trazado_1168579" data-name="Trazado 1168579" d="M51.735,77H3.609A3.609,3.609,0,0,1,0,73.391V3.609A3.609,3.609,0,0,1,3.609,0H51.735a3.609,3.609,0,0,1,3.609,3.609V19.25a1.2,1.2,0,0,1-2.406,0V3.609a1.2,1.2,0,0,0-1.2-1.2H3.609a1.2,1.2,0,0,0-1.2,1.2V73.391a1.2,1.2,0,0,0,1.2,1.2H51.735a1.2,1.2,0,0,0,1.2-1.2V63.766a1.2,1.2,0,0,1,2.406,0v9.625A3.609,3.609,0,0,1,51.735,77Z"/>
      <path id="Trazado_1168580" data-name="Trazado 1168580" d="M353.2,201.688a1.2,1.2,0,0,1-1.2-1.2V169.2a1.2,1.2,0,0,1,2.406,0v31.281A1.2,1.2,0,0,1,353.2,201.688Z" transform="translate(-299.062 -142.734)"/>
      <path id="Trazado_1168581" data-name="Trazado 1168581" d="M87.7,194.406H49.2a1.2,1.2,0,1,1,0-2.406H87.7a1.2,1.2,0,1,1,0,2.406Z" transform="translate(-40.781 -163.125)"/>
      <path id="Trazado_1168582" data-name="Trazado 1168582" d="M87.7,234.406H49.2a1.2,1.2,0,0,1,0-2.406H87.7a1.2,1.2,0,1,1,0,2.406Z" transform="translate(-40.781 -197.109)"/>
      <path id="Trazado_1168583" data-name="Trazado 1168583" d="M87.7,274.406H49.2a1.2,1.2,0,1,1,0-2.406H87.7a1.2,1.2,0,1,1,0,2.406Z" transform="translate(-40.781 -231.094)"/>
      <path id="Trazado_1168584" data-name="Trazado 1168584" d="M87.7,314.406H49.2a1.2,1.2,0,1,1,0-2.406H87.7a1.2,1.2,0,1,1,0,2.406Z" transform="translate(-40.781 -265.078)"/>
      <path id="Trazado_1168585" data-name="Trazado 1168585" d="M87.7,354.406H49.2a1.2,1.2,0,1,1,0-2.406H87.7a1.2,1.2,0,1,1,0,2.406Z" transform="translate(-40.781 -299.062)"/>
      <path id="Trazado_1168586" data-name="Trazado 1168586" d="M464,256h6.016v20.453H464Z" transform="translate(-394.219 -217.5)" fill="#a8edfd"/>
      <path id="Trazado_1168587" data-name="Trazado 1168587" d="M464,368h6.016v3.609H464Z" transform="translate(-394.219 -312.656)" fill="#8bd4de"/>
      <path id="Trazado_1168588" data-name="Trazado 1168588" d="M463.219,270.859H457.2a1.2,1.2,0,0,1-1.2-1.2V249.2a1.2,1.2,0,0,1,1.2-1.2h6.016a1.2,1.2,0,0,1,1.2,1.2v20.453A1.2,1.2,0,0,1,463.219,270.859Zm-4.813-2.406h3.609V250.406h-3.609Z" transform="translate(-387.422 -210.703)"/>
      <path id="Trazado_1168589" data-name="Trazado 1168589" d="M214.477,244.166c-6.644,14.238-6.462,13.881-6.477,13.881a5.1,5.1,0,0,0,5.792-1.914l2.79-3.985a11.609,11.609,0,0,1,9.466-4.928,3.609,3.609,0,1,1,0,7.219h-4.813a6.016,6.016,0,0,0-6.016,6.016h11.533a4.108,4.108,0,0,1,2.9,1.2,4.109,4.109,0,0,0,2.9,1.2h8.157a4.127,4.127,0,0,0,1.838-.433l3.945-1.973V244.813h-1.409a8.217,8.217,0,0,1-5.809-2.406,8.216,8.216,0,0,0-5.81-2.407H221.019a7.219,7.219,0,0,0-6.542,4.166Z" transform="translate(-176.719 -203.906)" fill="#e0c3aa"/>
      <path id="Trazado_1168590" data-name="Trazado 1168590" d="M200.813,252.391a1.2,1.2,0,0,1-.71-1.654l6.477-13.881A8.454,8.454,0,0,1,214.213,232h12.452a9.357,9.357,0,0,1,6.661,2.758,6.962,6.962,0,0,0,4.963,2.054h1.4a1.2,1.2,0,0,1,1.2,1.2v7.219a1.2,1.2,0,0,1-2.406,0v-6.016h-.206a9.357,9.357,0,0,1-6.661-2.758,6.962,6.962,0,0,0-4.963-2.054H214.208a6.038,6.038,0,0,0-5.452,3.471L202.963,250.3A3.919,3.919,0,0,0,206,248.648l2.791-3.987a12.77,12.77,0,0,1,10.451-5.443,4.813,4.813,0,0,1,4.813,4.813,1.2,1.2,0,0,1-2.406,0,2.406,2.406,0,0,0-2.406-2.406,10.352,10.352,0,0,0-8.478,4.414l-2.792,3.987a6.342,6.342,0,0,1-7.157,2.366Z" transform="translate(-169.912 -197.109)"/>
      <path id="Trazado_1168591" data-name="Trazado 1168591" d="M0,0H7.219V36.094H0Z" transform="matrix(0.857, 0.516, -0.516, 0.857, 50.585, 28.35)" fill="#6fc3e2"/>
      <path id="Trazado_1168592" data-name="Trazado 1168592" d="M211.385,217.258l-6.186-3.722a1.2,1.2,0,0,1-.411-1.654L223.4,180.96a1.2,1.2,0,0,1,1.654-.411l6.186,3.722a1.2,1.2,0,0,1,.411,1.654l-18.615,30.922a1.2,1.2,0,0,1-1.65.411Zm-3.91-5.163,4.116,2.481,17.37-28.865-4.124-2.481Z" transform="translate(-173.843 -153.249)"/>
      <path id="Trazado_1168593" data-name="Trazado 1168593" d="M209.069,394.01l-.629,8.047,6.814-4.325Z" transform="translate(-177.092 -334.754)" fill="#a6806f"/>
      <path id="Trazado_1168594" data-name="Trazado 1168594" d="M200.439,395.17l.63-8.046a1.2,1.2,0,0,1,1.82-.937l6.186,3.722a1.2,1.2,0,0,1,.024,2.047l-6.816,4.324a1.2,1.2,0,0,1-1.844-1.11Zm2.877-5.918-.29,3.707,3.139-1.984Z" transform="translate(-170.292 -327.962)"/>
      <path id="Trazado_1168595" data-name="Trazado 1168595" d="M270.438,312a3.609,3.609,0,0,1-3.609,3.609h-4.812A6.016,6.016,0,0,0,256,321.625h11.534a4.108,4.108,0,0,1,2.9,1.2,4.109,4.109,0,0,0,2.9,1.2H281.5a4.127,4.127,0,0,0,1.838-.433l3.945-1.973V313.2" transform="translate(-217.5 -265.078)" fill="#e0c3aa"/>
      <path id="Trazado_1168596" data-name="Trazado 1168596" d="M281.5,354.406h-8.157a4.108,4.108,0,0,1-2.9-1.2,4.109,4.109,0,0,0-2.9-1.2H257.2a5.994,5.994,0,0,0-1.2,3.609h11.533a4.108,4.108,0,0,1,2.9,1.2,4.109,4.109,0,0,0,2.9,1.2H281.5a4.127,4.127,0,0,0,1.838-.433l3.945-1.973V352l-3.945,1.973A4.127,4.127,0,0,1,281.5,354.406Z" transform="translate(-217.5 -299.062)" fill="#d0a37f"/>
      <path id="Trazado_1168597" data-name="Trazado 1168597" d="M274.7,318.438h-8.157a5.276,5.276,0,0,1-3.76-1.555,2.88,2.88,0,0,0-2.048-.851H249.2a1.2,1.2,0,0,1-1.2-1.2,7.226,7.226,0,0,1,7.219-7.219h4.813a2.406,2.406,0,0,0,2.406-2.406,1.2,1.2,0,0,1,2.406,0,4.813,4.813,0,0,1-4.813,4.813h-4.813a4.822,4.822,0,0,0-4.662,3.609h10.178a5.276,5.276,0,0,1,3.76,1.555,2.88,2.88,0,0,0,2.05.851H274.7a2.931,2.931,0,0,0,1.3-.3l3.28-1.645v-7.679a1.2,1.2,0,0,1,2.406,0v8.422a1.2,1.2,0,0,1-.665,1.077l-3.946,1.972A5.328,5.328,0,0,1,274.7,318.438Z" transform="translate(-210.703 -258.281)"/>
      <path id="Trazado_1168598" data-name="Trazado 1168598" d="M342.565,163.557a3.609,3.609,0,0,0-4.954,1.232l-1.241,2.062,6.186,3.722,1.241-2.062A3.609,3.609,0,0,0,342.565,163.557Z" transform="translate(-285.783 -138.52)" fill="#5f79a5"/>
      <path id="Trazado_1168599" data-name="Trazado 1168599" d="M335.135,164.8l-6.186-3.722a1.2,1.2,0,0,1-.411-1.654l1.241-2.062a4.813,4.813,0,0,1,8.247,4.963l-1.241,2.062A1.2,1.2,0,0,1,335.135,164.8Zm-3.91-5.163,4.124,2.481.621-1.03a2.411,2.411,0,1,0-4.13-2.487Z" transform="translate(-278.982 -131.717)"/>
      <path id="Trazado_1168600" data-name="Trazado 1168600" d="M113.212,444.8a1.2,1.2,0,0,1-.961-1.925l1-1.329a3.9,3.9,0,0,1,6.235,0,3.91,3.91,0,0,1,5.213.848h16.188a1.2,1.2,0,1,1,0,2.406H124.04a1.2,1.2,0,0,1-1.077-.665,1.484,1.484,0,0,0-2.659,0,1.2,1.2,0,0,1-2.154,0l-.459-.919a1.486,1.486,0,0,0-2.525-.221l-1,1.329A1.2,1.2,0,0,1,113.212,444.8Z" transform="translate(-95.165 -373.817)"/>
      <path id="Trazado_1168601" data-name="Trazado 1168601" d="M56,56H94.5v9.625H56Z" transform="translate(-47.578 -47.578)" fill="#ead590"/>
      <path id="Trazado_1168602" data-name="Trazado 1168602" d="M56,96H94.5v3.609H56Z" transform="translate(-47.578 -81.562)" fill="#f1cb66"/>
      <path id="Trazado_1168603" data-name="Trazado 1168603" d="M87.7,60.031H49.2a1.2,1.2,0,0,1-1.2-1.2V49.2A1.2,1.2,0,0,1,49.2,48H87.7a1.2,1.2,0,0,1,1.2,1.2v9.625A1.2,1.2,0,0,1,87.7,60.031Zm-37.3-2.406H86.5V50.406H50.406Z" transform="translate(-40.781 -40.781)"/>
      <path id="Trazado_1168604" data-name="Trazado 1168604" d="M66.047,154.406H49.2a1.2,1.2,0,1,1,0-2.406H66.047a1.2,1.2,0,0,1,0,2.406Z" transform="translate(-40.781 -129.141)"/>
    </g>
  </g>
</svg>
