<svg xmlns="http://www.w3.org/2000/svg" xmlns:xlink="http://www.w3.org/1999/xlink" width="93.934" height="93.934" viewBox="0 0 93.934 93.934">
  <defs>
    <filter id="Trazado_982547" x="0" y="0" width="93.934" height="93.934" filterUnits="userSpaceOnUse">
      <feOffset dy="3" input="SourceAlpha"/>
      <feGaussianBlur stdDeviation="3" result="blur"/>
      <feFlood flood-opacity="0.161"/>
      <feComposite operator="in" in2="blur"/>
      <feComposite in="SourceGraphic"/>
    </filter>
  </defs>
  <g id="Grupo_1220368" data-name="Grupo 1220368" transform="translate(-191.066 -1179.849)">
    <g id="Grupo_1219857" data-name="Grupo 1219857" transform="translate(0 137)">
      <g id="Grupo_1215981" data-name="Grupo 1215981" transform="translate(-0.229 -2679.151)">
        <g id="Grupo_1214594" data-name="Grupo 1214594" transform="translate(0 -1406)">
          <g id="Grupo_1214432" data-name="Grupo 1214432" transform="translate(-0.771 -2738.674)">
            <g id="Grupo_1183196" data-name="Grupo 1183196" transform="translate(1 1016.674)">
              <g id="Grupo_1179610" data-name="Grupo 1179610" transform="translate(8 4723.467)">
                <g id="Grupo_1175227" data-name="Grupo 1175227" transform="translate(-5.967 140.533)">
                  <g id="Grupo_1167337" data-name="Grupo 1167337" transform="translate(198.033 1992)">
                    <g id="Grupo_1166720" data-name="Grupo 1166720">
                      <g id="Grupo_1164305" data-name="Grupo 1164305">
                        <g id="Grupo_1163948" data-name="Grupo 1163948">
                          <g id="Grupo_1158168" data-name="Grupo 1158168">
                            <g id="Grupo_1152576" data-name="Grupo 1152576">
                              <g id="Grupo_1148633" data-name="Grupo 1148633">
                                <g id="Grupo_1148525" data-name="Grupo 1148525">
                                  <g transform="matrix(1, 0, 0, 1, -9, -6)" filter="url(#Trazado_982547)">
                                    <g id="Trazado_982547-2" data-name="Trazado 982547" transform="translate(9 6)" fill="#eae4dc">
                                      <path d="M 37.966796875 74.43359375 C 33.04315185546875 74.43359375 28.26757431030273 73.46962738037109 23.77274131774902 71.56847381591797 C 19.43047523498535 69.73184967041016 15.53040790557861 67.10224914550781 12.18087482452393 63.75271987915039 C 8.831341743469238 60.4031867980957 6.201741218566895 56.50312042236328 4.365118980407715 52.16086196899414 C 2.463963508605957 47.66601943969727 1.499996900558472 42.89044189453125 1.499996900558472 37.966796875 C 1.499996900558472 33.04315185546875 2.463963508605957 28.26757431030273 4.365118980407715 23.77274131774902 C 6.201741218566895 19.43047523498535 8.831341743469238 15.53040790557861 12.18087482452393 12.18087482452393 C 15.53040790557861 8.831341743469238 19.43047523498535 6.201741218566895 23.77274131774902 4.365118980407715 C 28.26757431030273 2.463963508605957 33.04315185546875 1.499996900558472 37.966796875 1.499996900558472 C 42.89044189453125 1.499996900558472 47.66601943969727 2.463963508605957 52.16086196899414 4.365118980407715 C 56.50312042236328 6.201741218566895 60.4031867980957 8.831341743469238 63.75271987915039 12.18087482452393 C 67.10224914550781 15.53040790557861 69.73184967041016 19.43047523498535 71.56847381591797 23.77274131774902 C 73.46962738037109 28.26757431030273 74.43359375 33.04315185546875 74.43359375 37.966796875 C 74.43359375 42.89044189453125 73.46962738037109 47.66601943969727 71.56847381591797 52.16086196899414 C 69.73184967041016 56.50313186645508 67.10224914550781 60.4031867980957 63.75271987915039 63.75271987915039 C 60.4031867980957 67.10224914550781 56.50313186645508 69.73184967041016 52.16086196899414 71.56847381591797 C 47.66601943969727 73.46962738037109 42.89044189453125 74.43359375 37.966796875 74.43359375 Z" stroke="none"/>
                                      <path d="M 37.966796875 3 C 33.2449836730957 3 28.66600799560547 3.924095153808594 24.35705947875977 5.746635437011719 C 20.19359588623047 7.507637023925781 16.45379638671875 10.02928161621094 13.24153518676758 13.24153518676758 C 10.02927398681641 16.45379638671875 7.507621765136719 20.19359588623047 5.746635437011719 24.35705947875977 C 3.924095153808594 28.66600799560547 3 33.2449836730957 3 37.966796875 C 3 42.6886100769043 3.924095153808594 47.26758575439453 5.746635437011719 51.57653427124023 C 7.507621765136719 55.73999786376953 10.02927398681641 59.47979736328125 13.24153518676758 62.69205856323242 C 16.45379638671875 65.90431976318359 20.19359588623047 68.42597198486328 24.35705947875977 70.18695831298828 C 28.66600799560547 72.00949859619141 33.2449836730957 72.93359375 37.966796875 72.93359375 C 42.6886100769043 72.93359375 47.26758575439453 72.00949859619141 51.57653427124023 70.18695831298828 C 55.73999786376953 68.42597198486328 59.47979736328125 65.90431976318359 62.69205856323242 62.69205856323242 C 65.90431976318359 59.47979736328125 68.42597198486328 55.73999786376953 70.18695831298828 51.57653427124023 C 72.00949859619141 47.26758575439453 72.93359375 42.6886100769043 72.93359375 37.966796875 C 72.93359375 33.2449836730957 72.00949859619141 28.66600799560547 70.18695831298828 24.35705947875977 C 68.42597198486328 20.19359588623047 65.90431976318359 16.45379638671875 62.69205856323242 13.24153518676758 C 59.47979736328125 10.02928161621094 55.73999786376953 7.507637023925781 51.57653427124023 5.746635437011719 C 47.26758575439453 3.924095153808594 42.6886100769043 3 37.966796875 3 M 37.966796875 0 C 58.93528366088867 0 75.93359375 16.99832153320312 75.93359375 37.966796875 C 75.93359375 58.93528366088867 58.93528366088867 75.93359375 37.966796875 75.93359375 C 16.99831008911133 75.93359375 0 58.93528366088867 0 37.966796875 C 0 16.99832153320312 16.99831008911133 0 37.966796875 0 Z" stroke="none" fill="#665b4e"/>
                                    </g>
                                  </g>
                                </g>
                              </g>
                            </g>
                          </g>
                        </g>
                      </g>
                    </g>
                  </g>
                </g>
              </g>
            </g>
          </g>
        </g>
      </g>
    </g>
    <g id="contacto" transform="translate(212.203 1193.932)">
      <g id="Grupo_1220366" data-name="Grupo 1220366" transform="translate(0.934 0.934)">
        <g id="Grupo_1220359" data-name="Grupo 1220359" transform="translate(7.471 3.735)">
          <path id="Trazado_1169023" data-name="Trazado 1169023" d="M11.381,31.148A2.391,2.391,0,0,0,9,33.529V12.854a.913.913,0,0,1,.084-.383H14.6v2.8a.937.937,0,0,0,.934.934H34.214a.937.937,0,0,0,.934-.934V11.537a.937.937,0,0,0-.934-.934H16.471V5.084A.913.913,0,0,1,16.854,5H40.611l-.318.318.233.233A1.867,1.867,0,0,1,39.2,8.735h-.318v3.735H39.2a1.867,1.867,0,0,1,1.326,3.184l-.233.233,2.643,2.643.233-.233a1.867,1.867,0,0,1,3.184,1.326v.318h1.868V52.627a.937.937,0,0,1-.934.934H18.339v-.934a.937.937,0,0,0-.934-.934l.374-1.5a18.569,18.569,0,0,0,.56-4.529,18.624,18.624,0,0,0-2.661-9.609l-2.251-3.745a2.378,2.378,0,0,0-2.045-1.158Z" transform="translate(-9 -5)" fill="#e6e9ed"/>
        </g>
        <g id="Grupo_1220360" data-name="Grupo 1220360" transform="translate(3.735 50.428)">
          <path id="Trazado_1169024" data-name="Trazado 1169024" d="M18.074,56.868V60.6H5V55.934A.937.937,0,0,1,5.934,55H17.14a.937.937,0,0,1,.934.934Z" transform="translate(-5 -55)" fill="#ff826e"/>
        </g>
        <g id="Grupo_1220361" data-name="Grupo 1220361" transform="translate(0 19.611)">
          <path id="Trazado_1169025" data-name="Trazado 1169025" d="M8.471,34.654a2.391,2.391,0,0,1,2.381-2.381A2.378,2.378,0,0,1,12.9,33.43l2.251,3.745a18.624,18.624,0,0,1,2.661,9.609,18.569,18.569,0,0,1-.56,4.529l-.374,1.5H5.669L1.794,41.191a15.519,15.519,0,0,1,.215-10.4,15.35,15.35,0,0,1,2.9-4.781L8.471,22Z" transform="translate(-1 -22)" fill="#f0d0b4"/>
        </g>
        <g id="Grupo_1220362" data-name="Grupo 1220362" transform="translate(13.074 9.339)">
          <path id="Trazado_1169026" data-name="Trazado 1169026" d="M35.545,11.934v3.735a.937.937,0,0,1-.934.934H15.934A.937.937,0,0,1,15,15.669v-2.8h1.868V11H34.611A.937.937,0,0,1,35.545,11.934Z" transform="translate(-15 -11)" fill="#ff826e"/>
        </g>
        <g id="Grupo_1220363" data-name="Grupo 1220363" transform="translate(7.564 3.829)">
          <path id="Trazado_1169027" data-name="Trazado 1169027" d="M14.61,12.477H9.1a.759.759,0,0,1,.177-.271l6.929-6.929a.759.759,0,0,1,.271-.177v7.377Z" transform="translate(-9.1 -5.1)" fill="#b4dd7f"/>
        </g>
        <g id="Grupo_1220364" data-name="Grupo 1220364" transform="translate(37.354)">
          <path id="Trazado_1169028" data-name="Trazado 1169028" d="M48.471,19.36a1.867,1.867,0,0,0-3.184-1.326l-.233.233L42.41,15.624l.233-.233a1.867,1.867,0,0,0-1.326-3.184H41V8.471h.318a1.867,1.867,0,0,0,1.326-3.184l-.233-.233.318-.318h.009L45.053,2.41l.233.233a1.867,1.867,0,0,0,3.184-1.326V1h3.735v.318a1.867,1.867,0,0,0,3.184,1.326l.233-.233,2.643,2.643-.233.233A1.867,1.867,0,0,0,59.36,8.471h.318v3.735H59.36a1.867,1.867,0,0,0-1.326,3.184l.233.233-2.643,2.643-.233-.233a1.867,1.867,0,0,0-3.184,1.326v.318H48.471Zm-3.735-9.021a5.6,5.6,0,1,0,5.6-5.6A5.608,5.608,0,0,0,44.735,10.339Z" transform="translate(-41 -1)" fill="#ffc729"/>
        </g>
        <g id="Grupo_1220365" data-name="Grupo 1220365" transform="translate(41.09 3.735)">
          <path id="Trazado_1169029" data-name="Trazado 1169029" d="M50.6,5A5.6,5.6,0,1,1,45,10.6,5.608,5.608,0,0,1,50.6,5Zm1.868,5.6A1.868,1.868,0,1,0,50.6,12.471,1.873,1.873,0,0,0,52.471,10.6Z" transform="translate(-45 -5)" fill="#fcd770"/>
        </g>
      </g>
      <g id="Grupo_1220367" data-name="Grupo 1220367" transform="translate(0 0)">
        <path id="Trazado_1169030" data-name="Trazado 1169030" d="M50.8,8a2.8,2.8,0,1,0,2.8,2.8A2.8,2.8,0,0,0,50.8,8Zm0,3.735a.934.934,0,1,1,.934-.934A.935.935,0,0,1,50.8,11.735Z" transform="translate(-3.175 -0.529)"/>
        <path id="Trazado_1169031" data-name="Trazado 1169031" d="M56.645,13.074H57.9v-5.6H56.645a.934.934,0,0,1-.66-1.594l.887-.887L52.909,1.027l-.887.887a.934.934,0,0,1-1.594-.66V0h-5.6V1.254a.934.934,0,0,1-1.594.66l-.887-.887L39.637,3.735H16.262a1.855,1.855,0,0,0-1.32.547L8.018,11.206a1.855,1.855,0,0,0-.547,1.32v7.662L4.149,23.926A16.427,16.427,0,0,0,.843,40.035l3.6,10.807a1.86,1.86,0,0,0-.71,1.454v5.6H18.677V54.164H46.693A1.87,1.87,0,0,0,48.56,52.3V20.545h1.868V19.291a.934.934,0,0,1,1.594-.66l.887.887,3.962-3.962-.887-.887a.934.934,0,0,1,.66-1.594ZM10.659,11.206l4.283-4.283v4.283Zm4.283,1.868h1.868V11.206H33.619v3.735H14.942ZM1.868,34.84a14.54,14.54,0,0,1,3.678-9.672L7.471,23V33.2A8.354,8.354,0,0,0,8,36.145l2.327,6.206L12.08,41.7,9.753,35.489A6.482,6.482,0,0,1,9.339,33.2a1.452,1.452,0,0,1,2.7-.747L14.281,36.2a17.744,17.744,0,0,1,2.528,9.128,17.778,17.778,0,0,1-.529,4.3l-.2.8h-9.8L2.615,39.444a14.534,14.534,0,0,1-.747-4.6ZM16.809,56.031H5.6V52.3H16.809ZM46.693,52.3H18.677a1.864,1.864,0,0,0-.764-1.5l.178-.713a19.634,19.634,0,0,0,.586-4.755,19.612,19.612,0,0,0-2.794-10.088l-2.247-3.747a3.339,3.339,0,0,0-2.846-1.611,3.282,3.282,0,0,0-1.451.348V13.074h3.735v1.868a1.87,1.87,0,0,0,1.868,1.868H33.619a1.87,1.87,0,0,0,1.868-1.868V11.206a1.87,1.87,0,0,0-1.868-1.868H16.809V5.6H39l.274.274a.934.934,0,0,1-.66,1.594H37.354v5.6h1.254a.934.934,0,0,1,.66,1.594l-.887.887,3.962,3.962.887-.887a.934.934,0,0,1,1.594.66v1.254h1.868Zm7.363-39.36a2.75,2.75,0,0,0,.219,2.574l-1.412,1.412a2.809,2.809,0,0,0-4.239,1.756h-2a2.809,2.809,0,0,0-4.239-1.756l-1.412-1.412a2.809,2.809,0,0,0-1.756-4.239v-2a2.809,2.809,0,0,0,1.756-4.239l1.412-1.412a2.755,2.755,0,0,0,2.574.219,2.752,2.752,0,0,0,1.666-1.975h2a2.752,2.752,0,0,0,1.665,1.975,2.747,2.747,0,0,0,2.574-.219l1.412,1.412a2.81,2.81,0,0,0,1.755,4.239v2a2.749,2.749,0,0,0-1.975,1.664Z" transform="translate(0 0)"/>
        <path id="Trazado_1169032" data-name="Trazado 1169032" d="M50.537,4a6.537,6.537,0,1,0,6.537,6.537A6.544,6.544,0,0,0,50.537,4Zm0,11.206a4.669,4.669,0,1,1,4.669-4.669A4.675,4.675,0,0,1,50.537,15.206Z" transform="translate(-2.91 -0.265)"/>
        <path id="Trazado_1169033" data-name="Trazado 1169033" d="M14,20h3.735v1.868H14Z" transform="translate(-0.926 -1.323)"/>
        <path id="Trazado_1169034" data-name="Trazado 1169034" d="M20,20H36.809v1.868H20Z" transform="translate(-1.323 -1.323)"/>
        <path id="Trazado_1169035" data-name="Trazado 1169035" d="M14,24H36.413v1.868H14Z" transform="translate(-0.926 -1.587)"/>
        <path id="Trazado_1169036" data-name="Trazado 1169036" d="M14,28H28.942v1.868H14Z" transform="translate(-0.926 -1.852)"/>
        <path id="Trazado_1169037" data-name="Trazado 1169037" d="M32,28h5.6v1.868H32Z" transform="translate(-2.117 -1.852)"/>
        <path id="Trazado_1169038" data-name="Trazado 1169038" d="M20,32h1.868v1.868H20Z" transform="translate(-1.323 -2.117)"/>
        <path id="Trazado_1169039" data-name="Trazado 1169039" d="M24,32h1.868v1.868H24Z" transform="translate(-1.587 -2.117)"/>
        <path id="Trazado_1169040" data-name="Trazado 1169040" d="M28,32h1.868v1.868H28Z" transform="translate(-1.852 -2.117)"/>
        <path id="Trazado_1169041" data-name="Trazado 1169041" d="M43.44,39.785a1.856,1.856,0,0,0-1.076,1.466l-.411,3.287-1.006-1.676a2.321,2.321,0,0,0-4.242.632l-.059.235L35.334,41.1a2.232,2.232,0,0,0-4.186.56l-.309,1.546L27.229,39.2A3.625,3.625,0,0,0,24.541,38,2.544,2.544,0,0,0,22,40.541a2.454,2.454,0,0,0,.118.763l1.786,6.29,1.8-.51-1.8-6.33a.691.691,0,0,1-.035-.213.674.674,0,0,1,.673-.673,1.751,1.751,0,0,1,1.3.579l4.541,5.047-.425,2.125a2.89,2.89,0,0,0,2.833,3.456,2.283,2.283,0,0,0,1.7-3.811L32.4,44.939l.583-2.911a.379.379,0,0,1,.685-.092l1.314,2.627a1.867,1.867,0,0,0,3.482-.383l.059-.234a.472.472,0,0,1,.827-.123L40.352,45.5a1.867,1.867,0,0,0,3.454-.729l.411-3.287,1.545,1.03L46.8,40.959l-1.545-1.031a1.859,1.859,0,0,0-1.813-.144ZM33.1,48.512a.416.416,0,0,1-.309.694,1.021,1.021,0,0,1-1-1.221l.152-.76Z" transform="translate(-1.455 -2.513)"/>
      </g>
    </g>
  </g>
</svg>
