<svg xmlns="http://www.w3.org/2000/svg" xmlns:xlink="http://www.w3.org/1999/xlink" width="93.934" height="93.934" viewBox="0 0 93.934 93.934">
  <defs>
    <filter id="Trazado_982547" x="0" y="0" width="93.934" height="93.934" filterUnits="userSpaceOnUse">
      <feOffset dy="3" input="SourceAlpha"/>
      <feGaussianBlur stdDeviation="3" result="blur"/>
      <feFlood flood-opacity="0.161"/>
      <feComposite operator="in" in2="blur"/>
      <feComposite in="SourceGraphic"/>
    </filter>
  </defs>
  <g id="Grupo_1220386" data-name="Grupo 1220386" transform="translate(-191.066 -1331.697)">
    <g id="Grupo_1219860" data-name="Grupo 1219860" transform="translate(0 137)">
      <g id="Grupo_1215984" data-name="Grupo 1215984" transform="translate(-0.229 -2679.151)">
        <g id="Grupo_1214662" data-name="Grupo 1214662" transform="translate(0 -1254.151)">
          <g id="Grupo_1214432" data-name="Grupo 1214432" transform="translate(-0.771 -2738.674)">
            <g id="Grupo_1183196" data-name="Grupo 1183196" transform="translate(1 1016.674)">
              <g id="Grupo_1179610" data-name="Grupo 1179610" transform="translate(8 4723.467)">
                <g id="Grupo_1175227" data-name="Grupo 1175227" transform="translate(-5.967 140.533)">
                  <g id="Grupo_1167337" data-name="Grupo 1167337" transform="translate(198.033 1992)">
                    <g id="Grupo_1166720" data-name="Grupo 1166720">
                      <g id="Grupo_1164305" data-name="Grupo 1164305">
                        <g id="Grupo_1163948" data-name="Grupo 1163948">
                          <g id="Grupo_1158168" data-name="Grupo 1158168">
                            <g id="Grupo_1152576" data-name="Grupo 1152576">
                              <g id="Grupo_1148633" data-name="Grupo 1148633">
                                <g id="Grupo_1148525" data-name="Grupo 1148525">
                                  <g transform="matrix(1, 0, 0, 1, -9, -6)" filter="url(#Trazado_982547)">
                                    <g id="Trazado_982547-2" data-name="Trazado 982547" transform="translate(9 6)" fill="#eae4dc">
                                      <path d="M 37.966796875 74.43359375 C 33.04315185546875 74.43359375 28.26757431030273 73.46962738037109 23.77274131774902 71.56847381591797 C 19.43047523498535 69.73184967041016 15.53040790557861 67.10224914550781 12.18087482452393 63.75271987915039 C 8.831341743469238 60.4031867980957 6.201741218566895 56.50312042236328 4.365118980407715 52.16086196899414 C 2.463963508605957 47.66601943969727 1.499996900558472 42.89044189453125 1.499996900558472 37.966796875 C 1.499996900558472 33.04315185546875 2.463963508605957 28.26757431030273 4.365118980407715 23.77274131774902 C 6.201741218566895 19.43047523498535 8.831341743469238 15.53040790557861 12.18087482452393 12.18087482452393 C 15.53040790557861 8.831341743469238 19.43047523498535 6.201741218566895 23.77274131774902 4.365118980407715 C 28.26757431030273 2.463963508605957 33.04315185546875 1.499996900558472 37.966796875 1.499996900558472 C 42.89044189453125 1.499996900558472 47.66601943969727 2.463963508605957 52.16086196899414 4.365118980407715 C 56.50312042236328 6.201741218566895 60.4031867980957 8.831341743469238 63.75271987915039 12.18087482452393 C 67.10224914550781 15.53040790557861 69.73184967041016 19.43047523498535 71.56847381591797 23.77274131774902 C 73.46962738037109 28.26757431030273 74.43359375 33.04315185546875 74.43359375 37.966796875 C 74.43359375 42.89044189453125 73.46962738037109 47.66601943969727 71.56847381591797 52.16086196899414 C 69.73184967041016 56.50313186645508 67.10224914550781 60.4031867980957 63.75271987915039 63.75271987915039 C 60.4031867980957 67.10224914550781 56.50313186645508 69.73184967041016 52.16086196899414 71.56847381591797 C 47.66601943969727 73.46962738037109 42.89044189453125 74.43359375 37.966796875 74.43359375 Z" stroke="none"/>
                                      <path d="M 37.966796875 3 C 33.2449836730957 3 28.66600799560547 3.924095153808594 24.35705947875977 5.746635437011719 C 20.19359588623047 7.507637023925781 16.45379638671875 10.02928161621094 13.24153518676758 13.24153518676758 C 10.02927398681641 16.45379638671875 7.507621765136719 20.19359588623047 5.746635437011719 24.35705947875977 C 3.924095153808594 28.66600799560547 3 33.2449836730957 3 37.966796875 C 3 42.6886100769043 3.924095153808594 47.26758575439453 5.746635437011719 51.57653427124023 C 7.507621765136719 55.73999786376953 10.02927398681641 59.47979736328125 13.24153518676758 62.69205856323242 C 16.45379638671875 65.90431976318359 20.19359588623047 68.42597198486328 24.35705947875977 70.18695831298828 C 28.66600799560547 72.00949859619141 33.2449836730957 72.93359375 37.966796875 72.93359375 C 42.6886100769043 72.93359375 47.26758575439453 72.00949859619141 51.57653427124023 70.18695831298828 C 55.73999786376953 68.42597198486328 59.47979736328125 65.90431976318359 62.69205856323242 62.69205856323242 C 65.90431976318359 59.47979736328125 68.42597198486328 55.73999786376953 70.18695831298828 51.57653427124023 C 72.00949859619141 47.26758575439453 72.93359375 42.6886100769043 72.93359375 37.966796875 C 72.93359375 33.2449836730957 72.00949859619141 28.66600799560547 70.18695831298828 24.35705947875977 C 68.42597198486328 20.19359588623047 65.90431976318359 16.45379638671875 62.69205856323242 13.24153518676758 C 59.47979736328125 10.02928161621094 55.73999786376953 7.507637023925781 51.57653427124023 5.746635437011719 C 47.26758575439453 3.924095153808594 42.6886100769043 3 37.966796875 3 M 37.966796875 0 C 58.93528366088867 0 75.93359375 16.99832153320312 75.93359375 37.966796875 C 75.93359375 58.93528366088867 58.93528366088867 75.93359375 37.966796875 75.93359375 C 16.99831008911133 75.93359375 0 58.93528366088867 0 37.966796875 C 0 16.99832153320312 16.99831008911133 0 37.966796875 0 Z" stroke="none" fill="#665b4e"/>
                                    </g>
                                  </g>
                                </g>
                              </g>
                            </g>
                          </g>
                        </g>
                      </g>
                    </g>
                  </g>
                </g>
              </g>
            </g>
          </g>
        </g>
      </g>
    </g>
    <g id="resignacion" transform="translate(172.552 1342.669)">
      <g id="Grupo_1220384" data-name="Grupo 1220384" transform="translate(41.752 0.915)">
        <g id="Grupo_1220381" data-name="Grupo 1220381" transform="translate(0 4.289)">
          <g id="Grupo_1220376" data-name="Grupo 1220376">
            <path id="Trazado_1169099" data-name="Trazado 1169099" d="M77.717,99.04H49.264a.941.941,0,0,1-.941-.941V43.5a.941.941,0,0,1,.941-.941H85.048a.941.941,0,0,1,.941.941V91.339Z" transform="translate(-48.323 -42.563)" fill="#fdf6ec"/>
          </g>
          <g id="Grupo_1220377" data-name="Grupo 1220377" transform="translate(29.394 48.776)">
            <path id="Trazado_1169100" data-name="Trazado 1169100" d="M288.747,449.223v-6.982a.719.719,0,0,1,.719-.719h7.553Z" transform="translate(-288.747 -441.522)" fill="#fae2c0"/>
          </g>
          <g id="Grupo_1220378" data-name="Grupo 1220378" transform="translate(29.393 48.776)">
            <path id="Trazado_1169101" data-name="Trazado 1169101" d="M297.016,441.524l-8.272,7.7v-2.816l5.724-4.885Z" transform="translate(-288.744 -441.524)" fill="#fdd79b"/>
          </g>
          <g id="Grupo_1220380" data-name="Grupo 1220380" transform="translate(34.176 0)">
            <g id="Grupo_1220379" data-name="Grupo 1220379">
              <path id="Trazado_1169102" data-name="Trazado 1169102" d="M331.354,43.507V91.342h-2.548V43.507a.94.94,0,0,0-.941-.94h2.55a.94.94,0,0,1,.94.94Z" transform="translate(-327.864 -42.567)" fill="#fae2c0"/>
            </g>
          </g>
        </g>
        <g id="Grupo_1220382" data-name="Grupo 1220382" transform="translate(31.219)">
          <circle id="Elipse_14450" data-name="Elipse 14450" cx="9.812" cy="9.812" r="9.812" fill="#fd8087"/>
        </g>
        <g id="Grupo_1220383" data-name="Grupo 1220383" transform="translate(36.375 0.251)">
          <path id="Trazado_1169103" data-name="Trazado 1169103" d="M360.32,19.1a9.814,9.814,0,0,1-14.468,8.639,9.814,9.814,0,0,0,6.872-18.2A9.816,9.816,0,0,1,360.32,19.1Z" transform="translate(-345.852 -9.542)" fill="#fe646f"/>
        </g>
      </g>
      <g id="Grupo_1220385" data-name="Grupo 1220385" transform="translate(40.837 0)">
        <path id="Trazado_1169104" data-name="Trazado 1169104" d="M103.929,88.857H109.4a.915.915,0,0,0,0-1.83h-5.469a.915.915,0,0,0,0,1.83Z" transform="translate(-95.412 -76.387)"/>
        <path id="Trazado_1169105" data-name="Trazado 1169105" d="M103.929,125.6H109.4a.915.915,0,1,0,0-1.83h-5.469a.915.915,0,1,0,0,1.83Z" transform="translate(-95.412 -108.642)"/>
        <path id="Trazado_1169106" data-name="Trazado 1169106" d="M103.929,162.35h22.462a.915.915,0,1,0,0-1.83H103.929a.915.915,0,0,0,0,1.83Z" transform="translate(-95.412 -140.895)"/>
        <path id="Trazado_1169107" data-name="Trazado 1169107" d="M103.929,199.1h22.462a.915.915,0,0,0,0-1.83H103.929a.915.915,0,0,0,0,1.83Z" transform="translate(-95.412 -173.149)"/>
        <path id="Trazado_1169108" data-name="Trazado 1169108" d="M103.929,235.842h22.462a.915.915,0,1,0,0-1.83H103.929a.915.915,0,1,0,0,1.83Z" transform="translate(-95.412 -205.402)"/>
        <path id="Trazado_1169109" data-name="Trazado 1169109" d="M103.929,272.589h22.462a.915.915,0,0,0,0-1.83H103.929a.915.915,0,0,0,0,1.83Z" transform="translate(-95.412 -237.657)"/>
        <path id="Trazado_1169110" data-name="Trazado 1169110" d="M103.929,309.335h22.462a.915.915,0,1,0,0-1.83H103.929a.915.915,0,1,0,0,1.83Z" transform="translate(-95.412 -269.91)"/>
        <path id="Trazado_1169111" data-name="Trazado 1169111" d="M127.307,345.166a.915.915,0,0,0-.915-.915H103.929a.915.915,0,0,0,0,1.83h22.462A.915.915,0,0,0,127.307,345.166Z" transform="translate(-95.412 -302.164)"/>
        <path id="Trazado_1169112" data-name="Trazado 1169112" d="M91.623,9.709A.915.915,0,1,0,93.442,9.5,10.724,10.724,0,0,0,74.209,4.289H42.693a1.858,1.858,0,0,0-1.856,1.856v54.6A1.858,1.858,0,0,0,42.693,62.6H47.31a.915.915,0,0,0,0-1.83H42.693a.026.026,0,0,1-.026-.026V6.144a.026.026,0,0,1,.026-.026H73.1a10.723,10.723,0,0,0,5.4,14.444v32.5H71.865A1.636,1.636,0,0,0,70.231,54.7v6.067H51.4a.915.915,0,0,0,0,1.83H71.146c.464,0,.723-.338,1.032-.626l7.862-7.32a.984.984,0,0,0,.292-.671V21.172a10.735,10.735,0,0,0,12.684-7.219.915.915,0,1,0-1.746-.55,8.9,8.9,0,1,1,.351-3.694ZM72.061,59.578V54.894h5.031Z" transform="translate(-40.837 0)"/>
        <path id="Trazado_1169113" data-name="Trazado 1169113" d="M358.229,53.975a.915.915,0,0,0-1.294.009l-2.55,2.585-2.55-2.585a.915.915,0,1,0-1.3,1.285l2.567,2.6-2.567,2.6a.915.915,0,1,0,1.3,1.285l2.55-2.585,2.55,2.585a.915.915,0,0,0,1.3-1.285l-2.567-2.6,2.567-2.6A.915.915,0,0,0,358.229,53.975Z" transform="translate(-312.439 -47.145)"/>
        <path id="Trazado_1169114" data-name="Trazado 1169114" d="M199.043,383.825a.915.915,0,0,0-1.211.457v0a5.961,5.961,0,0,1-4.011,3.287.915.915,0,1,0,.412,1.783A7.788,7.788,0,0,0,198,387.216a1.511,1.511,0,0,0,.928.729,2.541,2.541,0,0,0,2.144-.753,2.946,2.946,0,0,0,3.336-.554.915.915,0,1,0-1.306-1.282,1.127,1.127,0,0,1-1.461.034.915.915,0,0,0-1.187-.05c-.079.061-.162.129-.249.2a7.76,7.76,0,0,1-.687.515,3.857,3.857,0,0,1,0-1.044A.915.915,0,0,0,199.043,383.825Zm.457,1.211.005-.012Z" transform="translate(-174.494 -336.828)"/>
      </g>
    </g>
  </g>
</svg>
