<svg xmlns="http://www.w3.org/2000/svg" xmlns:xlink="http://www.w3.org/1999/xlink" width="93.934" height="93.934" viewBox="0 0 93.934 93.934">
  <defs>
    <filter id="Trazado_982547" x="0" y="0" width="93.934" height="93.934" filterUnits="userSpaceOnUse">
      <feOffset dy="3" input="SourceAlpha"/>
      <feGaussianBlur stdDeviation="3" result="blur"/>
      <feFlood flood-opacity="0.161"/>
      <feComposite operator="in" in2="blur"/>
      <feComposite in="SourceGraphic"/>
    </filter>
  </defs>
  <g id="Grupo_1220390" data-name="Grupo 1220390" transform="translate(-611.066 -1331.697)">
    <g id="Grupo_1219861" data-name="Grupo 1219861" transform="translate(0 137)">
      <g id="Grupo_1215985" data-name="Grupo 1215985" transform="translate(-0.229 -2679.151)">
        <g id="Grupo_1214663" data-name="Grupo 1214663" transform="translate(0 -1254.151)">
          <g id="Grupo_1214433" data-name="Grupo 1214433" transform="translate(-0.771 -2738.674)">
            <g id="Grupo_1183190" data-name="Grupo 1183190" transform="translate(1 1016.674)">
              <g id="Grupo_1179611" data-name="Grupo 1179611" transform="translate(428 4723.467)">
                <g id="Grupo_1175227" data-name="Grupo 1175227" transform="translate(-5.967 140.533)">
                  <g id="Grupo_1167337" data-name="Grupo 1167337" transform="translate(198.033 1992)">
                    <g id="Grupo_1166720" data-name="Grupo 1166720">
                      <g id="Grupo_1164305" data-name="Grupo 1164305">
                        <g id="Grupo_1163948" data-name="Grupo 1163948">
                          <g id="Grupo_1158168" data-name="Grupo 1158168">
                            <g id="Grupo_1152576" data-name="Grupo 1152576">
                              <g id="Grupo_1148633" data-name="Grupo 1148633">
                                <g id="Grupo_1148525" data-name="Grupo 1148525">
                                  <g transform="matrix(1, 0, 0, 1, -9, -6)" filter="url(#Trazado_982547)">
                                    <g id="Trazado_982547-2" data-name="Trazado 982547" transform="translate(9 6)" fill="#eae4dc">
                                      <path d="M 37.966796875 74.43359375 C 33.04315185546875 74.43359375 28.26757431030273 73.46962738037109 23.77274131774902 71.56847381591797 C 19.43047523498535 69.73184967041016 15.53040790557861 67.10224914550781 12.18087482452393 63.75271987915039 C 8.831341743469238 60.4031867980957 6.201741218566895 56.50312042236328 4.365118980407715 52.16086196899414 C 2.463963508605957 47.66601943969727 1.499996900558472 42.89044189453125 1.499996900558472 37.966796875 C 1.499996900558472 33.04315185546875 2.463963508605957 28.26757431030273 4.365118980407715 23.77274131774902 C 6.201741218566895 19.43047523498535 8.831341743469238 15.53040790557861 12.18087482452393 12.18087482452393 C 15.53040790557861 8.831341743469238 19.43047523498535 6.201741218566895 23.77274131774902 4.365118980407715 C 28.26757431030273 2.463963508605957 33.04315185546875 1.499996900558472 37.966796875 1.499996900558472 C 42.89044189453125 1.499996900558472 47.66601943969727 2.463963508605957 52.16086196899414 4.365118980407715 C 56.50312042236328 6.201741218566895 60.4031867980957 8.831341743469238 63.75271987915039 12.18087482452393 C 67.10224914550781 15.53040790557861 69.73184967041016 19.43047523498535 71.56847381591797 23.77274131774902 C 73.46962738037109 28.26757431030273 74.43359375 33.04315185546875 74.43359375 37.966796875 C 74.43359375 42.89044189453125 73.46962738037109 47.66601943969727 71.56847381591797 52.16086196899414 C 69.73184967041016 56.50313186645508 67.10224914550781 60.4031867980957 63.75271987915039 63.75271987915039 C 60.4031867980957 67.10224914550781 56.50313186645508 69.73184967041016 52.16086196899414 71.56847381591797 C 47.66601943969727 73.46962738037109 42.89044189453125 74.43359375 37.966796875 74.43359375 Z" stroke="none"/>
                                      <path d="M 37.966796875 3 C 33.2449836730957 3 28.66600799560547 3.924095153808594 24.35705947875977 5.746635437011719 C 20.19359588623047 7.507637023925781 16.45379638671875 10.02928161621094 13.24153518676758 13.24153518676758 C 10.02927398681641 16.45379638671875 7.507621765136719 20.19359588623047 5.746635437011719 24.35705947875977 C 3.924095153808594 28.66600799560547 3 33.2449836730957 3 37.966796875 C 3 42.6886100769043 3.924095153808594 47.26758575439453 5.746635437011719 51.57653427124023 C 7.507621765136719 55.73999786376953 10.02927398681641 59.47979736328125 13.24153518676758 62.69205856323242 C 16.45379638671875 65.90431976318359 20.19359588623047 68.42597198486328 24.35705947875977 70.18695831298828 C 28.66600799560547 72.00949859619141 33.2449836730957 72.93359375 37.966796875 72.93359375 C 42.6886100769043 72.93359375 47.26758575439453 72.00949859619141 51.57653427124023 70.18695831298828 C 55.73999786376953 68.42597198486328 59.47979736328125 65.90431976318359 62.69205856323242 62.69205856323242 C 65.90431976318359 59.47979736328125 68.42597198486328 55.73999786376953 70.18695831298828 51.57653427124023 C 72.00949859619141 47.26758575439453 72.93359375 42.6886100769043 72.93359375 37.966796875 C 72.93359375 33.2449836730957 72.00949859619141 28.66600799560547 70.18695831298828 24.35705947875977 C 68.42597198486328 20.19359588623047 65.90431976318359 16.45379638671875 62.69205856323242 13.24153518676758 C 59.47979736328125 10.02928161621094 55.73999786376953 7.507637023925781 51.57653427124023 5.746635437011719 C 47.26758575439453 3.924095153808594 42.6886100769043 3 37.966796875 3 M 37.966796875 0 C 58.93528366088867 0 75.93359375 16.99832153320312 75.93359375 37.966796875 C 75.93359375 58.93528366088867 58.93528366088867 75.93359375 37.966796875 75.93359375 C 16.99831008911133 75.93359375 0 58.93528366088867 0 37.966796875 C 0 16.99832153320312 16.99831008911133 0 37.966796875 0 Z" stroke="none" fill="#665b4e"/>
                                    </g>
                                  </g>
                                </g>
                              </g>
                            </g>
                          </g>
                        </g>
                      </g>
                    </g>
                  </g>
                </g>
              </g>
            </g>
          </g>
        </g>
      </g>
    </g>
    <g id="contrato_6_" data-name="contrato (6)" transform="translate(594.735 1343.139)">
      <g id="Grupo_1220388" data-name="Grupo 1220388" transform="translate(36.738 0.937)">
        <path id="Trazado_1169115" data-name="Trazado 1169115" d="M152.395,70.773H118.6V48.809a2.794,2.794,0,0,1,2.794-2.794h28.2a2.794,2.794,0,0,1,2.794,2.794V70.773Z" transform="translate(-109.198 -41.205)" fill="#dff6fd"/>
        <path id="Trazado_1169116" data-name="Trazado 1169116" d="M343.362,48.8V70.769h-3.746V48.8a2.8,2.8,0,0,0-2.795-2.795h3.746A2.8,2.8,0,0,1,343.362,48.8Z" transform="translate(-300.166 -41.201)" fill="#c8effe"/>
        <path id="Trazado_1169117" data-name="Trazado 1169117" d="M43.3,203.684l9.868,1.13a3.307,3.307,0,0,1,1.962.947l2.846,2.846,11.17-11.17-7.568-7.568L46.459,186.3l-2.643-.624Z" transform="translate(-43.302 -163.424)" fill="#ffcebf"/>
        <path id="Trazado_1169118" data-name="Trazado 1169118" d="M171.494,202.011h-6.731l-1.251,5.563-11.737,14.853a11.275,11.275,0,0,0-.687,1,2.882,2.882,0,0,1-5.082-2.686,2.882,2.882,0,1,1-5.287-2.3,2.883,2.883,0,1,1-5.288-2.3,2.882,2.882,0,0,1-5.287-2.3l11.264-18.387,2.658-3.261,1.668-2.047a4.221,4.221,0,0,1,4.236-1.2h0l21.272-4.1Z" transform="translate(-119.09 -162.706)" fill="#c68d7a"/>
        <path id="Trazado_1169119" data-name="Trazado 1169119" d="M279.241,322.24h3.746l-1.251,5.563L270,342.657a11.5,11.5,0,0,0-.687,1,2.881,2.881,0,0,1-3.585,1.105,2.8,2.8,0,0,1-.726-.453,2.842,2.842,0,0,0,.564-.652,11.5,11.5,0,0,1,.687-1L277.99,327.8Z" transform="translate(-237.315 -282.935)" fill="#bc7c63"/>
        <path id="Trazado_1169120" data-name="Trazado 1169120" d="M177.772,213.824l-.983-5.693a6.881,6.881,0,0,0-4.724-5.4l-7.416-1.987a4.181,4.181,0,0,0-3.5.624l-2.6,1.833-2.078,1.882-1.324,1.2,4.435,6.62a12.015,12.015,0,0,0,9.235-3.519l4.006,5.717a3.489,3.489,0,0,0,2.214,1.43A2.344,2.344,0,0,0,177.772,213.824Z" transform="translate(-141.185 -176.49)" fill="#ffcebf"/>
        <path id="Trazado_1169121" data-name="Trazado 1169121" d="M222.735,216.536a3.485,3.485,0,0,1-1.359-.574,2.348,2.348,0,0,0,.729-2.137l-.983-5.692a6.882,6.882,0,0,0-4.723-5.4l-6.748-1.807a4.166,4.166,0,0,1,2.691-.179l7.416,1.986a6.882,6.882,0,0,1,4.723,5.4l.983,5.692a2.344,2.344,0,0,1-2.729,2.711Z" transform="translate(-188.876 -176.491)" fill="#ffb09e"/>
        <path id="Trazado_1169122" data-name="Trazado 1169122" d="M350.283,361.393a2.882,2.882,0,0,0-.015,4.076l2.372,2.389a2.882,2.882,0,1,0,4.09-4.061l-2.372-2.389A2.882,2.882,0,0,0,350.283,361.393Z" transform="translate(-311.202 -316.466)" fill="#ffcebf"/>
        <path id="Trazado_1169123" data-name="Trazado 1169123" d="M365.99,365.83a2.883,2.883,0,0,1-4.562,2.341,2.806,2.806,0,0,0,.351-.3,2.879,2.879,0,0,0,.015-4.075l-2.372-2.39a2.906,2.906,0,0,0-.366-.311,2.885,2.885,0,0,1,3.726.311l2.372,2.39A2.87,2.87,0,0,1,365.99,365.83Z" transform="translate(-319.623 -316.469)" fill="#ffb09e"/>
        <path id="Trazado_1169124" data-name="Trazado 1169124" d="M369.8,315.637a2.882,2.882,0,0,0-.015,4.076l2.372,2.389a2.882,2.882,0,1,0,4.09-4.061l-2.372-2.389A2.882,2.882,0,0,0,369.8,315.637Z" transform="translate(-328.284 -276.424)" fill="#ffcebf"/>
        <path id="Trazado_1169125" data-name="Trazado 1169125" d="M385.51,320.072a2.882,2.882,0,0,1-4.562,2.341,2.807,2.807,0,0,0,.35-.3,2.881,2.881,0,0,0,.015-4.076l-2.372-2.39a2.906,2.906,0,0,0-.366-.311,2.885,2.885,0,0,1,3.726.311l2.372,2.39A2.869,2.869,0,0,1,385.51,320.072Z" transform="translate(-336.706 -276.426)" fill="#ffb09e"/>
        <path id="Trazado_1169126" data-name="Trazado 1169126" d="M317.528,393.914a2.882,2.882,0,0,0-.015,4.076l2.372,2.389a2.882,2.882,0,0,0,4.09-4.061l-2.372-2.389A2.882,2.882,0,0,0,317.528,393.914Z" transform="translate(-282.537 -344.926)" fill="#ffcebf"/>
        <path id="Trazado_1169127" data-name="Trazado 1169127" d="M333.234,398.351a2.883,2.883,0,0,1-4.562,2.341,2.813,2.813,0,0,0,.351-.3,2.881,2.881,0,0,0,.015-4.076l-2.372-2.388a2.817,2.817,0,0,0-.366-.311,2.884,2.884,0,0,1,3.726.311l2.372,2.388A2.872,2.872,0,0,1,333.234,398.351Z" transform="translate(-290.958 -344.928)" fill="#ffb09e"/>
        <path id="Trazado_1169128" data-name="Trazado 1169128" d="M284.772,426.435a2.882,2.882,0,0,0-.015,4.076l2.372,2.389a2.882,2.882,0,1,0,4.09-4.061l-2.372-2.389A2.882,2.882,0,0,0,284.772,426.435Z" transform="translate(-253.872 -373.386)" fill="#ffcebf"/>
        <path id="Trazado_1169129" data-name="Trazado 1169129" d="M300.479,430.869a2.883,2.883,0,0,1-4.562,2.341,2.806,2.806,0,0,0,.351-.3,2.881,2.881,0,0,0,.015-4.076l-2.372-2.388a2.8,2.8,0,0,0-.366-.311,2.882,2.882,0,0,1,3.726.311l2.372,2.388A2.873,2.873,0,0,1,300.479,430.869Z" transform="translate(-262.293 -373.385)" fill="#ffb09e"/>
        <g id="Grupo_1220387" data-name="Grupo 1220387" transform="translate(35.078 0)">
          <circle id="Elipse_14451" data-name="Elipse 14451" cx="9.02" cy="9.02" r="9.02" fill="#fd8087"/>
          <path id="Trazado_1169130" data-name="Trazado 1169130" d="M370.582,51.238l-1.013-1.013,1.013-1.013a1.873,1.873,0,0,0-2.649-2.649l-1.013,1.013-1.013-1.013a1.873,1.873,0,1,0-2.649,2.649l1.013,1.013-1.013,1.013a1.873,1.873,0,0,0,2.649,2.649l1.013-1.013,1.013,1.013a1.873,1.873,0,0,0,2.649-2.649Z" transform="translate(-357.901 -41.206)" fill="#dff6fd"/>
        </g>
        <circle id="Elipse_14452" data-name="Elipse 14452" cx="9.02" cy="9.02" r="9.02" transform="translate(35.079 0)" fill="#fd8087"/>
        <path id="Trazado_1169131" data-name="Trazado 1169131" d="M392.327,16.52a9.022,9.022,0,0,1-10.892,8.824,9.021,9.021,0,0,0,0-17.648,9.022,9.022,0,0,1,10.892,8.824Z" transform="translate(-339.208 -7.5)" fill="#fe646f"/>
        <path id="Trazado_1169132" data-name="Trazado 1169132" d="M370.587,51.239l-1.013-1.013,1.013-1.013a1.873,1.873,0,1,0-2.649-2.649l-1.013,1.013-1.013-1.013a1.873,1.873,0,1,0-2.649,2.649l1.013,1.013-1.013,1.013a1.873,1.873,0,0,0,2.649,2.649l1.013-1.013,1.013,1.013a1.873,1.873,0,0,0,2.649-2.649Z" transform="translate(-322.827 -41.206)" fill="#dff6fd"/>
      </g>
      <g id="Grupo_1220389" data-name="Grupo 1220389" transform="translate(35.801 0)">
        <path id="Trazado_1169133" data-name="Trazado 1169133" d="M40.641,24.1l16.175,3.82a.935.935,0,0,0,1.438.5l2.6-1.833a3.235,3.235,0,0,1,2.716-.485l7.4,1.982a5.921,5.921,0,0,1,4.063,4.656l.983,5.693c.2,2.021-2.325,2.028-3.253.584L68.747,33.3a.938.938,0,0,0-1.468-.083,10.983,10.983,0,0,1-8.484,3.2.937.937,0,0,0-.1,1.871l.053,0-.721,1.177a.937.937,0,1,0,1.6.978l1.366-2.229a13.058,13.058,0,0,0,6.846-2.957l3.384,4.829c2.364,3.342,7.1,1.814,6.633-1.977l-.983-5.693A7.788,7.788,0,0,0,74,27.6L92.672,24a.937.937,0,1,0-.354-1.839l-7.843,1.511V19.913A9.963,9.963,0,1,0,82.6,19.74v4.3L71.257,26.222l-7.207-1.931a5.1,5.1,0,0,0-4.282.764l-1.737,1.227-7.349-1.735v-16A1.86,1.86,0,0,1,52.54,6.683H71.592a.937.937,0,1,0,0-1.873H52.54a3.735,3.735,0,0,0-3.731,3.731V24.1l-7.737-1.827a.937.937,0,0,0-.431,1.823ZM76.357,9.957a8.084,8.084,0,1,1,8.084,8.083c-.272,0-.541-.014-.806-.04h-.006a8.1,8.1,0,0,1-7.272-8.043Z" transform="translate(-39.405 0)"/>
        <path id="Trazado_1169134" data-name="Trazado 1169134" d="M89.142,308.246H82.783a3.819,3.819,0,0,0-5.758,4.875,3.874,3.874,0,0,0-2.984,3.982,3.957,3.957,0,0,0-2.972,1.1,3.81,3.81,0,0,0-1.117,2.966,3.816,3.816,0,0,0-2.993,6.5l1.563,1.574c-.212.288-.4.582-.579.862a1.956,1.956,0,0,1-2.422.745,1.942,1.942,0,0,1-1.008-2.557h0a.937.937,0,0,0-1.718-.746h0a1.947,1.947,0,0,1-2.56,1.009,2.025,2.025,0,0,1-1.009-2.559.937.937,0,0,0-1.718-.747,1.95,1.95,0,0,1-2.562,1.008,2.026,2.026,0,0,1-1.008-2.559.937.937,0,0,0-1.718-.746,1.983,1.983,0,0,1-2.559,1.01,1.948,1.948,0,0,1-1.032-2.5L53.5,313.5a.937.937,0,0,0-1.6-.978l-.649,1.059-2.024-2.024a4.261,4.261,0,0,0-2.518-1.215l-9.868-1.131a.937.937,0,0,0-.213,1.861L46.5,312.2a2.38,2.38,0,0,1,1.407.679l2.343,2.343-3.255,5.314a3.849,3.849,0,0,0,1.921,5.14,3.986,3.986,0,0,0,3.162-.055,3.912,3.912,0,0,0,2.124,2.351,3.812,3.812,0,0,0,3.162-.056,3.912,3.912,0,0,0,2.126,2.353,3.812,3.812,0,0,0,3.161-.056,3.827,3.827,0,0,0,.946,1.551,3.8,3.8,0,0,0,2.684,1.113,3.841,3.841,0,0,0,3.247-1.779c.132-.21.254-.4.375-.571a3.814,3.814,0,0,0,2.138.653,3.874,3.874,0,0,0,3.809-4.071,3.87,3.87,0,0,0,4.1-3.794c0-.09,0-.179-.009-.267a3.966,3.966,0,0,0,2.972-1.1,3.825,3.825,0,0,0,.57-4.7,3.817,3.817,0,0,0,1.887-6.418l-.709-.714h4.482a.937.937,0,0,0,0-1.874Zm-15.73,20.5a1.948,1.948,0,0,1-2.751-.01l-2.372-2.389A1.946,1.946,0,1,1,71.05,323.6l2.372,2.389A1.948,1.948,0,0,1,73.412,328.742Zm4.665-5.435a1.946,1.946,0,0,1-3.326,1.364l-2.372-2.389a1.948,1.948,0,0,1,.01-2.751,1.992,1.992,0,0,1,2.751.01l2.372,2.389A1.933,1.933,0,0,1,78.077,323.307Zm3.516-2.688a1.932,1.932,0,0,1-1.371.565h-.007a1.933,1.933,0,0,1-1.374-.575l-2.372-2.389a1.932,1.932,0,0,1-.565-1.378,1.964,1.964,0,0,1,3.2-1.475l2.494,2.5a1.948,1.948,0,0,1-.01,2.751Zm2.438-5.714a1.947,1.947,0,0,1-2.628.1l-2.495-2.5a1.946,1.946,0,1,1,2.761-2.742l2.372,2.389a1.946,1.946,0,0,1-.01,2.751Z" transform="translate(-35.801 -268.941)"/>
        <path id="Trazado_1169135" data-name="Trazado 1169135" d="M360.013,48l.35-.35.35.35a2.81,2.81,0,0,0,3.974-3.974l-.35-.35.35-.35a2.81,2.81,0,0,0-3.974-3.974l-.35.35-.35-.35a2.81,2.81,0,0,0-3.974,3.974l.35.35-.35.35A2.81,2.81,0,0,0,360.013,48Zm-2.924-1.987a.93.93,0,0,1,.274-.662l1.013-1.013a.937.937,0,0,0,0-1.325L357.363,42a.937.937,0,0,1,1.325-1.325l1.013,1.013a.937.937,0,0,0,1.324,0l1.013-1.013A.937.937,0,1,1,363.362,42l-1.013,1.013a.937.937,0,0,0,0,1.325l1.013,1.013a.937.937,0,0,1-1.325,1.324l-1.013-1.013a.937.937,0,0,0-1.324,0l-1.013,1.013a.937.937,0,0,1-1.6-.662Z" transform="translate(-315.327 -33.714)"/>
        <path id="Trazado_1169136" data-name="Trazado 1169136" d="M203.953,90.457a.937.937,0,1,0,0,1.873h10.836a.937.937,0,1,0,0-1.873Z" transform="translate(-182.134 -79.161)"/>
        <path id="Trazado_1169137" data-name="Trazado 1169137" d="M200.377,127.622H184.743a.937.937,0,0,0,0,1.873h15.634a.937.937,0,0,0,0-1.873Z" transform="translate(-165.323 -111.684)"/>
        <path id="Trazado_1169138" data-name="Trazado 1169138" d="M200.377,162.721H184.743a.937.937,0,0,0,0,1.873h15.634a.937.937,0,0,0,0-1.873Z" transform="translate(-165.323 -142.4)"/>
      </g>
    </g>
  </g>
</svg>
