<svg xmlns="http://www.w3.org/2000/svg" xmlns:xlink="http://www.w3.org/1999/xlink" width="400" height="231" viewBox="0 0 400 231">
  <defs>
    <clipPath id="clip-path">
      <rect id="Rectángulo_421287" data-name="Rectángulo 421287" width="400" height="231" transform="translate(180 962)" fill="#fff" stroke="#707070" stroke-width="1"/>
    </clipPath>
  </defs>
  <g id="Enmascarar_grupo_1211475" data-name="Enmascarar grupo 1211475" transform="translate(-180 -962)" clip-path="url(#clip-path)">
    <g id="Grupo_1220572" data-name="Grupo 1220572" transform="translate(1 -8.532)">
      <rect id="Rectángulo_421286" data-name="Rectángulo 421286" width="358" height="136" rx="19" transform="translate(200 1043)" fill="#899e78"/>
      <g id="Grupo_1220571" data-name="Grupo 1220571" transform="translate(-4291.696 -3096.225)">
        <g id="Grupo_1220529" data-name="Grupo 1220529" transform="translate(4530 4105.461)">
          <ellipse id="Elipse_14464" data-name="Elipse 14464" cx="140.696" cy="6.162" rx="140.696" ry="6.162" transform="translate(0 157.742)" fill="#cfd7c8"/>
          <path id="Trazado_1169587" data-name="Trazado 1169587" d="M473.017,1214.473c-1.6-2.008-3.861-3.668-4.524-6.15-.783-2.933.938-6.019.514-9.021-.536-3.781-4.178-6.232-6.154-9.5-1.937-3.2-1.03-4.275-1.205-8.011-.265-5.628-4.881-12.735-11.033-10.83-6.244,1.939-5.226,7.742-4.126,12.111.783,3.11.271,3.558-.49,6.674-.918,3.763-3.881,7.4-2.644,11.071.765,2.269,2.992,3.8,3.8,6.061.912,2.556-.193,5.329-.618,8.011-.9,5.646.389,10.342,4.491,15a16.091,16.091,0,0,0,1.373,1.17c5.748-.325,12.211-.626,19.3-.893l.052-.056c3.754-4.1,4.875-11.129,1.269-15.641Z" transform="translate(-422.955 -1070.93)" fill="#dbe5f2" fill-rule="evenodd"/>
          <path id="Trazado_1169588" data-name="Trazado 1169588" d="M471.629,1196.481a.493.493,0,0,0-.92.355,35.772,35.772,0,0,1,1.249,4c-.141-.128-.287-.253-.438-.375a11.424,11.424,0,0,0-2.281-1.413.494.494,0,0,0-.655.235.489.489,0,0,0,.235.655,10.433,10.433,0,0,1,2.086,1.289,8.344,8.344,0,0,1,1.5,1.556c.632,3.013,1.044,6.25,1.414,9.665a17.461,17.461,0,0,0-1.831-2.391,12.819,12.819,0,0,0-3.742-2.855.491.491,0,1,0-.436.881,11.877,11.877,0,0,1,3.453,2.642,18.393,18.393,0,0,1,2.813,4.158l.1.924c.209,2.036.426,4.122.679,6.254a.349.349,0,0,0,.008.062c.267,2.228.578,4.5.97,6.816a28.263,28.263,0,0,0-3.443-4.365,20.863,20.863,0,0,0-5.923-4.333.494.494,0,0,0-.428.891,19.859,19.859,0,0,1,5.642,4.13,29.641,29.641,0,0,1,4.664,6.467,81.2,81.2,0,0,0,2.407,9.342h0l0,.014h0q.753,2.322,1.7,4.666a28.482,28.482,0,0,0-12.286-6.208.495.495,0,1,0-.223.964,27.743,27.743,0,0,1,7.274,2.781,28.409,28.409,0,0,1,6.188,4.684q.654,1.458,1.4,2.919l1.086-.048a65.833,65.833,0,0,1-4.192-10.019,18.985,18.985,0,0,1,.857-7.218,26.458,26.458,0,0,1,3.754-7.33.493.493,0,1,0-.8-.57,27.423,27.423,0,0,0-3.889,7.6,20.455,20.455,0,0,0-.877,4.325,104.455,104.455,0,0,1-2.9-15.558,31.073,31.073,0,0,1,1.941-5.367,11.631,11.631,0,0,1,2.315-3.367.493.493,0,0,0-.677-.717,12.536,12.536,0,0,0-2.526,3.652,26.963,26.963,0,0,0-1.337,3.327q-.215-1.975-.41-3.893l-.1-.994a.491.491,0,0,0,0-.054c-.7-6.776-1.411-12.942-3.415-18.182Z" transform="translate(-441.133 -1091.365)" fill="#fff" fill-rule="evenodd"/>
          <path id="Trazado_1169589" data-name="Trazado 1169589" d="M388.033,1303.949c-1.713-.925-3.777-1.413-4.975-2.945-1.415-1.809-1.128-4.469-2.315-6.435-1.492-2.474-4.758-3.1-7.1-4.793-2.3-1.656-1.984-2.674-3.214-5.222-1.853-3.841-7.174-7.423-10.894-4.274-3.775,3.2-1.347,6.941.713,9.659,1.468,1.934,1.243,2.4,1.638,4.793.474,2.893-.512,6.306,1.438,8.5,1.207,1.355,3.21,1.761,4.441,3.1,1.393,1.51,1.446,3.769,1.944,5.764a12.827,12.827,0,0,0,3.64,6.495c4.921-.373,10.707-.719,17.237-1.038a9.748,9.748,0,0,0,1.2-2.321c1.4-3.966.1-9.2-3.75-11.27Z" transform="translate(-354.489 -1157.756)" fill="#c4ddf7" fill-rule="evenodd"/>
          <path id="Trazado_1169590" data-name="Trazado 1169590" d="M379.77,1298.208a.373.373,0,0,0-.538.518,26.7,26.7,0,0,1,2.056,2.417c-.138-.048-.275-.09-.414-.131a8.687,8.687,0,0,0-2.008-.307.374.374,0,0,0-.03.747,7.923,7.923,0,0,1,1.835.279,6.413,6.413,0,0,1,1.508.637c1.331,1.911,2.578,4.047,3.847,6.314a13.329,13.329,0,0,0-1.984-1.124,9.655,9.655,0,0,0-3.453-.879.373.373,0,0,0-.046.745,8.995,8.995,0,0,1,3.19.817,13.9,13.9,0,0,1,3.192,2.062l.341.615c.749,1.357,1.516,2.745,2.327,4.156a.366.366,0,0,0,.022.04c.845,1.472,1.737,2.965,2.7,4.461a21.56,21.56,0,0,0-3.692-2.022,15.806,15.806,0,0,0-5.409-1.263.374.374,0,0,0-.034.747,15.044,15.044,0,0,1,5.154,1.205,22.343,22.343,0,0,1,5.164,3.124,61.766,61.766,0,0,0,4.445,5.8h0l0,.008h0q1.213,1.392,2.57,2.745a21.546,21.546,0,0,0-10.4-.685.373.373,0,1,0,.13.735,20.948,20.948,0,0,1,5.891-.217,21.45,21.45,0,0,1,5.7,1.43q.974.9,2.024,1.767l1.114-.058a49.555,49.555,0,0,1-6.441-6.184,14.41,14.41,0,0,1-1.542-5.282,19.991,19.991,0,0,1,.442-6.218.373.373,0,1,0-.729-.159,20.793,20.793,0,0,0-.456,6.449,15.593,15.593,0,0,0,.671,3.274,79.207,79.207,0,0,1-6.63-9.978,23.661,23.661,0,0,1-.237-4.311,8.8,8.8,0,0,1,.616-3.032.374.374,0,1,0-.685-.3,9.484,9.484,0,0,0-.677,3.291,20.446,20.446,0,0,0,.056,2.714q-.738-1.312-1.44-2.59l-.367-.663c-.006-.012-.014-.024-.02-.036-2.5-4.513-4.817-8.6-7.766-11.653Z" transform="translate(-371.243 -1172.986)" fill="#fff" fill-rule="evenodd"/>
          <path id="Trazado_1169591" data-name="Trazado 1169591" d="M1462.447,1188.846c1.751-2.192,4.216-4,4.939-6.714.853-3.2-1.026-6.567-.56-9.844.586-4.126,4.558-6.8,6.716-10.366,2.112-3.492,1.124-4.668,1.315-8.742.291-6.142,5.327-13.9,12.039-11.816,6.816,2.114,5.7,8.447,4.5,13.215-.855,3.395-.3,3.883.534,7.282,1,4.108,4.238,8.077,2.885,12.083-.835,2.476-3.265,4.15-4.144,6.612-1,2.789.209,5.818.673,8.742.978,6.162-.424,11.286-4.9,16.375a17.818,17.818,0,0,1-1.7,1.423c-6.192-.315-13.1-.6-20.612-.859-.1-.106-.207-.213-.307-.323C1459.735,1201.441,1458.514,1193.769,1462.447,1188.846Z" transform="translate(-1237.333 -1047.205)" fill="#dbe5f2" fill-rule="evenodd"/>
          <path id="Trazado_1169592" data-name="Trazado 1169592" d="M1523.208,1169.2a.539.539,0,0,1,1.006.385,38.983,38.983,0,0,0-1.363,4.365c.155-.137.315-.275.48-.406a12.554,12.554,0,0,1,2.489-1.54.537.537,0,0,1,.458.972,11.388,11.388,0,0,0-2.277,1.406,9.236,9.236,0,0,0-1.64,1.7c-.687,3.287-1.138,6.822-1.544,10.547a18.929,18.929,0,0,1,2-2.61,13.961,13.961,0,0,1,4.084-3.116.537.537,0,0,1,.476.962,12.945,12.945,0,0,0-3.771,2.883,20.159,20.159,0,0,0-3.07,4.536l-.1,1.012c-.229,2.219-.464,4.5-.743,6.824a.387.387,0,0,1-.008.068c-.293,2.431-.63,4.913-1.058,7.437a31.147,31.147,0,0,1,3.755-4.764,22.8,22.8,0,0,1,6.465-4.728.539.539,0,1,1,.468.97,21.718,21.718,0,0,0-6.16,4.507,32.417,32.417,0,0,0-5.088,7.057,87.989,87.989,0,0,1-2.628,10.195h0l0,.014h0c-.55,1.692-1.165,3.387-1.861,5.092a31.065,31.065,0,0,1,13.406-6.772.539.539,0,1,1,.245,1.05,30.257,30.257,0,0,0-7.937,3.036,30.851,30.851,0,0,0-6.752,5.112q-.765,1.7-1.644,3.4l-1.189-.048a71.875,71.875,0,0,0,4.692-11.157,20.777,20.777,0,0,0-.934-7.878,28.89,28.89,0,0,0-4.094-8,.539.539,0,1,1,.879-.624,29.945,29.945,0,0,1,4.242,8.3,22.422,22.422,0,0,1,.958,4.718,113.8,113.8,0,0,0,3.166-16.978,34.067,34.067,0,0,0-2.118-5.855,12.7,12.7,0,0,0-2.526-3.674.538.538,0,1,1,.739-.783,13.71,13.71,0,0,1,2.757,3.985,29.638,29.638,0,0,1,1.458,3.632q.236-2.158.448-4.25l.114-1.084a.3.3,0,0,1,.006-.06c.765-7.4,1.538-14.123,3.726-19.841Z" transform="translate(-1276.74 -1069.494)" fill="#fff" fill-rule="evenodd"/>
          <path id="Trazado_1169593" data-name="Trazado 1169593" d="M1543.732,1286.469c1.869-1.008,4.122-1.54,5.429-3.214,1.542-1.976,1.231-4.877,2.526-7.023,1.63-2.7,5.19-3.387,7.748-5.23,2.506-1.807,2.164-2.919,3.506-5.7,2.022-4.192,7.83-8.1,11.888-4.664,4.12,3.493,1.468,7.575-.779,10.539-1.6,2.112-1.357,2.616-1.785,5.232-.518,3.158.558,6.881-1.57,9.272-1.317,1.478-3.5,1.923-4.845,3.377-1.52,1.65-1.578,4.112-2.12,6.29a14.022,14.022,0,0,1-4.058,7.168c-5.375-.365-11.611-.705-18.578-1.012a10.552,10.552,0,0,1-1.452-2.733c-1.528-4.329-.106-10.037,4.092-12.3Z" transform="translate(-1300.59 -1141.94)" fill="#c4ddf7" fill-rule="evenodd"/>
          <path id="Trazado_1169594" data-name="Trazado 1169594" d="M1588.181,1280.219a.407.407,0,0,1,.586.566,29.219,29.219,0,0,0-2.241,2.64q.224-.078.454-.143a9.445,9.445,0,0,1,2.189-.335.408.408,0,1,1,.032.815,8.814,8.814,0,0,0-2,.3,7.023,7.023,0,0,0-1.646.7c-1.454,2.086-2.813,4.415-4.2,6.89a14.127,14.127,0,0,1,2.164-1.225,10.54,10.54,0,0,1,3.767-.96.407.407,0,1,1,.048.813,9.776,9.776,0,0,0-3.479.891,15.329,15.329,0,0,0-3.483,2.249l-.373.673c-.817,1.478-1.656,3-2.538,4.532a.32.32,0,0,1-.026.044c-.924,1.608-1.895,3.235-2.941,4.867a23.352,23.352,0,0,1,4.028-2.206,17.255,17.255,0,0,1,5.9-1.379.408.408,0,1,1,.038.815,16.456,16.456,0,0,0-5.626,1.315,24.438,24.438,0,0,0-5.634,3.409,67.2,67.2,0,0,1-4.851,6.322h0l-.006.008h0q-1.327,1.521-2.805,3a23.549,23.549,0,0,1,11.346-.747.409.409,0,0,1-.142.8,22.911,22.911,0,0,0-6.429-.237,23.5,23.5,0,0,0-6.22,1.56q-1.154,1.067-2.409,2.1l-1.227-.058a54.209,54.209,0,0,0,7.244-6.921,15.721,15.721,0,0,0,1.683-5.764,21.841,21.841,0,0,0-.482-6.784.407.407,0,0,1,.8-.173,22.616,22.616,0,0,1,.5,7.037,17.051,17.051,0,0,1-.731,3.572,86.45,86.45,0,0,0,7.236-10.89,25.662,25.662,0,0,0,.259-4.7,9.576,9.576,0,0,0-.672-3.307.407.407,0,1,1,.745-.327,10.334,10.334,0,0,1,.741,3.592,22.554,22.554,0,0,1-.062,2.96q.8-1.431,1.57-2.827l.4-.723a.388.388,0,0,0,.022-.04C1582.432,1288.013,1584.964,1283.552,1588.181,1280.219Z" transform="translate(-1317.739 -1158.573)" fill="#fff" fill-rule="evenodd"/>
          <path id="Trazado_1169595" data-name="Trazado 1169595" d="M964.481,680.311c-.5,6.911-1.522,7.864-8.111,8.4,6.591.532,7.609,1.486,8.111,8.4.5-6.911,1.524-7.864,8.113-8.4-6.59-.532-7.609-1.486-8.113-8.4Zm26.784,18.226c-.269,3.692-.813,4.2-4.331,4.485,3.518.285,4.062.793,4.331,4.483.269-3.69.813-4.2,4.331-4.483-3.516-.285-4.062-.793-4.331-4.485Zm-11.729-28.4c-.273,3.738-.825,4.252-4.387,4.54,3.562.287,4.114.8,4.387,4.54.273-3.738.823-4.254,4.387-4.54C980.361,674.392,979.809,673.878,979.536,670.14Z" transform="translate(-834.001 -670.14)" fill="#fff" fill-rule="evenodd"/>
          <path id="Trazado_1169596" data-name="Trazado 1169596" d="M847.009,1256.818c.408,5.6,1.233,6.372,6.573,6.8-5.339.43-6.164,1.2-6.573,6.8-.408-5.6-1.233-6.371-6.573-6.8,5.339-.432,6.164-1.2,6.573-6.8Zm-21.7,14.767c.219,2.991.659,3.4,3.508,3.632-2.849.231-3.289.643-3.508,3.632-.217-2.99-.659-3.4-3.508-3.632,2.849-.231,3.291-.641,3.508-3.632Zm9.5-23.005c.221,3.028.667,3.445,3.554,3.678-2.887.233-3.333.651-3.554,3.68-.221-3.028-.667-3.447-3.554-3.68C834.144,1252.025,834.591,1251.608,834.812,1248.58Z" transform="translate(-726.241 -1133.337)" fill="#fff" fill-rule="evenodd"/>
          <path id="Trazado_1169597" data-name="Trazado 1169597" d="M1356.151,1195.307c-.311,4.287-.944,4.877-5.031,5.21,4.086.329,4.72.922,5.031,5.208.313-4.287.946-4.879,5.032-5.208-4.086-.331-4.72-.922-5.032-5.21Zm16.614,11.306c-.167,2.289-.5,2.6-2.688,2.781,2.182.175,2.52.492,2.688,2.781.165-2.289.5-2.6,2.685-2.781-2.181-.175-2.52-.492-2.685-2.781ZM1365.489,1189c-.169,2.317-.51,2.638-2.722,2.815,2.212.179,2.552.5,2.722,2.817.169-2.319.51-2.638,2.721-2.817C1366,1191.636,1365.658,1191.317,1365.489,1189Z" transform="translate(-1150.105 -1085.627)" fill="#fff" fill-rule="evenodd"/>
        </g>
        <g id="Grupo_1220534" data-name="Grupo 1220534" transform="translate(4592.792 4088.982)">
          <g id="Grupo_1220530" data-name="Grupo 1220530" transform="translate(0 0)">
            <path id="Trazado_1169598" data-name="Trazado 1169598" d="M671.151,671.59h97.368a13.862,13.862,0,0,1,13.821,13.821V819.249a13.861,13.861,0,0,1-13.821,13.821H671.151a13.861,13.861,0,0,1-13.821-13.821V685.411A13.861,13.861,0,0,1,671.151,671.59Z" transform="translate(-657.33 -654.823)" fill="#8ab9e8" fill-rule="evenodd"/>
            <path id="Trazado_1169599" data-name="Trazado 1169599" d="M686.854,691.2h97.368a9.943,9.943,0,0,1,9.914,9.916V834.954a9.942,9.942,0,0,1-9.914,9.914H686.854a9.942,9.942,0,0,1-9.914-9.914V701.116A9.944,9.944,0,0,1,686.854,691.2Z" transform="translate(-673.033 -670.526)" fill="#d1e4f6" fill-rule="evenodd"/>
            <rect id="Rectángulo_421263" data-name="Rectángulo 421263" width="138.072" height="101.012" transform="translate(10.919 161.156) rotate(-89.55)" fill="#eef8fb"/>
            <path id="Trazado_1169600" data-name="Trazado 1169600" d="M832.508,598.1h17.124v-3.608a7.083,7.083,0,0,1,7.063-7.063h0a7.083,7.083,0,0,1,7.063,7.063V598.1h17.124a4.28,4.28,0,0,1,4.268,4.268V610.5a4.281,4.281,0,0,1-4.268,4.269H832.509a4.281,4.281,0,0,1-4.269-4.269v-8.129a4.281,4.281,0,0,1,4.269-4.268h0Zm24.184-6.453a3.125,3.125,0,1,0,3.126,3.124A3.124,3.124,0,0,0,856.692,591.648Z" transform="translate(-794.19 -587.43)" fill="#8ab9e8" fill-rule="evenodd"/>
          </g>
          <g id="Grupo_1220531" data-name="Grupo 1220531" transform="translate(23.993 37.983)">
            <path id="Trazado_1169601" data-name="Trazado 1169601" d="M779.131,778.08h76.12c.753,0,1.371.323,1.371.719h0c0,.4-.618.721-1.371.721h-76.12c-.755,0-1.371-.325-1.371-.719h0c0-.4.618-.719,1.371-.719Z" transform="translate(-777.76 -778.08)" fill="#8ab9e8" fill-rule="evenodd"/>
            <path id="Trazado_1169602" data-name="Trazado 1169602" d="M779.131,835.062h76.12c.753,0,1.371.325,1.371.719h0c0,.4-.618.719-1.371.719h-76.12c-.755,0-1.371-.323-1.371-.719h0c0-.4.618-.721,1.371-.721Z" transform="translate(-777.76 -823.708)" fill="#8ab9e8" fill-rule="evenodd"/>
            <path id="Trazado_1169603" data-name="Trazado 1169603" d="M779.131,892.06h76.12c.753,0,1.371.323,1.371.719h0c0,.394-.618.719-1.371.719h-76.12c-.755,0-1.371-.325-1.371-.719h0C777.76,892.383,778.378,892.06,779.131,892.06Z" transform="translate(-777.76 -869.352)" fill="#8ab9e8" fill-rule="evenodd"/>
            <path id="Trazado_1169604" data-name="Trazado 1169604" d="M779.131,949.05h76.12c.753,0,1.371.323,1.371.719h0c0,.4-.618.719-1.371.719h-76.12c-.755,0-1.371-.323-1.371-.719h0C777.76,949.373,778.378,949.05,779.131,949.05Z" transform="translate(-777.76 -914.988)" fill="#8ab9e8" fill-rule="evenodd"/>
            <path id="Trazado_1169605" data-name="Trazado 1169605" d="M779.131,1006.04h76.12c.753,0,1.371.325,1.371.719h0c0,.4-.618.719-1.371.719h-76.12c-.755,0-1.371-.323-1.371-.719h0C777.76,1006.365,778.378,1006.04,779.131,1006.04Z" transform="translate(-777.76 -960.624)" fill="#8ab9e8" fill-rule="evenodd"/>
          </g>
          <g id="Grupo_1220533" data-name="Grupo 1220533" transform="translate(70.505 120.797)">
            <path id="Trazado_1169608" data-name="Trazado 1169608" d="M1029.418,1193.75a18.2,18.2,0,1,1-12.866,5.331,18.144,18.144,0,0,1,12.866-5.331Zm9.678,8.519a13.689,13.689,0,1,0,4.009,9.679A13.639,13.639,0,0,0,1039.1,1202.269Z" transform="translate(-1011.22 -1193.75)" fill="#fabea7" fill-rule="evenodd"/>
            <path id="Trazado_1169609" data-name="Trazado 1169609" d="M1069.137,1249.13l2.046,2.046-12.278,12.281h0l0,0-8.5-8.5,2.046-2.046,6.455,6.457Z" transform="translate(-1042.594 -1238.097)" fill="#fabea7" fill-rule="evenodd"/>
          </g>
        </g>
        <g id="Grupo_1220535" data-name="Grupo 1220535" transform="translate(4583.487 4255.684)">
          <path id="Trazado_1169610" data-name="Trazado 1169610" d="M630.7,1424.16h25.828a3.885,3.885,0,0,1,3.873,3.873v3.875H626.83v-3.875A3.885,3.885,0,0,1,630.7,1424.16Z" transform="translate(-623.602 -1424.16)" fill="#754747" fill-rule="evenodd"/>
          <path id="Trazado_1169611" data-name="Trazado 1169611" d="M614.5,1460.88h32.285a3.885,3.885,0,0,1,3.873,3.873v3.875H610.63v-3.875A3.885,3.885,0,0,1,614.5,1460.88Z" transform="translate(-610.63 -1453.564)" fill="#633" fill-rule="evenodd"/>
        </g>
        <g id="Grupo_1220536" data-name="Grupo 1220536" transform="translate(4700.221 4123.314)">
          <path id="Trazado_1169612" data-name="Trazado 1169612" d="M1340.963,1141.692l-3.5,31.14s1.707,6.581,1.5,8.463c-.207,1.857-3.8,26.406-3.8,26.406l.163,1.351.088,3.99-13.43.1a59.839,59.839,0,0,0,6.792-3.767,2.683,2.683,0,0,0,1.128-1.944c1.06-7.559-1.034-32.789-1.034-32.789l-1.646-32.851,13.733-.1Z" transform="translate(-1296.999 -1065.596)" fill="#ffb17d" fill-rule="evenodd"/>
          <path id="Trazado_1169613" data-name="Trazado 1169613" d="M1425.311,1170.492c.751.185,1.911,26.916,2.536,28.1,3.955,7.509,4.893,30.335,4.893,30.335l1.632,3.2L1434,1235.2s-2.953,1.7-5.021.558l.319-3.086.243-4.126-9.974-28.44-5.457-29.008,11.2-.608Z" transform="translate(-1370.766 -1088.659)" fill="#ffb17d" fill-rule="evenodd"/>
          <path id="Trazado_1169614" data-name="Trazado 1169614" d="M1340.125,1063.689l-.476-18.438c-.082-5.216,1.659-10.213,3.8-14.956l4.526-7.6c1.458.458,2.261-3.841,3.8-3.668,1.156.123,1.949.4,3.02.458,2.022.124,3.249,4.064,5.415,3.815.012.124.43,1.128.462,1.215,1.036,2.787,4.606,5.266,6.017,13.53,1.606,9.394,1.6,25.539,1.395,26.643-15.319.669-18.967,1.2-27.952-1Z" transform="translate(-1311.138 -967.369)" fill="#4567c5" fill-rule="evenodd"/>
          <path id="Trazado_1169615" data-name="Trazado 1169615" d="M1199.7,799.957s.566.687.777.9c.245.249,1.022.938,1.022.938s2.835,2.269,2.975,2.038-.127-.9-.253-1.1-.257-.454-.383-.657a.5.5,0,0,1,.141-.655c.235-.179.924.518,1.1.8a38.159,38.159,0,0,1,1.809,3.925c.147.337,5.764,3.337,7.6,4.523h0c3.07,1.851,6.318,3.59,6.644,3.785l14.825,3.65.807,6.138s-16.5-3.809-17.3-4.1c-.382-.138-7.184-4.993-7.184-5-3.2-2.612-6.021-4.919-6.569-5.345,0,0-2-.819-3.293-1.263a11.875,11.875,0,0,1-2.656-1.572,8.685,8.685,0,0,1-2.417-1.8c-1-1.044.412-.524.412-.524s2.193,1.59,2.279,1.391c.068-.155-1.172-.948-2.281-2.09-.277-.295-.566-.586-.821-.857-.663-.705-.436-1.335.384-.711a10.126,10.126,0,0,1,1.062.916,7.613,7.613,0,0,0,1.04.8,9.39,9.39,0,0,0,1.088.815c.006-.05.193-.044-.106-.363-.353-.389-1.273-1.036-1.747-1.644-.269-.347-.886-1.036-.886-1.036a8.785,8.785,0,0,1-.793-1.291c.295-.367,1.16.325,1.458.845a6.381,6.381,0,0,1,.98.966s1.59,1.209,1.753.98c.147-.187-3.082-3.837-2.763-4.186.271-.283,1.293.771,1.293.771Z" transform="translate(-1196.554 -791.291)" fill="#ffb17d" fill-rule="evenodd"/>
          <path id="Trazado_1169616" data-name="Trazado 1169616" d="M1336.582,885.263a46.316,46.316,0,0,0,.735-6.963c-.044.149,7.262-.068,9.934.281,4.367.57,8.346,5.778,11.406,7.788,1.885,1.237,2.843,2.5,3.024,3.889.008.066-7.8-.89-14.321-1.958a80.518,80.518,0,0,1-10.78-3.034Z" transform="translate(-1308.683 -854.681)" fill="#ef6a30" fill-rule="evenodd"/>
          <path id="Trazado_1169617" data-name="Trazado 1169617" d="M1368.774,887.76c.392-1.413,1.267-3.259,1.765-4.546.847-2.168,1.1-4.19,1.847-5.056.4-.47,5.573-.395,6.21-.458.259-.038,1.3.036,2.3.1v-.012c.588.074,6.415.52,7.262.879,4.2,4.064,6.228,9.517,9.384,15.49,0,0-2.363,1.339-4.248,2.182-.821.359-2.391.952-2.391.952s-1.986-3.419-3.116-4.919l-.524-1.128c-.038-.024-.227-.223-.283-.1-.082.211-3.626,18.983-3.626,18.983s-9.884.918-12.412-.285c0,0-.464-12.566-1.395-16.245-.342-1.363-1.4-3.57-.771-5.837Z" transform="translate(-1334.304 -854.191)" fill="#f47a44" fill-rule="evenodd"/>
          <path id="Trazado_1169618" data-name="Trazado 1169618" d="M1374.6,773.471a40.116,40.116,0,0,1,.1,8.842c-.267,2.022-.392,3.666-1.919,4.75,0,0,3.058.942,4.294.295a3.058,3.058,0,0,1-.524.53s3.463.839,5.126.044,5.017-24.876-5.08-24.862c0,0-9.513-2.8-10.691,6.851-2.468,11.25-3.875,14.482-5.031,16.293.962.845,1.417.691,1.927-.139.45-.737.8-1.632.928-1.851a23.2,23.2,0,0,1-1.092,2.791s4,.357,5.935-.564,6.1-10.922,6.025-12.98Z" transform="translate(-1328.141 -762.105)" fill="#284190" fill-rule="evenodd"/>
          <path id="Trazado_1169619" data-name="Trazado 1169619" d="M1407.227,842.659a29.992,29.992,0,0,0-.554,5.584c.161,1.735-.616,7.312-4.1,7.326s-1.118-5.788-.789-7.485.769-7.7.769-7.7l4.676,2.281Z" transform="translate(-1360.021 -824.316)" fill="#ffb17d" fill-rule="evenodd"/>
          <path id="Trazado_1169620" data-name="Trazado 1169620" d="M1409.41,839.816a15.43,15.43,0,0,1,.315-2.576l4.576,2.379s-.163.9-.331,2.044A4.278,4.278,0,0,1,1409.41,839.816Z" transform="translate(-1367.003 -821.802)" fill="#ef8161" fill-rule="evenodd"/>
          <path id="Trazado_1169621" data-name="Trazado 1169621" d="M1398.7,776.984a21.168,21.168,0,0,0,3.985-5.383c.827-1.889,1.588-9.443-6.015-10.169a10.281,10.281,0,0,0-4.52.566c-1.857.691-4.722,2.465-3.686,9.465l.147,2.317,10.089,3.2Z" transform="translate(-1350.057 -761.056)" fill="#284190" fill-rule="evenodd"/>
          <path id="Trazado_1169622" data-name="Trazado 1169622" d="M1407.306,784.522a5.993,5.993,0,0,1,3.036,2.8c1.068,2.108,1.425,8.017-2.891,10.286s-7.154-1.921-6.883-5.664S1402.029,783.28,1407.306,784.522Z" transform="translate(-1359.908 -779.429)" fill="#ffb17d" fill-rule="evenodd"/>
          <path id="Trazado_1169623" data-name="Trazado 1169623" d="M1412.57,765.625s1.048,6.622,4.4,8.254,5.08,1,5.08,1a10.235,10.235,0,0,1-2.066-6.587S1414.9,763.053,1412.57,765.625Z" transform="translate(-1369.533 -763.886)" fill="#284190" stroke="#284190" stroke-miterlimit="2.61" stroke-width="0.22" fill-rule="evenodd"/>
          <path id="Trazado_1169624" data-name="Trazado 1169624" d="M1390.485,769.274c-5.212,1.574-4.216,3.745-5.985,5.891,0,0-.235-5.034,2.534-7.111,2.937-2.205,3.449,1.219,3.449,1.219Z" transform="translate(-1347.052 -765.807)" fill="#284190" fill-rule="evenodd"/>
          <path id="Trazado_1169625" data-name="Trazado 1169625" d="M1412.14,780.776s.9,3.959,3.59,5.288c0,0-2.66-2.486-2.823-5.088S1412.14,780.776,1412.14,780.776Z" transform="translate(-1369.189 -775.777)" fill="#284190" fill-rule="evenodd"/>
          <path id="Trazado_1169626" data-name="Trazado 1169626" d="M1403.312,773.518c.675-.137,1.082.022,1.217.482a3.01,3.01,0,0,1-1.859,1.8,3.849,3.849,0,0,0,.641-2.279Z" transform="translate(-1361.606 -770.737)" fill="#284190" fill-rule="evenodd"/>
          <path id="Trazado_1169627" data-name="Trazado 1169627" d="M1438.783,765.062q-1.117-.625-.753-1.438a3.731,3.731,0,0,1,3.2-.183A4.763,4.763,0,0,0,1438.783,765.062Z" transform="translate(-1389.849 -762.482)" fill="#284190" fill-rule="evenodd"/>
          <path id="Trazado_1169628" data-name="Trazado 1169628" d="M1439.26,761.515c.4.349.729.4,1,.141a2.31,2.31,0,0,0-.556-1.907,2.948,2.948,0,0,1-.438,1.765Z" transform="translate(-1390.906 -759.75)" fill="#284190" fill-rule="evenodd"/>
          <path id="Trazado_1169629" data-name="Trazado 1169629" d="M1482.474,1254.22h0Z" transform="translate(-1425.507 -1155.707)" fill="#ec7653" fill-rule="evenodd"/>
          <path id="Trazado_1169630" data-name="Trazado 1169630" d="M1331.846,1484.829H1317.98c-.51-.05-.638-.47-.458-.731.365-.52,1.982-.917,3.8-1.759,3.19.335,9.866-1.8,10.368-2.528.291,1.474.434,4.957.153,5.019Z" transform="translate(-1293.36 -1336.353)" fill="#284190" fill-rule="evenodd"/>
          <path id="Trazado_1169631" data-name="Trazado 1169631" d="M1494.112,1479.81s-1.231,3.495-2.562,3.383-2.5-2.837-2.5-2.837a12.346,12.346,0,0,0-.269,3.58c.233,1.277,2.132,2.59,3.431,2.008,1.3-.558,3.062-3.52,1.9-6.132Z" transform="translate(-1430.515 -1336.353)" fill="#284190" fill-rule="evenodd"/>
          <path id="Trazado_1169632" data-name="Trazado 1169632" d="M1394.891,806.762c-.116.98.231,1.809.777,1.859s1.072-.693,1.186-1.674-.231-1.8-.777-1.847-1.076.7-1.187,1.66Z" transform="translate(-1355.358 -796.063)" fill="#ffb17d" fill-rule="evenodd"/>
          <path id="Trazado_1169633" data-name="Trazado 1169633" d="M1446.838,818.5c-.377.942-.191,1.933.424,2.206s1.414-.259,1.791-1.2.189-1.923-.418-2.205S1447.22,817.564,1446.838,818.5Z" transform="translate(-1396.818 -805.78)" fill="#ffb17d" fill-rule="evenodd"/>
          <path id="Trazado_1169634" data-name="Trazado 1169634" d="M1384.2,949.5l.2.273a1.523,1.523,0,0,0,1.221,1.721l10.719,15.092-12.89,8.886a1.64,1.64,0,0,1-2.261-.385l-10.344-14.574a1.46,1.46,0,0,1,.369-2.056l12.99-8.959Z" transform="translate(-1335.899 -911.696)" fill="#1e77d0" fill-rule="evenodd"/>
          <path id="Trazado_1169635" data-name="Trazado 1169635" d="M1388.328,952.6h0L1376,961.1c-.711.5-1.566.508-1.907.036a.916.916,0,0,1-.05-.879,2,2,0,0,1,.737-.879l12.328-8.5h0A1.56,1.56,0,0,0,1388.328,952.6Z" transform="translate(-1338.612 -912.801)" fill="#f4f9fa" fill-rule="evenodd"/>
          <path id="Trazado_1169636" data-name="Trazado 1169636" d="M1425.895,962.76c-.863.472-2.2,1.177-3.355,1.7-.552.235-1.431.582-1.957.781,1.265,2.353,2.467,4.781,2.311,5.28-.137.446-11.452,8.772-11.452,8.772l-2.261-.3s-3.985.446-4.076.918c-.1.446,1.682.335,1.919.4a2.3,2.3,0,0,1,.618.273c-.359.161-.833.384-1.285.558a6.013,6.013,0,0,1,2.733,3.222,13.276,13.276,0,0,0,4.584-2.269c2.636-1.3,15.879-8.748,16.078-10.161.116-.843-1.9-5.2-3.855-9.171Z" transform="translate(-1363.553 -922.314)" fill="#ffb17d" fill-rule="evenodd"/>
          <path id="Trazado_1169637" data-name="Trazado 1169637" d="M1402.712,1050.27a2.952,2.952,0,0,0-.339,1.672c.169.719.347.918.532,1.562a2.021,2.021,0,0,0,.865,1.377c.663.57,3.851-.658,3.851-.658l-2.193-3.568-1.263.47a2.415,2.415,0,0,1-1.012-.309,6.994,6.994,0,0,1-.442-.546Z" transform="translate(-1361.341 -992.39)" fill="#ffb17d" fill-rule="evenodd"/>
          <path id="Trazado_1169638" data-name="Trazado 1169638" d="M1405.783,879.851a10.093,10.093,0,0,1-1.711,4.409,2.81,2.81,0,0,1-2.594,1.261,1.909,1.909,0,0,1-.452-.09h0a1.392,1.392,0,0,1-.851-.853,4.237,4.237,0,0,1-.173-1.861,30.367,30.367,0,0,1,.988-4.7l-.361.01a18.35,18.35,0,0,0-.984,4.66,4.592,4.592,0,0,0,.2,2.022,1.712,1.712,0,0,0,1.066,1.058h0a2.28,2.28,0,0,0,.538.11h0a3.144,3.144,0,0,0,2.907-1.407,10.577,10.577,0,0,0,1.691-4.584l-.267-.036Z" transform="translate(-1359.162 -854.457)" fill="#ef6a30" fill-rule="evenodd"/>
          <path id="Trazado_1169639" data-name="Trazado 1169639" d="M1402.7,918.381a.183.183,0,0,0,.2-.159.179.179,0,0,0-.159-.2c-.739-.078-1.395-.122-1.958-.126a8.316,8.316,0,0,0-1.444.1.179.179,0,1,0,.062.353,7.829,7.829,0,0,1,1.38-.092c.554.006,1.2.048,1.927.124Z" transform="translate(-1358.817 -886.391)" fill="#ef6a30" fill-rule="evenodd"/>
          <path id="Trazado_1169640" data-name="Trazado 1169640" d="M1403.324,920.957a.165.165,0,0,0,.171-.159.177.177,0,0,0-.139-.2,15.556,15.556,0,0,0-1.705-.123,6.071,6.071,0,0,0-1.259.1.181.181,0,0,0-.128.207.16.16,0,0,0,.179.145,5.954,5.954,0,0,1,1.2-.092,16.093,16.093,0,0,1,1.676.123Z" transform="translate(-1359.677 -888.455)" fill="#ef6a30" fill-rule="evenodd"/>
          <path id="Trazado_1169641" data-name="Trazado 1169641" d="M1450.94,932.762q1.6-3.237.315-8.352l1.777,4.112c-.042-.016-.08-.012-.1.032-.03.074-.488,2.455-1.07,5.507l-.922-1.3Z" transform="translate(-1400.259 -891.605)" fill="#ef6a30" fill-rule="evenodd"/>
        </g>
        <g id="Grupo_1220537" data-name="Grupo 1220537" transform="translate(4587.908 4203.479)">
          <path id="Trazado_1169642" data-name="Trazado 1169642" d="M790.189,1307.1l52.477,23.718a3.376,3.376,0,0,1,1.681,4.453h0a3.374,3.374,0,0,1-4.453,1.682l-52.475-23.718,2.771-6.132Z" transform="translate(-756.619 -1278.217)" fill="#5165a5" fill-rule="evenodd"/>
          <path id="Trazado_1169643" data-name="Trazado 1169643" d="M710.8,1162.561l19.513,8.82a4.907,4.907,0,0,1,2.445,6.477l-2.771,6.132a4.908,4.908,0,0,1-6.477,2.445L704,1177.615a4.907,4.907,0,0,1-2.443-6.477l2.771-6.132a4.907,4.907,0,0,1,6.477-2.445Z" transform="translate(-687.516 -1162.128)" fill="#fabea7" fill-rule="evenodd"/>
          <path id="Trazado_1169644" data-name="Trazado 1169644" d="M753.23,1165.89l18.811,8.5.141.068c-2.61.534-6.547-.1-10.545-1.911s-7.084-4.345-8.406-6.658Z" transform="translate(-729.24 -1165.141)" fill="#faa06e" fill-rule="evenodd"/>
          <path id="Trazado_1169645" data-name="Trazado 1169645" d="M681.727,1258.561l14.777,6.68a4.908,4.908,0,0,0,6.477-2.445l2.771-6.132a4.906,4.906,0,0,0-2.443-6.475l-14.779-6.678a4.909,4.909,0,0,0-6.477,2.443l-2.771,6.132a4.909,4.909,0,0,0,2.445,6.477Z" transform="translate(-669.679 -1226.951)" fill="#8e6a6a" fill-rule="evenodd"/>
          <path id="Trazado_1169646" data-name="Trazado 1169646" d="M642.5,1313.679l19.513,8.82a4.907,4.907,0,0,1,2.445,6.477l-2.771,6.132a4.908,4.908,0,0,1-6.477,2.445l-19.513-8.818a4.908,4.908,0,0,1-2.445-6.477l2.771-6.132a4.907,4.907,0,0,1,6.477-2.445Z" transform="translate(-632.818 -1283.141)" fill="#fabea7" fill-rule="evenodd"/>
          <path id="Trazado_1169647" data-name="Trazado 1169647" d="M666.94,1397.338a4.83,4.83,0,0,1-1.016-.331l-19.513-8.818-.211-.1c2.466-1.138,7.109-.637,11.838,1.5C662.682,1391.686,666.085,1394.764,666.94,1397.338Z" transform="translate(-643.534 -1342.595)" fill="#faa06e" fill-rule="evenodd"/>
          <path id="Trazado_1169648" data-name="Trazado 1169648" d="M976.281,1391.21l15.4,6.961a3.377,3.377,0,0,1,1.682,4.453h0a3.374,3.374,0,0,1-4.453,1.682l-15.4-6.961,2.773-6.132Z" transform="translate(-905.634 -1345.57)" fill="#284190" fill-rule="evenodd"/>
        </g>
      </g>
    </g>
  </g>
</svg>
