<svg xmlns="http://www.w3.org/2000/svg" width="87.152" height="95" viewBox="0 0 87.152 95">
  <g id="Grupo_1220429" data-name="Grupo 1220429" transform="translate(-223.848 -4122)">
    <rect id="Rectángulo_421248" data-name="Rectángulo 421248" width="74" height="95" transform="translate(237 4122)" fill="#248abf"/>
    <g id="danos-y-perjuicios" transform="translate(217.254 4125.001)">
      <path id="Trazado_1169232" data-name="Trazado 1169232" d="M53.615,55.47,68.248,70.1a4.216,4.216,0,0,1,1.375,3.1v52.227H18.569l8.725-11.941,7.767,6.369,10.375-10.867,18.393,3.2-20.117-7.383-7.77,8.239-8.935-4.978L13.75,121.33V54.095H50.512a4.216,4.216,0,0,1,3.1,1.375Z" transform="translate(-5.907 -41.349)" fill="#e3f1ff" fill-rule="evenodd"/>
      <path id="Trazado_1169233" data-name="Trazado 1169233" d="M63.829,340.215l-20.117-7.383-7.77,8.239-8.935-4.978L13.75,349.35v-2.918l12.823-12.743,9.041,4.966,7.721-8.305Z" transform="translate(-5.907 -269.369)" fill="#b6dbff" fill-rule="evenodd"/>
      <path id="Trazado_1169234" data-name="Trazado 1169234" d="M300.929,135.149l1.856,1.856a4.217,4.217,0,0,1,1.375,3.1v52.227h-2.145V138.287c0-.879-.254-3.079-4.115-3.137h3.028Z" transform="translate(-240.444 -108.251)" fill="#b6dbff" fill-rule="evenodd"/>
      <path id="Trazado_1169235" data-name="Trazado 1169235" d="M242.766,62.67l14.389,14.389a4.876,4.876,0,0,0-3.4-1.376h-9.616V66.066A4.876,4.876,0,0,0,242.766,62.67Z" transform="translate(-194.936 -48.427)" fill="#61a0e0" fill-rule="evenodd"/>
      <path id="Trazado_1169236" data-name="Trazado 1169236" d="M242.766,62.67l11.453,11.453a4.855,4.855,0,0,0-2.118-.484h-7.958V66.066a4.876,4.876,0,0,0-1.376-3.4Z" transform="translate(-194.936 -48.427)" fill="#7cb5ef" fill-rule="evenodd"/>
      <path id="Trazado_1169237" data-name="Trazado 1169237" d="M297.435,305.42l16.757,29.024a2.679,2.679,0,0,1-2.32,4.019H278.357a2.679,2.679,0,0,1-2.32-4.019l16.757-29.024a2.679,2.679,0,0,1,4.64,0Z" transform="translate(-222.093 -247.686)" fill="#e8333c" fill-rule="evenodd"/>
      <path id="Trazado_1169238" data-name="Trazado 1169238" d="M307.812,342.838H278.357a2.679,2.679,0,0,1-2.32-4.019L292.794,309.8a2.839,2.839,0,0,1,.29-.414,2.843,2.843,0,0,1,.29.414l16.757,29.024a2.679,2.679,0,0,1-2.32,4.019Z" transform="translate(-222.093 -252.061)" fill="#fb545c" fill-rule="evenodd"/>
      <path id="Trazado_1169239" data-name="Trazado 1169239" d="M373.681,357.343l.752,12.369a1.291,1.291,0,0,0,1.29,1.214h.577a1.291,1.291,0,0,0,1.29-1.214l.752-12.369a1.508,1.508,0,0,0-1.5-1.6h-1.651a1.508,1.508,0,0,0-1.5,1.6Zm2.331,16.259a1.969,1.969,0,1,1-1.969,1.969A1.969,1.969,0,0,1,376.012,373.6Z" transform="translate(-302.99 -290.329)" fill="#f3f3ff" fill-rule="evenodd"/>
      <path id="Trazado_1169240" data-name="Trazado 1169240" d="M352.426,25.985V12.612A1.619,1.619,0,0,0,350.812,11h-5.136a1.619,1.619,0,0,0-1.614,1.614V25.985h-3.091a.931.931,0,0,0-.692,1.554l7.273,8.083a.931.931,0,0,0,1.385,0l7.273-8.083a.931.931,0,0,0-.692-1.554h-3.09Z" transform="translate(-275.222 -5.777)" fill="#ff8748" fill-rule="evenodd"/>
      <path id="Trazado_1169241" data-name="Trazado 1169241" d="M348.389,11h-2.714a1.619,1.619,0,0,0-1.614,1.614V25.985h-3.091a.931.931,0,0,0-.692,1.554l6.754,7.507,6.754-7.507a.931.931,0,0,0-.692-1.554H350V12.612A1.619,1.619,0,0,0,348.389,11Z" transform="translate(-275.222 -5.777)" fill="#ffa87a" fill-rule="evenodd"/>
      <path id="Trazado_1169242" data-name="Trazado 1169242" d="M41.348,384.953l8.725-11.941,7.767,6.369,10.375-10.867,18.393,3.2L68.75,369.872,57.916,381.53,50.351,375.5l-6.679,9.451Z" transform="translate(-28.686 -300.87)" fill="#b6dbff" fill-rule="evenodd"/>
      <path id="Trazado_1169243" data-name="Trazado 1169243" d="M71.423,30.665a2.156,2.156,0,0,0,3.2,0L81.9,22.58a2.153,2.153,0,0,0-1.6-3.594H78.427V15.146a1.222,1.222,0,1,0-2.444,0v5.064a1.223,1.223,0,0,0,1.222,1.222h2.437L73.024,28.79,66.4,21.432h2.438a1.222,1.222,0,0,0,1.222-1.222V6.837a.4.4,0,0,1,.393-.393h5.136a.4.4,0,0,1,.391.393v3.53a1.222,1.222,0,1,0,2.444,0V6.837A2.84,2.84,0,0,0,75.592,4H70.456a2.841,2.841,0,0,0-2.838,2.838v12.15H65.75a2.154,2.154,0,0,0-1.6,3.594l7.274,8.084Zm2.348,54.577a.747.747,0,1,0-.747.747A.747.747,0,0,0,73.771,85.242Zm2.445,0a3.192,3.192,0,1,1-3.192-3.191,3.2,3.2,0,0,1,3.192,3.191Zm-2.081-18.3a.285.285,0,0,0-.284-.3H72.2a.244.244,0,0,0-.208.089.241.241,0,0,0-.077.213l.752,12.369a.068.068,0,0,0,.07.067h.577a.068.068,0,0,0,.07-.067l.752-12.369Zm2.439.149-.752,12.368a2.519,2.519,0,0,1-2.509,2.362h-.577a2.52,2.52,0,0,1-2.511-2.362l-.752-12.368a2.729,2.729,0,0,1,2.726-2.9H73.85a2.729,2.729,0,0,1,2.723,2.9ZM93.158,86.146A3.9,3.9,0,0,1,89.78,92H85.316a1.222,1.222,0,0,1,0-2.445H89.78a1.457,1.457,0,0,0,1.262-2.186L74.284,58.346a1.456,1.456,0,0,0-2.523,0L55,87.369a1.457,1.457,0,0,0,1.262,2.186H80.535a1.222,1.222,0,0,1,0,2.445H56.267a3.9,3.9,0,0,1-3.381-5.852L69.645,57.123a3.9,3.9,0,0,1,6.757,0L93.158,86.146ZM17.8,32.8H37.767a1.222,1.222,0,1,0,0-2.444H17.8a1.222,1.222,0,1,0,0,2.444Zm0-8.418H37.767a1.222,1.222,0,1,0,0-2.444H17.8a1.222,1.222,0,1,0,0,2.444ZM53.767,55.61H17.8a1.222,1.222,0,0,0,0,2.445H53.767a1.222,1.222,0,0,0,0-2.445Zm0-8.417H17.8a1.222,1.222,0,0,0,0,2.444H53.767a1.222,1.222,0,0,0,0-2.444Zm0-8.418H17.8a1.222,1.222,0,1,0,0,2.444H53.767a1.222,1.222,0,0,0,0-2.444Zm4.154-12.764-7.475-7.475v7.475ZM6.594,25.3V12.709a1.223,1.223,0,0,1,1.223-1.222h36.8a5.448,5.448,0,0,1,3.975,1.74L63.229,27.862a5.451,5.451,0,0,1,1.74,3.977V60.352a1.222,1.222,0,1,1-2.445,0V31.84a2.982,2.982,0,0,0-1-2.226l-.016-.016-.109-.109a3.656,3.656,0,0,0-2.549-1.033H49.224A1.221,1.221,0,0,1,48,27.233V17.607a3.655,3.655,0,0,0-1.033-2.549l-.11-.108a.077.077,0,0,0-.013-.016,2.986,2.986,0,0,0-2.226-1H9.039V25.3a1.222,1.222,0,1,1-2.445,0Zm44.6,58.819A1.224,1.224,0,0,0,49.97,82.9H15.044l6.57-8.992,6.767,5.55a1.223,1.223,0,0,0,1.66-.1l9.923-10.4,17.752,3.091a1.223,1.223,0,0,0,.63-2.352L38.229,62.314a1.223,1.223,0,0,0-1.31.309L29.8,70.17,21.7,65.656a1.218,1.218,0,0,0-1.458.2l-11.2,11.2V30.082a1.222,1.222,0,0,0-2.445,0V80.011a1.223,1.223,0,0,0,2.087.864L21.315,68.241l8.128,4.529a1.221,1.221,0,0,0,1.484-.231l7.217-7.651,6.606,2.424-5.009-.871a1.222,1.222,0,0,0-1.093.359L29.055,76.849,22.163,71.2a1.22,1.22,0,0,0-1.761.224L11.651,83.4a1.221,1.221,0,0,0,.986,1.943H49.97a1.222,1.222,0,0,0,1.221-1.222Z" transform="translate(0 0)" fill-rule="evenodd"/>
    </g>
  </g>
</svg>
