<svg xmlns="http://www.w3.org/2000/svg" xmlns:xlink="http://www.w3.org/1999/xlink" width="113" height="113" viewBox="0 0 113 113">
  <defs>
    <filter id="Trazado_982547" x="0" y="0" width="113" height="113" filterUnits="userSpaceOnUse">
      <feOffset dy="3" input="SourceAlpha"/>
      <feGaussianBlur stdDeviation="3" result="blur"/>
      <feFlood flood-opacity="0.161"/>
      <feComposite operator="in" in2="blur"/>
      <feComposite in="SourceGraphic"/>
    </filter>
  </defs>
  <g id="Grupo_1220433" data-name="Grupo 1220433" transform="translate(-429 -4820.872)">
    <g id="Grupo_1219943" data-name="Grupo 1219943" transform="translate(0 4282.371)">
      <g id="Grupo_1214345" data-name="Grupo 1214345" transform="translate(0 -3628.444)">
        <g id="Grupo_1210956" data-name="Grupo 1210956" transform="translate(438 4172.946)">
          <g id="Grupo_1209935" data-name="Grupo 1209935">
            <g id="Grupo_1208705" data-name="Grupo 1208705">
              <g id="Grupo_1148633" data-name="Grupo 1148633">
                <g id="Grupo_1148525" data-name="Grupo 1148525">
                  <g transform="matrix(1, 0, 0, 1, -9, -6)" filter="url(#Trazado_982547)">
                    <g id="Trazado_982547-2" data-name="Trazado 982547" transform="translate(9 6)" fill="#f9e3d4">
                      <path d="M 47.5 93.5 C 41.28937149047852 93.5 35.26533508300781 92.28397369384766 29.59518623352051 89.88570404052734 C 24.11771965026855 87.56893157958984 19.19813346862793 84.25196075439453 14.97309303283691 80.02691650390625 C 10.74804019927979 75.80186462402344 7.431066513061523 70.88229370117188 5.114293098449707 65.40481567382812 C 2.716026782989502 59.73468017578125 1.5 53.71062850952148 1.5 47.5 C 1.5 41.28937149047852 2.716026782989502 35.26533508300781 5.114293098449707 29.59518623352051 C 7.431066513061523 24.11771965026855 10.74804019927979 19.19813346862793 14.97309303283691 14.97309303283691 C 19.19813346862793 10.74804019927979 24.11771965026855 7.431066513061523 29.59518623352051 5.114293098449707 C 35.26533508300781 2.716026782989502 41.28937149047852 1.5 47.5 1.5 C 53.71062850952148 1.5 59.73468017578125 2.716026782989502 65.40481567382812 5.114293098449707 C 70.88229370117188 7.431066513061523 75.80186462402344 10.74804019927979 80.02691650390625 14.97309303283691 C 84.25196075439453 19.19813346862793 87.56893157958984 24.11771965026855 89.88570404052734 29.59518623352051 C 92.28397369384766 35.26533508300781 93.5 41.28937149047852 93.5 47.5 C 93.5 53.71062850952148 92.28397369384766 59.73468017578125 89.88570404052734 65.40481567382812 C 87.56893157958984 70.88229370117188 84.25196075439453 75.80186462402344 80.02691650390625 80.02691650390625 C 75.80186462402344 84.25196075439453 70.88229370117188 87.56893157958984 65.40481567382812 89.88570404052734 C 59.73468017578125 92.28397369384766 53.71062850952148 93.5 47.5 93.5 Z" stroke="none"/>
                      <path d="M 47.5 3 C 41.49121475219727 3 35.66376876831055 4.176155090332031 30.17950439453125 6.495796203613281 C 24.88084411621094 8.736953735351562 20.12152099609375 11.94598388671875 16.03375244140625 16.03375244140625 C 11.94598388671875 20.12152099609375 8.736953735351562 24.88084411621094 6.495796203613281 30.17950439453125 C 4.176155090332031 35.66376876831055 3 41.49121475219727 3 47.5 C 3 53.50878524780273 4.176155090332031 59.33623123168945 6.495796203613281 64.82049560546875 C 8.736953735351562 70.11915588378906 11.94598388671875 74.87847900390625 16.03375244140625 78.96624755859375 C 20.12152099609375 83.05401611328125 24.88084411621094 86.26304626464844 30.17950439453125 88.50419616699219 C 35.66376876831055 90.82384490966797 41.49121475219727 92 47.5 92 C 53.50878524780273 92 59.33623123168945 90.82384490966797 64.82049560546875 88.50419616699219 C 70.11915588378906 86.26304626464844 74.87847900390625 83.05401611328125 78.96624755859375 78.96624755859375 C 83.05401611328125 74.87847900390625 86.26304626464844 70.11915588378906 88.50419616699219 64.82049560546875 C 90.82384490966797 59.33623123168945 92 53.50878524780273 92 47.5 C 92 41.49121475219727 90.82384490966797 35.66376876831055 88.50419616699219 30.17950439453125 C 86.26304626464844 24.88084411621094 83.05401611328125 20.12152099609375 78.96624755859375 16.03375244140625 C 74.87847900390625 11.94598388671875 70.11915588378906 8.736953735351562 64.82049560546875 6.495796203613281 C 59.33623123168945 4.176155090332031 53.50878524780273 3 47.5 3 M 47.5 0 C 73.7335205078125 0 95 21.2664794921875 95 47.5 C 95 73.7335205078125 73.7335205078125 95 47.5 95 C 21.2664794921875 95 0 73.7335205078125 0 47.5 C 0 21.2664794921875 21.2664794921875 0 47.5 0 Z" stroke="none" fill="#eca675"/>
                    </g>
                  </g>
                </g>
              </g>
            </g>
          </g>
        </g>
      </g>
    </g>
    <g id="rechazo" transform="translate(441.731 4808.718)">
      <path id="Trazado_1169273" data-name="Trazado 1169273" d="M0,0H21V8.4H0Z" transform="translate(71.75 97.259) rotate(-74.991)" fill="#f36a3d"/>
      <path id="Trazado_1169274" data-name="Trazado 1169274" d="M429.741,309.905l4.795-17.894-4.687-1.256-5.435,20.282,8.113,2.174.336-1.256-2.294-.615A1.172,1.172,0,0,1,429.741,309.905Z" transform="translate(-352.68 -213.784)" fill="#ec4c36"/>
      <path id="Trazado_1169275" data-name="Trazado 1169275" d="M350.849,95.919a7.6,7.6,0,0,0-.31-2.171l-5.682-19.266a3.662,3.662,0,0,0-7.075,1.9l4.582,15.054a3.639,3.639,0,0,0-2.244-.82,3.722,3.722,0,0,0-3.718,3.736v9.071a13,13,0,0,1-.539,3.7,12.928,12.928,0,0,0,4.1,13.66,32.168,32.168,0,0,0,10.2,5.295l.952.231,3.936-14.7a7.6,7.6,0,0,1-4.227-6.831Z" transform="translate(-278.644 -31.809)" fill="#ffcebf"/>
      <g id="Grupo_1220431" data-name="Grupo 1220431" transform="translate(56.675 39.958)">
        <path id="Trazado_1169276" data-name="Trazado 1169276" d="M353.782,91.2a3.552,3.552,0,0,1,2.013-.586h.026a1.418,1.418,0,0,0,1.415-1.821l-3.778-12.413a3.664,3.664,0,0,1,1.444-3.954,3.662,3.662,0,0,0-5.63,3.954Z" transform="translate(-346.809 -71.765)" fill="#ffb09e"/>
        <path id="Trazado_1169277" data-name="Trazado 1169277" d="M344.153,213.43a12.928,12.928,0,0,1-4.1-13.66,12.994,12.994,0,0,0,.539-3.7V187a3.781,3.781,0,0,1,1.581-3.065,3.636,3.636,0,0,0-2.048-.671A3.722,3.722,0,0,0,336.4,187v9.071a13,13,0,0,1-.539,3.7,12.928,12.928,0,0,0,4.1,13.66,32.165,32.165,0,0,0,10.2,5.295l.952.231.349-1.3A28.72,28.72,0,0,1,344.153,213.43Z" transform="translate(-335.321 -164.414)" fill="#ffb09e"/>
      </g>
      <path id="Trazado_1169278" data-name="Trazado 1169278" d="M100.189,268.294l-11.754-12.2h-15.6L61.077,268.3c-6.635,8.392-2.41,24.131,9.705,24.131h19.7c12.085,0,16.344-15.742,9.7-24.138Z" transform="translate(-48.153 -184.981)" fill="#ffcb66"/>
      <circle id="Elipse_14458" data-name="Elipse 14458" cx="11.703" cy="11.703" r="11.703" transform="translate(20.779 77.554)" fill="#ffea80"/>
      <path id="Trazado_1169279" data-name="Trazado 1169279" d="M146,40.688l2.6,13h10.4l2.6-13-7.8,2.6Z" transform="translate(-121.327 -5.982)" fill="#ffcb66"/>
      <path id="Trazado_1169280" data-name="Trazado 1169280" d="M146,40.688l2.6,13h5.023l-2.242-11.209Z" transform="translate(-121.327 -5.982)" fill="#ffa64d"/>
      <path id="Trazado_1169281" data-name="Trazado 1169281" d="M73.889,260.214a2.512,2.512,0,0,1,1.809-.769H89.684a6.365,6.365,0,0,0,1.745-.243l-2.993-3.107h-15.6L61.077,268.3c-6.635,8.392-2.41,24.131,9.705,24.131h5.023c-12.115,0-16.34-15.738-9.705-24.131Z" transform="translate(-48.153 -184.982)" fill="#ffa64d"/>
      <path id="Trazado_1169282" data-name="Trazado 1169282" d="M84.751,87.044h17.478A2.927,2.927,0,0,1,105.156,90a2.975,2.975,0,0,1-3,2.9h-.915a2.927,2.927,0,0,1,2.925,2.954,2.975,2.975,0,0,1-3,2.9h-.9a2.927,2.927,0,0,1,2.925,2.955,2.974,2.974,0,0,1-3,2.9H99.081a2.927,2.927,0,0,1,2.925,2.956,2.976,2.976,0,0,1-3,2.9H79.549a6.458,6.458,0,0,1-3.908-1.3,4.467,4.467,0,0,0-3.151-1.3H69.163V89.431c3.31-4.816,10.121-1.481,12.722-6.3a19.533,19.533,0,0,1,1.622-2.314Z" transform="translate(-57.473 -39.333)" fill="#d78878"/>
      <path id="Trazado_1169283" data-name="Trazado 1169283" d="M84.571,110.447a6.461,6.461,0,0,1-3.906-1.3,4.285,4.285,0,0,0-3.007-1.3,3.473,3.473,0,0,1-3.473-3.473V90.756a3.45,3.45,0,0,1,1.351-2.751c2.581-1.959,6.223-1.419,8.889-2.589l-.919-4.594a19.532,19.532,0,0,0-1.622,2.314c-2.6,4.814-9.412,1.479-12.722,6.3v18.415h3.328a4.467,4.467,0,0,1,3.151,1.3,6.458,6.458,0,0,0,3.908,1.3Z" transform="translate(-57.472 -39.333)" fill="#ca6e59"/>
      <path id="Trazado_1169284" data-name="Trazado 1169284" d="M7.432,102.233H17.866v26.005H7.432Z" transform="translate(-6.176 -57.125)" fill="#beebfa"/>
      <path id="Trazado_1169285" data-name="Trazado 1169285" d="M7.432,102.233h5.023v26.005H7.432Z" transform="translate(-6.176 -57.125)" fill="#96c8ef"/>
      <g id="Grupo_1220432" data-name="Grupo 1220432" transform="translate(0 33.489)">
        <path id="Trazado_1169286" data-name="Trazado 1169286" d="M33.38,131.995v-5.11a1.256,1.256,0,1,0-2.512,0v5.11a1.256,1.256,0,0,0,2.512,0Z" transform="translate(-25.651 -110.056)"/>
        <path id="Trazado_1169287" data-name="Trazado 1169287" d="M358.2,103.572l-8.113-2.174a1.256,1.256,0,0,0-1.538.888l-.31,1.159a6.3,6.3,0,0,1-2.208-4.815l.025-8.877a8.871,8.871,0,0,0-.363-2.53l-2.11-7.151a1.256,1.256,0,0,0-2.409.711l2.11,7.151a6.363,6.363,0,0,1,.26,1.813l-.025,8.861a8.884,8.884,0,0,0,4.019,7.441L344.177,118.6a30.326,30.326,0,0,1-9.461-4.959,11.759,11.759,0,0,1-3.7-12.332,14.209,14.209,0,0,0,.592-4.063V88.178c0-3.133,4.737-3.23,4.737.366l.073,8.507a1.256,1.256,0,0,0,1.256,1.245h.011a1.256,1.256,0,0,0,1.245-1.266l-.073-8.5a6.049,6.049,0,0,0-1.453-4l-4.464-14.666a2.557,2.557,0,0,1,1.708-2.927,2.409,2.409,0,0,1,2.947,1.7l.008.03,2.024,6.865a1.256,1.256,0,1,0,2.409-.71l-2.02-6.852a4.918,4.918,0,1,0-9.486,2.6L334.373,83.2a5.091,5.091,0,0,0-5.278,4.978V97.25a11.7,11.7,0,0,1-.487,3.346,14.426,14.426,0,0,0,4.509,14.986,32.969,32.969,0,0,0,10.408,5.453l-.411,1.533a1.256,1.256,0,0,0,.888,1.538l8.113,2.174q.953.243,1.538-.888l5.435-20.282a1.255,1.255,0,0,0-.888-1.538Zm-6.648,19.957-5.687-1.524,4.785-17.856,5.687,1.524Z" transform="translate(-272.594 -59.128)"/>
        <path id="Trazado_1169288" data-name="Trazado 1169288" d="M449.607,368.685l-.543,2.028a1.256,1.256,0,0,0,.888,1.538q.953.243,1.538-.888l.543-2.028a1.256,1.256,0,1,0-2.426-.65Z" transform="translate(-373.128 -311.257)"/>
        <path id="Trazado_1169289" data-name="Trazado 1169289" d="M53.021,82.534c-.025-.032-.052-.063-.08-.092L42.991,72.115a4.2,4.2,0,0,0,2.062-6.287,4.178,4.178,0,0,0,1.118-5.949,4.175,4.175,0,0,0,.979-5.842,4.2,4.2,0,0,0-2.395-7.581H39.212l2.3-11.5q.013-1.657-1.628-1.438l-7.4,2.468-7.4-2.468q-1.642-.219-1.628,1.438l1.246,6.231a16.092,16.092,0,0,0-1.385,2.024c-.962,1.78-2.611,2.113-5.222,2.509a13.682,13.682,0,0,0-5.14,1.5v-2.11a1.256,1.256,0,0,0-1.256-1.256H1.256A1.256,1.256,0,0,0,0,45.108V56.834a1.256,1.256,0,0,0,2.512,0V46.364h7.922V69.858H2.512V62.306a1.256,1.256,0,0,0-2.512,0v8.807a1.256,1.256,0,0,0,1.256,1.256H11.689a1.256,1.256,0,0,0,1.256-1.256V69.769h2.073a3.191,3.191,0,0,1,2.265.935,7.536,7.536,0,0,0,4.453,1.656L12.02,82.449C4.8,89.986,8.484,108.706,22.63,108.706H30.2a1.256,1.256,0,1,0,0-2.512H22.63c-10.819,0-14.707-14.443-8.757-22.048L25.213,72.37H39.749l11.338,11.77c5.932,7.579,2.01,22.055-8.755,22.055H35.677a1.256,1.256,0,0,0,0,2.512h6.656c12.9,0,17.971-16.965,10.688-26.172ZM32.082,38.5a1.257,1.257,0,0,0,.794,0l5.749-1.916L36.65,46.453H33.735V42.507a1.256,1.256,0,1,0-2.512,0v3.945H28.307l-1.974-9.871ZM15.018,67.257H12.946V50.511c1.335-1.679,3.281-1.974,5.515-2.313,2.469-.374,5.257-.8,6.891-3.509l.7,3.283a1.256,1.256,0,0,0,1.228.995H44.693a1.676,1.676,0,0,1,1.732,1.742,1.718,1.718,0,0,1-1.744,1.6h-.915a1.254,1.254,0,0,0-.118,2.506c1.159.158,1.67.6,1.786,1.747a1.718,1.718,0,0,1-1.744,1.6h-.9a1.257,1.257,0,0,0-.118,2.506c1.156.184,1.67.6,1.786,1.748a1.717,1.717,0,0,1-1.743,1.6H41.608a1.255,1.255,0,0,0-.118,2.506c1.152.2,1.671.6,1.786,1.748a1.719,1.719,0,0,1-1.744,1.6H22.076a5.341,5.341,0,0,1-3.022-.935,5.685,5.685,0,0,0-4.036-1.666Z" transform="translate(0 -33.489)"/>
        <path id="Trazado_1169290" data-name="Trazado 1169290" d="M170.419,316.956h-1.429a1.345,1.345,0,1,1,0-2.689H170.6a1.087,1.087,0,0,1,1.048.78,1.256,1.256,0,0,0,2.406-.722,3.58,3.58,0,0,0-3.094-2.552v-1.5a1.256,1.256,0,0,0-2.512,0v1.524a3.857,3.857,0,0,0,.542,7.675h1.429a1.345,1.345,0,1,1,0,2.689h-1.276a1.087,1.087,0,0,1-1.048-.779,1.256,1.256,0,0,0-2.406.722,3.579,3.579,0,0,0,2.759,2.5v1.552a1.256,1.256,0,0,0,2.512,0v-1.524a3.857,3.857,0,0,0-.541-7.675Z" transform="translate(-137.223 -262.444)"/>
        <path id="Trazado_1169291" data-name="Trazado 1169291" d="M141.425,299.73a12.958,12.958,0,1,0-12.958,12.958A12.973,12.973,0,0,0,141.425,299.73Zm-12.958,10.447a10.447,10.447,0,1,1,10.447-10.447,10.459,10.459,0,0,1-10.447,10.447Z" transform="translate(-95.985 -243.962)"/>
      </g>
    </g>
  </g>
</svg>
