<svg xmlns="http://www.w3.org/2000/svg" xmlns:xlink="http://www.w3.org/1999/xlink" width="113" height="113" viewBox="0 0 113 113">
  <defs>
    <filter id="Trazado_982547" x="0" y="0" width="113" height="113" filterUnits="userSpaceOnUse">
      <feOffset dy="3" input="SourceAlpha"/>
      <feGaussianBlur stdDeviation="3" result="blur"/>
      <feFlood flood-opacity="0.161"/>
      <feComposite operator="in" in2="blur"/>
      <feComposite in="SourceGraphic"/>
    </filter>
  </defs>
  <g id="Grupo_1220434" data-name="Grupo 1220434" transform="translate(-1059 -4820.872)">
    <g id="Grupo_1219944" data-name="Grupo 1219944" transform="translate(0 4282.371)">
      <g id="Grupo_1214349" data-name="Grupo 1214349" transform="translate(0 -3628.444)">
        <g id="Grupo_1212851" data-name="Grupo 1212851" transform="translate(1068 4172.946)">
          <g id="Grupo_1209935" data-name="Grupo 1209935">
            <g id="Grupo_1208705" data-name="Grupo 1208705">
              <g id="Grupo_1148633" data-name="Grupo 1148633">
                <g id="Grupo_1148525" data-name="Grupo 1148525">
                  <g transform="matrix(1, 0, 0, 1, -9, -6)" filter="url(#Trazado_982547)">
                    <g id="Trazado_982547-2" data-name="Trazado 982547" transform="translate(9 6)" fill="#f9e3d4">
                      <path d="M 47.5 93.5 C 41.28937149047852 93.5 35.26533508300781 92.28397369384766 29.59518623352051 89.88570404052734 C 24.11771965026855 87.56893157958984 19.19813346862793 84.25196075439453 14.97309303283691 80.02691650390625 C 10.74804019927979 75.80186462402344 7.431066513061523 70.88229370117188 5.114293098449707 65.40481567382812 C 2.716026782989502 59.73468017578125 1.5 53.71062850952148 1.5 47.5 C 1.5 41.28937149047852 2.716026782989502 35.26533508300781 5.114293098449707 29.59518623352051 C 7.431066513061523 24.11771965026855 10.74804019927979 19.19813346862793 14.97309303283691 14.97309303283691 C 19.19813346862793 10.74804019927979 24.11771965026855 7.431066513061523 29.59518623352051 5.114293098449707 C 35.26533508300781 2.716026782989502 41.28937149047852 1.5 47.5 1.5 C 53.71062850952148 1.5 59.73468017578125 2.716026782989502 65.40481567382812 5.114293098449707 C 70.88229370117188 7.431066513061523 75.80186462402344 10.74804019927979 80.02691650390625 14.97309303283691 C 84.25196075439453 19.19813346862793 87.56893157958984 24.11771965026855 89.88570404052734 29.59518623352051 C 92.28397369384766 35.26533508300781 93.5 41.28937149047852 93.5 47.5 C 93.5 53.71062850952148 92.28397369384766 59.73468017578125 89.88570404052734 65.40481567382812 C 87.56893157958984 70.88229370117188 84.25196075439453 75.80186462402344 80.02691650390625 80.02691650390625 C 75.80186462402344 84.25196075439453 70.88229370117188 87.56893157958984 65.40481567382812 89.88570404052734 C 59.73468017578125 92.28397369384766 53.71062850952148 93.5 47.5 93.5 Z" stroke="none"/>
                      <path d="M 47.5 3 C 41.49121475219727 3 35.66376876831055 4.176155090332031 30.17950439453125 6.495796203613281 C 24.88084411621094 8.736953735351562 20.12152099609375 11.94598388671875 16.03375244140625 16.03375244140625 C 11.94598388671875 20.12152099609375 8.736953735351562 24.88084411621094 6.495796203613281 30.17950439453125 C 4.176155090332031 35.66376876831055 3 41.49121475219727 3 47.5 C 3 53.50878524780273 4.176155090332031 59.33623123168945 6.495796203613281 64.82049560546875 C 8.736953735351562 70.11915588378906 11.94598388671875 74.87847900390625 16.03375244140625 78.96624755859375 C 20.12152099609375 83.05401611328125 24.88084411621094 86.26304626464844 30.17950439453125 88.50419616699219 C 35.66376876831055 90.82384490966797 41.49121475219727 92 47.5 92 C 53.50878524780273 92 59.33623123168945 90.82384490966797 64.82049560546875 88.50419616699219 C 70.11915588378906 86.26304626464844 74.87847900390625 83.05401611328125 78.96624755859375 78.96624755859375 C 83.05401611328125 74.87847900390625 86.26304626464844 70.11915588378906 88.50419616699219 64.82049560546875 C 90.82384490966797 59.33623123168945 92 53.50878524780273 92 47.5 C 92 41.49121475219727 90.82384490966797 35.66376876831055 88.50419616699219 30.17950439453125 C 86.26304626464844 24.88084411621094 83.05401611328125 20.12152099609375 78.96624755859375 16.03375244140625 C 74.87847900390625 11.94598388671875 70.11915588378906 8.736953735351562 64.82049560546875 6.495796203613281 C 59.33623123168945 4.176155090332031 53.50878524780273 3 47.5 3 M 47.5 0 C 73.7335205078125 0 95 21.2664794921875 95 47.5 C 95 73.7335205078125 73.7335205078125 95 47.5 95 C 21.2664794921875 95 0 73.7335205078125 0 47.5 C 0 21.2664794921875 21.2664794921875 0 47.5 0 Z" stroke="none" fill="#eca675"/>
                    </g>
                  </g>
                </g>
              </g>
            </g>
          </g>
        </g>
      </g>
    </g>
    <g id="soborno_1_" data-name="soborno (1)" transform="translate(1078.558 4839.645)">
      <path id="Trazado_1169292" data-name="Trazado 1169292" d="M60.507,14.755A12.753,12.753,0,1,0,45.688,27.327l2.066,4.82,2.066-4.82A12.746,12.746,0,0,0,60.507,14.755Z" transform="translate(5.42 0.159)" fill="#f3a845"/>
      <path id="Trazado_1169293" data-name="Trazado 1169293" d="M47.754,2a12.737,12.737,0,0,0-9.82,20.869H50.072a5.8,5.8,0,0,0,5.8-5.8V4.916A12.7,12.7,0,0,0,47.754,2Z" transform="translate(5.42 0.161)" fill="#eecc61"/>
      <path id="Trazado_1169294" data-name="Trazado 1169294" d="M32.507,14.755A12.753,12.753,0,1,0,17.687,27.327l2.066,4.82,2.066-4.82A12.746,12.746,0,0,0,32.507,14.755Z" transform="translate(0.956 0.159)" fill="#559b38"/>
      <path id="Trazado_1169295" data-name="Trazado 1169295" d="M19.754,2a12.737,12.737,0,0,0-9.82,20.869H22.072a5.8,5.8,0,0,0,5.8-5.8V4.916A12.7,12.7,0,0,0,19.754,2Z" transform="translate(0.956 0.161)" fill="#6bc148"/>
      <path id="Trazado_1169296" data-name="Trazado 1169296" d="M56.376,50.391,36.666,35.319H26.232V33H10V49.232h6.956L38.985,65.463l3.362-4.475,1.275,1,3.362-4.475,1.275,1,3.362-4.475,1.275,1Z" transform="translate(1.435 5.103)" fill="#fddfb1"/>
      <path id="Trazado_1169297" data-name="Trazado 1169297" d="M18.213,48.3,15,52.589,31.232,64.183l3.036-4.049Z" transform="translate(2.232 7.542)" fill="#fdd089"/>
      <path id="Trazado_1169298" data-name="Trazado 1169298" d="M58.782,34.478H47.188L36.753,31H24v4.638H34.435L54.144,50.71h4.638Z" transform="translate(3.666 4.784)" fill="#fdd089"/>
      <path id="Trazado_1169299" data-name="Trazado 1169299" d="M54,32h9.275V52.869H54Z" transform="translate(8.448 4.943)" fill="#474747"/>
      <path id="Trazado_1169300" data-name="Trazado 1169300" d="M2,31h9.275V51.869H2Z" transform="translate(0.159 4.784)" fill="#474747"/>
      <path id="Trazado_1169301" data-name="Trazado 1169301" d="M54,32V48.232h2.319A3.478,3.478,0,0,0,59.8,44.753V32Z" transform="translate(8.448 4.943)" fill="#686868"/>
      <path id="Trazado_1169302" data-name="Trazado 1169302" d="M2,31V47.232H4.319A3.478,3.478,0,0,0,7.8,43.753V31Z" transform="translate(0.159 4.784)" fill="#686868"/>
      <path id="Trazado_1169303" data-name="Trazado 1169303" d="M71.724,31.159H62.448a1.159,1.159,0,0,0-1.159,1.159v1.159H51.042L40.786,30.059A1.159,1.159,0,0,0,40.42,30H27.666a1.159,1.159,0,0,0-1.159,1.159v1.159H12.594V31.159A1.159,1.159,0,0,0,11.435,30H2.159A1.159,1.159,0,0,0,1,31.159V52.029a1.159,1.159,0,0,0,1.159,1.159h9.275a1.159,1.159,0,0,0,1.159-1.159V50.869H18.01l.812.594L16.3,54.811a1.159,1.159,0,0,0,.254,1.639L32.79,68.045a1.159,1.159,0,0,0,1.6-.248l2.347-3.13,2.995,2.2a1.159,1.159,0,0,0,1.615-.232L44,63.107l.348.272a1.159,1.159,0,0,0,1.642-.22l2.648-3.53.348.272a1.159,1.159,0,0,0,1.642-.22l2.648-3.53.348.272a1.159,1.159,0,0,0,1.642-.22l3.13-4.174h2.9v1.159a1.159,1.159,0,0,0,1.159,1.159h9.275a1.159,1.159,0,0,0,1.159-1.159V32.319a1.159,1.159,0,0,0-1.159-1.159ZM10.275,50.869H3.319V32.319h6.956ZM20.682,52.84l2.053,1.507-1.794,2.388-2.076-1.483Zm10.087,7.428-1.705,2.264L26.987,61.05l1.723-2.3ZM25.105,59.7l-2.264-1.623,1.767-2.357,2.241,1.651Zm8.116,5.8-2.264-1.623,1.679-2.239,2.24,1.65ZM54.113,53.867l-9.507-7.392-1.424,1.832,8.254,6.42-1.964,2.619-9.507-7.392-1.424,1.832L46.8,58.2l-1.964,2.619-9.507-7.392L33.9,55.263l8.254,6.42-1.983,2.643L19.079,48.782a1.159,1.159,0,0,0-.688-.232h-5.8V34.638H26.507V35.8a1.159,1.159,0,0,0,1.159,1.159H37.709L56.193,51.092ZM58.2,49.71,38.8,34.876a1.151,1.151,0,0,0-.7-.239H28.826V32.319H40.232l10.256,3.419a1.159,1.159,0,0,0,.366.059H61.289V49.71Zm12.36,2.319H63.608V33.478h6.956Z" transform="translate(0 4.624)"/>
      <path id="Trazado_1169304" data-name="Trazado 1169304" d="M17.025,28.512l1.823,4.25a1.159,1.159,0,0,0,2.131,0l1.823-4.25a13.913,13.913,0,1,0-5.776,0ZM19.913,3.32a11.587,11.587,0,0,1,1.879,23.021,1.159,1.159,0,0,0-.879.688l-1,2.333-1-2.333a1.159,1.159,0,0,0-.879-.688A11.587,11.587,0,0,1,19.913,3.32Z" transform="translate(0.797 0)"/>
      <path id="Trazado_1169305" data-name="Trazado 1169305" d="M45.025,28.512l1.823,4.25a1.159,1.159,0,0,0,2.131,0l1.823-4.25a13.913,13.913,0,1,0-5.776,0ZM47.913,3.32a11.587,11.587,0,0,1,1.879,23.021,1.159,1.159,0,0,0-.879.688l-1,2.333-1-2.333a1.159,1.159,0,0,0-.879-.688A11.587,11.587,0,0,1,47.913,3.32Z" transform="translate(5.26 0)"/>
      <path id="Trazado_1169306" data-name="Trazado 1169306" d="M13,12h2.319v2.319H13Z" transform="translate(1.913 1.755)"/>
      <path id="Trazado_1169307" data-name="Trazado 1169307" d="M17,12h2.319v2.319H17Z" transform="translate(2.55 1.755)"/>
      <path id="Trazado_1169308" data-name="Trazado 1169308" d="M21,12h2.319v2.319H21Z" transform="translate(3.188 1.755)"/>
      <path id="Trazado_1169309" data-name="Trazado 1169309" d="M46.638,20.232a2.319,2.319,0,0,1-2.319-2.319H42a4.638,4.638,0,0,0,3.478,4.473v2.483H47.8V22.386a4.628,4.628,0,0,0-1.159-9.111,2.319,2.319,0,1,1,2.319-2.319h2.319A4.638,4.638,0,0,0,47.8,6.483V4H45.478V6.483a4.628,4.628,0,0,0,1.159,9.111,2.319,2.319,0,0,1,0,4.638Z" transform="translate(6.535 0.48)"/>
    </g>
  </g>
</svg>
