<svg xmlns="http://www.w3.org/2000/svg" width="114" height="117" viewBox="0 0 114 117">
  <g id="Grupo_1220439" data-name="Grupo 1220439" transform="translate(-602 -5432)">
    <rect id="Rectángulo_421251" data-name="Rectángulo 421251" width="84" height="117" transform="translate(632 5432)" fill="#899e78"/>
    <g id="pensamiento_1_" data-name="pensamiento (1)" transform="translate(602 5441.04)">
      <g id="Grupo_1220437" data-name="Grupo 1220437" transform="translate(1.581 1.581)">
        <g id="Grupo_1220435" data-name="Grupo 1220435">
          <path id="Trazado_1169310" data-name="Trazado 1169310" d="M35.261,389.73,20.152,395.5C13.652,397.98,7.5,401.193,7.5,408.15V413.8H18.685L36.144,398.8Zm22.5,11.923L55.7,413.8H88.576V408.15c0-6.957-6.148-10.183-12.652-12.652L60.3,389.566l2.038,4.2a3.751,3.751,0,0,1-.6,4.621Z" transform="translate(-7.5 -309.004)" fill="#ffee89" fill-rule="evenodd"/>
          <path id="Trazado_1169311" data-name="Trazado 1169311" d="M175.4,451.054l-5.962,1.911-6.445,6.073H178.41l2.057-12.148Z" transform="translate(-130.207 -354.24)" fill="#7a797f" fill-rule="evenodd"/>
          <path id="Trazado_1169312" data-name="Trazado 1169312" d="M94.554,336.1l9.039-7.431a3.751,3.751,0,0,0,.6-4.621l-5.028-10.36,8.3-6.824a3.187,3.187,0,0,0-4.048-4.924L86.2,316.092l1.407-8.9a3.56,3.56,0,0,0-2.559-3.823l-2.3-.672-5.924,14.28L78,329.075,60.545,344.08h21.6l6.445-6.073Z" transform="translate(-49.36 -239.283)" fill="#ffdaaa" fill-rule="evenodd"/>
          <path id="Trazado_1169313" data-name="Trazado 1169313" d="M109.751,190.761a19,19,0,0,0,8.753,15.965l3.077-7.417,2.3.672a3.56,3.56,0,0,1,2.559,3.823l-1.407,8.9,17.218-14.156a3.2,3.2,0,0,1,3.843-.155,18.8,18.8,0,0,0,1.613-7.633V178.11l-22.138,0a7.931,7.931,0,0,1-7.907-7.91,7.932,7.932,0,0,0-7.909,7.907Z" transform="translate(-88.19 -135.895)" fill="#ffdaaa" fill-rule="evenodd"/>
          <path id="Trazado_1169314" data-name="Trazado 1169314" d="M71.077,220.356H74.24V207.7H67.914a3.172,3.172,0,0,0-3.163,3.163v3.163A6.344,6.344,0,0,0,71.077,220.356ZM112.194,207.7v12.651h3.163a6.344,6.344,0,0,0,6.326-6.326v-3.163a3.172,3.172,0,0,0-3.163-3.163Z" transform="translate(-52.679 -165.489)" fill="#ffb680" fill-rule="evenodd"/>
          <path id="Trazado_1169315" data-name="Trazado 1169315" d="M79.751,79.308h6.326A7.932,7.932,0,0,1,93.986,71.4a7.931,7.931,0,0,0,7.907,7.91l22.138,0h6.326v-9a25.3,25.3,0,0,0-50.606,0Zm12.231,35.481,2.847-6.864a19,19,0,0,1-8.753-15.965H82.914a6.272,6.272,0,0,1-3.163-.853v31.5l12.526-4.783Zm32.049-22.829a18.8,18.8,0,0,1-1.614,7.633,3.186,3.186,0,0,1,.2,5.079l-8.3,6.824,2.99,6.16,13.045,4.952v-31.5a6.272,6.272,0,0,1-3.163.853Z" transform="translate(-64.516 -37.093)" fill="#bababe" fill-rule="evenodd"/>
          <path id="Trazado_1169316" data-name="Trazado 1169316" d="M13.383,432.889c-3.437,2.165-5.883,5.063-5.883,9.449v5.651h4.744V437.594A9.773,9.773,0,0,1,13.383,432.889Z" transform="translate(-7.5 -343.191)" fill="#ffe200" fill-rule="evenodd"/>
          <path id="Trazado_1169317" data-name="Trazado 1169317" d="M66.064,482l-5.52,4.744h21.6L87.182,482Z" transform="translate(-49.359 -381.947)" fill="#ffb680" fill-rule="evenodd"/>
          <path id="Trazado_1169318" data-name="Trazado 1169318" d="M109.751,193.252a19,19,0,0,0,8.753,15.965l1.214-2.926a18.9,18.9,0,0,1-5.223-13.039V173.358a7.936,7.936,0,0,0-4.744,7.242Z" transform="translate(-88.19 -138.385)" fill="#ffb680" fill-rule="evenodd"/>
          <path id="Trazado_1169319" data-name="Trazado 1169319" d="M79.751,79.31H84.5V70.305a25.371,25.371,0,0,1,22.931-25.19,25.353,25.353,0,0,0-27.675,25.19ZM84.5,91.962H82.914a6.272,6.272,0,0,1-3.163-.853v31.5l4.744-1.811Z" transform="translate(-64.516 -37.095)" fill="#7a797f" fill-rule="evenodd"/>
          <circle id="Elipse_14459" data-name="Elipse 14459" cx="3.163" cy="3.163" r="3.163" transform="translate(75.437 39.485)" fill="#9ee6fa"/>
          <path id="Trazado_1169320" data-name="Trazado 1169320" d="M361.518,36.458a6.326,6.326,0,0,0,12.1,2.324,15.816,15.816,0,1,0-12.1-2.324Z" transform="translate(-281.331 -7.5)" fill="#fff" fill-rule="evenodd"/>
          <path id="Trazado_1169321" data-name="Trazado 1169321" d="M361.518,36.581a6.33,6.33,0,0,0,8.005,5.847c-3.274-2.416-3.218-4.853-3.359-8.444-11.726-7.863-6.927-22.956,3.141-26.329a15.815,15.815,0,0,0-7.787,28.925Z" transform="translate(-281.332 -7.623)" fill="#9ee6fa" fill-rule="evenodd"/>
        </g>
        <g id="Grupo_1220436" data-name="Grupo 1220436" transform="translate(44.843 14.067)">
          <path id="Trazado_1169322" data-name="Trazado 1169322" d="M229.656,80.539h-3.163V77.376h3.163Zm-6.326-3.163h-3.163V74.213h3.163Z" transform="translate(-220.167 -74.213)" fill="#fff"/>
        </g>
      </g>
      <g id="Grupo_1220438" data-name="Grupo 1220438" transform="translate(0)">
        <path id="Trazado_1169323" data-name="Trazado 1169323" d="M79.791,121.1a31.874,31.874,0,0,0-9.224-4.913L69,115.6V86.036a7.9,7.9,0,0,0,3.163-6.321V76.552A4.752,4.752,0,0,0,69,72.08v-7.7A26.857,26.857,0,0,0,24.393,44.205l2.089,2.375a23.694,23.694,0,0,1,39.359,17.8v7.424l-26.883,0h0a6.35,6.35,0,0,1-6.325-6.327V57.576H29.47v6.456a9.515,9.515,0,0,0-7.777,7.775H18.4V64.384a23.669,23.669,0,0,1,5.917-15.637L21.94,46.658a26.831,26.831,0,0,0-6.706,17.726v7.7a4.752,4.752,0,0,0-3.163,4.472v3.163a7.9,7.9,0,0,0,3.163,6.321v29.558l-1.566.6C6.57,118.9,0,122.49,0,130.321v7.232H63.68V134.39H51.655l1.646-9.72,3.517-2.892c1.792-1.473,2.2-4.1,1.02-6.532l-.3-.618,11.906,4.52c6.982,2.65,11.631,5.565,11.631,11.173v4.069H73.168v3.163h11.07v-7.232A11.671,11.671,0,0,0,79.791,121.1ZM62.678,74.971h4.744A1.583,1.583,0,0,1,69,76.552v3.163a4.75,4.75,0,0,1-4.744,4.744H62.678ZM24.724,73.389a6.338,6.338,0,0,1,4.905-6.165,9.525,9.525,0,0,0,9.328,7.749h0l20.557,0V86.041a17.151,17.151,0,0,1-.928,5.575c-.151-.03-.3-.052-.46-.068a4.737,4.737,0,0,0-3.492,1.059l-14,11.511.757-4.786a5.141,5.141,0,0,0-3.677-5.588l-3.659-1.071L31.2,99.553a17.323,17.323,0,0,1-6.477-13.513Zm-9.489,6.326V76.552a1.583,1.583,0,0,1,1.581-1.581h4.745v9.489H19.979A4.75,4.75,0,0,1,15.235,79.715ZM18.4,87.463a7.913,7.913,0,0,0,1.581.159h1.642a20.49,20.49,0,0,0,8.323,14.958l-2.51,6.049.217,2.224L18.4,114.386V87.463ZM3.163,130.321c0-5.587,4.651-8.508,11.634-11.174l13.172-5.029.6,6.185L12.18,134.39H3.163Zm45.285,4.069H38.354l3.284-3.095,5.909-1.894,2.028-1.667Zm6.362-15.055L46,126.575,39.99,128.5l-6.249,5.888H17.033l14.846-12.76L30.66,109.11l5.229-12.6.937.274a1.983,1.983,0,0,1,1.441,2.058l-1.313,8.306-1.5,1.234,2.009,2.443L56.644,95.05a1.606,1.606,0,0,1,2.039,2.481L45.845,108.086l2.009,2.443,2.987-2.456,4.151,8.554A2.267,2.267,0,0,1,54.81,119.335Zm-1.455-13.329,7.338-6.033a4.777,4.777,0,0,0,.661-6.7,20.235,20.235,0,0,0,1.264-5.648h1.642a7.915,7.915,0,0,0,1.582-.159V114.4l-10.315-3.916Z" transform="translate(0 -29.593)"/>
        <path id="Trazado_1169324" data-name="Trazado 1169324" d="M317,497h3.163v3.163H317Z" transform="translate(-250.157 -392.203)"/>
        <path id="Trazado_1169325" data-name="Trazado 1169325" d="M364.4,0a17.4,17.4,0,0,0-10.3,31.413,7.909,7.909,0,0,0,14.681,2.822A17.4,17.4,0,0,0,364.4,0Zm2.974,31.317-.787.167-.328.735a4.745,4.745,0,0,1-9.075-1.741l-.031-.8-.668-.448a14.232,14.232,0,1,1,10.89,2.091Z" transform="translate(-273.832)"/>
        <path id="Trazado_1169326" data-name="Trazado 1169326" d="M362.5,187.258A4.744,4.744,0,1,0,367.247,192,4.75,4.75,0,0,0,362.5,187.258Zm0,6.326A1.581,1.581,0,1,1,364.084,192,1.583,1.583,0,0,1,362.5,193.584Z" transform="translate(-282.321 -147.773)"/>
        <path id="Trazado_1169327" data-name="Trazado 1169327" d="M452,75h3.163v3.163H452Z" transform="translate(-356.691 -59.185)"/>
        <path id="Trazado_1169328" data-name="Trazado 1169328" d="M392,75h3.163v3.163H392Z" transform="translate(-309.343 -59.185)"/>
        <path id="Trazado_1169329" data-name="Trazado 1169329" d="M422,75h3.163v3.163H422Z" transform="translate(-333.017 -59.185)"/>
      </g>
    </g>
  </g>
</svg>
