<svg xmlns="http://www.w3.org/2000/svg" width="135.538" height="126" viewBox="0 0 135.538 126">
  <g id="Grupo_1220442" data-name="Grupo 1220442" transform="translate(-829.462 -7578)">
    <rect id="Rectángulo_421253" data-name="Rectángulo 421253" width="78" height="126" transform="translate(887 7578)" fill="#bca78f"/>
    <g id="derechos-civiles_3_" data-name="derechos-civiles (3)" transform="translate(829.462 7584.462)">
      <path id="Trazado_1169337" data-name="Trazado 1169337" d="M196,85.582v15.74l2.918,7.748v74.317h15.176l3.5-69.552,8.872-16.6V85.582Z" transform="translate(-150.24 -65.601)" fill="#fdbba8"/>
      <path id="Trazado_1169338" data-name="Trazado 1169338" d="M270.873,85.582V97.236a12.951,12.951,0,0,1-5.764,10.778A7,7,0,0,0,262,113.835l-3.5,1.472,3.5,1.472v66.609h7V113.835a19.94,19.94,0,0,0,8.872-16.6V85.582Z" transform="translate(-198.147 -65.601)" fill="#fc9e8d"/>
      <path id="Trazado_1169339" data-name="Trazado 1169339" d="M296.438,37.5A4.436,4.436,0,0,0,292,41.936l-3.5,3.5,3.5,3.5a4.436,4.436,0,0,0,8.872,0v-7A4.436,4.436,0,0,0,296.438,37.5Z" transform="translate(-221.143 -28.745)" fill="#fc8071"/>
      <path id="Trazado_1169340" data-name="Trazado 1169340" d="M258.438,22.5A4.436,4.436,0,0,0,254,26.936l-3.5,5.253,3.5,5.253a4.436,4.436,0,0,0,8.872,0V26.936A4.436,4.436,0,0,0,258.438,22.5Z" transform="translate(-192.015 -17.247)" fill="#fc9e8d"/>
      <path id="Trazado_1169341" data-name="Trazado 1169341" d="M220.438,7.5A4.436,4.436,0,0,0,216,11.936l-3.5,14.009h12.374V11.936A4.436,4.436,0,0,0,220.438,7.5Z" transform="translate(-162.887 -5.749)" fill="#fc8071"/>
      <path id="Trazado_1169342" data-name="Trazado 1169342" d="M193.936,7.5a4.436,4.436,0,0,0-4.436,4.436V25.944h8.872V11.936A4.436,4.436,0,0,0,193.936,7.5Z" transform="translate(-145.257 -5.749)" fill="#fc9e8d"/>
      <path id="Trazado_1169343" data-name="Trazado 1169343" d="M179.372,83.376v-7h8.872a4.436,4.436,0,0,0,4.431-4.65,4.518,4.518,0,0,0-4.556-4.222h-8.747a8.872,8.872,0,0,0-8.872,8.872v7a19.973,19.973,0,0,0,24.048,19.542V98.552A15.176,15.176,0,0,0,179.372,83.376Z" transform="translate(-130.693 -51.741)" fill="#fdd9c4"/>
      <path id="Trazado_1169344" data-name="Trazado 1169344" d="M33,269.082v15.74l2.918,7.748v31.475H51.094l3.5-26.71,8.872-16.6V269.082Z" transform="translate(-25.295 -206.259)" fill="#f6d76f"/>
      <path id="Trazado_1169345" data-name="Trazado 1169345" d="M107.873,269.082v11.654a12.951,12.951,0,0,1-5.764,10.778A7,7,0,0,0,99,297.335l-3.5,1.472,3.5,1.472v23.767h7v-26.71a19.94,19.94,0,0,0,8.872-16.6V269.082Z" transform="translate(-73.203 -206.259)" fill="#f9bb69"/>
      <path id="Trazado_1169346" data-name="Trazado 1169346" d="M133.438,221A4.436,4.436,0,0,0,129,225.436l-3.5,3.5,3.5,3.5a4.436,4.436,0,0,0,8.872,0v-7A4.436,4.436,0,0,0,133.438,221Z" transform="translate(-96.199 -169.403)" fill="#fc9f63"/>
      <path id="Trazado_1169347" data-name="Trazado 1169347" d="M95.438,206A4.436,4.436,0,0,0,91,210.436l-3.5,5.253,3.5,5.253a4.436,4.436,0,0,0,8.872,0V210.436A4.436,4.436,0,0,0,95.438,206Z" transform="translate(-67.071 -157.905)" fill="#f9bb69"/>
      <path id="Trazado_1169348" data-name="Trazado 1169348" d="M57.438,191A4.436,4.436,0,0,0,53,195.436l-3.5,14.008H61.874V195.436A4.436,4.436,0,0,0,57.438,191Z" transform="translate(-37.943 -146.407)" fill="#fc9f63"/>
      <path id="Trazado_1169349" data-name="Trazado 1169349" d="M30.936,191a4.436,4.436,0,0,0-4.436,4.436v14.008h8.872V195.436A4.436,4.436,0,0,0,30.936,191Z" transform="translate(-20.313 -146.407)" fill="#f9bb69"/>
      <path id="Trazado_1169350" data-name="Trazado 1169350" d="M16.372,266.876v-7h8.872a4.436,4.436,0,0,0,4.431-4.65A4.518,4.518,0,0,0,25.118,251H16.372A8.872,8.872,0,0,0,7.5,259.872v7a19.973,19.973,0,0,0,24.048,19.542v-4.366A15.176,15.176,0,0,0,16.372,266.876Z" transform="translate(-5.749 -192.399)" fill="#fae8ac"/>
      <path id="Trazado_1169351" data-name="Trazado 1169351" d="M359,269.082v15.74l2.918,7.748v31.475h15.176l3.5-26.71,8.872-16.6V269.082Z" transform="translate(-275.184 -206.259)" fill="#ae6e5a"/>
      <path id="Trazado_1169352" data-name="Trazado 1169352" d="M433.873,269.082v11.654a12.951,12.951,0,0,1-5.764,10.778A7,7,0,0,0,425,297.335l-3.5,1.472,3.5,1.472v23.767h7v-26.71a19.94,19.94,0,0,0,8.872-16.6V269.082Z" transform="translate(-323.091 -206.259)" fill="#8d5d4d"/>
      <path id="Trazado_1169353" data-name="Trazado 1169353" d="M459.438,221A4.436,4.436,0,0,0,455,225.436l-3.5,3.5,3.5,3.5a4.436,4.436,0,1,0,8.872,0v-7A4.436,4.436,0,0,0,459.438,221Z" transform="translate(-346.087 -169.403)" fill="#6c4b41"/>
      <path id="Trazado_1169354" data-name="Trazado 1169354" d="M421.438,206A4.436,4.436,0,0,0,417,210.436l-3.5,5.253,3.5,5.253a4.436,4.436,0,0,0,8.872,0V210.436A4.436,4.436,0,0,0,421.438,206Z" transform="translate(-316.959 -157.905)" fill="#8d5d4d"/>
      <path id="Trazado_1169355" data-name="Trazado 1169355" d="M383.438,191A4.436,4.436,0,0,0,379,195.436l-3.5,14.008h12.374V195.436A4.436,4.436,0,0,0,383.438,191Z" transform="translate(-287.831 -146.407)" fill="#6c4b41"/>
      <path id="Trazado_1169356" data-name="Trazado 1169356" d="M356.936,191a4.436,4.436,0,0,0-4.436,4.436v14.008h8.872V195.436A4.436,4.436,0,0,0,356.936,191Z" transform="translate(-270.201 -146.407)" fill="#8d5d4d"/>
      <path id="Trazado_1169357" data-name="Trazado 1169357" d="M342.372,266.876v-7h8.872a4.436,4.436,0,0,0,4.431-4.65A4.518,4.518,0,0,0,351.118,251h-8.747a8.872,8.872,0,0,0-8.872,8.872v7a19.973,19.973,0,0,0,24.048,19.542v-4.366A15.176,15.176,0,0,0,342.372,266.876Z" transform="translate(-255.637 -192.399)" fill="#d7795c"/>
      <path id="Trazado_1169358" data-name="Trazado 1169358" d="M206.426,13.191a6.184,6.184,0,0,0-9.176-5.415,6.182,6.182,0,0,0-8.872-3.5A6.181,6.181,0,0,0,178.059,1.88a6.183,6.183,0,0,0-10.623,4.307V16A10.614,10.614,0,0,0,163,24.632v7a21.687,21.687,0,0,0,8.872,17.509v68.642a1.751,1.751,0,0,0,1.751,1.751H195.8a1.751,1.751,0,0,0,1.751-1.751V49.145a21.685,21.685,0,0,0,8.872-17.509Zm-6.187-2.685a2.688,2.688,0,0,1,2.685,2.685v7a2.685,2.685,0,0,1-5.37,0v-7A2.688,2.688,0,0,1,200.239,10.506ZM191.367,7a2.688,2.688,0,0,1,2.685,2.685V20.2a2.685,2.685,0,0,1-5.37,0V9.689A2.688,2.688,0,0,1,191.367,7Zm-8.872-3.5a2.688,2.688,0,0,1,2.685,2.685v8.465a6.414,6.414,0,0,0-2.81-.644h-2.56V6.187A2.688,2.688,0,0,1,182.495,3.5ZM170.938,6.187a2.685,2.685,0,0,1,5.37,0v7.821h-2.685a10.61,10.61,0,0,0-2.685.344Zm23.891,40.592a1.751,1.751,0,0,0-.777,1.455v67.8H175.374v-67.8a1.751,1.751,0,0,0-.777-1.455,18.2,18.2,0,0,1-8.1-15.143v-7a7.129,7.129,0,0,1,7.121-7.121h8.747a2.78,2.78,0,0,1,2.807,2.553,2.685,2.685,0,0,1-2.682,2.817h-8.872a1.751,1.751,0,0,0-1.751,1.751v7a1.751,1.751,0,0,0,1.751,1.751A13.435,13.435,0,0,1,185.4,40.358a1.751,1.751,0,0,0,3.069-1.687,16.942,16.942,0,0,0-13.091-8.7V26.382H182.5a6.215,6.215,0,0,0,4.438-1.878,6.173,6.173,0,0,0,8.87,0,6.176,6.176,0,0,0,7.121,1.267v5.867A18.2,18.2,0,0,1,194.829,46.779Z" transform="translate(-124.944 0)"/>
      <path id="Trazado_1169359" data-name="Trazado 1169359" d="M37.239,190.5a6.149,6.149,0,0,0-2.989.772,6.182,6.182,0,0,0-8.872-3.5,6.181,6.181,0,0,0-10.319-2.394,6.183,6.183,0,0,0-10.623,4.307V199.5A10.613,10.613,0,0,0,0,208.131v7a21.687,21.687,0,0,0,8.872,17.509V235.1a1.751,1.751,0,0,0,3.5,0v-3.364a1.751,1.751,0,0,0-.777-1.455A18.2,18.2,0,0,1,3.5,215.135v-7a7.129,7.129,0,0,1,7.121-7.121H19.37a2.78,2.78,0,0,1,2.807,2.553,2.684,2.684,0,0,1-2.681,2.817H10.623a1.751,1.751,0,0,0-1.751,1.751v7a1.751,1.751,0,0,0,1.751,1.751A13.435,13.435,0,0,1,22.4,223.858a1.751,1.751,0,0,0,3.069-1.687,16.943,16.943,0,0,0-13.092-8.7v-3.593h7.121A6.216,6.216,0,0,0,23.933,208a6.173,6.173,0,0,0,8.87,0,6.176,6.176,0,0,0,7.121,1.267v5.867a18.194,18.194,0,0,1-8.095,15.143,1.751,1.751,0,0,0-.777,1.455v24.959H12.374V242.1a1.751,1.751,0,0,0-3.5,0v16.343a1.751,1.751,0,0,0,1.751,1.751H32.8a1.751,1.751,0,0,0,1.751-1.751v-25.8a21.685,21.685,0,0,0,8.872-17.509V196.691A6.194,6.194,0,0,0,37.239,190.5Zm-29.3,7.349v-8.166a2.685,2.685,0,1,1,5.37,0v7.821H10.623A10.609,10.609,0,0,0,7.938,197.853Zm11.431-.344H16.81v-7.821a2.685,2.685,0,1,1,5.37,0v8.465A6.414,6.414,0,0,0,19.37,197.508Zm9,8.872a2.688,2.688,0,0,1-2.685-2.685V193.189a2.685,2.685,0,1,1,5.37,0V203.7A2.688,2.688,0,0,1,28.367,206.38Zm8.872,0a2.688,2.688,0,0,1-2.685-2.685v-7a2.685,2.685,0,0,1,5.37,0v7A2.688,2.688,0,0,1,37.239,206.38Z" transform="translate(0 -140.658)"/>
      <path id="Trazado_1169360" data-name="Trazado 1169360" d="M363.239,190.5a6.149,6.149,0,0,0-2.989.772,6.182,6.182,0,0,0-8.872-3.5,6.181,6.181,0,0,0-10.319-2.394,6.183,6.183,0,0,0-10.623,4.307V199.5A10.614,10.614,0,0,0,326,208.132v7a21.687,21.687,0,0,0,8.872,17.509v25.8a1.751,1.751,0,0,0,1.751,1.751H358.8a1.751,1.751,0,0,0,1.751-1.751v-25.8a21.685,21.685,0,0,0,8.872-17.509V196.691A6.194,6.194,0,0,0,363.239,190.5Zm-8.872,0a2.688,2.688,0,0,1,2.685,2.685V203.7a2.685,2.685,0,0,1-5.37,0V193.189A2.688,2.688,0,0,1,354.367,190.5Zm-8.872-3.5a2.688,2.688,0,0,1,2.685,2.685v8.465a6.414,6.414,0,0,0-2.81-.644h-2.56v-7.821A2.688,2.688,0,0,1,345.495,187Zm-11.557,2.685a2.685,2.685,0,1,1,5.37,0v7.821h-2.685a10.609,10.609,0,0,0-2.685.344Zm23.891,40.592a1.751,1.751,0,0,0-.777,1.455v24.959H338.374v-24.96a1.751,1.751,0,0,0-.777-1.455,18.2,18.2,0,0,1-8.1-15.143v-7a7.129,7.129,0,0,1,7.121-7.121h8.747a2.78,2.78,0,0,1,2.807,2.553,2.685,2.685,0,0,1-2.682,2.817h-8.872a1.751,1.751,0,0,0-1.751,1.751v7a1.751,1.751,0,0,0,1.751,1.751,13.436,13.436,0,0,1,11.773,6.971,1.751,1.751,0,0,0,3.069-1.687,16.942,16.942,0,0,0-13.091-8.7v-3.592H345.5A6.215,6.215,0,0,0,349.933,208a6.173,6.173,0,0,0,8.87,0,6.176,6.176,0,0,0,7.121,1.267v5.867a18.2,18.2,0,0,1-8.1,15.143Zm5.41-23.9a2.688,2.688,0,0,1-2.685-2.685v-7a2.685,2.685,0,1,1,5.37,0v7A2.688,2.688,0,0,1,363.239,206.38Z" transform="translate(-249.888 -140.658)"/>
    </g>
  </g>
</svg>
