<svg xmlns="http://www.w3.org/2000/svg" xmlns:xlink="http://www.w3.org/1999/xlink" width="93.934" height="93.934" viewBox="0 0 93.934 93.934">
  <defs>
    <filter id="Trazado_982547" x="0" y="0" width="93.934" height="93.934" filterUnits="userSpaceOnUse">
      <feOffset dy="3" input="SourceAlpha"/>
      <feGaussianBlur stdDeviation="3" result="blur"/>
      <feFlood flood-opacity="0.161"/>
      <feComposite operator="in" in2="blur"/>
      <feComposite in="SourceGraphic"/>
    </filter>
  </defs>
  <g id="Grupo_1220456" data-name="Grupo 1220456" transform="translate(-817.066 -8198.033)">
    <g id="Grupo_1220005" data-name="Grupo 1220005" transform="translate(626 7155.185)">
      <g id="Grupo_1215981" data-name="Grupo 1215981" transform="translate(-0.229 -2679.151)">
        <g id="Grupo_1214594" data-name="Grupo 1214594" transform="translate(0 -1406)">
          <g id="Grupo_1214432" data-name="Grupo 1214432" transform="translate(-0.771 -2738.674)">
            <g id="Grupo_1183196" data-name="Grupo 1183196" transform="translate(1 1016.674)">
              <g id="Grupo_1179610" data-name="Grupo 1179610" transform="translate(8 4723.467)">
                <g id="Grupo_1175227" data-name="Grupo 1175227" transform="translate(-5.967 140.533)">
                  <g id="Grupo_1167337" data-name="Grupo 1167337" transform="translate(198.033 1992)">
                    <g id="Grupo_1166720" data-name="Grupo 1166720">
                      <g id="Grupo_1164305" data-name="Grupo 1164305">
                        <g id="Grupo_1163948" data-name="Grupo 1163948">
                          <g id="Grupo_1158168" data-name="Grupo 1158168">
                            <g id="Grupo_1152576" data-name="Grupo 1152576">
                              <g id="Grupo_1148633" data-name="Grupo 1148633">
                                <g id="Grupo_1148525" data-name="Grupo 1148525">
                                  <g transform="matrix(1, 0, 0, 1, -9, -6)" filter="url(#Trazado_982547)">
                                    <g id="Trazado_982547-2" data-name="Trazado 982547" transform="translate(9 6)" fill="#eae4dc">
                                      <path d="M 37.966796875 74.43359375 C 33.04315185546875 74.43359375 28.26757431030273 73.46962738037109 23.77274131774902 71.56847381591797 C 19.43047523498535 69.73184967041016 15.53040790557861 67.10224914550781 12.18087482452393 63.75271987915039 C 8.831341743469238 60.4031867980957 6.201741218566895 56.50312042236328 4.365118980407715 52.16086196899414 C 2.463963508605957 47.66601943969727 1.499996900558472 42.89044189453125 1.499996900558472 37.966796875 C 1.499996900558472 33.04315185546875 2.463963508605957 28.26757431030273 4.365118980407715 23.77274131774902 C 6.201741218566895 19.43047523498535 8.831341743469238 15.53040790557861 12.18087482452393 12.18087482452393 C 15.53040790557861 8.831341743469238 19.43047523498535 6.201741218566895 23.77274131774902 4.365118980407715 C 28.26757431030273 2.463963508605957 33.04315185546875 1.499996900558472 37.966796875 1.499996900558472 C 42.89044189453125 1.499996900558472 47.66601943969727 2.463963508605957 52.16086196899414 4.365118980407715 C 56.50312042236328 6.201741218566895 60.4031867980957 8.831341743469238 63.75271987915039 12.18087482452393 C 67.10224914550781 15.53040790557861 69.73184967041016 19.43047523498535 71.56847381591797 23.77274131774902 C 73.46962738037109 28.26757431030273 74.43359375 33.04315185546875 74.43359375 37.966796875 C 74.43359375 42.89044189453125 73.46962738037109 47.66601943969727 71.56847381591797 52.16086196899414 C 69.73184967041016 56.50313186645508 67.10224914550781 60.4031867980957 63.75271987915039 63.75271987915039 C 60.4031867980957 67.10224914550781 56.50313186645508 69.73184967041016 52.16086196899414 71.56847381591797 C 47.66601943969727 73.46962738037109 42.89044189453125 74.43359375 37.966796875 74.43359375 Z" stroke="none"/>
                                      <path d="M 37.966796875 3 C 33.2449836730957 3 28.66600799560547 3.924095153808594 24.35705947875977 5.746635437011719 C 20.19359588623047 7.507637023925781 16.45379638671875 10.02928161621094 13.24153518676758 13.24153518676758 C 10.02927398681641 16.45379638671875 7.507621765136719 20.19359588623047 5.746635437011719 24.35705947875977 C 3.924095153808594 28.66600799560547 3 33.2449836730957 3 37.966796875 C 3 42.6886100769043 3.924095153808594 47.26758575439453 5.746635437011719 51.57653427124023 C 7.507621765136719 55.73999786376953 10.02927398681641 59.47979736328125 13.24153518676758 62.69205856323242 C 16.45379638671875 65.90431976318359 20.19359588623047 68.42597198486328 24.35705947875977 70.18695831298828 C 28.66600799560547 72.00949859619141 33.2449836730957 72.93359375 37.966796875 72.93359375 C 42.6886100769043 72.93359375 47.26758575439453 72.00949859619141 51.57653427124023 70.18695831298828 C 55.73999786376953 68.42597198486328 59.47979736328125 65.90431976318359 62.69205856323242 62.69205856323242 C 65.90431976318359 59.47979736328125 68.42597198486328 55.73999786376953 70.18695831298828 51.57653427124023 C 72.00949859619141 47.26758575439453 72.93359375 42.6886100769043 72.93359375 37.966796875 C 72.93359375 33.2449836730957 72.00949859619141 28.66600799560547 70.18695831298828 24.35705947875977 C 68.42597198486328 20.19359588623047 65.90431976318359 16.45379638671875 62.69205856323242 13.24153518676758 C 59.47979736328125 10.02928161621094 55.73999786376953 7.507637023925781 51.57653427124023 5.746635437011719 C 47.26758575439453 3.924095153808594 42.6886100769043 3 37.966796875 3 M 37.966796875 0 C 58.93528366088867 0 75.93359375 16.99832153320312 75.93359375 37.966796875 C 75.93359375 58.93528366088867 58.93528366088867 75.93359375 37.966796875 75.93359375 C 16.99831008911133 75.93359375 0 58.93528366088867 0 37.966796875 C 0 16.99832153320312 16.99831008911133 0 37.966796875 0 Z" stroke="none" fill="#665b4e"/>
                                    </g>
                                  </g>
                                </g>
                              </g>
                            </g>
                          </g>
                        </g>
                      </g>
                    </g>
                  </g>
                </g>
              </g>
            </g>
          </g>
        </g>
      </g>
    </g>
    <g id="tramposo" transform="translate(791.442 8213.274)">
      <g id="Grupo_1220453" data-name="Grupo 1220453" transform="translate(50.477 0.977)">
        <path id="Trazado_1169377" data-name="Trazado 1169377" d="M92.618,310.944l-10.226-2.416H73.708l-10.226,2.416a8.421,8.421,0,0,0-6.485,8.2v14.916H99.1V319.139A8.421,8.421,0,0,0,92.618,310.944Z" transform="translate(-56.997 -269.316)" fill="#dff6fd"/>
        <path id="Trazado_1169378" data-name="Trazado 1169378" d="M287.121,338.1a8.422,8.422,0,0,0-5.179-7.771,13.937,13.937,0,0,0-4.8,22.687h9.976Z" transform="translate(-245.014 -288.278)" fill="#c8effe"/>
        <path id="Trazado_1169379" data-name="Trazado 1169379" d="M198.835,388.21l1.861,15.148H194.38l1.861-15.148Z" transform="translate(-176.485 -338.619)" fill="#fd8087"/>
        <path id="Trazado_1169380" data-name="Trazado 1169380" d="M198.835,347.9l1.861-2.879-3.158-3.158-3.158,3.158,1.861,2.879Z" transform="translate(-176.485 -298.31)" fill="#fe646f"/>
        <path id="Trazado_1169381" data-name="Trazado 1169381" d="M193.973,268.992l-4.342,4.342-4.342-4.342v-5.921h8.684Z" transform="translate(-168.578 -229.781)" fill="#f6a96c"/>
        <path id="Trazado_1169382" data-name="Trazado 1169382" d="M169.016,312.87l-5.807,5.807-1.623-9.42,3.088-.729Z" transform="translate(-147.962 -269.316)" fill="#99e6fc"/>
        <path id="Trazado_1169383" data-name="Trazado 1169383" d="M218.624,312.87l5.807,5.807,1.623-9.42-3.088-.729Z" transform="translate(-197.571 -269.316)" fill="#99e6fc"/>
        <path id="Trazado_1169384" data-name="Trazado 1169384" d="M150.973,134.663a10.132,10.132,0,0,1-10.132-10.132V112.557H161.1v11.974A10.132,10.132,0,0,1,150.973,134.663Z" transform="translate(-129.92 -98.872)" fill="#fed2a4"/>
        <path id="Trazado_1169385" data-name="Trazado 1169385" d="M204.156,112.557h-13.7a4.729,4.729,0,0,0-.119,1.053v10.921a13.78,13.78,0,0,0,4.4,10.1,10.13,10.13,0,0,0,9.413-10.1V112.557Z" transform="translate(-172.971 -98.872)" fill="#ffbd86"/>
        <path id="Trazado_1169386" data-name="Trazado 1169386" d="M137.35,22.463c-4.079,5.36-14.079,5.038-14.079,5.038V26.448h-2.632V20.264a12.764,12.764,0,1,1,25.527,0v6.184h-2.632V27.5S141.429,27.822,137.35,22.463Z" transform="translate(-112.349 -7.5)" fill="#528fd8"/>
        <path id="Trazado_1169387" data-name="Trazado 1169387" d="M204.567,7.5a12.859,12.859,0,0,0-2.105.174,12.766,12.766,0,0,1,10.658,12.59V27.4a9.5,9.5,0,0,0,1.579.1V26.448h2.632V20.263A12.764,12.764,0,0,0,204.567,7.5Z" transform="translate(-183.514 -7.5)" fill="#0573ce"/>
        <path id="Trazado_1169388" data-name="Trazado 1169388" d="M103.593,159.279H105.7v-6.316h-2.105a3.158,3.158,0,1,0,0,6.316Z" transform="translate(-94.777 -134.015)" fill="#ea9b58"/>
        <path id="Trazado_1169389" data-name="Trazado 1169389" d="M228.756,134.663a10.132,10.132,0,0,1-10.132-10.132V113.61a1.053,1.053,0,0,1,1.053-1.053h18.158a1.053,1.053,0,0,1,1.053,1.053v10.921A10.132,10.132,0,0,1,228.756,134.663Z" transform="translate(-197.571 -98.872)" fill="#fd8087"/>
        <path id="Trazado_1169390" data-name="Trazado 1169390" d="M292.307,112.557h-3.947a1.053,1.053,0,0,1,1.053,1.053v10.921a10.134,10.134,0,0,1-8.158,9.938,10.134,10.134,0,0,0,12.105-9.938V113.61A1.052,1.052,0,0,0,292.307,112.557Z" transform="translate(-252.043 -98.872)" fill="#fe646f"/>
      </g>
      <g id="Grupo_1220454" data-name="Grupo 1220454" transform="translate(82.846 46.241)">
        <circle id="Elipse_14461" data-name="Elipse 14461" cx="9.737" cy="9.737" r="9.737" fill="#ffe177"/>
        <path id="Trazado_1169391" data-name="Trazado 1169391" d="M331.651,367.64a9.738,9.738,0,0,1-13.509,13.509,9.737,9.737,0,1,0,13.509-13.509Z" transform="translate(-316.495 -365.993)" fill="#ffd15b"/>
      </g>
      <g id="Grupo_1220455" data-name="Grupo 1220455" transform="translate(49.5 0)">
        <path id="Trazado_1169392" data-name="Trazado 1169392" d="M243.449,197.958a6.9,6.9,0,1,0,13.8,0,.977.977,0,1,0-1.954,0,4.944,4.944,0,1,1-9.889,0,.977.977,0,0,0-1.954,0Z" transform="translate(-218.185 -171.322)"/>
        <path id="Trazado_1169393" data-name="Trazado 1169393" d="M313.758,151.185l2.131-2.131a.977.977,0,0,0-1.382-1.382l-2.131,2.131a.977.977,0,0,0,1.382,1.382Z" transform="translate(-277.886 -128.188)"/>
        <path id="Trazado_1169394" data-name="Trazado 1169394" d="M251.781,151.185a.977.977,0,1,0,1.382-1.382l-2.131-2.131a.977.977,0,0,0-1.382,1.382Z" transform="translate(-223.33 -128.188)"/>
        <path id="Trazado_1169395" data-name="Trazado 1169395" d="M355.87,388.345a.977.977,0,0,0,.977-.977v-.6a3.552,3.552,0,0,0,2.611-2.735,3.329,3.329,0,0,0-2.2-3.77c-.144-.059-.279-.117-.41-.174V377.25a2,2,0,0,1,.324.208.977.977,0,0,0,1.283-1.473,4.282,4.282,0,0,0-1.608-.815v-.434a.977.977,0,0,0-1.954,0v.4c-.056.013-.112.027-.168.043a3.058,3.058,0,0,0-2.239,2.363,2.958,2.958,0,0,0,1,2.9,9.212,9.212,0,0,0,1.41.881v3.458a2.272,2.272,0,0,1-.955-.576.977.977,0,1,0-1.486,1.269,4.519,4.519,0,0,0,2.44,1.33v.561A.977.977,0,0,0,355.87,388.345Zm1.672-4.689a1.594,1.594,0,0,1-.695,1v-2.417A1.3,1.3,0,0,1,357.542,383.656Zm-2.852-4.748a1.025,1.025,0,0,1-.287-.982,1.044,1.044,0,0,1,.49-.707v1.839C354.815,379,354.747,378.954,354.689,378.908Z" transform="translate(-312.787 -325.074)"/>
        <path id="Trazado_1169396" data-name="Trazado 1169396" d="M101.262,49.7a.977.977,0,1,0-1.582,1.147,8.739,8.739,0,1,1-3.092-2.659.977.977,0,1,0,.894-1.737,10.754,10.754,0,0,0-4.9-1.183c-.271,0-.538.014-.8.033a9.338,9.338,0,0,0-5.457-3.645l-9.473-2.238V36.646A11.107,11.107,0,0,0,92.771,26.636V23.7a.977.977,0,1,0-1.954,0v2.939a9.155,9.155,0,0,1-18.31,0V15.714a.076.076,0,0,1,.077-.076H90.741a.076.076,0,0,1,.076.076v3.423a.977.977,0,0,0,1.954,0V15.714a2.032,2.032,0,0,0-2.029-2.029H85.27a13.74,13.74,0,0,0-27.481.055v5.492a4.134,4.134,0,0,0,1.5,7.986h1.144a11.029,11.029,0,0,0,3.238,7.273,11.153,11.153,0,0,0,2.536,1.9v3.024l-9.472,2.238A9.36,9.36,0,0,0,49.5,50.8v4.235a.977.977,0,0,0,1.954,0V50.8a7.414,7.414,0,0,1,5.733-7.244l6.127-1.448,1.446,8.4a.977.977,0,0,0,1.654.525l1.794-1.794L69.22,50.8,67.508,64.739H58.3V58.873a.977.977,0,0,0-.286-.691l-1.316-1.316a.977.977,0,1,0-1.382,1.382l1.03,1.03v5.461H51.454V59.593a.977.977,0,0,0-1.954,0v6.122a.977.977,0,0,0,.977.977H92.583a10.714,10.714,0,0,0,8.679-17ZM72.912,44.531l3.266-3.266,1.663.393-1.147,6.656ZM71.53,1.954A11.8,11.8,0,0,1,83.316,13.685H72.583a2.032,2.032,0,0,0-2.031,2.029v2.655a24.123,24.123,0,0,1-8.178,1.623v-.067a.977.977,0,0,0-.977-.977H59.743V13.74A11.8,11.8,0,0,1,71.53,1.954ZM57.112,23.083A2.183,2.183,0,0,1,59.293,20.9h1.128v4.362H59.293A2.184,2.184,0,0,1,57.112,23.083Zm5.263,3.553V21.95a26.653,26.653,0,0,0,8.178-1.479v6.164a11.09,11.09,0,0,0,4.1,8.608,9.155,9.155,0,0,1-12.274-8.607ZM71.53,37.744a11.136,11.136,0,0,0,3.365-.522v2.562L71.53,43.149l-3.365-3.365V37.226a11.14,11.14,0,0,0,3.365.519ZM66.365,48.314l-1.147-6.656,1.663-.393,3.266,3.266Zm5.164-2.4,1.909,1.909-1.144,1.77h-1.53l-1.144-1.77ZM71.1,51.545h.865l1.621,13.194H69.476Zm4.454,13.194L73.839,50.8l1.013-1.566,1.794,1.794A.977.977,0,0,0,78.3,50.5l1.446-8.4,6.127,1.448a7.4,7.4,0,0,1,3.71,2.14,10.706,10.706,0,0,0-3.157,19.043Z" transform="translate(-49.5 0)"/>
      </g>
    </g>
  </g>
</svg>
