<svg xmlns="http://www.w3.org/2000/svg" xmlns:xlink="http://www.w3.org/1999/xlink" width="108" height="108" viewBox="0 0 108 108">
  <defs>
    <filter id="Trazado_978624" x="0" y="0" width="108" height="108" filterUnits="userSpaceOnUse">
      <feOffset dy="3" input="SourceAlpha"/>
      <feGaussianBlur stdDeviation="3" result="blur"/>
      <feFlood flood-opacity="0.161"/>
      <feComposite operator="in" in2="blur"/>
      <feComposite in="SourceGraphic"/>
    </filter>
    <filter id="Trazado_1076716" x="0" y="0" width="108" height="108" filterUnits="userSpaceOnUse">
      <feOffset dy="3" input="SourceAlpha"/>
      <feGaussianBlur stdDeviation="3" result="blur-2"/>
      <feFlood flood-opacity="0.161"/>
      <feComposite operator="in" in2="blur-2"/>
      <feComposite in="SourceGraphic"/>
    </filter>
  </defs>
  <g id="Grupo_1220409" data-name="Grupo 1220409" transform="translate(-196 -1879)">
    <g id="Grupo_1219891" data-name="Grupo 1219891" transform="translate(0 -1611)">
      <g id="Grupo_1216151" data-name="Grupo 1216151" transform="translate(205 3496)">
        <g id="Grupo_1208503" data-name="Grupo 1208503" transform="translate(0)">
          <g id="Grupo_1200660" data-name="Grupo 1200660">
            <g id="Grupo_1181203" data-name="Grupo 1181203">
              <g id="Grupo_1172348" data-name="Grupo 1172348">
                <g id="Grupo_1171897" data-name="Grupo 1171897">
                  <g id="Grupo_1171052" data-name="Grupo 1171052">
                    <g id="Grupo_1164581" data-name="Grupo 1164581">
                      <g id="Grupo_1144123" data-name="Grupo 1144123">
                        <g transform="matrix(1, 0, 0, 1, -9, -6)" filter="url(#Trazado_978624)">
                          <g id="Trazado_978624-2" data-name="Trazado 978624" transform="translate(9 6)" fill="#f2f4f0">
                            <path d="M 45 88.5 C 39.12687683105469 88.5 33.43022537231445 87.35007476806641 28.06830024719238 85.08217620849609 C 22.88852500915527 82.89131164550781 18.23629951477051 79.75458526611328 14.2408504486084 75.75914764404297 C 10.24541282653809 71.76370239257812 7.108687400817871 67.11147308349609 4.917825222015381 61.93170166015625 C 2.649924993515015 56.56977462768555 1.5 50.87312316894531 1.5 45 C 1.5 39.12687683105469 2.649924993515015 33.43022537231445 4.917825222015381 28.06830024719238 C 7.108687400817871 22.88852500915527 10.24541282653809 18.23629951477051 14.2408504486084 14.2408504486084 C 18.23629951477051 10.24541282653809 22.88852500915527 7.108687400817871 28.06830024719238 4.917825222015381 C 33.43022537231445 2.649924993515015 39.12687683105469 1.5 45 1.5 C 50.87312316894531 1.5 56.56977462768555 2.649924993515015 61.93170166015625 4.917825222015381 C 67.11147308349609 7.108687400817871 71.76370239257812 10.24541282653809 75.75914764404297 14.2408504486084 C 79.75458526611328 18.23629951477051 82.89131164550781 22.88852500915527 85.08217620849609 28.06830024719238 C 87.35007476806641 33.43022537231445 88.5 39.12687683105469 88.5 45 C 88.5 50.87312316894531 87.35007476806641 56.56977462768555 85.08217620849609 61.93170166015625 C 82.89131164550781 67.11147308349609 79.75458526611328 71.76370239257812 75.75914764404297 75.75914764404297 C 71.76370239257812 79.75458526611328 67.11147308349609 82.89131164550781 61.93170166015625 85.08217620849609 C 56.56977462768555 87.35007476806641 50.87312316894531 88.5 45 88.5 Z" stroke="none"/>
                            <path d="M 45 3 C 39.32871246337891 3 33.82865524291992 4.110054016113281 28.65262985229492 6.299339294433594 C 23.65165710449219 8.414573669433594 19.15968322753906 11.44334411621094 15.301513671875 15.301513671875 C 11.44334411621094 19.15968322753906 8.414573669433594 23.65165710449219 6.299339294433594 28.65262985229492 C 4.110054016113281 33.82865524291992 3 39.32871246337891 3 45 C 3 50.67128753662109 4.110054016113281 56.17134475708008 6.299339294433594 61.34737396240234 C 8.414573669433594 66.34834289550781 11.44334411621094 70.84031677246094 15.301513671875 74.698486328125 C 19.15968322753906 78.55665588378906 23.65165710449219 81.58542633056641 28.65262985229492 83.70066070556641 C 33.82865524291992 85.88994598388672 39.32871246337891 87 45 87 C 50.67128753662109 87 56.17134475708008 85.88994598388672 61.34737396240234 83.70066070556641 C 66.34834289550781 81.58542633056641 70.84031677246094 78.55665588378906 74.698486328125 74.698486328125 C 78.55665588378906 70.84031677246094 81.58542633056641 66.34834289550781 83.70066070556641 61.34737396240234 C 85.88994598388672 56.17134475708008 87 50.67128753662109 87 45 C 87 39.32871246337891 85.88994598388672 33.82865524291992 83.70066070556641 28.65262985229492 C 81.58542633056641 23.65165710449219 78.55665588378906 19.15968322753906 74.698486328125 15.301513671875 C 70.84031677246094 11.44334411621094 66.34834289550781 8.414573669433594 61.34737396240234 6.299339294433594 C 56.17134475708008 4.110054016113281 50.67128753662109 3 45 3 M 45 0 C 69.85281372070312 0 90 20.14718627929688 90 45 C 90 69.85281372070312 69.85281372070312 90 45 90 C 20.14718627929688 90 0 69.85281372070312 0 45 C 0 20.14718627929688 20.14718627929688 0 45 0 Z" stroke="none" fill="#899e78"/>
                          </g>
                        </g>
                        <g transform="matrix(1, 0, 0, 1, -9, -6)" filter="url(#Trazado_1076716)">
                          <g id="Trazado_1076716-2" data-name="Trazado 1076716" transform="translate(9 6)" fill="#f2f4f0">
                            <path d="M 45 88.5 C 39.12687683105469 88.5 33.43022537231445 87.35007476806641 28.06830024719238 85.08217620849609 C 22.88852500915527 82.89131164550781 18.23629951477051 79.75458526611328 14.2408504486084 75.75914764404297 C 10.24541282653809 71.76370239257812 7.108687400817871 67.11147308349609 4.917825222015381 61.93170166015625 C 2.649924993515015 56.56977462768555 1.5 50.87312316894531 1.5 45 C 1.5 39.12687683105469 2.649924993515015 33.43022537231445 4.917825222015381 28.06830024719238 C 7.108687400817871 22.88852500915527 10.24541282653809 18.23629951477051 14.2408504486084 14.2408504486084 C 18.23629951477051 10.24541282653809 22.88852500915527 7.108687400817871 28.06830024719238 4.917825222015381 C 33.43022537231445 2.649924993515015 39.12687683105469 1.5 45 1.5 C 50.87312316894531 1.5 56.56977462768555 2.649924993515015 61.93170166015625 4.917825222015381 C 67.11147308349609 7.108687400817871 71.76370239257812 10.24541282653809 75.75914764404297 14.2408504486084 C 79.75458526611328 18.23629951477051 82.89131164550781 22.88852500915527 85.08217620849609 28.06830024719238 C 87.35007476806641 33.43022537231445 88.5 39.12687683105469 88.5 45 C 88.5 50.87312316894531 87.35007476806641 56.56977462768555 85.08217620849609 61.93170166015625 C 82.89131164550781 67.11147308349609 79.75458526611328 71.76370239257812 75.75914764404297 75.75914764404297 C 71.76370239257812 79.75458526611328 67.11147308349609 82.89131164550781 61.93170166015625 85.08217620849609 C 56.56977462768555 87.35007476806641 50.87312316894531 88.5 45 88.5 Z" stroke="none"/>
                            <path d="M 45 3 C 39.32871246337891 3 33.82865524291992 4.110054016113281 28.65262985229492 6.299339294433594 C 23.65165710449219 8.414573669433594 19.15968322753906 11.44334411621094 15.301513671875 15.301513671875 C 11.44334411621094 19.15968322753906 8.414573669433594 23.65165710449219 6.299339294433594 28.65262985229492 C 4.110054016113281 33.82865524291992 3 39.32871246337891 3 45 C 3 50.67128753662109 4.110054016113281 56.17134475708008 6.299339294433594 61.34737396240234 C 8.414573669433594 66.34834289550781 11.44334411621094 70.84031677246094 15.301513671875 74.698486328125 C 19.15968322753906 78.55665588378906 23.65165710449219 81.58542633056641 28.65262985229492 83.70066070556641 C 33.82865524291992 85.88994598388672 39.32871246337891 87 45 87 C 50.67128753662109 87 56.17134475708008 85.88994598388672 61.34737396240234 83.70066070556641 C 66.34834289550781 81.58542633056641 70.84031677246094 78.55665588378906 74.698486328125 74.698486328125 C 78.55665588378906 70.84031677246094 81.58542633056641 66.34834289550781 83.70066070556641 61.34737396240234 C 85.88994598388672 56.17134475708008 87 50.67128753662109 87 45 C 87 39.32871246337891 85.88994598388672 33.82865524291992 83.70066070556641 28.65262985229492 C 81.58542633056641 23.65165710449219 78.55665588378906 19.15968322753906 74.698486328125 15.301513671875 C 70.84031677246094 11.44334411621094 66.34834289550781 8.414573669433594 61.34737396240234 6.299339294433594 C 56.17134475708008 4.110054016113281 50.67128753662109 3 45 3 M 45 0 C 69.85281372070312 0 90 20.14718627929688 90 45 C 90 69.85281372070312 69.85281372070312 90 45 90 C 20.14718627929688 90 0 69.85281372070312 0 45 C 0 20.14718627929688 20.14718627929688 0 45 0 Z" stroke="none" fill="#899e78"/>
                          </g>
                        </g>
                      </g>
                    </g>
                  </g>
                </g>
              </g>
            </g>
          </g>
        </g>
      </g>
    </g>
    <g id="leyes_5_" data-name="leyes (5)" transform="translate(212.107 1899.133)">
      <path id="Trazado_1169161" data-name="Trazado 1169161" d="M70.84,61.224a5.807,5.807,0,0,1-4.115-1.706l-.2-.2,1.785-1.785.2.2a3.283,3.283,0,0,0,3.8.617A19.949,19.949,0,0,1,88,57.448a17.38,17.38,0,0,0,11.861,0,19.963,19.963,0,0,1,15.686.9,3.283,3.283,0,0,0,3.8-.617l.2-.2,1.785,1.785-.2.2a5.815,5.815,0,0,1-6.719,1.09,17.431,17.431,0,0,0-13.693-.788,19.916,19.916,0,0,1-13.589,0,17.429,17.429,0,0,0-13.693.788A5.82,5.82,0,0,1,70.84,61.224Zm0,0" transform="translate(-56.024 -47.303)" fill="#ffa912"/>
      <path id="Trazado_1169162" data-name="Trazado 1169162" d="M151.756,296.215h15.152a7.576,7.576,0,0,1,7.576,7.576h-30.3A7.576,7.576,0,0,1,151.756,296.215Zm0,0" transform="translate(-121.424 -249.389)" fill="#ffb531"/>
      <path id="Trazado_1169163" data-name="Trazado 1169163" d="M261.231,296.215H256.18a7.576,7.576,0,0,1,7.576,7.576h5.051A7.576,7.576,0,0,0,261.231,296.215Zm0,0" transform="translate(-215.747 -249.389)" fill="#ffa912"/>
      <g id="Grupo_1220408" data-name="Grupo 1220408" transform="translate(1.291 1.352)">
        <path id="Trazado_1169164" data-name="Trazado 1169164" d="M223.754,11.9a3.788,3.788,0,1,0-6.313,2.8V53.567h5.051V14.7a3.76,3.76,0,0,0,1.263-2.8Zm0,0" transform="translate(-183.349 -8.092)" fill="#ffb531"/>
        <path id="Trazado_1169165" data-name="Trazado 1169165" d="M8.18,192.215H33.433a7.576,7.576,0,0,1-7.576,7.576h-10.1A7.575,7.575,0,0,1,8.18,192.215Zm0,0" transform="translate(-8.18 -163.155)" fill="#ffb531"/>
        <path id="Trazado_1169166" data-name="Trazado 1169166" d="M312.18,192.215h25.253a7.576,7.576,0,0,1-7.576,7.576h-10.1A7.575,7.575,0,0,1,312.18,192.215Zm0,0" transform="translate(-264.199 -163.155)" fill="#ffb531"/>
      </g>
      <path id="Trazado_1169167" data-name="Trazado 1169167" d="M399.756,192.215a7.576,7.576,0,0,1-7.576,7.576h5.051a7.576,7.576,0,0,0,7.576-7.576Zm0,0" transform="translate(-330.282 -161.803)" fill="#ffa912"/>
      <path id="Trazado_1169168" data-name="Trazado 1169168" d="M14.944,72.915a1.309,1.309,0,0,0-2.053,0L.264,90.592a1.263,1.263,0,1,0,2.053,1.467l11.6-16.237,11.6,16.237a1.263,1.263,0,1,0,2.053-1.467Zm0,0" transform="translate(0 -60.914)" fill="#d6d6d4"/>
      <path id="Trazado_1169169" data-name="Trazado 1169169" d="M331.57,90.591,318.944,72.914a1.309,1.309,0,0,0-2.053,0L304.265,90.591a1.263,1.263,0,1,0,2.053,1.467l11.6-16.237,11.6,16.237a1.263,1.263,0,0,0,2.053-1.467Zm0,0" transform="translate(-256.02 -60.913)" fill="#d6d6d4"/>
      <path id="Trazado_1169170" data-name="Trazado 1169170" d="M95.756,192.215a7.576,7.576,0,0,1-7.576,7.576h5.051a7.576,7.576,0,0,0,7.576-7.576Zm0,0" transform="translate(-74.263 -161.803)" fill="#ffa912"/>
      <path id="Trazado_1169171" data-name="Trazado 1169171" d="M84.721,354.316H49.367a11.291,11.291,0,0,1,0-10.1H84.721A11.292,11.292,0,0,0,84.721,354.316Zm0,0" transform="translate(-40.571 -289.813)" fill="#803f37"/>
      <path id="Trazado_1169172" data-name="Trazado 1169172" d="M75.9,344.8l.312-.59h-2.8a12.6,12.6,0,0,0,0,10.1h2.8l-.3-.564a10.072,10.072,0,0,1-.01-8.947Zm0,0" transform="translate(-60.933 -289.813)" fill="#ffb531"/>
      <path id="Trazado_1169173" data-name="Trazado 1169173" d="M235.423,344.827l.34-.612h-2.818a12.61,12.61,0,0,0,0,10.1h2.811l-.314-.564a10.064,10.064,0,0,1-.018-8.925Zm0,0" transform="translate(-195.291 -289.813)" fill="#ffb531"/>
      <path id="Trazado_1169174" data-name="Trazado 1169174" d="M273.367,344.215a11.291,11.291,0,0,0,0,10.1h23.99a11.291,11.291,0,0,1,0-10.1Zm0,0" transform="translate(-229.217 -289.813)" fill="#e0e0de"/>
      <path id="Trazado_1169175" data-name="Trazado 1169175" d="M111.73,368.215h15.152v2.525H111.73Zm0,0" transform="translate(-94.096 -310.025)" fill="#f98500"/>
      <path id="Trazado_1169176" data-name="Trazado 1169176" d="M296.251,368.215H272.26a11.454,11.454,0,0,0,0,2.525h23.99A11.45,11.45,0,0,1,296.251,368.215Zm0,0" transform="translate(-229.231 -310.025)" fill="#d6d6d4"/>
      <path id="Trazado_1169177" data-name="Trazado 1169177" d="M84.721,418.316H49.367a11.291,11.291,0,0,1,0-10.1H84.721A11.292,11.292,0,0,0,84.721,418.316Zm0,0" transform="translate(-40.571 -343.712)" fill="#773730"/>
      <path id="Trazado_1169178" data-name="Trazado 1169178" d="M75.9,408.8l.312-.59h-2.8a12.6,12.6,0,0,0,0,10.1h2.8l-.3-.564a10.072,10.072,0,0,1-.01-8.947Zm0,0" transform="translate(-60.933 -343.711)" fill="#ffb531"/>
      <path id="Trazado_1169179" data-name="Trazado 1169179" d="M235.423,408.827l.34-.612h-2.818a12.61,12.61,0,0,0,0,10.1h2.811l-.314-.564a10.064,10.064,0,0,1-.018-8.925Zm0,0" transform="translate(-195.291 -343.712)" fill="#ffb531"/>
      <path id="Trazado_1169180" data-name="Trazado 1169180" d="M273.367,408.215a11.291,11.291,0,0,0,0,10.1h23.99a11.291,11.291,0,0,1,0-10.1Zm0,0" transform="translate(-229.217 -343.712)" fill="#d6d6d4"/>
      <path id="Trazado_1169181" data-name="Trazado 1169181" d="M111.73,432.215h15.152v2.525H111.73Zm0,0" transform="translate(-94.096 -363.924)" fill="#f98500"/>
      <path id="Trazado_1169182" data-name="Trazado 1169182" d="M296.251,432.215H272.26a11.454,11.454,0,0,0,0,2.525h23.99A11.45,11.45,0,0,1,296.251,432.215Zm0,0" transform="translate(-229.231 -363.924)" fill="#c7c7c5"/>
      <path id="Trazado_1169183" data-name="Trazado 1169183" d="M111.73,432.215h15.152v2.525H111.73Zm0,0" transform="translate(-94.096 -363.924)"/>
      <path id="Trazado_1169184" data-name="Trazado 1169184" d="M111.73,368.215h15.152v2.525H111.73Zm0,0" transform="translate(-94.096 -310.025)"/>
      <path id="Trazado_1169185" data-name="Trazado 1169185" d="M75.7,29.678,63.922,13.186a5.779,5.779,0,0,0,1.343-.972l.2-.2-1.785-1.785-.2.2a3.3,3.3,0,0,1-3.811.62,20.1,20.1,0,0,0-15.676-.9,17.021,17.021,0,0,1-2.146.609V8.48a5.051,5.051,0,1,0-7.576,0v2.273a16.945,16.945,0,0,1-2.139-.607,20.083,20.083,0,0,0-15.677.9,3.366,3.366,0,0,1-3.817-.618l-.2-.2-1.785,1.785.2.2a5.786,5.786,0,0,0,1.346.97L.416,29.678l.017.013a1.235,1.235,0,0,0-.253.721A8.85,8.85,0,0,0,9.019,39.25h10.1a8.85,8.85,0,0,0,8.839-8.839,1.235,1.235,0,0,0-.253-.721l.018-.013L16.342,13.753a6.11,6.11,0,0,0,1.226-.443,17.529,17.529,0,0,1,13.691-.79,19.717,19.717,0,0,0,3.013.8V45.564H30.484a8.847,8.847,0,0,0-8.738,7.576H8.948a1.263,1.263,0,0,0-1.129.7A12.6,12.6,0,0,0,7.577,64.5a12.606,12.606,0,0,0,.242,10.666,1.263,1.263,0,0,0,1.129.7H68.292a1.262,1.262,0,0,0,1.13-1.827,10.08,10.08,0,0,1,0-8.972,22.265,22.265,0,0,1,.087-.25,1.145,1.145,0,0,0,.028-.158.954.954,0,0,0,0-.313,1.145,1.145,0,0,0-.028-.158,1.018,1.018,0,0,0-.052-.147.95.95,0,0,0-.035-.1,10.08,10.08,0,0,1,0-8.972,1.263,1.263,0,0,0-1.13-1.827H54.373a8.846,8.846,0,0,0-8.737-7.576H41.847V13.323a19.948,19.948,0,0,0,3.012-.805,17.53,17.53,0,0,1,13.686.792,5.894,5.894,0,0,0,1.225.445L48.4,29.678l.017.013a1.235,1.235,0,0,0-.253.721A8.85,8.85,0,0,0,57,39.25H67.1a8.85,8.85,0,0,0,8.839-8.839,1.235,1.235,0,0,0-.253-.721ZM14.069,14.908,24.242,29.149H3.9ZM19.12,36.725H9.019a6.324,6.324,0,0,1-6.187-5.051H25.307a6.323,6.323,0,0,1-6.187,5.051Zm46.8,23.99a12.548,12.548,0,0,0,.5,2.525H45.13c-.029-.073-.065-.145-.093-.218-.048-.126-.091-.253-.134-.379-.075-.219-.139-.443-.2-.666-.033-.126-.067-.253-.094-.379-.052-.243-.092-.488-.126-.732-.006-.047-.014-.092-.02-.139Zm0,7.576H44.467a1.075,1.075,0,0,1,.02-.139c.034-.245.075-.49.126-.732.028-.126.062-.253.094-.379.059-.224.126-.447.2-.667.043-.126.086-.252.134-.379.028-.073.064-.146.094-.218H66.425a12.52,12.52,0,0,0-.509,2.514ZM42.192,56.549l-.009.033a12.687,12.687,0,0,0-.219,1.263c-.014.109-.025.215-.036.323-.042.42-.071.841-.072,1.263v.033c0,.422.03.842.072,1.263.011.109.023.215.036.322a12.687,12.687,0,0,0,.219,1.263l.009.033q.1.449.242.884H40.013a10.067,10.067,0,0,1,0-7.576h2.422q-.138.454-.242.9ZM14.826,65.766H37.333a12.624,12.624,0,0,0,0,7.576H14.826A10.073,10.073,0,0,1,14.826,65.766Zm22.5-2.525h-22.5a10.073,10.073,0,0,1,0-7.576H37.333a12.624,12.624,0,0,0,0,7.576ZM9.762,55.665h2.389a12.624,12.624,0,0,0,0,7.576H9.762a10.09,10.09,0,0,1,0-7.576Zm0,10.1h2.389a12.624,12.624,0,0,0,0,7.576H9.762a10.09,10.09,0,0,1,0-7.576Zm30.25,7.576a10.067,10.067,0,0,1,0-7.576h2.422q-.138.441-.242.884l-.009.033a12.689,12.689,0,0,0-.219,1.263c-.014.109-.025.215-.036.323-.042.42-.071.841-.072,1.263v.033c0,.422.03.842.072,1.263.011.109.023.215.036.322a12.689,12.689,0,0,0,.219,1.263l.009.033q.1.449.242.884Zm5.117,0c-.029-.073-.065-.145-.093-.218-.048-.126-.091-.253-.134-.379-.075-.219-.139-.443-.2-.666-.033-.126-.067-.253-.094-.379-.052-.243-.092-.488-.126-.732-.006-.047-.014-.092-.02-.139H65.916a12.556,12.556,0,0,0,.5,2.525ZM65.913,58.19H44.467a1.076,1.076,0,0,1,.02-.139c.034-.245.075-.49.126-.732.028-.126.062-.253.094-.379.059-.224.126-.447.2-.667.043-.126.086-.252.134-.379.028-.073.064-.145.094-.218H66.424a12.519,12.519,0,0,0-.509,2.514ZM51.822,53.139H24.3a6.324,6.324,0,0,1,6.187-5.051H45.635a6.323,6.323,0,0,1,6.187,5.051ZM36.8,45.564V7.965a1.266,1.266,0,0,0-.417-.938,2.49,2.49,0,0,1-.846-1.867,2.525,2.525,0,1,1,5.051,0,2.492,2.492,0,0,1-.846,1.867,1.263,1.263,0,0,0-.416.938v37.6ZM72.222,29.149H51.876L62.05,14.908ZM67.1,36.725H57a6.324,6.324,0,0,1-6.187-5.051H73.287A6.323,6.323,0,0,1,67.1,36.725Zm0,0" transform="translate(-0.152)"/>
    </g>
  </g>
</svg>
