<svg xmlns="http://www.w3.org/2000/svg" width="85" height="101" viewBox="0 0 85 101">
  <g id="Grupo_1220481" data-name="Grupo 1220481" transform="translate(-180 -9452)">
    <rect id="Rectángulo_421254" data-name="Rectángulo 421254" width="52" height="101" transform="translate(213 9452)" fill="#899e78"/>
    <g id="obediente_12_" data-name="obediente (12)" transform="translate(164.922 9464.065)">
      <g id="Grupo_1220457" data-name="Grupo 1220457" transform="translate(32.663 1.303)">
        <path id="Trazado_1169397" data-name="Trazado 1169397" d="M172.5,7.5H117.184a.869.869,0,0,0-.868.869v24.08h5.7a4.256,4.256,0,0,1,.3,8.5v5.281h0a1.736,1.736,0,0,1,1.473,1.715V58.728a1.736,1.736,0,0,1-1.473,1.715h0v5.281a4.256,4.256,0,0,1-.3,8.5h-5.7v7.128H128.3a1.737,1.737,0,0,1,1.737,1.737v3.456s0,0,0,0h1.323a1.737,1.737,0,0,1,1.737,1.737v5.54h40.268V8.369A.869.869,0,0,0,172.5,7.5Z" transform="translate(-116.315 -7.5)" fill="#fff3de"/>
      </g>
      <g id="Grupo_1220458" data-name="Grupo 1220458" transform="translate(32.663 1.303)">
        <path id="Trazado_1169398" data-name="Trazado 1169398" d="M122.011,32.448c.052,0,.1,0,.155,0V8.369a.869.869,0,0,1,.868-.869h-5.851a.869.869,0,0,0-.868.869v24.08Z" transform="translate(-116.315 -7.5)" fill="#ffe5c2"/>
        <path id="Trazado_1169399" data-name="Trazado 1169399" d="M122.011,391.631h-5.7v7.128h5.851v-7.132C122.115,391.629,122.063,391.631,122.011,391.631Z" transform="translate(-116.315 -324.904)" fill="#ffe5c2"/>
      </g>
      <g id="Grupo_1220476" data-name="Grupo 1220476" transform="translate(16.381 26.251)">
        <g id="Grupo_1220459" data-name="Grupo 1220459" transform="translate(23.748 17.919)">
          <path id="Trazado_1169400" data-name="Trazado 1169400" d="M159.3,254.29h8.04v5.94H159.3Z" transform="translate(-159.296 -254.29)" fill="#883f2e"/>
          <path id="Trazado_1169401" data-name="Trazado 1169401" d="M237.5,254.29h11.484v5.94H237.5Z" transform="translate(-223.918 -254.29)" fill="#883f2e"/>
        </g>
        <g id="Grupo_1220460" data-name="Grupo 1220460" transform="translate(23.748 20.996)">
          <path id="Trazado_1169402" data-name="Trazado 1169402" d="M159.3,272h8.04v2.864H159.3Z" transform="translate(-159.296 -272)" fill="#6d3326"/>
          <path id="Trazado_1169403" data-name="Trazado 1169403" d="M237.5,272h11.484v2.864H237.5Z" transform="translate(-223.918 -272)" fill="#6d3326"/>
        </g>
        <g id="Grupo_1220461" data-name="Grupo 1220461" transform="translate(48.816 16.533)">
          <path id="Trazado_1169404" data-name="Trazado 1169404" d="M335.891,250.666a4.356,4.356,0,0,1-4.356,4.356H304.606a.99.99,0,0,1-.99-.99V247.3a.99.99,0,0,1,.99-.99h26.928A4.356,4.356,0,0,1,335.891,250.666Z" transform="translate(-303.616 -246.31)" fill="#ca6e59"/>
        </g>
        <g id="Grupo_1220462" data-name="Grupo 1220462" transform="translate(48.816 16.533)">
          <path id="Trazado_1169405" data-name="Trazado 1169405" d="M309.536,251.293a.99.99,0,0,1-.99-.99V246.31h-3.94a.99.99,0,0,0-.99.99v6.732a.99.99,0,0,0,.99.99h26.928a4.356,4.356,0,0,0,4.31-3.729Z" transform="translate(-303.616 -246.31)" fill="#bb5d4c"/>
        </g>
        <g id="Grupo_1220463" data-name="Grupo 1220463" transform="translate(31.788 16.533)">
          <path id="Trazado_1169406" data-name="Trazado 1169406" d="M211.129,247.18v6.975a.869.869,0,0,1-.868.868h-3.807a.869.869,0,0,1-.868-.868V247.18a.869.869,0,0,1,.868-.868h3.807A.868.868,0,0,1,211.129,247.18Z" transform="translate(-205.585 -246.311)" fill="#ca6e59"/>
        </g>
        <g id="Grupo_1220464" data-name="Grupo 1220464" transform="translate(31.788 16.533)">
          <path id="Trazado_1169407" data-name="Trazado 1169407" d="M208.1,254.155V247.18a.869.869,0,0,1,.869-.868h-2.518a.869.869,0,0,0-.868.868v6.975a.869.869,0,0,0,.868.868h2.518A.868.868,0,0,1,208.1,254.155Z" transform="translate(-205.585 -246.311)" fill="#bb5d4c"/>
        </g>
        <g id="Grupo_1220465" data-name="Grupo 1220465" transform="translate(10.791 8.503)">
          <path id="Trazado_1169408" data-name="Trazado 1169408" d="M95.923,312.319H84.967a1.744,1.744,0,0,1-.264-.022v5.281c.1-.007.2-.012.3-.012H95.89c.1,0,.2,0,.3.012V312.3A1.721,1.721,0,0,1,95.923,312.319Z" transform="translate(-84.703 -292.804)" fill="#883f2e"/>
          <path id="Trazado_1169409" data-name="Trazado 1169409" d="M84.967,312.319a1.744,1.744,0,0,1-.264-.022v5.281c.1-.007.2-.012.3-.012h4.077v-5.247h-4.11Z" transform="translate(-84.703 -292.804)" fill="#6d3326"/>
          <path id="Trazado_1169410" data-name="Trazado 1169410" d="M84.967,205.337H95.923a1.744,1.744,0,0,1,.264.022v-5.281c-.1.007-.2.011-.3.011H85c-.1,0-.2,0-.3-.011v5.281A1.744,1.744,0,0,1,84.967,205.337Z" transform="translate(-84.703 -200.079)" fill="#883f2e"/>
          <path id="Trazado_1169411" data-name="Trazado 1169411" d="M84.967,205.337h4.11v-5.247H85c-.1,0-.2,0-.3-.011v5.281A1.77,1.77,0,0,1,84.967,205.337Z" transform="translate(-84.703 -200.078)" fill="#6d3326"/>
        </g>
        <g id="Grupo_1220466" data-name="Grupo 1220466" transform="translate(9.319 13.761)">
          <path id="Trazado_1169412" data-name="Trazado 1169412" d="M90.654,232.089v10.782a1.737,1.737,0,0,1-1.737,1.737H77.962a1.737,1.737,0,0,1-1.737-1.737V232.089a1.737,1.737,0,0,1,1.737-1.737H88.917A1.737,1.737,0,0,1,90.654,232.089Z" transform="translate(-76.225 -230.352)" fill="#ca6e59"/>
        </g>
        <g id="Grupo_1220467" data-name="Grupo 1220467" transform="translate(9.319 13.761)">
          <path id="Trazado_1169413" data-name="Trazado 1169413" d="M82.092,242.871V232.089a1.737,1.737,0,0,1,1.737-1.737H77.962a1.737,1.737,0,0,0-1.737,1.737v10.782a1.737,1.737,0,0,0,1.737,1.737h5.867A1.737,1.737,0,0,1,82.092,242.871Z" transform="translate(-76.225 -230.352)" fill="#bb5d4c"/>
        </g>
        <g id="Grupo_1220470" data-name="Grupo 1220470" transform="translate(0 48.907)">
          <path id="Trazado_1169414" data-name="Trazado 1169414" d="M67.132,438.056a1.777,1.777,0,0,0,.009-.178v-3.456a1.737,1.737,0,0,0-1.737-1.737H41.932a1.737,1.737,0,0,0-1.737,1.737v3.456a1.777,1.777,0,0,0,.009.178Z" transform="translate(-37.135 -432.685)" fill="#ca6e59"/>
          <path id="Trazado_1169415" data-name="Trazado 1169415" d="M46.076,438.056a1.777,1.777,0,0,1-.009-.178v-3.456a1.737,1.737,0,0,1,1.737-1.737H41.932a1.737,1.737,0,0,0-1.737,1.737v3.456a1.777,1.777,0,0,0,.009.178Z" transform="translate(-37.135 -432.685)" fill="#bb5d4c"/>
          <g id="Grupo_1220468" data-name="Grupo 1220468" transform="translate(0 5.198)">
            <path id="Trazado_1169416" data-name="Trazado 1169416" d="M55.645,469.885h-32.2a.869.869,0,0,1-.868-.868v-4.671a1.737,1.737,0,0,1,1.737-1.737H53.907a1.737,1.737,0,0,1,1.737,1.737Z" transform="translate(-22.578 -462.608)" fill="#883f2e"/>
          </g>
          <g id="Grupo_1220469" data-name="Grupo 1220469" transform="translate(0 5.198)">
            <path id="Trazado_1169417" data-name="Trazado 1169417" d="M28.383,469.016v-4.671a1.737,1.737,0,0,1,1.737-1.737H24.315a1.737,1.737,0,0,0-1.737,1.737v4.671a.869.869,0,0,0,.869.868h5.805A.869.869,0,0,1,28.383,469.016Z" transform="translate(-22.578 -462.608)" fill="#6d3326"/>
          </g>
        </g>
        <g id="Grupo_1220475" data-name="Grupo 1220475" transform="translate(6.831)">
          <g id="Grupo_1220471" data-name="Grupo 1220471" transform="translate(0 33.265)">
            <path id="Trazado_1169418" data-name="Trazado 1169418" d="M81.309,346.89a4.257,4.257,0,0,1-4.257,4.257H66.162a4.257,4.257,0,1,1,0-8.514h10.89A4.257,4.257,0,0,1,81.309,346.89Z" transform="translate(-61.905 -342.633)" fill="#ca6e59"/>
          </g>
          <g id="Grupo_1220472" data-name="Grupo 1220472" transform="translate(0 33.265)">
            <path id="Trazado_1169419" data-name="Trazado 1169419" d="M67.7,346.89a4.257,4.257,0,0,1,4.257-4.257h-5.8a4.257,4.257,0,1,0,0,8.514h5.8A4.257,4.257,0,0,1,67.7,346.89Z" transform="translate(-61.905 -342.633)" fill="#bb5d4c"/>
          </g>
          <g id="Grupo_1220473" data-name="Grupo 1220473" transform="translate(0)">
            <path id="Trazado_1169420" data-name="Trazado 1169420" d="M81.309,155.385a4.257,4.257,0,0,1-4.257,4.257H66.162a4.257,4.257,0,1,1,0-8.514h10.89A4.257,4.257,0,0,1,81.309,155.385Z" transform="translate(-61.905 -151.128)" fill="#ca6e59"/>
          </g>
          <g id="Grupo_1220474" data-name="Grupo 1220474">
            <path id="Trazado_1169421" data-name="Trazado 1169421" d="M67.7,155.385a4.257,4.257,0,0,1,4.257-4.257h-5.8a4.257,4.257,0,1,0,0,8.514h5.8A4.257,4.257,0,0,1,67.7,155.385Z" transform="translate(-61.905 -151.128)" fill="#bb5d4c"/>
          </g>
        </g>
      </g>
      <g id="Grupo_1220479" data-name="Grupo 1220479" transform="translate(49.001 9.398)">
        <g id="Grupo_1220477" data-name="Grupo 1220477">
          <circle id="Elipse_14462" data-name="Elipse 14462" cx="12.188" cy="12.188" r="12.188" fill="#4fc123"/>
        </g>
        <g id="Grupo_1220478" data-name="Grupo 1220478" transform="translate(0)">
          <path id="Trazado_1169422" data-name="Trazado 1169422" d="M216.213,66.3a12.192,12.192,0,0,1,9.268-11.834,12.188,12.188,0,1,0,0,23.667A12.192,12.192,0,0,1,216.213,66.3Z" transform="translate(-210.372 -54.107)" fill="#47a920"/>
        </g>
      </g>
      <g id="Grupo_1220480" data-name="Grupo 1220480" transform="translate(15.078 0)">
        <path id="Trazado_1169423" data-name="Trazado 1169423" d="M93.116,41.482h-2.1V18.933a1.3,1.3,0,0,0-1.343-1.3,1.339,1.339,0,0,0-1.263,1.357V41.481H79.681a1.3,1.3,0,1,0,0,2.606H93.116a3.053,3.053,0,1,1,0,6.107H66.5V44.087h7.1a1.3,1.3,0,0,0,0-2.606H66.187a2.3,2.3,0,0,0-2.1,1.386H54.867a2.173,2.173,0,0,0-2.022-1.386H49.038a2.173,2.173,0,0,0-2.022,1.386H41.432V41.749a3.038,3.038,0,0,0-1.473-2.6V35.832a5.56,5.56,0,0,0-1.6-10.884H33.966V2.606H88.412V12.854a1.3,1.3,0,0,0,1.343,1.3A1.339,1.339,0,0,0,91.018,12.8V2.171A2.171,2.171,0,0,0,88.847,0H33.531A2.171,2.171,0,0,0,31.36,2.171V24.948H27.469a5.559,5.559,0,0,0-1.6,10.884v3.317a3.038,3.038,0,0,0-1.473,2.6V52.531a3.038,3.038,0,0,0,1.473,2.6v3.317a5.56,5.56,0,0,0,1.6,10.884H31.36v4.523H21.178a3.043,3.043,0,0,0-3.04,3.04v2.158h-.02a3.043,3.043,0,0,0-3.04,3.04v4.671a2.174,2.174,0,0,0,2.171,2.171h71.6a2.171,2.171,0,0,0,2.171-2.171V52.8h2.1a5.659,5.659,0,0,0,0-11.318Zm-38.1,3.991h8.879v3.335H55.016Zm-5.544-1.386H52.41v6.107H49.472Zm-8.04,1.386h5.435v3.335H41.432ZM24.515,30.508a2.958,2.958,0,0,1,2.954-2.954h10.89a2.954,2.954,0,0,1,0,5.909H27.469A2.957,2.957,0,0,1,24.515,30.508Zm2.922,22.458A.435.435,0,0,1,27,52.531V41.749a.435.435,0,0,1,.434-.434H38.392a.435.435,0,0,1,.434.434V52.531a.435.435,0,0,1-.434.434Zm9.917,2.606v2.642H28.475V55.571ZM28.475,38.71V36.068h8.879V38.71ZM27.469,66.727a2.954,2.954,0,1,1,0-5.909h10.89a2.954,2.954,0,1,1,0,5.909Zm20.676,19.6H17.684V82.092a.435.435,0,0,1,.434-.434h8.064a1.3,1.3,0,0,0,0-2.606H20.744V76.895a.435.435,0,0,1,.434-.434H44.65a.435.435,0,0,1,.434.434v2.158H32.261a1.3,1.3,0,0,0,0,2.606H47.71a.435.435,0,0,1,.434.434Zm40.268,0H50.75V82.092a3.043,3.043,0,0,0-3.04-3.04h-.02V76.895a3.043,3.043,0,0,0-3.04-3.04H33.966V69.332h4.394a5.56,5.56,0,0,0,1.6-10.884V55.131a3.038,3.038,0,0,0,1.473-2.6V51.413h5.584A2.173,2.173,0,0,0,49.038,52.8h3.807a2.173,2.173,0,0,0,2.022-1.386h9.216a2.3,2.3,0,0,0,2.1,1.386H88.412v33.53Z" transform="translate(-15.078 0)"/>
        <path id="Trazado_1169424" data-name="Trazado 1169424" d="M202.872,60.1a13.491,13.491,0,1,0,13.491-13.491A13.506,13.506,0,0,0,202.872,60.1Zm24.377,0a10.886,10.886,0,1,1-10.886-10.886A10.9,10.9,0,0,1,227.249,60.1Z" transform="translate(-170.252 -38.511)"/>
        <path id="Trazado_1169425" data-name="Trazado 1169425" d="M248.567,103.745a1.3,1.3,0,1,0-1.842,1.842l4.007,4.007a1.3,1.3,0,0,0,1.843,0l6.211-6.211a1.3,1.3,0,0,0-1.842-1.842l-5.29,5.29Z" transform="translate(-206.172 -83.588)"/>
        <path id="Trazado_1169426" data-name="Trazado 1169426" d="M243.681,328.372a1.3,1.3,0,0,0,1.3,1.3h23.959a1.3,1.3,0,1,0,0-2.605H244.984A1.3,1.3,0,0,0,243.681,328.372Z" transform="translate(-203.973 -270.257)"/>
        <path id="Trazado_1169427" data-name="Trazado 1169427" d="M324.155,363.546H311.8a1.3,1.3,0,1,0,0,2.606h12.352a1.3,1.3,0,1,0,0-2.606Z" transform="translate(-259.185 -300.398)"/>
        <path id="Trazado_1169428" data-name="Trazado 1169428" d="M244.984,366.151h7.09a1.3,1.3,0,0,0,0-2.606h-7.09a1.3,1.3,0,0,0,0,2.606Z" transform="translate(-203.973 -300.398)"/>
        <path id="Trazado_1169429" data-name="Trazado 1169429" d="M268.941,400.023H244.983a1.3,1.3,0,1,0,0,2.605h23.959a1.3,1.3,0,0,0,0-2.605Z" transform="translate(-203.972 -330.539)"/>
        <path id="Trazado_1169430" data-name="Trazado 1169430" d="M353.075,436.5H346.8a1.3,1.3,0,0,0,0,2.606h6.272a1.3,1.3,0,0,0,0-2.606Z" transform="translate(-288.105 -360.68)"/>
        <path id="Trazado_1169431" data-name="Trazado 1169431" d="M258.675,436.5H244.984a1.3,1.3,0,0,0,0,2.606h13.691a1.3,1.3,0,0,0,0-2.606Z" transform="translate(-203.973 -360.68)"/>
      </g>
    </g>
  </g>
</svg>
