<svg xmlns="http://www.w3.org/2000/svg" xmlns:xlink="http://www.w3.org/1999/xlink" width="400" height="389" viewBox="0 0 400 389">
  <defs>
    <clipPath id="clip-path">
      <rect id="Rectángulo_421247" data-name="Rectángulo 421247" width="400" height="389" transform="translate(180 2285)" fill="#fff" stroke="#707070" stroke-width="1"/>
    </clipPath>
  </defs>
  <g id="Enmascarar_grupo_1211471" data-name="Enmascarar grupo 1211471" transform="translate(-180 -2285)" clip-path="url(#clip-path)">
    <g id="Grupo_1220410" data-name="Grupo 1220410" transform="translate(0 -3)">
      <rect id="Rectángulo_421246" data-name="Rectángulo 421246" width="266" height="374" transform="translate(285 2292)" fill="#eca675"/>
      <g id="OBJECT" transform="translate(147.278 2265.472)">
        <path id="Trazado_1168606" data-name="Trazado 1168606" d="M139.914,252.878c-.952,1.648-4.31,1.489-7.5-.354s-5.009-4.673-4.057-6.32,4.31-1.489,7.5.354S140.865,251.231,139.914,252.878Z" transform="translate(-8.864 -19.41)" fill="#2f444f"/>
        <path id="Trazado_1168607" data-name="Trazado 1168607" d="M125.7,243.48c-.923,1.143-3.467.619-5.68-1.17s-3.26-4.165-2.337-5.308,3.467-.619,5.68,1.17S126.624,242.337,125.7,243.48Z" transform="translate(-7.865 -18.604)" fill="#2f444f"/>
        <g id="Grupo_1220151" data-name="Grupo 1220151" transform="translate(32.722 36.217)">
          <g id="Grupo_1220149" data-name="Grupo 1220149">
            <g id="Grupo_1220146" data-name="Grupo 1220146">
              <ellipse id="Elipse_14428" data-name="Elipse 14428" cx="200" cy="20.496" rx="200" ry="20.496" transform="translate(0 334.488)" fill="#a3c6ba"/>
              <g id="Grupo_1220145" data-name="Grupo 1220145" transform="translate(45.216)">
                <path id="Trazado_1168608" data-name="Trazado 1168608" d="M303.45,84.37a16.306,16.306,0,0,0-24.516,7.5,7.447,7.447,0,0,0-.6,3.642c.465,3.44,4.258,5.243,7.568,6.289,6.222,1.967,12.8,3.525,17.916,7.578,2.845,2.255,5.139,5.217,8.267,7.059s7.655,2.172,9.989-.61c1.706-2.034,1.666-5.039.916-7.585C320.778,100.743,309.728,88.735,303.45,84.37Z" transform="translate(-100.761 -40.423)" fill="#fcdbc3"/>
                <path id="Trazado_1168609" data-name="Trazado 1168609" d="M165.82,411.463c-.145.423-.7.619-1.191.728a25.658,25.658,0,0,1-3.947.457,36.328,36.328,0,0,1-6.859,0,11.322,11.322,0,0,1-6.115-2.473,2,2,0,0,1-.54-.669,2.286,2.286,0,0,1,.271-1.709c1.411-3.46.815-7.254.935-10.922a1.342,1.342,0,0,1,.229-.847,1.884,1.884,0,0,1,1.2-.477c4.012-.581,13.346-2.358,14.5,2.571.377,1.609-.476,3.483-.424,5.124C163.953,405.5,166.5,409.478,165.82,411.463Z" transform="translate(-88.567 -69.539)" fill="#a33d4e"/>
                <path id="Trazado_1168610" data-name="Trazado 1168610" d="M165.08,407.892l22.794,13.439s5.023,5.023,0,9.133c0,0-7.879,5.023-21.977-3.2L146.678,422.7s-6.49-10.895,0-14.809C146.678,407.892,159.639,414.09,165.08,407.892Z" transform="translate(-88.261 -70.76)" fill="#3c3c3b"/>
                <path id="Trazado_1168611" data-name="Trazado 1168611" d="M112.367,411.463c.145.423.7.619,1.191.728a25.658,25.658,0,0,0,3.947.457,36.328,36.328,0,0,0,6.859,0,11.322,11.322,0,0,0,6.115-2.473,1.994,1.994,0,0,0,.54-.669,2.286,2.286,0,0,0-.271-1.709c-1.411-3.46-.815-7.254-.935-10.922a1.348,1.348,0,0,0-.229-.847,1.884,1.884,0,0,0-1.2-.477c-4.012-.581-13.346-2.358-14.5,2.571-.377,1.609.476,3.483.424,5.124C114.233,405.5,111.688,409.478,112.367,411.463Z" transform="translate(-85.33 -69.539)" fill="#a33d4e"/>
                <path id="Trazado_1168612" data-name="Trazado 1168612" d="M118.4,137.836l-11.652,24.3,8.493,96.443h37.444L169.523,169.1l-20.611-31.267Z" transform="translate(-84.819 -45.661)" fill="#f4eff0"/>
                <path id="Trazado_1168613" data-name="Trazado 1168613" d="M99.33,262.4S93.8,324.972,110.972,391.023c0,0,12.97,7.532,20.473,0,0,0-3.42-83.178,3.116-96.759,0,0,12.022,39.4,5.8,97.339,0,0,8.851,5.794,20.471-1.158,0,0,12.221-84.012,9.219-128.046H99.33Z" transform="translate(-84.05 -57.238)" fill="#2f444f"/>
                <path id="Trazado_1168614" data-name="Trazado 1168614" d="M99.627,280.95l11.106-10.865,2.656,1.328L103.37,282.036" transform="translate(-84.156 -57.952)" fill="none" stroke="#344b5b" stroke-linecap="round" stroke-miterlimit="10" stroke-width="0.933"/>
                <path id="Trazado_1168615" data-name="Trazado 1168615" d="M174.545,280.95l-11.106-10.865-2.656,1.328L170.8,282.036" transform="translate(-89.84 -57.952)" fill="none" stroke="#344b5b" stroke-linecap="round" stroke-miterlimit="10" stroke-width="0.933"/>
                <path id="Trazado_1168616" data-name="Trazado 1168616" d="M133.97,265.117s-3.465,21.364,3.812,29.4l2.135-2.54s.257-21.747,1.748-25.361" transform="translate(-87.272 -57.49)" fill="none" stroke="#344b5b" stroke-linecap="round" stroke-miterlimit="10" stroke-width="0.933"/>
                <rect id="Rectángulo_421242" data-name="Rectángulo 421242" width="40.749" height="5.217" transform="translate(30.787 205.018)" fill="#233238"/>
                <path id="Trazado_1168617" data-name="Trazado 1168617" d="M116.964,96.04l2.389,37.912h34.284V101.977Z" transform="translate(-85.768 -41.777)" fill="#fcdbc3"/>
                <g id="Grupo_1220117" data-name="Grupo 1220117" transform="translate(24.321)">
                  <path id="Trazado_1168618" data-name="Trazado 1168618" d="M154.122,115.062,132.9,116.438a13.294,13.294,0,0,1-14.085-12.371l-2.762-42.614a13.294,13.294,0,0,1,12.371-14.085l21.223-1.375a13.294,13.294,0,0,1,14.085,12.371l2.762,42.614A13.3,13.3,0,0,1,154.122,115.062Z" transform="translate(-110.002 -37.123)" fill="#fcdbc3"/>
                  <path id="Trazado_1168619" data-name="Trazado 1168619" d="M158.592,62.6c7.945-2.072,14.934-9.657,12.927-17.153a6.568,6.568,0,0,1-2.16,4.383,22.018,22.018,0,0,0-1.9-12.753l-3.069,7.855a23.643,23.643,0,0,0-5.034-8.711c.89,1.677-.249,3.818-1.96,4.8a12.563,12.563,0,0,1-5.8,1.19q-7.527.3-15.06.295c-5.306-.007-10.791-.1-15.7,1.839s-9.092,6.544-8.492,11.5c.142,1.172.54,2.313.563,3.493.057,2.813-1.967,5.262-2.849,7.957-2.946,8.99,4.691,17.362,4.411,26.748l2.992-.148c.578-5.93,2.22-11.859.29-17.512,1.978-.507,4.026.946,4.778,2.732a11.325,11.325,0,0,1,.327,5.709,11.781,11.781,0,0,0,4.758.515l-1.6-12.736c2.239-1.519,4.549-3.114,5.883-5.387s1.382-5.431-.641-7.167C139.163,63,150.236,64.776,158.592,62.6Z" transform="translate(-109.384 -36.217)" fill="#936037"/>
                  <path id="Trazado_1168620" data-name="Trazado 1168620" d="M121.571,81.714a5.759,5.759,0,0,0-10.485-.813,10.033,10.033,0,0,0-.829,5.371,10.658,10.658,0,0,0,.6,3.342c.96,2.425,3.354,4.012,5.826,4.843a5.8,5.8,0,0,0,2.52.381,3.626,3.626,0,0,0,3.082-3.222" transform="translate(-109.462 -40.09)" fill="#fcdbc3"/>
                  <g id="Grupo_1220115" data-name="Grupo 1220115" transform="translate(3.412 42.34)">
                    <path id="Trazado_1168621" data-name="Trazado 1168621" d="M119.081,91.523a1.643,1.643,0,0,1-.3.142,2.319,2.319,0,0,1-.931.126,5.128,5.128,0,0,1-2.978-1.414,5.494,5.494,0,0,1-1.309-1.832,5.189,5.189,0,0,1-.4-2.523,4.947,4.947,0,0,1,.316-1.336,2.875,2.875,0,0,1,.84-1.212,2.986,2.986,0,0,1,2.972-.334,3.91,3.91,0,0,1,2.052,2.162,5.458,5.458,0,0,1,.385,1.4,2.853,2.853,0,0,1-.142,1.576,1.55,1.55,0,0,1-.675.7,2.1,2.1,0,0,1-.8.212,2.55,2.55,0,0,1-1.456-.3,2.231,2.231,0,0,1-.983-1.038,2.09,2.09,0,0,1-.1-1.342,1.713,1.713,0,0,1,.71-1.02,1.767,1.767,0,0,1,1.03-.275,1.824,1.824,0,0,1,1.41.736,2.127,2.127,0,0,1,.444,1.22l-.109.019a2.075,2.075,0,0,0-.117-.293,2.122,2.122,0,0,0-.5-.683,1.47,1.47,0,0,0-1.11-.367,1.059,1.059,0,0,0-.6.262,1.041,1.041,0,0,0-.288.59,1.156,1.156,0,0,0,.7,1.238,1.768,1.768,0,0,0,.849.141c.367-.048.466-.115.552-.295a3.47,3.47,0,0,0-.17-2.1,2.974,2.974,0,0,0-1.435-1.733,2.2,2.2,0,0,0-2.133.105,3.1,3.1,0,0,0-1.007,2.037,5.061,5.061,0,0,0,4.064,5.51,2.163,2.163,0,0,0,.874-.064,1.672,1.672,0,0,0,.292-.117Z" transform="translate(-113.146 -82.895)" fill="#bfa08c"/>
                  </g>
                  <g id="Grupo_1220116" data-name="Grupo 1220116" transform="translate(41.12 38.572)">
                    <path id="Trazado_1168622" data-name="Trazado 1168622" d="M155.666,78.741l1.149.741,1.111.824,1.055.893,1,.959.941,1.02.879,1.078.8,1.139.734,1.187L164,87.813l.59,1.271.512,1.307.433,1.339.356,1.365.273,1.388.189,1.407.069,1.421.037.772-.834.073c-1.805.157-3.618.182-5.433.184-.907,0-1.817-.019-2.727-.056s-1.821-.1-2.735-.192l-.011-.165c.894-.21,1.79-.389,2.688-.544s1.8-.293,2.7-.407c1.8-.233,3.6-.442,5.412-.519l-.8.844,0-1.311-.065-1.314-.156-1.312-.243-1.3-.33-1.286-.41-1.266-.486-1.242-.561-1.213-.634-1.179-.7-1.141-.762-1.108-.83-1.061-.9-1.01-.96-.955-1.018-.891-1.086-.832Z" transform="translate(-154.718 -78.741)" fill="#bfa08c"/>
                  </g>
                  <path id="Trazado_1168623" data-name="Trazado 1168623" d="M129.014,103.084a5.8,5.8,0,0,0,1.351,3.44,5.176,5.176,0,0,0,1.762,1,20.073,20.073,0,0,0,3.132.905,30.662,30.662,0,0,0,3.961.563q.961.076,1.924.094a10.531,10.531,0,0,0,2.085-.2,13.216,13.216,0,0,1-.552-1.368,10.86,10.86,0,0,1-.562-2.446,10.483,10.483,0,0,1,.371-4.22c.141-.465.421-.972.9-1.043a1.576,1.576,0,0,1,.665.1c2.056.6,4.027.285,6.105.381a54.892,54.892,0,0,0,10.744-.62.976.976,0,0,1,.747.084.9.9,0,0,1,.27.5,12.556,12.556,0,0,1-.057,5.084,22.415,22.415,0,0,0,3.154-.791c.848-.5.965-1.015,1.354-1.927a16.72,16.72,0,0,1,1.275,11.606,11.49,11.49,0,0,1-6.691,6.819,28.025,28.025,0,0,1-9.648,1.786,127.906,127.906,0,0,1-18.851-.551c-4.215-.414-8.8-1.189-11.6-4.371-1.9-2.165-2.636-5.088-3.309-7.89-.651-2.714-1.108-6.07,1.04-7.852.655-.543,1.479-.851,2.145-1.38,1.791-1.42,2.036-4,2.138-6.282.081-1.8.592-3.3.673-5.1a2.865,2.865,0,0,1,.286-1.352c.4-.668.862-1.2,1.624-1.049,3.246.649,2.976,3.967,3.165,6.547C128.846,96.661,128.546,100,129.014,103.084Z" transform="translate(-110.093 -40.935)" fill="#936037"/>
                  <path id="Trazado_1168624" data-name="Trazado 1168624" d="M160.491,104.363c.923-.137,1.588-.25,1.793-.307.064-.017.566,4.725.586,5.159.063,1.4.637,3-.717,3.817a3.576,3.576,0,0,1-1.349.581,1.219,1.219,0,0,1-1.263-.57c-.322-.663.24-1.386.482-2.083a.635.635,0,0,0-.065-.67.7.7,0,0,0-.482-.128,10.643,10.643,0,0,0-2.932.4q.2,1.459.4,2.918a.4.4,0,0,1-.422.551c-1.973.225-4.176.27-5.574-1.393a6.261,6.261,0,0,1-1.315-3.62,18.649,18.649,0,0,1,.279-3.9C149.829,105.735,157,104.88,160.491,104.363Z" transform="translate(-113.123 -42.522)" fill="#fcdbc3"/>
                </g>
                <path id="Trazado_1168625" data-name="Trazado 1168625" d="M134.849,147.222S131,202.181,131.4,218.67l1.549,13.861,3.612-15s2.1-57.473.064-70.239l-.847-1.734Z" transform="translate(-87.106 -46.378)" fill="#8e3544"/>
                <path id="Trazado_1168626" data-name="Trazado 1168626" d="M135.018,148.749s-2.562,68.4-.223,88.8l4.417,17.055,5.85-18.871s-1.195-71.376-6.476-87.037l-1.868-2.084Z" transform="translate(-87.333 -46.477)" fill="#c44e5d"/>
                <path id="Trazado_1168627" data-name="Trazado 1168627" d="M130.616,137.871s7.548-3.682,13.071,0l-5.453,10.862h-3.568Z" transform="translate(-87.037 -45.512)" fill="#c44e5d"/>
                <path id="Trazado_1168628" data-name="Trazado 1168628" d="M124.309,152.835l10.8-17.4-17.933-8.552-2.591,8Z" transform="translate(-85.546 -44.643)" fill="#fff"/>
                <path id="Trazado_1168629" data-name="Trazado 1168629" d="M149.8,152.835l-10.8-17.4,17.934-8.552,2.591,8Z" transform="translate(-87.816 -44.643)" fill="#fff"/>
                <path id="Trazado_1168630" data-name="Trazado 1168630" d="M92.894,190.325l6.042,22.12-7.551,43.8s16.285,12.862,37.4,6.768l5-57.052s-9.616-42.351-19.45-71.96l-1.242-3.031a42.145,42.145,0,0,1-3.771,2.894,94.223,94.223,0,0,1-25.76,12.268Z" transform="translate(-82.663 -45.023)" fill="#344b5b"/>
                <path id="Trazado_1168631" data-name="Trazado 1168631" d="M111.958,133.864a42.358,42.358,0,0,0,3.771-2.894L116.97,134c9.834,29.609,19.45,71.96,19.45,71.96l-19.922-37.5,4.173-2.106-4.943-.846Z" transform="translate(-85.302 -45.023)" fill="#2f444f"/>
                <path id="Trazado_1168632" data-name="Trazado 1168632" d="M193.026,133.207l-.723-4.776c-12.556-3.909-25.776,6.076-30.331,2.894a42.356,42.356,0,0,1-3.771-2.894l-1.242,3.03c-9.834,29.609-19.45,71.96-19.45,71.96l5,57.052c20.152,6.095,37.4-6.768,37.4-6.768l-7.551-43.8,6.042-22.12,2.525-14.523,174.5-33.807s-46,.028-43.447-35.795Z" transform="translate(-87.677 -42.485)" fill="#344b5b"/>
                <path id="Trazado_1168633" data-name="Trazado 1168633" d="M161.972,133.864a42.358,42.358,0,0,1-3.771-2.894L156.959,134c-9.834,29.609-19.45,71.96-19.45,71.96l19.922-37.5-4.172-2.106,4.943-.846Z" transform="translate(-87.677 -45.023)" fill="#2f444f"/>
                <g id="Grupo_1220118" data-name="Grupo 1220118" transform="translate(51.931 159.993)">
                  <path id="Trazado_1168634" data-name="Trazado 1168634" d="M144.346,216.17c0,1.664-.263,3.134-1.246,3.521a4.97,4.97,0,0,1-1.015.033c-1.249,0-2.261-1.591-2.261-3.553s1.012-3.553,2.261-3.553a5.086,5.086,0,0,1,.832.006C143.954,212.946,144.346,214.445,144.346,216.17Z" transform="translate(-139.823 -212.603)" fill="#8e3544"/>
                  <path id="Trazado_1168635" data-name="Trazado 1168635" d="M145.134,216.172c0,1.962-1.012,3.553-2.261,3.553s-2.261-1.591-2.261-3.553,1.012-3.553,2.261-3.553S145.134,214.209,145.134,216.172Z" transform="translate(-139.896 -212.604)" fill="#c44e5d"/>
                  <ellipse id="Elipse_14429" data-name="Elipse 14429" cx="0.445" cy="0.955" rx="0.445" ry="0.955" transform="translate(2.741 1.267)" fill="#8e3544"/>
                  <path id="Trazado_1168636" data-name="Trazado 1168636" d="M143.736,217.914c0,.527-.2.955-.445.955s-.445-.427-.445-.955.2-.954.445-.954S143.736,217.387,143.736,217.914Z" transform="translate(-140.104 -213.008)" fill="#8e3544"/>
                </g>
                <g id="Grupo_1220119" data-name="Grupo 1220119" transform="translate(26.379 224.018)">
                  <path id="Trazado_1168637" data-name="Trazado 1168637" d="M118.654,392.855l-.255-1.212c-.158-.792-.417-1.95-.678-3.434-.535-2.967-1.331-7.2-2.068-12.321-.352-2.561-.753-5.333-1.127-8.272s-.793-6.037-1.056-9.259q-.227-2.414-.463-4.9-.2-2.489-.4-5.031c-.289-3.383-.476-6.829-.671-10.274q-.131-2.585-.163-5.168-.053-2.578-.105-5.129c-.052-3.4.02-6.745.024-9.981.066-3.238.28-6.366.427-9.328.269-2.958.523-5.754.758-8.335.274-2.577.7-4.922,1.01-7,.277-2.085.719-3.873,1.039-5.349s.6-2.628.782-3.415l.281-1.2a.068.068,0,0,1,.083-.051.07.07,0,0,1,.052.081s-.3,1.693-.835,4.654c-.26,1.481-.631,3.273-.825,5.362-.226,2.084-.554,4.426-.778,7-.171,2.574-.357,5.363-.553,8.311-.078,2.955-.194,6.07-.252,9.294.025,3.225-.017,6.558.064,9.942q.075,2.539.151,5.11c.039,1.713.105,3.431.208,5.148.171,3.436.321,6.873.581,10.25q.177,2.533.349,5.021.212,2.48.418,4.895c.254,3.216.6,6.315.883,9.257s.633,5.717.922,8.281c.325,2.56.6,4.91.883,6.987s.536,3.888.742,5.379c.447,2.977.7,4.678.7,4.678a.069.069,0,0,1-.057.078A.074.074,0,0,1,118.654,392.855Z" transform="translate(-111.653 -283.188)" fill="#344b5b"/>
                </g>
                <g id="Grupo_1220120" data-name="Grupo 1220120" transform="translate(68.885 225.78)">
                  <path id="Trazado_1168638" data-name="Trazado 1168638" d="M158.516,393.007s.453-1.63,1.079-4.524c.151-.725.319-1.527.5-2.4.164-.877.342-1.826.532-2.839.368-2.029.753-4.325,1.127-6.836q.269-1.884.561-3.92c.167-1.358.34-2.763.517-4.206.379-2.884.629-5.943.95-9.1.262-3.162.513-6.433.726-9.757.151-3.329.4-6.706.473-10.091s.267-6.766.255-10.1c.006-3.333.1-6.612.034-9.785-.048-3.174-.1-6.242-.14-9.15-.112-2.907-.217-5.656-.314-8.193s-.189-4.864-.337-6.922c-.129-2.059-.241-3.854-.333-5.333-.185-2.957-.29-4.646-.29-4.646a.068.068,0,0,1,.064-.073.07.07,0,0,1,.073.063l.141,1.21c.086.789.238,1.946.381,3.422s.335,3.268.545,5.324c.1,1.029.211,2.123.327,3.277.077,1.156.157,2.373.241,3.642.161,2.54.334,5.291.518,8.2.113,2.913.259,5.987.315,9.168.1,3.181.032,6.47.055,9.812.042,3.343-.112,6.737-.165,10.133-.1,3.394-.384,6.783-.564,10.121-.243,3.334-.526,6.614-.817,9.785-.331,3.168-.672,6.228-1.124,9.115q-.321,2.166-.624,4.207-.342,2.031-.66,3.919c-.425,2.512-.9,4.8-1.358,6.819-.231,1.009-.447,1.953-.648,2.826q-.328,1.3-.6,2.387c-.364,1.44-.706,2.557-.938,3.32s-.369,1.163-.369,1.163a.069.069,0,0,1-.084.048A.073.073,0,0,1,158.516,393.007Z" transform="translate(-158.514 -285.131)" fill="#344b5b"/>
                </g>
                <path id="Trazado_1168639" data-name="Trazado 1168639" d="M110.294,407.892,87.5,421.331s-5.023,5.023,0,9.133c0,0,7.879,5.023,21.977-3.2L128.7,422.7s6.49-10.895,0-14.809C128.7,407.892,115.734,414.09,110.294,407.892Z" transform="translate(-82.822 -70.76)" fill="#3c3c3b"/>
                <g id="Grupo_1220121" data-name="Grupo 1220121" transform="translate(29.457 58.516)">
                  <path id="Trazado_1168640" data-name="Trazado 1168640" d="M115.047,100.9s.166-.032.417-.062l.921-.085.924-.023c.252,0,.422.012.422.012l.008.137a2.8,2.8,0,0,1-.38.689,1.478,1.478,0,0,1-.409.382.917.917,0,0,1-.237.114l-.248.055-.252-.024c-.083,0-.168-.06-.248-.084a1.449,1.449,0,0,1-.451-.331,2.763,2.763,0,0,1-.458-.643Z" transform="translate(-115.047 -100.729)" fill="#936037"/>
                </g>
                <g id="Grupo_1220122" data-name="Grupo 1220122" transform="translate(64.798 20.162)">
                  <path id="Trazado_1168641" data-name="Trazado 1168641" d="M154.64,62.6l.948.267c.563.157,1.427.362,2.453.541a24.078,24.078,0,0,0,7.676.122c.347-.046.688-.12,1.05-.189.337-.077.673-.146,1.01-.241a17.622,17.622,0,0,0,1.949-.632,16.757,16.757,0,0,0,3.253-1.671,14.119,14.119,0,0,0,2.042-1.633c.459-.44.7-.718.7-.718s-.2.3-.6.8a14.339,14.339,0,0,1-1.858,1.913,17.464,17.464,0,0,1-3.14,2.148,18.549,18.549,0,0,1-1.959.921c-.338.143-.7.268-1.057.4-.34.111-.7.235-1.067.334a26.087,26.087,0,0,1-8.252.908c-1.146-.054-2.079-.153-2.764-.253l-1.01-.151Z" transform="translate(-154.008 -58.445)" fill="#936037"/>
                </g>
                <path id="Trazado_1168642" data-name="Trazado 1168642" d="M94.1,149.726l19.666,30.114,32.9-6.841,22.385,68.688s-13,13.392-36.946,3.886l-27.182-26.119s-27.618-20.365-21.456-71.84C83.467,147.613,91.049,145.051,94.1,149.726Z" transform="translate(-82.571 -46.505)" fill="#344b5b"/>
                <path id="Trazado_1168643" data-name="Trazado 1168643" d="M132.562,188.056a26.861,26.861,0,0,0-2.464,10.122,72.021,72.021,0,0,0,2.534,25.857c2,6.973,5.265,13.9,10.968,18.381s14.272,5.88,20.25,1.77c3.728-2.563,5.951-6.8,7.464-11.062a52.046,52.046,0,0,0-.2-35.036,28.2,28.2,0,0,0-4.675-8.554C159.106,180.845,138.872,175.8,132.562,188.056Z" transform="translate(-86.965 -49.65)" fill="#fff"/>
                <g id="Grupo_1220123" data-name="Grupo 1220123" transform="translate(61.407 63.425)">
                  <path id="Trazado_1168644" data-name="Trazado 1168644" d="M150.34,106.147a5.654,5.654,0,0,0,1.619.6,11.129,11.129,0,0,0,1.762.265,15.35,15.35,0,0,0,2.045.01,23.581,23.581,0,0,0,3.805-.483c.515-.1.936-.219,1.235-.284l.468-.113a.046.046,0,0,1,.056.034.048.048,0,0,1-.018.049l-.013.009s-.151.108-.427.273a8.618,8.618,0,0,1-1.179.6,10.393,10.393,0,0,1-1.766.571,11.457,11.457,0,0,1-2.117.306c-.366.016-.734.009-1.1-.008a7.93,7.93,0,0,1-1.062-.118,7.317,7.317,0,0,1-.981-.227,5.753,5.753,0,0,1-.851-.317,4.66,4.66,0,0,1-1.166-.709,2.419,2.419,0,0,1-.367-.373l-.01-.014a.046.046,0,0,1,.011-.064A.042.042,0,0,1,150.34,106.147Z" transform="translate(-150.27 -106.14)" fill="#bfa08c"/>
                </g>
                <path id="Trazado_1168645" data-name="Trazado 1168645" d="M137.411,74.056s6.812-7.433,11.535-3.4l-1.3-4.631a8.588,8.588,0,0,0-9.737,4.724Z" transform="translate(-87.668 -38.969)" fill="#68442b"/>
                <path id="Trazado_1168646" data-name="Trazado 1168646" d="M160.566,70.594s4.045-3.533,7.188,2.96l-.23-3.3s-2.938-4.723-6.836-3.734Z" transform="translate(-89.82 -39.02)" fill="#68442b"/>
                <g id="Grupo_1220124" data-name="Grupo 1220124" transform="translate(50.527 37.042)">
                  <path id="Trazado_1168647" data-name="Trazado 1168647" d="M149.9,80.5a10.35,10.35,0,0,0-1.692-1.25c-.279-.147-.567-.336-.9-.474a7.583,7.583,0,0,0-1.055-.418,8.326,8.326,0,0,0-1.176-.281,6.1,6.1,0,0,0-1.242-.047,5.457,5.457,0,0,0-.622.046l-.605.136a6.212,6.212,0,0,0-1.128.421,10.327,10.327,0,0,0-.962.593,6.3,6.3,0,0,0-.772.659,4.135,4.135,0,0,0-.6.613l-.42.516-.366.45-.079-.055s.076-.2.239-.555c.083-.174.182-.391.314-.629a3.508,3.508,0,0,1,.517-.757,5.073,5.073,0,0,1,.739-.824,7.276,7.276,0,0,1,1.011-.762l.61-.308a2.138,2.138,0,0,1,.658-.25l.7-.175a6.347,6.347,0,0,1,.721-.075,6.978,6.978,0,0,1,1.429.093,6.892,6.892,0,0,1,1.3.39,5.924,5.924,0,0,1,1.1.564,6.7,6.7,0,0,1,.889.635,6.263,6.263,0,0,1,1.457,1.674Z" transform="translate(-138.275 -77.054)" fill="#bfa08c"/>
                </g>
                <g id="Grupo_1220125" data-name="Grupo 1220125" transform="translate(71.007 36.276)">
                  <path id="Trazado_1168648" data-name="Trazado 1168648" d="M160.854,79.942a3.95,3.95,0,0,1,.483-1.478,4.378,4.378,0,0,1,.412-.644,4.513,4.513,0,0,1,1.4-1.213,3.911,3.911,0,0,1,1.023-.347c.187-.019.373-.047.559-.05l.556.062a3.591,3.591,0,0,1,.99.353,6.024,6.024,0,0,1,.737.557,4.587,4.587,0,0,1,.5.609,1.976,1.976,0,0,1,.326.555c.083.171.139.33.187.456.093.256.129.406.129.406l-.077.056-.255-.3a5.51,5.51,0,0,0-.7-.754c-.163-.135-.328-.3-.524-.442-.211-.119-.426-.259-.66-.377a3.547,3.547,0,0,0-.776-.21l-.411-.034c-.137.008-.274.037-.412.054a2.994,2.994,0,0,0-.793.238,4.362,4.362,0,0,0-.7.416,6.2,6.2,0,0,0-1.068.982,7.809,7.809,0,0,0-.839,1.149Z" transform="translate(-160.854 -76.21)" fill="#bfa08c"/>
                </g>
                <path id="Trazado_1168649" data-name="Trazado 1168649" d="M147.29,80.971a1.77,1.77,0,1,0-2.014,1.487A1.77,1.77,0,0,0,147.29,80.971Z" transform="translate(-88.259 -40.187)" fill="#bfa08c"/>
                <path id="Trazado_1168650" data-name="Trazado 1168650" d="M146.059,81.067a.772.772,0,1,0-.878.649A.772.772,0,0,0,146.059,81.067Z" transform="translate(-88.329 -40.303)" fill="#fcdbc3"/>
                <path id="Trazado_1168651" data-name="Trazado 1168651" d="M166.477,79.727a1.625,1.625,0,1,0-1.848,1.365A1.625,1.625,0,0,0,166.477,79.727Z" transform="translate(-90.069 -40.087)" fill="#bfa08c"/>
                <path id="Trazado_1168652" data-name="Trazado 1168652" d="M165.283,79.772a.709.709,0,1,0-.806.6A.709.709,0,0,0,165.283,79.772Z" transform="translate(-90.127 -40.189)" fill="#fcdbc3"/>
                <path id="Trazado_1168653" data-name="Trazado 1168653" d="M191.576,143.9c3.2-1.391,7.082-2.7,9.985-.763,2.29,1.529,3.04,4.574,2.992,7.327a19.178,19.178,0,0,1-10.339,16.45,37.585,37.585,0,0,1-9.972,2.875l-16.006,3.05c-3.021.576-6.439,1.07-8.921-.746-2.328-1.7-3.741-6.227-3.061-9.054.858-3.568,5-4.729,7.976-6.246Q177.7,149.932,191.576,143.9Z" transform="translate(-89.403 -46.063)" fill="#eac7b0"/>
                <path id="Trazado_1168654" data-name="Trazado 1168654" d="M217.673,260.356l.563,6.194s-10.606,5.138-18.677-.482l-.844-6.839Z" transform="translate(-93.365 -56.943)" fill="#f4eff0"/>
                <g id="Grupo_1220128" data-name="Grupo 1220128" transform="translate(76.715 85.21)">
                  <path id="Trazado_1168655" data-name="Trazado 1168655" d="M175.91,293.811h0a.436.436,0,0,1-.434-.434v-2.3a.436.436,0,0,1,.434-.435h0a.436.436,0,0,1,.434.435v2.3A.436.436,0,0,1,175.91,293.811Z" transform="translate(-167.921 -145.073)" fill="#a0a09a"/>
                  <g id="Grupo_1220126" data-name="Grupo 1220126">
                    <path id="Trazado_1168656" data-name="Trazado 1168656" d="M179.813,139.673a112.674,112.674,0,0,0,1.48,16.322c.514,3.377.957,7.035,1.288,10.9a119.143,119.143,0,0,1,.544,12.171c-.044,4.221-.394,8.583-.805,13.015s-.786,8.935-1.049,13.437-.518,9.005-.772,13.437c-.23,4.432-.564,8.794-.855,13.015s-.562,8.3-.876,12.171-.59,7.528-.854,10.9c-.286,3.377-.547,6.473-.778,9.216s-.444,5.136-.64,7.106c-.376,3.939-.59,6.191-.59,6.191h-1.534s-.214-2.251-.59-6.191c-.2-1.97-.409-4.362-.64-7.106s-.493-5.84-.778-9.216c-.265-3.377-.552-7.035-.854-10.9s-.571-7.95-.876-12.171-.625-8.583-.855-13.015c-.255-4.432-.513-8.935-.772-13.437s-.641-9.005-1.049-13.437-.762-8.794-.805-13.015a119.152,119.152,0,0,1,.544-12.171c.331-3.87.774-7.528,1.288-10.9a107.2,107.2,0,0,0,1.48-16.322h9.351Z" transform="translate(-167.146 -131.042)" fill="#db9b45"/>
                    <path id="Trazado_1168657" data-name="Trazado 1168657" d="M176.064,130.158h-1.273a3.476,3.476,0,0,0-3.466,3.466v6.5a3.476,3.476,0,0,0,3.466,3.466h1.273a3.476,3.476,0,0,0,3.466-3.466v-6.5A3.476,3.476,0,0,0,176.064,130.158Z" transform="translate(-167.535 -130.158)" fill="#db9b45"/>
                    <rect id="Rectángulo_421243" data-name="Rectángulo 421243" width="14.23" height="5.335" transform="translate(1.752 8.631)" fill="#7c5527"/>
                    <rect id="Rectángulo_421244" data-name="Rectángulo 421244" width="1.821" height="24.414" transform="translate(13.685 12.608)" fill="#7c5527"/>
                    <path id="Trazado_1168658" data-name="Trazado 1168658" d="M172.6,132.833s3.231-1.837,5.645-.68C178.243,132.153,174.978,128.957,172.6,132.833Z" transform="translate(-167.653 -130.228)" fill="#e2bc8f"/>
                  </g>
                  <g id="Grupo_1220127" data-name="Grupo 1220127" transform="translate(5.418 124.594)">
                    <path id="Trazado_1168659" data-name="Trazado 1168659" d="M173.121,267.924a2.043,2.043,0,0,1,.221-.079,5.547,5.547,0,0,1,.583-.15,8.052,8.052,0,0,1,.825-.124l.945-.053.945.054c.3.015.583.091.825.124a5.758,5.758,0,0,1,.583.15,2.312,2.312,0,0,1,.221.079v.048L175.7,268l-2.575-.024v-.049Z" transform="translate(-173.12 -267.518)" fill="#7c5527"/>
                  </g>
                </g>
                <g id="Grupo_1220133" data-name="Grupo 1220133" transform="translate(96.509 56.837)">
                  <path id="Trazado_1168660" data-name="Trazado 1168660" d="M188.969,100.122s21.724,129.92,0,257.388H387.678s19.168-221.117,0-258.632Z" transform="translate(-188.969 -98.878)" fill="#fff"/>
                  <text id="CONTRACT" transform="translate(30.097 48.885)" fill="#8e3544" font-size="30" font-family="SegoeUI, Segoe UI"><tspan x="0" y="0">CONTRACT</tspan></text>
                  <text id="SIGN_UP" data-name="SIGN UP" transform="translate(34.733 227.92)" fill="#302f2e" font-size="12" font-family="SegoeUI, Segoe UI"><tspan x="0" y="0">SIGN UP</tspan></text>
                  <path id="Trazado_1168661" data-name="Trazado 1168661" d="M209.12,117.029,211.782,167l167.27-3.538s3.1-40.59-3.039-48.264Z" transform="translate(-190.842 -100.395)" fill="none" stroke="#302f2e" stroke-miterlimit="10" stroke-width="2.113"/>
                  <line id="Línea_754" data-name="Línea 754" x2="149.077" transform="translate(33.26 94.605)" fill="none" stroke="#565554" stroke-linecap="round" stroke-miterlimit="10" stroke-width="3.17"/>
                  <line id="Línea_755" data-name="Línea 755" x2="149.077" transform="translate(33.26 104.189)" fill="none" stroke="#565554" stroke-linecap="round" stroke-miterlimit="10" stroke-width="3.17"/>
                  <line id="Línea_756" data-name="Línea 756" x2="149.077" transform="translate(33.26 113.773)" fill="none" stroke="#565554" stroke-linecap="round" stroke-miterlimit="10" stroke-width="3.17"/>
                  <line id="Línea_757" data-name="Línea 757" x2="149.077" transform="translate(33.26 123.357)" fill="none" stroke="#565554" stroke-linecap="round" stroke-miterlimit="10" stroke-width="3.17"/>
                  <line id="Línea_758" data-name="Línea 758" x2="65.136" transform="translate(33.26 142.525)" fill="none" stroke="#565554" stroke-linecap="round" stroke-miterlimit="10" stroke-width="3.17"/>
                  <line id="Línea_759" data-name="Línea 759" x2="65.136" transform="translate(33.26 152.109)" fill="none" stroke="#565554" stroke-linecap="round" stroke-miterlimit="10" stroke-width="3.17"/>
                  <line id="Línea_760" data-name="Línea 760" x2="65.136" transform="translate(33.26 161.693)" fill="none" stroke="#565554" stroke-linecap="round" stroke-miterlimit="10" stroke-width="3.17"/>
                  <line id="Línea_761" data-name="Línea 761" x2="65.136" transform="translate(33.26 171.277)" fill="none" stroke="#565554" stroke-linecap="round" stroke-miterlimit="10" stroke-width="3.17"/>
                  <line id="Línea_762" data-name="Línea 762" x2="65.136" transform="translate(33.26 180.861)" fill="none" stroke="#565554" stroke-linecap="round" stroke-miterlimit="10" stroke-width="3.17"/>
                  <line id="Línea_763" data-name="Línea 763" x2="65.136" transform="translate(33.26 190.445)" fill="none" stroke="#565554" stroke-linecap="round" stroke-miterlimit="10" stroke-width="3.17"/>
                  <line id="Línea_764" data-name="Línea 764" x2="65.136" transform="translate(33.26 200.029)" fill="none" stroke="#565554" stroke-linecap="round" stroke-miterlimit="10" stroke-width="3.17"/>
                  <line id="Línea_765" data-name="Línea 765" x2="65.136" transform="translate(117.201 142.525)" fill="none" stroke="#565554" stroke-linecap="round" stroke-miterlimit="10" stroke-width="3.17"/>
                  <line id="Línea_766" data-name="Línea 766" x2="65.136" transform="translate(117.201 152.109)" fill="none" stroke="#565554" stroke-linecap="round" stroke-miterlimit="10" stroke-width="3.17"/>
                  <line id="Línea_767" data-name="Línea 767" x2="65.136" transform="translate(117.201 161.693)" fill="none" stroke="#565554" stroke-linecap="round" stroke-miterlimit="10" stroke-width="3.17"/>
                  <line id="Línea_768" data-name="Línea 768" x2="65.136" transform="translate(117.201 171.277)" fill="none" stroke="#565554" stroke-linecap="round" stroke-miterlimit="10" stroke-width="3.17"/>
                  <line id="Línea_769" data-name="Línea 769" x2="65.136" transform="translate(117.201 180.861)" fill="none" stroke="#565554" stroke-linecap="round" stroke-miterlimit="10" stroke-width="3.17"/>
                  <line id="Línea_770" data-name="Línea 770" x2="65.136" transform="translate(117.201 190.445)" fill="none" stroke="#565554" stroke-linecap="round" stroke-miterlimit="10" stroke-width="3.17"/>
                  <g id="Grupo_1220132" data-name="Grupo 1220132" transform="translate(130.254 197.423)">
                    <path id="Trazado_1168662" data-name="Trazado 1168662" d="M373.364,359.252l-14.334-20.86-5.447,2.379-.014.006-5.448,2.38,5.562,24.691,7.337-10.03Z" transform="translate(-334.014 -318.561)" fill="#565554"/>
                    <g id="Grupo_1220131" data-name="Grupo 1220131" transform="translate(0 0)">
                      <g id="Grupo_1220130" data-name="Grupo 1220130">
                        <g id="Grupo_1220129" data-name="Grupo 1220129" transform="translate(0.756 0.781)">
                          <path id="Trazado_1168663" data-name="Trazado 1168663" d="M363.664,328.26c-.568-1.3.588-3.615-.256-4.673-.873-1.095-3.4-.476-4.5-1.287-1.118-.823-1.278-3.411-2.562-3.914s-3.16,1.286-4.539,1.13c-1.36-.154-2.79-2.322-4.174-2.112-1.338.2-2.064,2.687-3.363,3.254s-3.615-.588-4.672.256c-1.095.873-.476,3.4-1.287,4.5-.823,1.117-3.411,1.278-3.914,2.562s1.286,3.16,1.13,4.539c-.154,1.36-2.322,2.79-2.112,4.174.2,1.338,2.687,2.064,3.254,3.363s-.588,3.615.256,4.672c.873,1.095,3.4.476,4.5,1.287,1.117.823,1.278,3.411,2.562,3.914s3.16-1.286,4.539-1.13c1.36.154,2.79,2.322,4.174,2.112,1.338-.2,2.064-2.687,3.363-3.255s3.615.588,4.672-.256c1.095-.873.476-3.4,1.287-4.5s3.411-1.278,3.914-2.562-1.286-3.16-1.13-4.539c.154-1.36,2.322-2.79,2.112-4.174C366.716,330.285,364.232,329.559,363.664,328.26Z" transform="translate(-333.403 -317.39)" fill="#302f2f"/>
                          <path id="Trazado_1168664" data-name="Trazado 1168664" d="M363.664,328.26c-.568-1.3.588-3.615-.256-4.673-.873-1.095-3.4-.476-4.5-1.287-1.118-.823-1.278-3.411-2.562-3.914s-3.16,1.286-4.539,1.13c-1.36-.154-2.79-2.322-4.174-2.112-1.338.2-2.064,2.687-3.363,3.254s-3.615-.588-4.672.256c-1.095.873-.476,3.4-1.287,4.5-.823,1.117-3.411,1.278-3.914,2.562s1.286,3.16,1.13,4.539c-.154,1.36-2.322,2.79-2.112,4.174.2,1.338,2.687,2.064,3.254,3.363s-.588,3.615.256,4.672c.873,1.095,3.4.476,4.5,1.287,1.117.823,1.278,3.411,2.562,3.914s3.16-1.286,4.539-1.13c1.36.154,2.79,2.322,4.174,2.112,1.338-.2,2.064-2.687,3.363-3.255s3.615.588,4.672-.256c1.095-.873.476-3.4,1.287-4.5s3.411-1.278,3.914-2.562-1.286-3.16-1.13-4.539c.154-1.36,2.322-2.79,2.112-4.174C366.716,330.285,364.232,329.559,363.664,328.26Z" transform="translate(-333.403 -317.39)" fill="#302f2f"/>
                        </g>
                        <circle id="Elipse_14430" data-name="Elipse 14430" cx="13.554" cy="13.554" r="13.554" transform="matrix(0.363, -0.932, 0.932, 0.363, 0, 25.265)" fill="#c44e5d"/>
                      </g>
                      <text id="CO" transform="matrix(0.916, -0.4, 0.4, 0.916, 10.664, 25.012)" fill="#fff" font-size="15" font-family="SegoeUI, Segoe UI"><tspan x="0" y="0">CO</tspan></text>
                    </g>
                  </g>
                </g>
                <g id="Grupo_1220135" data-name="Grupo 1220135" transform="translate(49.747 108.975)">
                  <path id="Trazado_1168665" data-name="Trazado 1168665" d="M221.444,157.165a12.375,12.375,0,0,1,4.667.971c6.753,3.316,6.3,15.35.023,18.736-3.138,1.693-6.842,1.883-10.4,2.035l-23.994,1.029a2.5,2.5,0,0,0-.97.172,1.756,1.756,0,0,0-.694,2.132,6.355,6.355,0,0,0,1.373,2.011,17.917,17.917,0,0,1,2.055,19.636c-2.853,5.267-5.169,9.562-5.7,15.64-.493,5.627-.2,11.857-3.558,16.721-5.048,7.315-15.562,7.583-24.435,7.1-4.077-.224-8.324-.5-11.868-2.524-4.574-2.62-7.185-7.789-8.154-12.97s-.548-10.506-.491-15.777a113.4,113.4,0,0,0-1.625-20.386c-1.088-6.341,1.615-8.643,3.2-14.272.9-3.18-.311-7.423,1.3-10.271,4.356-7.676,18.735-7.769,26.256-8.822,17.412-2.436,35.137-2.331,52.763-1.174Z" transform="translate(-137.416 -156.358)" fill="#fcdbc3"/>
                  <g id="Grupo_1220134" data-name="Grupo 1220134" transform="translate(77.04 4.341)">
                    <path id="Trazado_1168666" data-name="Trazado 1168666" d="M229.631,174.321s5.319.015,5.151-6.725c0,0,.359-5.255-4.193-6.453H224a13.16,13.16,0,0,0-1.65,6.589,14.6,14.6,0,0,0,1.65,6.589h5.631Z" transform="translate(-222.35 -161.143)" fill="#fff" opacity="0.3"/>
                    <path id="Trazado_1168667" data-name="Trazado 1168667" d="M224,161.143a13.16,13.16,0,0,0-1.65,6.589,14.6,14.6,0,0,0,1.65,6.589S227,166.534,224,161.143Z" transform="translate(-222.35 -161.143)" fill="#fff" opacity="0.5"/>
                  </g>
                </g>
                <g id="Grupo_1220144" data-name="Grupo 1220144" transform="translate(216.716 30.609)">
                  <g id="Grupo_1220137" data-name="Grupo 1220137" transform="translate(0 2.937)">
                    <path id="Trazado_1168668" data-name="Trazado 1168668" d="M323.121,79.658c.1-1.666.289-3.515,1.54-4.619a5.829,5.829,0,0,1,2.68-1.134,30.679,30.679,0,0,1,8.7-.629,4.445,4.445,0,0,1,2.081.522,3.868,3.868,0,0,1,1.363,1.787c1.095,2.484,1.113,5.29,1.113,8q0,9.464,0,18.929a13.676,13.676,0,0,1-.6,4.891c-1.495,3.927-6.205,5.606-10.407,5.713C317.113,113.44,322.645,88,323.121,79.658Z" transform="translate(-321.492 -73.201)" fill="#fcdbc3"/>
                    <g id="Grupo_1220136" data-name="Grupo 1220136" transform="translate(2.828 24.978)">
                      <path id="Trazado_1168669" data-name="Trazado 1168669" d="M324.61,108.02s-.014,5.319,6.725,5.151c0,0,5.255.359,6.453-4.193v-6.589a13.161,13.161,0,0,0-6.589-1.65,14.6,14.6,0,0,0-6.589,1.65Z" transform="translate(-324.61 -100.739)" fill="#fff" opacity="0.3"/>
                      <path id="Trazado_1168670" data-name="Trazado 1168670" d="M337.789,102.39a13.161,13.161,0,0,0-6.589-1.65,14.6,14.6,0,0,0-6.589,1.65S332.4,105.385,337.789,102.39Z" transform="translate(-324.61 -100.739)" fill="#fff" opacity="0.5"/>
                    </g>
                  </g>
                  <g id="Grupo_1220139" data-name="Grupo 1220139" transform="translate(20.503)">
                    <path id="Trazado_1168671" data-name="Trazado 1168671" d="M344.531,99.222c-.1,3.638-.128,7.545,1.909,10.561a16.175,16.175,0,0,0,4.215,3.907,10.635,10.635,0,0,0,3.744,1.937c3.18.7,6.354-1.489,8.2-4.174,3.509-5.111,3.652-11.734,3.669-17.934q.024-8.623.048-17.248a3.838,3.838,0,0,0-.349-1.978,3.54,3.54,0,0,0-1.13-1.062,16.822,16.822,0,0,0-11.452-3.154C340.7,71.783,344.781,90.188,344.531,99.222Z" transform="translate(-344.096 -69.963)" fill="#fcdbc3"/>
                    <g id="Grupo_1220138" data-name="Grupo 1220138" transform="translate(4.168 27.24)">
                      <path id="Trazado_1168672" data-name="Trazado 1168672" d="M348.691,108.066s-.015,5.9,7.455,5.711c0,0,5.826.4,7.154-4.649v-7.3a14.6,14.6,0,0,0-7.3-1.83,16.178,16.178,0,0,0-7.3,1.83v6.242Z" transform="translate(-348.691 -99.994)" fill="#fff" opacity="0.3"/>
                      <path id="Trazado_1168673" data-name="Trazado 1168673" d="M363.3,101.825a14.6,14.6,0,0,0-7.3-1.83,16.177,16.177,0,0,0-7.3,1.83S357.324,105.144,363.3,101.825Z" transform="translate(-348.691 -99.994)" fill="#fff" opacity="0.5"/>
                    </g>
                  </g>
                  <g id="Grupo_1220141" data-name="Grupo 1220141" transform="translate(44.118 4.134)">
                    <path id="Trazado_1168674" data-name="Trazado 1168674" d="M371.667,80.284c.09-1.487.272-3.137,1.452-4.123a5.66,5.66,0,0,1,2.527-1.012,30.542,30.542,0,0,1,8.2-.561,4.386,4.386,0,0,1,1.962.465,3.485,3.485,0,0,1,1.285,1.6c1.031,2.218,1.049,4.722,1.049,7.145q0,8.447,0,16.894a11.6,11.6,0,0,1-.561,4.366c-1.409,3.5-5.85,5-9.811,5.1C366,110.435,371.218,87.733,371.667,80.284Z" transform="translate(-370.131 -74.52)" fill="#fcdbc3"/>
                    <g id="Grupo_1220140" data-name="Grupo 1220140" transform="translate(3.304 22.094)">
                      <path id="Trazado_1168675" data-name="Trazado 1168675" d="M373.775,105.178s-.012,4.6,5.818,4.456c0,0,4.546.311,5.583-3.627v-5.7a11.386,11.386,0,0,0-5.7-1.428,12.636,12.636,0,0,0-5.7,1.428v4.872Z" transform="translate(-373.774 -98.878)" fill="#fff" opacity="0.3"/>
                      <path id="Trazado_1168676" data-name="Trazado 1168676" d="M385.176,100.307a11.386,11.386,0,0,0-5.7-1.428,12.636,12.636,0,0,0-5.7,1.428S380.512,102.9,385.176,100.307Z" transform="translate(-373.774 -98.878)" fill="#fff" opacity="0.5"/>
                    </g>
                  </g>
                  <g id="Grupo_1220143" data-name="Grupo 1220143" transform="translate(64.963 7.216)">
                    <path id="Trazado_1168677" data-name="Trazado 1168677" d="M406.738,82.686a4.592,4.592,0,0,0-1.2-3.41,4.692,4.692,0,0,0-2.09-.837,25.264,25.264,0,0,0-6.78-.464,3.629,3.629,0,0,0-1.623.385,2.88,2.88,0,0,0-1.063,1.319,13.841,13.841,0,0,0-.868,5.909q0,6.985,0,13.971a9.594,9.594,0,0,0,.464,3.61c1.166,2.9,4.838,4.138,8.114,4.217C411.423,107.621,407.11,88.845,406.738,82.686Z" transform="translate(-393.111 -77.918)" fill="#fcdbc3"/>
                    <g id="Grupo_1220142" data-name="Grupo 1220142" transform="translate(3.04 18.028)">
                      <path id="Trazado_1168678" data-name="Trazado 1168678" d="M396.462,102.667s-.009,3.559,4.5,3.447c0,0,3.517.24,4.319-2.806V98.9a8.806,8.806,0,0,0-4.409-1.1,9.765,9.765,0,0,0-4.409,1.1v3.768Z" transform="translate(-396.462 -97.794)" fill="#fff" opacity="0.3"/>
                      <path id="Trazado_1168679" data-name="Trazado 1168679" d="M405.28,98.9a8.806,8.806,0,0,0-4.409-1.1,9.765,9.765,0,0,0-4.409,1.1S401.673,100.9,405.28,98.9Z" transform="translate(-396.462 -97.794)" fill="#fff" opacity="0.5"/>
                    </g>
                  </g>
                </g>
              </g>
            </g>
            <g id="Grupo_1220147" data-name="Grupo 1220147" transform="translate(71.734 6.998)">
              <path id="Trazado_1168680" data-name="Trazado 1168680" d="M115.543,60.889l-.381-.191c-.249-.129-.62-.316-1.079-.607a5.128,5.128,0,0,1-1.479-1.36,4.769,4.769,0,0,1-.785-2.47,7.968,7.968,0,0,1,.044-1.446q.048-.354.1-.718.08-.377.162-.765a12.229,12.229,0,0,1,1.2-3.031,12.582,12.582,0,0,1,4.949-4.905,11.425,11.425,0,0,1,3.359-1.179,19.208,19.208,0,0,1,3.413-.283c2.215-.012,4.268.19,6.028.272l5.871.347-5.877-.205c-1.764-.04-3.82-.191-6.017-.126a18.853,18.853,0,0,0-3.346.358,10.978,10.978,0,0,0-3.211,1.215A12.043,12.043,0,0,0,113.87,50.6a11.587,11.587,0,0,0-1.065,2.885q-.068.355-.133.7-.041.366-.08.72a7.259,7.259,0,0,0-.007,1.3,3.971,3.971,0,0,0,.692,2.048,4.331,4.331,0,0,0,1.268,1.1c.416.251.773.422,1.016.54l.379.18Z" transform="translate(-111.806 -43.932)" fill="#936037"/>
            </g>
            <g id="Grupo_1220148" data-name="Grupo 1220148" transform="translate(119.29 13.712)">
              <path id="Trazado_1168681" data-name="Trazado 1168681" d="M164.235,62.905c.019-.006.265-.04.766-.167a18.712,18.712,0,0,0,2.04-.639c.421-.148.865-.337,1.334-.543s.948-.457,1.45-.708c.478-.289,1.006-.543,1.486-.886a15.919,15.919,0,0,0,1.459-1.039,15.352,15.352,0,0,0,1.368-1.165,15.8,15.8,0,0,0,1.222-1.248,14.318,14.318,0,0,0,1.037-1.27,10.028,10.028,0,0,0,.835-1.215c.236-.392.484-.736.649-1.069l.43-.865.376-.757-.3.788c-.1.252-.216.558-.351.909s-.351.718-.553,1.137a10.275,10.275,0,0,1-.734,1.31,14.637,14.637,0,0,1-.939,1.4,16.245,16.245,0,0,1-1.138,1.4,16.075,16.075,0,0,1-1.306,1.339,22.527,22.527,0,0,1-5.721,3.9,20.337,20.337,0,0,1-2.139.893c-.528.189-.886.277-.865.274Z" transform="translate(-164.235 -51.334)" fill="#936037"/>
            </g>
          </g>
          <g id="Grupo_1220150" data-name="Grupo 1220150" transform="translate(171.899 290.009)">
            <path id="Trazado_1168682" data-name="Trazado 1168682" d="M285,358.332l-2.721-.1c-.865-.027-1.916-.051-3.117-.11l-4.038-.1c-2.956-.079-6.4-.143-10.09-.193l-5.689-.091c-1.937.026-3.909-.022-5.876.064s-3.938.125-5.871.288l-2.875.2c-.948.07-1.879.191-2.8.282l-2.707.288c-.883.1-1.741.249-2.581.359-1.674.25-3.271.428-4.718.737l-3.968.754-3.027.732-2.64.647-.053-.174,2.611-.768,3-.874,3.948-.939c1.441-.377,3.033-.629,4.707-.958,1.672-.348,3.452-.594,5.3-.848.922-.123,1.857-.278,2.808-.382l2.888-.3c1.942-.231,3.924-.346,5.9-.493,1.98-.173,3.966-.212,5.92-.323,1.955-.066,3.879-.089,5.743-.09,1.861.074,3.663.078,5.365.224l2.481.176,2.313.234c1.483.133,2.834.366,4.034.514,1.2.179,2.24.334,3.094.509,1.711.307,2.677.553,2.677.553Z" transform="translate(-222.234 -355.94)" fill="#c44e5d"/>
          </g>
        </g>
      </g>
    </g>
  </g>
</svg>
