<svg xmlns="http://www.w3.org/2000/svg" xmlns:xlink="http://www.w3.org/1999/xlink" width="93.934" height="93.934" viewBox="0 0 93.934 93.934">
  <defs>
    <filter id="Trazado_978624" x="0" y="0" width="93.934" height="93.934" filterUnits="userSpaceOnUse">
      <feOffset dy="3" input="SourceAlpha"/>
      <feGaussianBlur stdDeviation="3" result="blur"/>
      <feFlood flood-opacity="0.161"/>
      <feComposite operator="in" in2="blur"/>
      <feComposite in="SourceGraphic"/>
    </filter>
  </defs>
  <g id="Grupo_1220415" data-name="Grupo 1220415" transform="translate(-609 -2293.533)">
    <g id="Grupo_1219893" data-name="Grupo 1219893" transform="translate(420 -31.5)">
      <g id="Grupo_1208655" data-name="Grupo 1208655" transform="translate(198 2331.033)">
        <g id="Grupo_1208068" data-name="Grupo 1208068">
          <g id="Grupo_1144123" data-name="Grupo 1144123">
            <g transform="matrix(1, 0, 0, 1, -9, -6)" filter="url(#Trazado_978624)">
              <g id="Trazado_978624-2" data-name="Trazado 978624" transform="translate(9 6)" fill="#f1ede8">
                <path d="M 37.966796875 74.43359375 C 33.04315185546875 74.43359375 28.26757431030273 73.46962738037109 23.77274131774902 71.56847381591797 C 19.43047523498535 69.73184967041016 15.53040790557861 67.10224914550781 12.18087482452393 63.75271987915039 C 8.831341743469238 60.4031867980957 6.201741218566895 56.50312042236328 4.365118980407715 52.16086196899414 C 2.463963508605957 47.66601943969727 1.499996900558472 42.89044189453125 1.499996900558472 37.966796875 C 1.499996900558472 33.04315185546875 2.463963508605957 28.26757431030273 4.365118980407715 23.77274131774902 C 6.201741218566895 19.43047523498535 8.831341743469238 15.53040790557861 12.18087482452393 12.18087482452393 C 15.53040790557861 8.831341743469238 19.43047523498535 6.201741218566895 23.77274131774902 4.365118980407715 C 28.26757431030273 2.463963508605957 33.04315185546875 1.499996900558472 37.966796875 1.499996900558472 C 42.89044189453125 1.499996900558472 47.66601943969727 2.463963508605957 52.16086196899414 4.365118980407715 C 56.50312042236328 6.201741218566895 60.4031867980957 8.831341743469238 63.75271987915039 12.18087482452393 C 67.10224914550781 15.53040790557861 69.73184967041016 19.43047523498535 71.56847381591797 23.77274131774902 C 73.46962738037109 28.26757431030273 74.43359375 33.04315185546875 74.43359375 37.966796875 C 74.43359375 42.89044189453125 73.46962738037109 47.66601943969727 71.56847381591797 52.16086196899414 C 69.73184967041016 56.50313186645508 67.10224914550781 60.4031867980957 63.75271987915039 63.75271987915039 C 60.4031867980957 67.10224914550781 56.50313186645508 69.73184967041016 52.16086196899414 71.56847381591797 C 47.66601943969727 73.46962738037109 42.89044189453125 74.43359375 37.966796875 74.43359375 Z" stroke="none"/>
                <path d="M 37.966796875 3 C 33.2449836730957 3 28.66600799560547 3.924095153808594 24.35705947875977 5.746635437011719 C 20.19359588623047 7.507621765136719 16.45379638671875 10.02927398681641 13.24153518676758 13.24153518676758 C 10.02927398681641 16.45379638671875 7.507621765136719 20.19359588623047 5.746635437011719 24.35705947875977 C 3.924095153808594 28.66600799560547 3 33.2449836730957 3 37.966796875 C 3 42.6886100769043 3.924095153808594 47.26758575439453 5.746635437011719 51.57653427124023 C 7.507621765136719 55.73999786376953 10.02927398681641 59.47979736328125 13.24153518676758 62.69205856323242 C 16.45379638671875 65.90431976318359 20.19359588623047 68.42597198486328 24.35705947875977 70.18695831298828 C 28.66600799560547 72.00949859619141 33.2449836730957 72.93359375 37.966796875 72.93359375 C 42.6886100769043 72.93359375 47.26758575439453 72.00949859619141 51.57653427124023 70.18695831298828 C 55.73999786376953 68.42597198486328 59.47979736328125 65.90431976318359 62.69205856323242 62.69205856323242 C 65.90431976318359 59.47979736328125 68.42597198486328 55.73999786376953 70.18695831298828 51.57653427124023 C 72.00949859619141 47.26758575439453 72.93359375 42.6886100769043 72.93359375 37.966796875 C 72.93359375 33.2449836730957 72.00949859619141 28.66600799560547 70.18695831298828 24.35705947875977 C 68.42597198486328 20.19359588623047 65.90431976318359 16.45379638671875 62.69205856323242 13.24153518676758 C 59.47979736328125 10.02927398681641 55.73999786376953 7.507621765136719 51.57653427124023 5.746635437011719 C 47.26758575439453 3.924095153808594 42.6886100769043 3 37.966796875 3 M 37.966796875 0 C 58.93528366088867 0 75.93359375 16.99831008911133 75.93359375 37.966796875 C 75.93359375 58.93528366088867 58.93528366088867 75.93359375 37.966796875 75.93359375 C 16.99831008911133 75.93359375 0 58.93528366088867 0 37.966796875 C 0 16.99831008911133 16.99831008911133 0 37.966796875 0 Z" stroke="none" fill="#665b4e"/>
              </g>
            </g>
          </g>
        </g>
      </g>
    </g>
    <g id="acuerdo_1_" data-name="acuerdo (1)" transform="translate(627.522 2306.843)">
      <g id="Grupo_1220413" data-name="Grupo 1220413" transform="translate(1.111 1.111)">
        <g id="Grupo_1220412" data-name="Grupo 1220412" transform="translate(0 20.065)">
          <g id="Grupo_1220411" data-name="Grupo 1220411" transform="translate(9.824 0)">
            <path id="Trazado_1169186" data-name="Trazado 1169186" d="M104.2,374.706a2.389,2.389,0,0,0-3.389,0l-1.694,1.708a2.437,2.437,0,0,0,0,3.417,2.39,2.39,0,0,0,3.389,0l.847-.854.847-.854A2.437,2.437,0,0,0,104.2,374.706Z" transform="translate(-98.413 -353.621)" fill="#ffdcd5" fill-rule="evenodd"/>
            <path id="Trazado_1169187" data-name="Trazado 1169187" d="M138.932,397.769l-.847.854-.847.854a2.437,2.437,0,0,0,0,3.417,2.389,2.389,0,0,0,3.389,0l.847-.854.847-.854a2.438,2.438,0,0,0,0-3.417A2.389,2.389,0,0,0,138.932,397.769Z" transform="translate(-132.302 -374.121)" fill="#ffdcd5" fill-rule="evenodd"/>
            <path id="Trazado_1169188" data-name="Trazado 1169188" d="M177.056,420.833l-.847.854-.847.854a2.437,2.437,0,0,0,0,3.417,2.389,2.389,0,0,0,3.389,0l.847-.854.847-.854a2.437,2.437,0,0,0,0-3.417A2.39,2.39,0,0,0,177.056,420.833Z" transform="translate(-166.191 -394.622)" fill="#ffdcd5" fill-rule="evenodd"/>
            <path id="Trazado_1169189" data-name="Trazado 1169189" d="M215.181,443.895l-.847.854-.847.854a2.437,2.437,0,0,0,0,3.417,2.39,2.39,0,0,0,3.389,0l1.694-1.708a2.4,2.4,0,0,0,.4-.542,2.441,2.441,0,0,0-.4-2.875A2.389,2.389,0,0,0,215.181,443.895Z" transform="translate(-200.079 -415.122)" fill="#ffdcd5" fill-rule="evenodd"/>
            <path id="Trazado_1169190" data-name="Trazado 1169190" d="M174.279,201.176a8.064,8.064,0,0,0,4.88,2.23l8.874,9.029,6.22-.627-1.762-17.759-3,.3-4.99-2.981a3.663,3.663,0,0,0-3.038-.736l-6.7.64-1.17.112a3.279,3.279,0,0,0-2.962,1.966c-2.093,3.692-3.69,6.134-5.76,9.75a1.557,1.557,0,0,0,1.391,2.443c4.088,0,5.026-.821,6.46-2.523l1.554-1.844Z" transform="translate(-157.257 -190.578)" fill="#ffdcd5" fill-rule="evenodd"/>
          </g>
          <path id="Trazado_1169191" data-name="Trazado 1169191" d="M90.227,203.1c2.07-3.615,3.668-6.057,5.76-9.749a3.279,3.279,0,0,1,2.962-1.966l1.17-.112-6.7-.64a3.663,3.663,0,0,0-3.038.736l-4.99,2.981-3-.3-1.761,17.759,3.842.387.527-.531a2.389,2.389,0,0,1,3.389,0,2.437,2.437,0,0,1,0,3.417l.847-.854a2.389,2.389,0,0,1,3.389,0,2.437,2.437,0,0,1,0,3.417l.847-.854a2.389,2.389,0,0,1,3.389,0,2.437,2.437,0,0,1,0,3.417l.847-.854a2.39,2.39,0,0,1,3.389,0,2.441,2.441,0,0,1,.4,2.875,2.921,2.921,0,0,0,5.219-1.835,2.629,2.629,0,0,0,4.463-2.356c2.729,1.589,6.021-1.752,3.7-4.077l-1.5-1.523-8.874-9.029a8.066,8.066,0,0,1-4.88-2.23l-1.554,1.844c-1.434,1.7-2.372,2.523-6.46,2.523a1.557,1.557,0,0,1-1.391-2.443Z" transform="translate(-72.787 -190.578)" fill="#f5c6af" fill-rule="evenodd"/>
          <path id="Trazado_1169192" data-name="Trazado 1169192" d="M17.85,215.842l1.762-17.759a2.418,2.418,0,0,0-2.146-2.645l-3.068-.309a2.409,2.409,0,0,0-2.623,2.164l-1.762,17.759A2.418,2.418,0,0,0,12.16,217.7l3.068.309A2.409,2.409,0,0,0,17.85,215.842Z" transform="translate(-10.002 -194.612)" fill="#ff5d7d" fill-rule="evenodd"/>
          <path id="Trazado_1169193" data-name="Trazado 1169193" d="M415.418,198.084l1.762,17.759a2.409,2.409,0,0,0,2.623,2.164l3.068-.309a2.418,2.418,0,0,0,2.146-2.645l-1.762-17.759a2.409,2.409,0,0,0-2.623-2.164l-3.068.309A2.418,2.418,0,0,0,415.418,198.084Z" transform="translate(-370.36 -194.613)" fill="#99ebfa" fill-rule="evenodd"/>
        </g>
        <path id="Trazado_1169194" data-name="Trazado 1169194" d="M199.3,68.793a2.222,2.222,0,0,0,0,3.142l2.878,2.878a2.222,2.222,0,0,0,3.142,0l5.424-5.424a2.222,2.222,0,1,0-3.142-3.142L203.746,70.1l-1.307-1.307A2.222,2.222,0,0,0,199.3,68.793Z" transform="translate(-177.685 -59.419)" fill="#fff" fill-rule="evenodd"/>
        <path id="Trazado_1169195" data-name="Trazado 1169195" d="M167.411,25.394a2.222,2.222,0,0,1-3.142,0l-2.878-2.878a2.222,2.222,0,0,1,3.142-3.142l1.307,1.307,3.852-3.852a2.222,2.222,0,0,1,3.142,3.142Zm10.813-4.283a11.109,11.109,0,1,0-4.635,9.03A11.111,11.111,0,0,0,178.224,21.111Z" transform="translate(-139.779 -10)" fill="#b8ecbc" fill-rule="evenodd"/>
      </g>
      <g id="Grupo_1220414" data-name="Grupo 1220414" transform="translate(-0.001)">
        <path id="Trazado_1169196" data-name="Trazado 1169196" d="M56.872,41.505,55.111,23.746a3.507,3.507,0,0,0-1.279-2.384,3.469,3.469,0,0,0-2.562-.776L48.2,20.9h0a3.52,3.52,0,0,0-3.072,2.738l-1.7.172-4.674-2.793a10.68,10.68,0,0,0-1.2-.645,12.222,12.222,0,1,0-18.209,0,10.671,10.671,0,0,0-1.2.645l-4.674,2.793-1.7-.172A3.52,3.52,0,0,0,8.686,20.9l-3.067-.309a3.469,3.469,0,0,0-2.562.776,3.507,3.507,0,0,0-1.278,2.384L1.15,30.083a1.111,1.111,0,0,0,2.211.219l.629-6.337a1.3,1.3,0,0,1,.474-.883A1.264,1.264,0,0,1,5.4,22.8l3.067.309a1.3,1.3,0,0,1,1.152,1.429L7.853,42.3a1.3,1.3,0,0,1-.474.883,1.262,1.262,0,0,1-.931.285L3.38,43.154a1.3,1.3,0,0,1-1.152-1.429l.146-1.47a1.111,1.111,0,1,0-2.211-.219l-.146,1.47a3.526,3.526,0,0,0,3.14,3.86l3.068.309a3.535,3.535,0,0,0,.354.018A3.472,3.472,0,0,0,8.786,44.9a3.517,3.517,0,0,0,.99-1.294l.668.067a3.549,3.549,0,0,0,.4,4.5A3.473,3.473,0,0,0,13.328,49.2a3.536,3.536,0,0,0,.837-.1,3.508,3.508,0,0,0,.916,1.629,3.472,3.472,0,0,0,2.483,1.033h0a3.53,3.53,0,0,0,.837-.1,3.509,3.509,0,0,0,.916,1.629A3.473,3.473,0,0,0,21.8,54.327a3.536,3.536,0,0,0,.837-.1,3.509,3.509,0,0,0,.916,1.629,3.5,3.5,0,0,0,4.967,0l1.456-1.468a4.1,4.1,0,0,0,2.2.653,4.029,4.029,0,0,0,3.649-2.355,3.489,3.489,0,0,0,3.086-.349,3.925,3.925,0,0,0,1.637-2.21,4.277,4.277,0,0,0,3.783-1.615,3.471,3.471,0,0,0-.205-4.608l2.989-.3A3.517,3.517,0,0,0,48.1,44.9a3.471,3.471,0,0,0,2.208.794,3.535,3.535,0,0,0,.354-.018l3.068-.309a3.526,3.526,0,0,0,3.14-3.86ZM42.6,25.9a1.111,1.111,0,0,0,.57.157c.037,0,.074,0,.111-.006l1.888-.19,1.542,15.548-4.586.462L35.371,35q.426-.082.843-.205a1.111,1.111,0,1,0-.635-2.13,7.118,7.118,0,0,1-6.835-1.672,1.111,1.111,0,0,0-1.639.067L25.553,32.9c-1.193,1.417-1.792,2.128-5.61,2.128a.538.538,0,0,1-.493-.208.591.591,0,0,1,.066-.571c.979-1.709,1.866-3.18,2.725-4.6.95-1.574,1.933-3.2,3.038-5.152.086-.152.169-.286.248-.4a12.21,12.21,0,0,0,9.78-1.76,2.617,2.617,0,0,1,2.307.589ZM28.444,2.222a10,10,0,1,1-10,10,10.012,10.012,0,0,1,10-10ZM13.328,46.98a1.266,1.266,0,0,1-.905-.376,1.318,1.318,0,0,1,0-1.852l1.694-1.708a1.278,1.278,0,0,1,1.811,0,1.319,1.319,0,0,1,0,1.852l-.847.854h0l0,0-.843.85a1.265,1.265,0,0,1-.905.376Zm4.236,2.563a1.266,1.266,0,0,1-.905-.376,1.319,1.319,0,0,1,0-1.851h0l.847-.854h0l.847-.854a1.278,1.278,0,0,1,1.811,0,1.319,1.319,0,0,1,0,1.852l-.847.854h0l-.847.854A1.266,1.266,0,0,1,17.564,49.543ZM21.8,52.105a1.266,1.266,0,0,1-.905-.376,1.319,1.319,0,0,1,0-1.851h0l.847-.854h0l.847-.854a1.278,1.278,0,0,1,1.811,0,1.318,1.318,0,0,1,0,1.852h0l-.847.854h0l-.847.854A1.265,1.265,0,0,1,21.8,52.105Zm5.142,2.186a1.278,1.278,0,0,1-1.811,0,1.319,1.319,0,0,1,0-1.849l0,0h0l.847-.854h0l.847-.854a1.278,1.278,0,0,1,1.811,0,1.318,1.318,0,0,1,0,1.852Zm15.626-7.134a1.917,1.917,0,0,1-2.5.515,1.111,1.111,0,0,0-1.635,1.236,1.577,1.577,0,0,1-.725,1.559,1.655,1.655,0,0,1-1.961-.341,1.111,1.111,0,0,0-1.811.9,1.725,1.725,0,0,1-1.067,1.646,1.8,1.8,0,0,1-1.735-.176,3.543,3.543,0,0,0-.922-3.33,3.472,3.472,0,0,0-2.483-1.033,3.535,3.535,0,0,0-.836.1,3.509,3.509,0,0,0-.916-1.629,3.472,3.472,0,0,0-2.483-1.033h0a3.535,3.535,0,0,0-.836.1,3.511,3.511,0,0,0-.916-1.629,3.473,3.473,0,0,0-2.483-1.033,3.534,3.534,0,0,0-.836.1,3.51,3.51,0,0,0-.916-1.629h0a3.5,3.5,0,0,0-4.967,0l-.154.155-2.211-.223,1.542-15.548,1.888.19a1.113,1.113,0,0,0,.681-.152l4.99-2.981a2.617,2.617,0,0,1,2.307-.589,12.221,12.221,0,0,0,1.8,1.012l-.033.056c-1.09,1.922-2.064,3.537-3.007,5.1-.865,1.433-1.76,2.915-2.751,4.646a2.771,2.771,0,0,0-.06,2.79,2.732,2.732,0,0,0,2.416,1.316c4.373,0,5.639-.935,7.31-2.918l.829-.985a9.279,9.279,0,0,0,4.242,1.718l10.1,10.274a1.267,1.267,0,0,1,.146,1.816Zm10.941-4-3.068.309a1.263,1.263,0,0,1-.932-.285,1.3,1.3,0,0,1-.474-.883L47.274,24.536a1.3,1.3,0,0,1,1.152-1.429h0l3.068-.309a1.263,1.263,0,0,1,.931.285,1.3,1.3,0,0,1,.474.883l1.762,17.759A1.3,1.3,0,0,1,53.509,43.154Z" transform="translate(0.001)"/>
        <path id="Trazado_1169197" data-name="Trazado 1169197" d="M192.5,66.71a3.333,3.333,0,0,0,4.714,0l5.424-5.424a3.333,3.333,0,0,0-4.714-4.714l-3.067,3.067-.521-.521a3.333,3.333,0,1,0-4.714,4.714Zm-1.306-6.02a1.111,1.111,0,0,1,1.571,0L194.071,62a1.111,1.111,0,0,0,1.571,0l3.853-3.853a1.111,1.111,0,1,1,1.571,1.571l-5.424,5.424a1.111,1.111,0,0,1-1.571,0l-2.878-2.878A1.112,1.112,0,0,1,191.194,60.689Z" transform="translate(-167.685 -49.419)"/>
        <path id="Trazado_1169198" data-name="Trazado 1169198" d="M6.971,308.736a1.111,1.111,0,1,0,0-2.222h0a1.111,1.111,0,0,0,0,2.222Z" transform="translate(-5.209 -272.456)"/>
        <path id="Trazado_1169199" data-name="Trazado 1169199" d="M349.476,267.848a1.111,1.111,0,1,0,0-2.222h0a1.111,1.111,0,0,0,0,2.222Z" transform="translate(-309.656 -236.111)"/>
      </g>
    </g>
  </g>
</svg>
