<svg xmlns="http://www.w3.org/2000/svg" xmlns:xlink="http://www.w3.org/1999/xlink" width="93.934" height="93.934" viewBox="0 0 93.934 93.934">
  <defs>
    <filter id="Trazado_978624" x="0" y="0" width="93.934" height="93.934" filterUnits="userSpaceOnUse">
      <feOffset dy="3" input="SourceAlpha"/>
      <feGaussianBlur stdDeviation="3" result="blur"/>
      <feFlood flood-opacity="0.161"/>
      <feComposite operator="in" in2="blur"/>
      <feComposite in="SourceGraphic"/>
    </filter>
  </defs>
  <g id="Grupo_1220428" data-name="Grupo 1220428" transform="translate(-609 -2577.533)">
    <g id="Grupo_1219895" data-name="Grupo 1219895" transform="translate(420 -31.5)">
      <g id="Grupo_1208659" data-name="Grupo 1208659" transform="translate(198 2615.033)">
        <g id="Grupo_1208062" data-name="Grupo 1208062" transform="translate(0 0)">
          <g id="Grupo_1144123" data-name="Grupo 1144123">
            <g transform="matrix(1, 0, 0, 1, -9, -6)" filter="url(#Trazado_978624)">
              <g id="Trazado_978624-2" data-name="Trazado 978624" transform="translate(9 6)" fill="#f1ede8">
                <path d="M 37.966796875 74.43359375 C 33.04315185546875 74.43359375 28.26757431030273 73.46962738037109 23.77274131774902 71.56847381591797 C 19.43047523498535 69.73184967041016 15.53040790557861 67.10224914550781 12.18087482452393 63.75271987915039 C 8.831341743469238 60.4031867980957 6.201741218566895 56.50312042236328 4.365118980407715 52.16086196899414 C 2.463963508605957 47.66601943969727 1.499996900558472 42.89044189453125 1.499996900558472 37.966796875 C 1.499996900558472 33.04315185546875 2.463963508605957 28.26757431030273 4.365118980407715 23.77274131774902 C 6.201741218566895 19.43047523498535 8.831341743469238 15.53040790557861 12.18087482452393 12.18087482452393 C 15.53040790557861 8.831341743469238 19.43047523498535 6.201741218566895 23.77274131774902 4.365118980407715 C 28.26757431030273 2.463963508605957 33.04315185546875 1.499996900558472 37.966796875 1.499996900558472 C 42.89044189453125 1.499996900558472 47.66601943969727 2.463963508605957 52.16086196899414 4.365118980407715 C 56.50312042236328 6.201741218566895 60.4031867980957 8.831341743469238 63.75271987915039 12.18087482452393 C 67.10224914550781 15.53040790557861 69.73184967041016 19.43047523498535 71.56847381591797 23.77274131774902 C 73.46962738037109 28.26757431030273 74.43359375 33.04315185546875 74.43359375 37.966796875 C 74.43359375 42.89044189453125 73.46962738037109 47.66601943969727 71.56847381591797 52.16086196899414 C 69.73184967041016 56.50313186645508 67.10224914550781 60.4031867980957 63.75271987915039 63.75271987915039 C 60.4031867980957 67.10224914550781 56.50313186645508 69.73184967041016 52.16086196899414 71.56847381591797 C 47.66601943969727 73.46962738037109 42.89044189453125 74.43359375 37.966796875 74.43359375 Z" stroke="none"/>
                <path d="M 37.966796875 3 C 33.2449836730957 3 28.66600799560547 3.924095153808594 24.35705947875977 5.746635437011719 C 20.19359588623047 7.507621765136719 16.45379638671875 10.02927398681641 13.24153518676758 13.24153518676758 C 10.02927398681641 16.45379638671875 7.507621765136719 20.19359588623047 5.746635437011719 24.35705947875977 C 3.924095153808594 28.66600799560547 3 33.2449836730957 3 37.966796875 C 3 42.6886100769043 3.924095153808594 47.26758575439453 5.746635437011719 51.57653427124023 C 7.507621765136719 55.73999786376953 10.02927398681641 59.47979736328125 13.24153518676758 62.69205856323242 C 16.45379638671875 65.90431976318359 20.19359588623047 68.42597198486328 24.35705947875977 70.18695831298828 C 28.66600799560547 72.00949859619141 33.2449836730957 72.93359375 37.966796875 72.93359375 C 42.6886100769043 72.93359375 47.26758575439453 72.00949859619141 51.57653427124023 70.18695831298828 C 55.73999786376953 68.42597198486328 59.47979736328125 65.90431976318359 62.69205856323242 62.69205856323242 C 65.90431976318359 59.47979736328125 68.42597198486328 55.73999786376953 70.18695831298828 51.57653427124023 C 72.00949859619141 47.26758575439453 72.93359375 42.6886100769043 72.93359375 37.966796875 C 72.93359375 33.2449836730957 72.00949859619141 28.66600799560547 70.18695831298828 24.35705947875977 C 68.42597198486328 20.19359588623047 65.90431976318359 16.45379638671875 62.69205856323242 13.24153518676758 C 59.47979736328125 10.02927398681641 55.73999786376953 7.507621765136719 51.57653427124023 5.746635437011719 C 47.26758575439453 3.924095153808594 42.6886100769043 3 37.966796875 3 M 37.966796875 0 C 58.93528366088867 0 75.93359375 16.99831008911133 75.93359375 37.966796875 C 75.93359375 58.93528366088867 58.93528366088867 75.93359375 37.966796875 75.93359375 C 16.99831008911133 75.93359375 0 58.93528366088867 0 37.966796875 C 0 16.99831008911133 16.99831008911133 0 37.966796875 0 Z" stroke="none" fill="#665b4e"/>
              </g>
            </g>
          </g>
        </g>
      </g>
    </g>
    <g id="contrato_9_" data-name="contrato (9)" transform="translate(625.134 2588.966)">
      <g id="Grupo_1220427" data-name="Grupo 1220427" transform="translate(8.809 8.818)">
        <g id="Grupo_1220424" data-name="Grupo 1220424" transform="translate(2.087 0)">
          <path id="Trazado_1169211" data-name="Trazado 1169211" d="M37.444,16H67.713a.954.954,0,0,1,.7.289l5.544,5.544a.954.954,0,0,1,.289.7V63.987a.989.989,0,0,1-.987.987H37.444a.989.989,0,0,1-.987-.987v-47A.989.989,0,0,1,37.444,16Z" transform="translate(-36.457 -15.999)" fill="#eceff1" fill-rule="evenodd"/>
          <path id="Trazado_1169212" data-name="Trazado 1169212" d="M37.445,16h1.806V64.975H37.445a.989.989,0,0,1-.987-.987v-47A.989.989,0,0,1,37.445,16Z" transform="translate(-36.458 -15.999)" fill="#d1d1d6" fill-rule="evenodd"/>
          <path id="Trazado_1169213" data-name="Trazado 1169213" d="M346.8,16.838a.989.989,0,0,1,.289.2l5.544,5.544a.989.989,0,0,1,.2.289h-5.543a.5.5,0,0,1-.494-.494V16.838Z" transform="translate(-315.133 -16.752)" fill="#a79ba7" fill-rule="evenodd"/>
        </g>
        <g id="Grupo_1220425" data-name="Grupo 1220425" transform="translate(0 2.041)">
          <path id="Trazado_1169214" data-name="Trazado 1169214" d="M61.073,79.41l.878.483a1.52,1.52,0,0,0,1.465-2.664,1.515,1.515,0,0,0,2.1-1.991l.228-.095L55.448,66.951c-2.935-1.98-4.981.571-7-.564l-2.673-1.233a.909.909,0,0,0-1.2.438L41.7,71.7a.907.907,0,0,0,.448,1.213c.954.43,2.415,1.087,2.715,1.2.915.355.613,1.785,1.114,2.437.771,1,.9,1.737,1.552,2.113L57.1,84.16a1.515,1.515,0,0,0,2.064-.6,1.532,1.532,0,0,0-.6-2.067l1.045.581a1.52,1.52,0,0,0,1.465-2.664Z" transform="translate(-39.001 -62.104)" fill="#f6dccd" fill-rule="evenodd"/>
          <path id="Trazado_1169215" data-name="Trazado 1169215" d="M76.215,67.2l-.307-.244c-2.935-1.98-4.981.571-7-.564l-2.673-1.233a.909.909,0,0,0-1.2.438l-.635,1.35a2.307,2.307,0,0,1,2.218.377c4,2.4,5.372-.2,8.508.909q.189-.179.37-.361C75.725,67.635,75.965,67.409,76.215,67.2Z" transform="translate(-59.462 -62.104)" fill="#f1cbbc" fill-rule="evenodd"/>
          <path id="Trazado_1169216" data-name="Trazado 1169216" d="M180.121,160.583l1.244.715a1.514,1.514,0,0,0,2.034-.547l-2.589-1.476Zm7.039-6.51.525.294a1.52,1.52,0,0,0,2.008-.505l-4.918-2.8a.722.722,0,1,0-.709,1.259c1.044.6,3.121,1.763,3.093,1.748Zm-2.33,2.193-3.372-1.915a.722.722,0,1,1,.709-1.259l6.055,3.443a1.526,1.526,0,0,1-2,.5Zm-4.677.777a.722.722,0,0,1,.928-1.069l4.809,2.724a1.523,1.523,0,0,1-2.013.514l-.945-.524-2.359-1.346A1.028,1.028,0,0,1,180.153,157.043Z" transform="translate(-163.27 -139.242)" fill="#f1cbbc" fill-rule="evenodd"/>
          <path id="Trazado_1169217" data-name="Trazado 1169217" d="M20.535,36.575,16.083,46.648a.971.971,0,0,0,.494,1.277l1.939.857a.971.971,0,0,0,1.277-.494l4.452-10.072a.971.971,0,0,0-.494-1.277l-1.939-.857A.971.971,0,0,0,20.535,36.575Z" transform="translate(-16.001 -35.999)" fill="#d1d1d6" fill-rule="evenodd"/>
          <path id="Trazado_1169218" data-name="Trazado 1169218" d="M34.193,56.6a.971.971,0,0,1-1.273.5l.789.349a.971.971,0,0,0,1.277-.494l4.452-10.072a.972.972,0,0,0-.4-1.231L34.193,56.6Z" transform="translate(-31.194 -44.666)" fill="#b1b1b5" fill-rule="evenodd"/>
          <path id="Trazado_1169219" data-name="Trazado 1169219" d="M84.952,168.906a1.572,1.572,0,0,1,1.9-.335,1.548,1.548,0,0,1,.519.449,1.573,1.573,0,0,1,.123,1.669l-.925,1.73a1.565,1.565,0,0,1-2.921-1.013,1.565,1.565,0,0,1-2.819-1.146,1.565,1.565,0,1,1-2.764-1.47l.292-.546a1.565,1.565,0,0,1-2.433-1.9l.965-1.8a1.565,1.565,0,0,1,2.8,1.388,1.565,1.565,0,0,1,2.576,1.539,1.565,1.565,0,0,1,2.681,1.434Z" transform="translate(-69.646 -150.688)" fill="#d6b4a8" fill-rule="evenodd"/>
          <path id="Trazado_1169220" data-name="Trazado 1169220" d="M82.539,169.078a1.572,1.572,0,0,1-1.791.223,1.555,1.555,0,0,1-.351-.257c.48.021.7-.357.914-.742l1.64-2.885a.893.893,0,0,0,.04-.771,1.563,1.563,0,0,1,.885,2.119Zm2.472,2.016,1.44-2.79a1.572,1.572,0,0,0-.778-1.767,1.556,1.556,0,0,0-.237-.1.882.882,0,0,1,.037.6l-2.169,4.2a.948.948,0,0,1-.631.367,1.55,1.55,0,0,0,.216.14A1.572,1.572,0,0,0,85.011,171.094Zm5.848-1.77a1.572,1.572,0,0,1,.176.08,1.549,1.549,0,0,1,.519.449,1.573,1.573,0,0,1,.123,1.669l-.925,1.73a1.57,1.57,0,0,1-2.119.642l-.025-.014a.548.548,0,0,0,.311-.238L90.85,169.9A.727.727,0,0,0,90.859,169.324ZM87.83,172.24a1.565,1.565,0,0,1-2.157.379,1.3,1.3,0,0,0,.645-.614l1.8-3.486a.65.65,0,0,0-.006-.653,1.563,1.563,0,0,1,1.02,1.873Z" transform="translate(-73.826 -151.521)" fill="#cca393" fill-rule="evenodd"/>
          <path id="Trazado_1169221" data-name="Trazado 1169221" d="M134.59,78.572l5.257,3a1.554,1.554,0,0,1,.63.673L143.444,81a.908.908,0,0,0,.5-1.165l-2.476-6.387a.907.907,0,0,0-1.274-.472l-1.775.95c-2.12,1.1-4.16-2.608-8,.025a9.64,9.64,0,0,0-1.392,1.179,18.472,18.472,0,0,1-3.836,2.9.182.182,0,0,0-.052.268C128.182,82.215,131.888,77.032,134.59,78.572Z" transform="translate(-113.968 -69.107)" fill="#d6b4a8" fill-rule="evenodd"/>
          <path id="Trazado_1169222" data-name="Trazado 1169222" d="M142.63,121.826l1.18.672a1.555,1.555,0,0,1,.63.673l2.967-1.238a.908.908,0,0,0,.5-1.164l-.726-1.873a1.224,1.224,0,0,1-.717,1.369ZM129.512,119.7c2.962,3,6.459-1.669,9.041-.2C134.464,116.733,132.942,120.381,129.512,119.7Z" transform="translate(-117.93 -110.036)" fill="#cca393" fill-rule="evenodd"/>
          <path id="Trazado_1169223" data-name="Trazado 1169223" d="M269.2,43.219l3.981,10.268a.971.971,0,0,1-.553,1.253l-1.977.766a.971.971,0,0,1-1.253-.553L265.42,44.685a.971.971,0,0,1,.553-1.253l1.977-.766A.971.971,0,0,1,269.2,43.219Z" transform="translate(-239.912 -41.927)" fill="#d1d1d6" fill-rule="evenodd"/>
          <path id="Trazado_1169224" data-name="Trazado 1169224" d="M265.812,51.537a.972.972,0,0,0-.392,1.172L269.4,62.977a.971.971,0,0,0,1.253.553l.733-.284h0a.971.971,0,0,1-1.253-.553Z" transform="translate(-239.913 -49.952)" fill="#b1b1b5" fill-rule="evenodd"/>
        </g>
        <g id="Grupo_1220426" data-name="Grupo 1220426" transform="translate(30.679 16.309)">
          <path id="Trazado_1169225" data-name="Trazado 1169225" d="M421.11,175.964l.746.431a.914.914,0,0,1,.334,1.245l-4.046,7.007a.914.914,0,0,1-1.245.334l-.746-.431a.914.914,0,0,1-.334-1.245l4.046-7.007A.914.914,0,0,1,421.11,175.964Z" transform="translate(-405.596 -175.842)" fill="#8d9ca8" fill-rule="evenodd"/>
          <path id="Trazado_1169226" data-name="Trazado 1169226" d="M428.769,179.147l.372.215a.914.914,0,0,1,.334,1.245l-4.046,7.007a.914.914,0,0,1-1.245.334l-.373-.215a.914.914,0,0,0,1.245-.334l4.046-7.007A.914.914,0,0,0,428.769,179.147Z" transform="translate(-412.881 -178.81)" fill="#8192a5" fill-rule="evenodd"/>
          <path id="Trazado_1169227" data-name="Trazado 1169227" d="M316.683,254.884l10.165-17.606,3.58,2.067-10.165,17.606-2.049,1.034-1.4-.81Z" transform="translate(-316.683 -231.01)" fill="#ffd064" fill-rule="evenodd"/>
          <path id="Trazado_1169228" data-name="Trazado 1169228" d="M337.033,253.568l.7.4-10.165,17.606-2.049,1.034-.7-.4,2.049-1.034Z" transform="translate(-323.989 -245.637)" fill="#ffc338" fill-rule="evenodd"/>
          <path id="Trazado_1169229" data-name="Trazado 1169229" d="M388.358,186.3l3.78,2.172a.87.87,0,0,1,.319,1.189l-5.014,8.642a.879.879,0,0,1-1.194.32l-3.78-2.172a.87.87,0,0,1-.319-1.189l5.014-8.642A.879.879,0,0,1,388.358,186.3Z" transform="translate(-375.365 -185.125)" fill="#ffc338" fill-rule="evenodd"/>
          <path id="Trazado_1169230" data-name="Trazado 1169230" d="M392.2,209.007a.871.871,0,0,1,.253,1.147l-5.014,8.642a.879.879,0,0,1-1.194.32l-3.78-2.172a.87.87,0,0,1-.319-1.189l.078-.134c.021.015.043.029.066.042l3.78,2.172a.879.879,0,0,0,1.194-.32Z" transform="translate(-375.365 -205.623)" fill="#f5b829" fill-rule="evenodd"/>
        </g>
      </g>
      <path id="Trazado_1169231" data-name="Trazado 1169231" d="M36.58,13.187a.659.659,0,1,0,.659.659A.659.659,0,0,0,36.58,13.187Zm-21.83.67a.659.659,0,1,0-.628-.689A.66.66,0,0,0,14.75,13.857ZM55.222,29.62l-3.235-1.867L47.631,35.3l3.235,1.867ZM43.236,49.148,41.2,50.176,41.07,47.9,47.349,37.02l2.166,1.251Zm4.631-4.758V56.807a.173.173,0,0,1-.17.171H11.883a.173.173,0,0,1-.17-.171V24.541a1.787,1.787,0,0,0,1.635-1.063l.108-.245c.642.285.837.365.923.4.125.048.2.475.262.787a5.21,5.21,0,0,0,.2.829l-.475.888a2.379,2.379,0,0,0,1.861,3.491,2.417,2.417,0,0,0,.1.763A2.374,2.374,0,0,0,19.508,31.9a2.372,2.372,0,0,0,2.727,1.039,2.384,2.384,0,0,0,2.112,1.293,2.4,2.4,0,0,0,.7-.1,2.378,2.378,0,0,0,1.1-.71l.351.2a2.263,2.263,0,0,0,1.13.3,2.335,2.335,0,0,0,.631-.088,2.36,2.36,0,0,0,1.425-1.128,2.319,2.319,0,0,0,.275-.882,2.352,2.352,0,0,0,2.237-1.2,2.309,2.309,0,0,0,.282-.971h.008a2.36,2.36,0,0,0,.657-.094,2.322,2.322,0,0,0,1.63-2.717,2.322,2.322,0,0,0,1.508-2.365l1.18-.492.076.2A1.781,1.781,0,0,0,39.845,25.2l1.978-.766a1.786,1.786,0,0,0,1.018-2.309L38.86,11.856a1.787,1.787,0,0,0-2.309-1.019l-1.976.766a1.788,1.788,0,0,0-1.02,2.309l.22.566-.895.478c-.5.261-1.053.058-1.985-.323a5.667,5.667,0,0,0-5.648.112A5.655,5.655,0,0,0,20.8,14.41c-.985.231-1.57.346-2.147.021-.02-.011-.039-.021-.059-.03l-1.029-.475.23-.521a1.786,1.786,0,0,0-.91-2.353l-1.939-.857a1.786,1.786,0,0,0-2.354.911l-.884,2v-3.3a.173.173,0,0,1,.17-.171H41.745v4.812a1.311,1.311,0,0,0,1.31,1.31h4.812V31.624l-2.058,3.565a.816.816,0,0,0,.139.993L39.534,47.291a.813.813,0,0,0-.108.454l.2,3.5-.161.279c-3.15-1.164-4.606-.225-5.791.539a2.622,2.622,0,0,1-1.708.637,4.517,4.517,0,0,1-2.484-.9c-1.486-.986-2.792-1.52-7.213-.024a.816.816,0,1,0,.524,1.545c3.992-1.351,4.784-.825,5.786-.161a6.111,6.111,0,0,0,3.26,1.171c.094.007.185.011.275.011a4.345,4.345,0,0,0,2.445-.9c1.085-.7,2.112-1.362,4.937-.141a.817.817,0,0,0,1.031-.34l.492-.852,3.176-1.6a.814.814,0,0,0,.339-.32ZM24,32.514a.754.754,0,0,0,1.014-.307l.925-1.73a.758.758,0,0,0-.061-.8.727.727,0,0,0-.246-.213.757.757,0,0,0-.854.108l-1.171,2.25a.759.759,0,0,0,.393.694Zm-2.812-1.187a.75.75,0,0,0,.935-.19l1.212-2.33a.745.745,0,0,0-1.237-.672l-1.305,2.528a.752.752,0,0,0,.4.664ZM17.9,29.918a.747.747,0,0,0,.362.444.755.755,0,0,0,1.017-.313l1.379-2.673a.744.744,0,0,0-1.165-.731l-1.254,2.17-.285.533a.744.744,0,0,0-.055.57Zm-1.78-2a.751.751,0,0,0,.777-.045l1.233-2.133a.758.758,0,0,0-.337-.947.751.751,0,0,0-1.014.307l-.965,1.8A.749.749,0,0,0,16.115,27.92Zm11.758,2.974-.292-.165a2.386,2.386,0,0,1-.2.518l-.409.765.339.2a.654.654,0,0,0,.507.058.709.709,0,0,0,.155-1.305.711.711,0,0,1-.1-.066Zm-4.13-15.019A4.818,4.818,0,0,0,21.176,16a4.359,4.359,0,0,1-3.289-.129l-.978-.451-2.794,6.32c.56.249.777.341.854.371A1.917,1.917,0,0,1,16.1,23.481a2.379,2.379,0,0,1,3.641,1.4,2.381,2.381,0,0,1,2.38,1.473,2.385,2.385,0,0,1,2.68,1.434,2.381,2.381,0,0,1,2.282.784l2.725,1.543a.691.691,0,0,0,.529.058.7.7,0,0,0,.425-.337.715.715,0,0,0-.285-.96.826.826,0,0,1-.1-.067L26.6,26.68a.816.816,0,0,1,.8-1.423l4.756,2.676a.707.707,0,0,0,.955-.278.713.713,0,0,0-.282-.959c-1.347-.754-2.469-1.384-3.625-2.045a.816.816,0,0,1,.811-1.417c1.15.658,2.269,1.286,3.612,2.038a.683.683,0,0,0,.523.058.7.7,0,0,0,.426-.339.689.689,0,0,0,.012-.642h0a.742.742,0,0,0-.3-.32l-5.256-3c-.784-.446-1.845-.017-3.074.481-1.884.763-4.466,1.808-6.62-.963a1,1,0,0,1,.285-1.474,17.736,17.736,0,0,0,3.668-2.766c.151-.153.3-.3.456-.437Zm10.627.137-.727.389a3.8,3.8,0,0,1-3.365-.256c-1.358-.555-2.641-1.08-4.557.234a8.821,8.821,0,0,0-1.273,1.081,18.563,18.563,0,0,1-3.337,2.622c1.177,1.068,2.422.651,4.232-.081,1.417-.573,3.023-1.224,4.493-.386l5.257,3a2.366,2.366,0,0,1,.5.382l1.276-.532Zm4.688,7.578-3.98-10.268a.155.155,0,0,1,.087-.2l1.976-.766a.147.147,0,0,1,.054-.01.154.154,0,0,1,.143.1l3.98,10.267a.155.155,0,0,1-.087.2l-1.976.766a.156.156,0,0,1-.2-.087ZM9.715,22.038a.154.154,0,0,1-.077-.2l4.451-10.072a.155.155,0,0,1,.141-.09.15.15,0,0,1,.061.012l1.938.857a.156.156,0,0,1,.08.085.151.151,0,0,1,0,.115L11.854,22.817a.154.154,0,0,1-.2.078ZM43.378,10.789v3.335h3.335ZM53.9,26.971l.91.526.566-.981a.1.1,0,0,0-.036-.13l-.746-.431a.1.1,0,0,0-.129.035Zm4.383,5.287-3.977,6.889a.816.816,0,1,1-1.414-.816l3.977-6.889a.754.754,0,0,0-.235-1l-4.763,8.25a.814.814,0,0,1-.5.38.8.8,0,0,1-.211.028.789.789,0,0,1-.222-.032l-1.442,2.5V56.807a1.805,1.805,0,0,1-1.8,1.8H11.883a1.805,1.805,0,0,1-1.8-1.8V23.985l-1.026-.453a1.786,1.786,0,0,1-.91-2.353L10.08,16.8V9.806a1.805,1.805,0,0,1,1.8-1.8H42.152a1.768,1.768,0,0,1,1.275.529l5.545,5.544a1.771,1.771,0,0,1,.528,1.275V28.8l1.482-2.566a.816.816,0,0,1,1.115-.3l.389.224.566-.981a1.729,1.729,0,0,1,2.359-.633l.746.431a1.729,1.729,0,0,1,.633,2.36l-.566.98.523.3h0l.663.383a2.389,2.389,0,0,1,.874,3.26ZM37.545,47.046a.816.816,0,0,0-.816-.816H16.017a.816.816,0,0,0,0,1.632H36.729A.816.816,0,0,0,37.545,47.046ZM16.017,36.871H42.246a.816.816,0,0,0,0-1.633H16.017a.816.816,0,0,0,0,1.633Zm0,5.5H39.785a.816.816,0,1,0,0-1.632H16.017a.816.816,0,0,0,0,1.632ZM36.436,30.558a.816.816,0,0,0,.816.816h6.311a.816.816,0,0,0,0-1.632H37.252A.816.816,0,0,0,36.436,30.558Z" fill="#242222" fill-rule="evenodd"/>
    </g>
  </g>
</svg>
