<svg xmlns="http://www.w3.org/2000/svg" xmlns:xlink="http://www.w3.org/1999/xlink" width="85" height="121" viewBox="0 0 85 121">
  <defs>
    <clipPath id="clip-path">
      <rect id="Rect치ngulo_421258" data-name="Rect치ngulo 421258" width="85" height="121" transform="translate(180 879.697)" fill="#fff" stroke="#707070" stroke-width="1"/>
    </clipPath>
  </defs>
  <g id="Enmascarar_grupo_1211472" data-name="Enmascarar grupo 1211472" transform="translate(-180 -879.697)" clip-path="url(#clip-path)">
    <g id="Grupo_1220487" data-name="Grupo 1220487">
      <rect id="Rect치ngulo_421257" data-name="Rect치ngulo 421257" width="85" height="121" transform="translate(180 879.697)" fill="#248abf"/>
      <g id="idea_5_" data-name="idea (5)" transform="translate(165 894.731)">
        <g id="Grupo_1220485" data-name="Grupo 1220485" transform="translate(1.466 1.489)">
          <path id="Trazado_1169445" data-name="Trazado 1169445" d="M314.232,9.41h-1.524l-4.232,1.719-5.422,3.515-3.236,6.25-1.107,5.013,3.922,9.944,4.834,5.371,2.978,2.2v2.651h5.973l1.313-.865a6.889,6.889,0,0,1,2.887-5.565,16.889,16.889,0,0,0-6.387-30.23Z" transform="translate(-241.84 -9.042)" fill="#ffe02f"/>
          <path id="Trazado_1169446" data-name="Trazado 1169446" d="M271.759,282.49c-1.914-4-6.321-2.108-6.69-1.97l-17.927,5.3a.484.484,0,0,1-.62-.522,4.061,4.061,0,0,0-2.757-4.558c-10.748-4.29-12.03-5.016-14.749-5.059h0a61.526,61.526,0,0,0-9.366.4l-2.338,1.133-1.514,6.494.537,5.371L220,294.944l4.11,1.433a13.866,13.866,0,0,1,5.12.916l6.936,2.769a11.088,11.088,0,0,0,8.613-.516h0l24.214-10.711C269.724,288.457,273.41,286.246,271.759,282.49Z" transform="translate(-175.119 -223.314)" fill="#ffcebe"/>
          <g id="Grupo_1220484" data-name="Grupo 1220484" transform="translate(29.921 52.773)">
            <path id="Trazado_1169447" data-name="Trazado 1169447" d="M172.514,286.009a13.52,13.52,0,0,1,2.807-8.265,18.771,18.771,0,0,0-4.744,1.565,37.275,37.275,0,0,0-6.208,3.531,13.629,13.629,0,0,1-3.261,1.69l-.4,1.54,6.25,14.257,1.677.623,5.026-1.908a19.813,19.813,0,0,1,6.115-1.009A13.578,13.578,0,0,1,172.514,286.009Z" transform="translate(-160.712 -277.744)" fill="#ffb1a0"/>
          </g>
          <path id="Trazado_1169448" data-name="Trazado 1169448" d="M120.328,315.31l.863-1.318V312.85l-5.365-11.7a2.456,2.456,0,0,0-3.256-1.208l-6.839,3.136-.685,2.078,6.479,13.92Z" transform="translate(-85.997 -242.655)" fill="#dbedff"/>
          <path id="Trazado_1169449" data-name="Trazado 1169449" d="M149.426,375l-3.69-8.046a2.8,2.8,0,0,1-1.567,1.947l-7.806,3.58-.815-.421,3.873,8.322,1.958,1.01,6.839-3.136A2.456,2.456,0,0,0,149.426,375Z" transform="translate(-110.541 -296.757)" fill="#b5dcff"/>
          <path id="Trazado_1169450" data-name="Trazado 1169450" d="M290.589,43.688a6.889,6.889,0,0,0-2.887-5.565,16.889,16.889,0,0,1,6.387-30.23,16.893,16.893,0,0,0-13.39,30.23,6.889,6.889,0,0,1,2.887,5.565l.614.865h7Z" transform="translate(-221.697 -7.525)" fill="#fbc700"/>
          <path id="Trazado_1169451" data-name="Trazado 1169451" d="M16.823,324.461l1.758-.347L33.5,317.241l.689-.768-.05-1.192-8.153-17.776a2.23,2.23,0,0,0-2.957-1.1l-14.216,6.52a2.231,2.231,0,0,0-1.1,2.957l8.2,17.88Z" transform="translate(-7.507 -239.826)" fill="#bf7fe3"/>
          <path id="Trazado_1169452" data-name="Trazado 1169452" d="M74.234,405.81l-5.47-11.926a2.308,2.308,0,0,1-1.332,1.844l-14.739,6.76a2.309,2.309,0,0,1-2.153-.119l5.422,11.821a2.23,2.23,0,0,0,2.957,1.1l14.216-6.52A2.23,2.23,0,0,0,74.234,405.81Z" transform="translate(-42.137 -318.429)" fill="#b166db"/>
          <path id="Trazado_1169453" data-name="Trazado 1169453" d="M364.4,192.362l-.36.866v7.991l2.279,3.3h1.033a6.99,6.99,0,0,0,2.949-5.708v-6.388c0-.022,0-.043,0-.065h-5.9Z" transform="translate(-294.414 -156.264)" fill="#dbedff"/>
          <path id="Trazado_1169454" data-name="Trazado 1169454" d="M332.5,198.816v-6.388c0-.022,0-.043,0-.065h-8.1c0,.022,0,.043,0,.065v6.388a7,7,0,0,0,11.054,5.707A6.99,6.99,0,0,1,332.5,198.816Z" transform="translate(-262.505 -156.265)" fill="#b5dcff"/>
        </g>
        <g id="Grupo_1220486" data-name="Grupo 1220486" transform="translate(0 0.024)">
          <path id="Trazado_1169455" data-name="Trazado 1169455" d="M99.427,275.821c-1.5-3.136-4.752-4.179-8.484-2.725L74.36,278a5.447,5.447,0,0,0-3.706-4.655c-1.779-.71-3.3-1.322-4.607-1.85-6.692-2.7-8.108-3.268-10.628-3.313-.021,0-.041,0-.063,0-8.5.029-10.241.1-14.7,2.095a38.831,38.831,0,0,0-6.452,3.67,12.241,12.241,0,0,1-1.69,1,3.923,3.923,0,0,0-5.083-1.708l-5.507,2.526-.649-1.415a3.693,3.693,0,0,0-4.9-1.819l-14.217,6.52a3.693,3.693,0,0,0-1.818,4.9l13.623,29.7a3.7,3.7,0,0,0,4.9,1.818l3.906-1.791a1.465,1.465,0,0,0-1.221-2.663L17.638,312.8a.767.767,0,0,1-1.015-.377L3,282.726a.766.766,0,0,1,.377-1.015l14.216-6.521a.765.765,0,0,1,1.015.377l13.622,29.7a.767.767,0,0,1-.377,1.015l-4.1,1.878a1.465,1.465,0,1,0,1.221,2.663l4.1-1.878a3.693,3.693,0,0,0,1.818-4.9l-.649-1.415,5.507-2.526a3.926,3.926,0,0,0,1.929-5.2l-.384-.838,3.528-1.339a15.445,15.445,0,0,1,10.2-.114l6.936,2.769.066.024a12.556,12.556,0,0,0,9.72-.578c.058-.026,24.2-10.7,24.255-10.732,2.14-1.1,5.274-4.067,3.44-8.236Zm-60.9,21.623-5.507,2.526-9.882-21.546,5.507-2.526a.991.991,0,0,1,1.314.488l9.055,19.744A.99.99,0,0,1,38.531,297.444ZM94.7,281.476,70.547,292.161l-.021.009-.073.035a9.691,9.691,0,0,1-7.436.446l-6.9-2.755a18.152,18.152,0,0,0-12.231.061l-.066.023L40.073,291.4l-6.329-13.8a15.169,15.169,0,0,0,2.141-1.258,35.9,35.9,0,0,1,5.964-3.392c3.883-1.738,5.109-1.811,13.484-1.839h.005c2,.032,3.16.5,9.614,3.1,1.312.529,2.834,1.142,4.616,1.854a2.626,2.626,0,0,1,1.833,2,3.5,3.5,0,0,1-.08,1.474s0,.008,0,.012-.007.02-.01.03a1.9,1.9,0,0,1-2.414,1.4c-3.189-.781-10.786-2.611-10.863-2.629a1.465,1.465,0,0,0-.686,2.848c.076.018,7.668,1.846,10.851,2.626A5.545,5.545,0,0,0,69.52,284a4.792,4.792,0,0,0,4.279-2.774c18.713-5.536,18.027-5.328,18.2-5.395,1.6-.626,3.728-.917,4.774,1.237C97.881,279.623,95.323,281.151,94.7,281.476Z" transform="translate(0 -215.813)"/>
          <path id="Trazado_1169456" data-name="Trazado 1169456" d="M473.979,59.491l4.873-1.653a1.465,1.465,0,0,0-.941-2.774l-4.873,1.653a1.465,1.465,0,0,0,.941,2.774Z" transform="translate(-379.855 -44.253)"/>
          <path id="Trazado_1169457" data-name="Trazado 1169457" d="M473.039,103.786l4.873,1.653a1.465,1.465,0,1,0,.941-2.774l-4.873-1.653a1.465,1.465,0,1,0-.941,2.774Z" transform="translate(-379.855 -81.226)"/>
          <path id="Trazado_1169458" data-name="Trazado 1169458" d="M215.307,56.717l-4.873-1.653a1.465,1.465,0,0,0-.941,2.774l4.873,1.653a1.465,1.465,0,0,0,.941-2.774Z" transform="translate(-167.779 -44.253)"/>
          <path id="Trazado_1169459" data-name="Trazado 1169459" d="M214.366,101.012l-4.873,1.653a1.465,1.465,0,1,0,.941,2.774l4.873-1.653a1.465,1.465,0,1,0-.941-2.774Z" transform="translate(-167.779 -81.226)"/>
          <path id="Trazado_1169460" data-name="Trazado 1169460" d="M295.3,33.273a18.346,18.346,0,0,0,7.318-11.548,1.465,1.465,0,1,0-2.881-.533A15.429,15.429,0,0,1,293.58,30.9a8.453,8.453,0,0,0-3.344,5.221h-4.22V25.3l5.819-6.261a1.465,1.465,0,1,0-2.146-1.994l-5.138,5.528-5.138-5.528a1.465,1.465,0,0,0-2.146,1.994l5.819,6.261V36.123h-4.22a8.454,8.454,0,0,0-3.344-5.221,15.427,15.427,0,0,1,9.028-27.948,15.576,15.576,0,0,1,15.052,12,1.465,1.465,0,0,0,2.855-.657A18.369,18.369,0,1,0,273.8,33.272a5.455,5.455,0,0,1,2.281,4.321s0,0,0,.007c0,.024,0,.048,0,.074V44.04a8.466,8.466,0,1,0,16.932,0V37.669l0-.056s0-.007,0-.011a5.453,5.453,0,0,1,2.281-4.33ZM290.088,44.04a5.537,5.537,0,1,1-11.073,0V39.052h11.073V44.04Z" transform="translate(-214.196 -0.024)"/>
        </g>
      </g>
    </g>
  </g>
</svg>
