<svg xmlns="http://www.w3.org/2000/svg" xmlns:xlink="http://www.w3.org/1999/xlink" width="113" height="113" viewBox="0 0 113 113">
  <defs>
    <filter id="Trazado_982547" x="0" y="0" width="113" height="113" filterUnits="userSpaceOnUse">
      <feOffset dy="3" input="SourceAlpha"/>
      <feGaussianBlur stdDeviation="3" result="blur"/>
      <feFlood flood-opacity="0.161"/>
      <feComposite operator="in" in2="blur"/>
      <feComposite in="SourceGraphic"/>
    </filter>
  </defs>
  <g id="Grupo_1220495" data-name="Grupo 1220495" transform="translate(-272 -2793.839)">
    <g id="Grupo_1215811" data-name="Grupo 1215811" transform="translate(1.001 -6681.075)">
      <g id="Grupo_1210956" data-name="Grupo 1210956" transform="translate(279.999 9480.914)">
        <g id="Grupo_1209935" data-name="Grupo 1209935">
          <g id="Grupo_1208705" data-name="Grupo 1208705">
            <g id="Grupo_1148633" data-name="Grupo 1148633">
              <g id="Grupo_1148525" data-name="Grupo 1148525">
                <g transform="matrix(1, 0, 0, 1, -9, -6)" filter="url(#Trazado_982547)">
                  <g id="Trazado_982547-2" data-name="Trazado 982547" transform="translate(9 6)" fill="#f9e3d4">
                    <path d="M 47.5 93.5 C 41.28937149047852 93.5 35.26533508300781 92.28397369384766 29.59518623352051 89.88570404052734 C 24.11771965026855 87.56893157958984 19.19813346862793 84.25196075439453 14.97309303283691 80.02691650390625 C 10.74804019927979 75.80186462402344 7.431066513061523 70.88229370117188 5.114293098449707 65.40481567382812 C 2.716026782989502 59.73468017578125 1.5 53.71062850952148 1.5 47.5 C 1.5 41.28937149047852 2.716026782989502 35.26533508300781 5.114293098449707 29.59518623352051 C 7.431066513061523 24.11771965026855 10.74804019927979 19.19813346862793 14.97309303283691 14.97309303283691 C 19.19813346862793 10.74804019927979 24.11771965026855 7.431066513061523 29.59518623352051 5.114293098449707 C 35.26533508300781 2.716026782989502 41.28937149047852 1.5 47.5 1.5 C 53.71062850952148 1.5 59.73468017578125 2.716026782989502 65.40481567382812 5.114293098449707 C 70.88229370117188 7.431066513061523 75.80186462402344 10.74804019927979 80.02691650390625 14.97309303283691 C 84.25196075439453 19.19813346862793 87.56893157958984 24.11771965026855 89.88570404052734 29.59518623352051 C 92.28397369384766 35.26533508300781 93.5 41.28937149047852 93.5 47.5 C 93.5 53.71062850952148 92.28397369384766 59.73468017578125 89.88570404052734 65.40481567382812 C 87.56893157958984 70.88229370117188 84.25196075439453 75.80186462402344 80.02691650390625 80.02691650390625 C 75.80186462402344 84.25196075439453 70.88229370117188 87.56893157958984 65.40481567382812 89.88570404052734 C 59.73468017578125 92.28397369384766 53.71062850952148 93.5 47.5 93.5 Z" stroke="none"/>
                    <path d="M 47.5 3 C 41.49121475219727 3 35.66376876831055 4.176155090332031 30.17950439453125 6.495796203613281 C 24.88084411621094 8.736953735351562 20.12152099609375 11.94598388671875 16.03375244140625 16.03375244140625 C 11.94598388671875 20.12152099609375 8.736953735351562 24.88084411621094 6.495796203613281 30.17950439453125 C 4.176155090332031 35.66376876831055 3 41.49121475219727 3 47.5 C 3 53.50878524780273 4.176155090332031 59.33623123168945 6.495796203613281 64.82049560546875 C 8.736953735351562 70.11915588378906 11.94598388671875 74.87847900390625 16.03375244140625 78.96624755859375 C 20.12152099609375 83.05401611328125 24.88084411621094 86.26304626464844 30.17950439453125 88.50419616699219 C 35.66376876831055 90.82384490966797 41.49121475219727 92 47.5 92 C 53.50878524780273 92 59.33623123168945 90.82384490966797 64.82049560546875 88.50419616699219 C 70.11915588378906 86.26304626464844 74.87847900390625 83.05401611328125 78.96624755859375 78.96624755859375 C 83.05401611328125 74.87847900390625 86.26304626464844 70.11915588378906 88.50419616699219 64.82049560546875 C 90.82384490966797 59.33623123168945 92 53.50878524780273 92 47.5 C 92 41.49121475219727 90.82384490966797 35.66376876831055 88.50419616699219 30.17950439453125 C 86.26304626464844 24.88084411621094 83.05401611328125 20.12152099609375 78.96624755859375 16.03375244140625 C 74.87847900390625 11.94598388671875 70.11915588378906 8.736953735351562 64.82049560546875 6.495796203613281 C 59.33623123168945 4.176155090332031 53.50878524780273 3 47.5 3 M 47.5 0 C 73.7335205078125 0 95 21.2664794921875 95 47.5 C 95 73.7335205078125 73.7335205078125 95 47.5 95 C 21.2664794921875 95 0 73.7335205078125 0 47.5 C 0 21.2664794921875 21.2664794921875 0 47.5 0 Z" stroke="none" fill="#eca675"/>
                  </g>
                </g>
              </g>
            </g>
          </g>
        </g>
      </g>
    </g>
    <g id="juventud" transform="translate(215.708 2811.907)">
      <g id="Grupo_1220493" data-name="Grupo 1220493" transform="translate(86.326 1.397)">
        <g id="Grupo_1220490" data-name="Grupo 1220490" transform="translate(0 52.058)">
          <g id="Grupo_1220489" data-name="Grupo 1220489">
            <path id="Trazado_1169462" data-name="Trazado 1169462" d="M140.5,358.2H97.464A4.859,4.859,0,0,1,92.6,353.34V334.877a4.859,4.859,0,0,1,4.859-4.859H140.5a4.859,4.859,0,0,1,4.859,4.859V353.34A4.859,4.859,0,0,1,140.5,358.2Z" transform="translate(-92.605 -330.018)" fill="#ffdd91"/>
          </g>
        </g>
        <path id="Trazado_1169463" data-name="Trazado 1169463" d="M140.5,460.859H97.464A4.859,4.859,0,0,1,92.6,456v2.916a4.859,4.859,0,0,0,4.859,4.859H140.5a4.859,4.859,0,0,0,4.859-4.859V456A4.859,4.859,0,0,1,140.5,460.859Z" transform="translate(-92.605 -383.536)" fill="#f9cd80"/>
        <path id="Trazado_1169464" data-name="Trazado 1169464" d="M206.039,107.96v9.234a11.97,11.97,0,1,1-23.941,0V107.96Z" transform="translate(-167.602 -91.87)" fill="#fdd4bb"/>
        <path id="Trazado_1169465" data-name="Trazado 1169465" d="M194.068,158.937A11.971,11.971,0,0,1,182.1,146.966v2.916a11.97,11.97,0,1,0,23.941,0v-2.916A11.97,11.97,0,0,1,194.068,158.937Z" transform="translate(-167.601 -124.558)" fill="#f7c4a8"/>
        <path id="Trazado_1169466" data-name="Trazado 1169466" d="M329.9,118.373a4.006,4.006,0,1,1,0,7.194Z" transform="translate(-291.466 -100.253)" fill="#ebbaa1"/>
        <path id="Trazado_1169467" data-name="Trazado 1169467" d="M152.247,118.373a4.006,4.006,0,1,0,0,7.194Z" transform="translate(-137.751 -100.253)" fill="#ebbaa1"/>
        <path id="Trazado_1169468" data-name="Trazado 1169468" d="M331.667,136.244a3.989,3.989,0,0,1-1.764-.409v2.916a4.006,4.006,0,0,0,5.5-5.055A4.006,4.006,0,0,1,331.667,136.244Z" transform="translate(-291.466 -113.437)" fill="#e8a990"/>
        <path id="Trazado_1169469" data-name="Trazado 1169469" d="M146.751,133.7a4.006,4.006,0,0,0,5.5,5.055v-2.916a4.007,4.007,0,0,1-5.5-2.139Z" transform="translate(-137.75 -113.437)" fill="#e8a990"/>
        <g id="Grupo_1220491" data-name="Grupo 1220491" transform="translate(7.401 36.058)">
          <path id="Trazado_1169470" data-name="Trazado 1169470" d="M176.426,247.235c-3.882-12.952-13.763-16-13.763-16h0a11.973,11.973,0,0,1-10.6,0h0s-9.881,3.048-13.763,16Z" transform="translate(-138.295 -231.234)" fill="#f95750"/>
        </g>
        <path id="Trazado_1169471" data-name="Trazado 1169471" d="M139.332,312.018a30.251,30.251,0,0,0-1.037,2.916h38.131a30.247,30.247,0,0,0-1.037-2.916Z" transform="translate(-130.894 -262.875)" fill="#e84642"/>
        <path id="Trazado_1169472" data-name="Trazado 1169472" d="M228.569,238.5c5.076,0,5.3-7.271,5.3-7.271h0a11.973,11.973,0,0,1-10.6,0h0S223.493,238.5,228.569,238.5Z" transform="translate(-202.103 -195.176)" fill="#ebbaa1"/>
        <g id="Grupo_1220492" data-name="Grupo 1220492" transform="translate(12.408)">
          <path id="Trazado_1169473" data-name="Trazado 1169473" d="M197.326,24.713c-.611-12.348-6.714-16.09-14.058-16.09s-13.447,3.742-14.058,16.09Z" transform="translate(-169.21 -8.623)" fill="#f3584d"/>
          <path id="Trazado_1169474" data-name="Trazado 1169474" d="M169.476,89.96c-.125.914-.215,1.884-.266,2.916h28.116c-.051-1.031-.141-2-.266-2.916Z" transform="translate(-169.21 -76.785)" fill="#e84642"/>
          <path id="Trazado_1169475" data-name="Trazado 1169475" d="M235.876,52.359h-9.643V46.434a4.822,4.822,0,0,1,9.643,0v5.925Z" transform="translate(-216.997 -36.269)" fill="#5a5b77"/>
          <path id="Trazado_1169476" data-name="Trazado 1169476" d="M226.232,74.971h9.643v5.343h-9.643Z" transform="translate(-216.996 -64.224)" fill="#cb3541"/>
          <path id="Trazado_1169477" data-name="Trazado 1169477" d="M226.232,89.96h9.643v2.916h-9.643Z" transform="translate(-216.996 -76.785)" fill="#b53939"/>
        </g>
      </g>
      <g id="Grupo_1220494" data-name="Grupo 1220494" transform="translate(85.112 0)">
        <path id="Trazado_1169478" data-name="Trazado 1169478" d="M134.379,52.226H132.9A26.735,26.735,0,0,0,124.407,39.6a22.52,22.52,0,0,0-3.61-2.387,13.234,13.234,0,0,0,5.213-9.011,5.3,5.3,0,0,0,.65.041,5.236,5.236,0,0,0,1.384-10.285,1.215,1.215,0,0,0,.156-.656,26.911,26.911,0,0,0-1.632-8.456,1.217,1.217,0,1,0-2.266.89,23.032,23.032,0,0,1,1.38,6.409h-6.747V11.415a6.054,6.054,0,1,0-12.109,0v4.727h-6.748c.785-9.22,4.982-13.708,12.8-13.708,4.02,0,7.01,1.145,9.139,3.5A1.217,1.217,0,0,0,123.826,4.3C121.245,1.448,117.562,0,112.88,0c-4.38,0-7.892,1.27-10.438,3.775-2.938,2.89-4.58,7.44-4.881,13.524a1.214,1.214,0,0,0,.156.656A5.236,5.236,0,0,0,99.1,28.24a5.3,5.3,0,0,0,.65-.041,13.234,13.234,0,0,0,5.212,9.01,23.019,23.019,0,0,0-4.922,3.525,1.217,1.217,0,1,0,1.659,1.781,20.378,20.378,0,0,1,4.829-3.369c.526,2.969,2.25,6.756,6.351,6.756s5.825-3.787,6.351-6.756a19.84,19.84,0,0,1,3.739,2.42,23.9,23.9,0,0,1,7.35,10.66H95.442A25.957,25.957,0,0,1,98.658,46a1.217,1.217,0,1,0-1.985-1.41,28.689,28.689,0,0,0-3.81,7.636H91.2a6.1,6.1,0,0,0-6.092,6.092V76.839A6.1,6.1,0,0,0,91.2,82.931h30.369a1.217,1.217,0,0,0,0-2.435H91.2a3.662,3.662,0,0,1-3.658-3.658V58.318A3.662,3.662,0,0,1,91.2,54.66H134.38a3.662,3.662,0,0,1,3.658,3.658V76.84A3.662,3.662,0,0,1,134.38,80.5h-7.931a1.217,1.217,0,1,0,0,2.435h7.931a6.1,6.1,0,0,0,6.092-6.092V58.318A6.1,6.1,0,0,0,134.379,52.226ZM129.461,23a2.79,2.79,0,0,1-3.354,2.744V20.26A2.79,2.79,0,0,1,129.461,23ZM112.88,7.795a3.625,3.625,0,0,1,3.563,2.986h-7.127a3.625,3.625,0,0,1,3.563-2.986Zm-3.62,5.421h7.24v2.926h-7.24ZM99.654,25.748a2.8,2.8,0,1,1,0-5.488Zm2.434.875V18.576h21.583v8.046a10.792,10.792,0,0,1-21.583,0Zm10.792,16.845c-.575,0-2.323,0-3.413-2.815a9.93,9.93,0,0,1-.413-1.372,13.185,13.185,0,0,0,7.653,0,9.9,9.9,0,0,1-.413,1.372C115.2,43.468,113.455,43.468,112.881,43.468Z" transform="translate(-85.112 0)"/>
        <path id="Trazado_1169479" data-name="Trazado 1169479" d="M234.8,385.057a1.217,1.217,0,0,0,1.217-1.217V370.4a1.217,1.217,0,0,0-1.217-1.217h-2.873a1.217,1.217,0,0,0,0,2.435h1.656V383.84A1.217,1.217,0,0,0,234.8,385.057Z" transform="translate(-207.125 -309.382)"/>
        <path id="Trazado_1169480" data-name="Trazado 1169480" d="M278.7,379.953a5.1,5.1,0,1,0,8.171-4.078,4.051,4.051,0,1,0-6.132,0A5.1,5.1,0,0,0,278.7,379.953Zm5.1,2.67a2.67,2.67,0,1,1,2.67-2.67A2.673,2.673,0,0,1,283.807,382.623Zm-1.617-9.391a1.617,1.617,0,1,1,1.617,1.617A1.619,1.619,0,0,1,282.191,373.231Z" transform="translate(-247.346 -309.382)"/>
        <path id="Trazado_1169481" data-name="Trazado 1169481" d="M162.61,386.952a1.217,1.217,0,0,0-1.658-.461l-6.982,3.943a1.226,1.226,0,0,0,0,2.12l6.982,3.943a1.217,1.217,0,0,0,1.2-2.12l-5.1-2.883,5.1-2.883A1.218,1.218,0,0,0,162.61,386.952Z" transform="translate(-142.305 -323.756)"/>
        <path id="Trazado_1169482" data-name="Trazado 1169482" d="M283.092,134.463a1.217,1.217,0,0,0,1.217-1.217V131.3a1.217,1.217,0,0,0-2.435,0v1.945A1.217,1.217,0,0,0,283.092,134.463Z" transform="translate(-250.004 -109.013)"/>
        <path id="Trazado_1169483" data-name="Trazado 1169483" d="M217.406,134.463a1.217,1.217,0,0,0,1.217-1.217V131.3a1.217,1.217,0,1,0-2.434,0v1.945A1.217,1.217,0,0,0,217.406,134.463Z" transform="translate(-194.958 -109.013)"/>
        <path id="Trazado_1169484" data-name="Trazado 1169484" d="M229.878,179.91a4.932,4.932,0,0,0,8.456,0,1.217,1.217,0,1,0-2.233-.968h0a2.611,2.611,0,0,1-3.991,0h0a1.217,1.217,0,1,0-2.233.968Z" transform="translate(-206.338 -149.328)"/>
      </g>
    </g>
  </g>
</svg>
