<svg xmlns="http://www.w3.org/2000/svg" xmlns:xlink="http://www.w3.org/1999/xlink" width="113" height="113" viewBox="0 0 113 113">
  <defs>
    <filter id="Trazado_982547" x="0" y="0" width="113" height="113" filterUnits="userSpaceOnUse">
      <feOffset dy="3" input="SourceAlpha"/>
      <feGaussianBlur stdDeviation="3" result="blur"/>
      <feFlood flood-opacity="0.161"/>
      <feComposite operator="in" in2="blur"/>
      <feComposite in="SourceGraphic"/>
    </filter>
  </defs>
  <g id="Grupo_1220496" data-name="Grupo 1220496" transform="translate(-585 -2793.839)">
    <g id="Grupo_1215864" data-name="Grupo 1215864" transform="translate(0 -6681.075)">
      <g id="Grupo_1214720" data-name="Grupo 1214720" transform="translate(594 9480.914)">
        <g id="Grupo_1209935" data-name="Grupo 1209935">
          <g id="Grupo_1208705" data-name="Grupo 1208705">
            <g id="Grupo_1148633" data-name="Grupo 1148633">
              <g id="Grupo_1148525" data-name="Grupo 1148525">
                <g transform="matrix(1, 0, 0, 1, -9, -6)" filter="url(#Trazado_982547)">
                  <g id="Trazado_982547-2" data-name="Trazado 982547" transform="translate(9 6)" fill="#f9e3d4">
                    <path d="M 47.5 93.5 C 41.28937149047852 93.5 35.26533508300781 92.28397369384766 29.59518623352051 89.88570404052734 C 24.11771965026855 87.56893157958984 19.19813346862793 84.25196075439453 14.97309303283691 80.02691650390625 C 10.74804019927979 75.80186462402344 7.431066513061523 70.88229370117188 5.114293098449707 65.40481567382812 C 2.716026782989502 59.73468017578125 1.5 53.71062850952148 1.5 47.5 C 1.5 41.28937149047852 2.716026782989502 35.26533508300781 5.114293098449707 29.59518623352051 C 7.431066513061523 24.11771965026855 10.74804019927979 19.19813346862793 14.97309303283691 14.97309303283691 C 19.19813346862793 10.74804019927979 24.11771965026855 7.431066513061523 29.59518623352051 5.114293098449707 C 35.26533508300781 2.716026782989502 41.28937149047852 1.5 47.5 1.5 C 53.71062850952148 1.5 59.73468017578125 2.716026782989502 65.40481567382812 5.114293098449707 C 70.88229370117188 7.431066513061523 75.80186462402344 10.74804019927979 80.02691650390625 14.97309303283691 C 84.25196075439453 19.19813346862793 87.56893157958984 24.11771965026855 89.88570404052734 29.59518623352051 C 92.28397369384766 35.26533508300781 93.5 41.28937149047852 93.5 47.5 C 93.5 53.71062850952148 92.28397369384766 59.73468017578125 89.88570404052734 65.40481567382812 C 87.56893157958984 70.88229370117188 84.25196075439453 75.80186462402344 80.02691650390625 80.02691650390625 C 75.80186462402344 84.25196075439453 70.88229370117188 87.56893157958984 65.40481567382812 89.88570404052734 C 59.73468017578125 92.28397369384766 53.71062850952148 93.5 47.5 93.5 Z" stroke="none"/>
                    <path d="M 47.5 3 C 41.49121475219727 3 35.66376876831055 4.176155090332031 30.17950439453125 6.495796203613281 C 24.88084411621094 8.736953735351562 20.12152099609375 11.94598388671875 16.03375244140625 16.03375244140625 C 11.94598388671875 20.12152099609375 8.736953735351562 24.88084411621094 6.495796203613281 30.17950439453125 C 4.176155090332031 35.66376876831055 3 41.49121475219727 3 47.5 C 3 53.50878524780273 4.176155090332031 59.33623123168945 6.495796203613281 64.82049560546875 C 8.736953735351562 70.11915588378906 11.94598388671875 74.87847900390625 16.03375244140625 78.96624755859375 C 20.12152099609375 83.05401611328125 24.88084411621094 86.26304626464844 30.17950439453125 88.50419616699219 C 35.66376876831055 90.82384490966797 41.49121475219727 92 47.5 92 C 53.50878524780273 92 59.33623123168945 90.82384490966797 64.82049560546875 88.50419616699219 C 70.11915588378906 86.26304626464844 74.87847900390625 83.05401611328125 78.96624755859375 78.96624755859375 C 83.05401611328125 74.87847900390625 86.26304626464844 70.11915588378906 88.50419616699219 64.82049560546875 C 90.82384490966797 59.33623123168945 92 53.50878524780273 92 47.5 C 92 41.49121475219727 90.82384490966797 35.66376876831055 88.50419616699219 30.17950439453125 C 86.26304626464844 24.88084411621094 83.05401611328125 20.12152099609375 78.96624755859375 16.03375244140625 C 74.87847900390625 11.94598388671875 70.11915588378906 8.736953735351562 64.82049560546875 6.495796203613281 C 59.33623123168945 4.176155090332031 53.50878524780273 3 47.5 3 M 47.5 0 C 73.7335205078125 0 95 21.2664794921875 95 47.5 C 95 73.7335205078125 73.7335205078125 95 47.5 95 C 21.2664794921875 95 0 73.7335205078125 0 47.5 C 0 21.2664794921875 21.2664794921875 0 47.5 0 Z" stroke="none" fill="#eca675"/>
                  </g>
                </g>
              </g>
            </g>
          </g>
        </g>
      </g>
    </g>
    <g id="licencia-de-conducir" transform="translate(605.154 2805.284)">
      <path id="Trazado_1169485" data-name="Trazado 1169485" d="M62.744,21h4.463a4.658,4.658,0,0,1,4.658,4.658v32.6a4.658,4.658,0,0,1-4.658,4.658H6.658A4.658,4.658,0,0,1,2,58.261v-32.6A4.658,4.658,0,0,1,6.658,21H41.395" transform="translate(0.164 2.472)" fill="#d5883e"/>
      <rect id="Rect치ngulo_421259" data-name="Rect치ngulo 421259" width="25.617" height="25.617" rx="1" transform="translate(6.822 28.129)" fill="#f0ae42"/>
      <path id="Trazado_1169486" data-name="Trazado 1169486" d="M10,48.315V43.658A4.658,4.658,0,0,1,14.658,39h6.987A4.658,4.658,0,0,1,26.3,43.658v4.658" transform="translate(1.48 5.431)" fill="#3b5892"/>
      <path id="Trazado_1169487" data-name="Trazado 1169487" d="M22.315,34.329v1.164a4.658,4.658,0,0,1-9.315,0V34.329h.89A4.213,4.213,0,0,0,17.658,32a4.213,4.213,0,0,0,3.768,2.329Z" transform="translate(1.973 4.28)" fill="#fbe1ca"/>
      <path id="Trazado_1169488" data-name="Trazado 1169488" d="M22.315,34.822V31.329A2.329,2.329,0,0,0,19.987,29H15.329A2.329,2.329,0,0,0,13,31.329v3.493h.89a4.213,4.213,0,0,0,3.768-2.329,4.213,4.213,0,0,0,3.768,2.329Z" transform="translate(1.973 3.787)" fill="#674025"/>
      <rect id="Rect치ngulo_421260" data-name="Rect치ngulo 421260" width="30.275" height="6.987" rx="3" transform="translate(37.097 28.129)" fill="#3b5892"/>
      <path id="Trazado_1169489" data-name="Trazado 1169489" d="M16,39h2.329v9.315H16Z" transform="translate(2.466 5.431)" fill="#4c6cb5"/>
      <path id="Trazado_1169490" data-name="Trazado 1169490" d="M5,51H32.946v2.329H5Z" transform="translate(0.658 7.404)" fill="#f2f2f2"/>
      <path id="Trazado_1169491" data-name="Trazado 1169491" d="M34,35H59.617v4.658H34Z" transform="translate(5.426 4.774)" fill="#f9d266"/>
      <path id="Trazado_1169492" data-name="Trazado 1169492" d="M34,47H59.617v4.658H34Z" transform="translate(5.426 6.747)" fill="#f9d266"/>
      <path id="Trazado_1169493" data-name="Trazado 1169493" d="M33,42H56.288v2.329H33Z" transform="translate(5.261 5.924)" fill="#f2f2f2"/>
      <path id="Trazado_1169494" data-name="Trazado 1169494" d="M55,42h2.329v2.329H55Z" transform="translate(8.879 5.924)" fill="#f2f2f2"/>
      <path id="Trazado_1169495" data-name="Trazado 1169495" d="M58.782,25H35.493a3.493,3.493,0,0,0,0,6.987H53.367a18.584,18.584,0,0,0,5.745-6.953C59,25.023,58.9,25,58.782,25Z" transform="translate(5.097 3.129)" fill="#4c6cb5"/>
      <circle id="Elipse_14463" data-name="Elipse 14463" cx="11.644" cy="11.644" r="11.644" transform="translate(40.59 7.17)" fill="#6bc13b"/>
      <path id="Trazado_1169496" data-name="Trazado 1169496" d="M39,19.987l4.658,4.658,9.315-9.315L50.644,13l-6.986,6.987-2.329-2.329Z" transform="translate(6.248 1.156)" fill="#f2f2f2"/>
      <path id="Trazado_1169497" data-name="Trazado 1169497" d="M67.372,22.307H64.546a12.809,12.809,0,1,0-24.624,0H6.822A5.829,5.829,0,0,0,1,28.129v32.6a5.829,5.829,0,0,0,5.822,5.822h60.55a5.829,5.829,0,0,0,5.822-5.822v-32.6A5.829,5.829,0,0,0,67.372,22.307ZM52.234,8.334a10.48,10.48,0,1,1-10.48,10.48,10.48,10.48,0,0,1,10.48-10.48ZM44.9,29.294a12.739,12.739,0,0,0,14.672,0h4.308a2.329,2.329,0,1,1,0,4.658H40.59a2.329,2.329,0,0,1,0-4.658ZM70.865,60.733a3.493,3.493,0,0,1-3.493,3.493H6.822a3.493,3.493,0,0,1-3.493-3.493v-32.6a3.493,3.493,0,0,1,3.493-3.493H40.839a12.941,12.941,0,0,0,1.523,2.329H40.59a4.658,4.658,0,0,0,0,9.315H63.879a4.658,4.658,0,1,0,0-9.315H62.106a12.874,12.874,0,0,0,1.522-2.329h3.744a3.493,3.493,0,0,1,3.493,3.493Z" transform="translate(0 0)"/>
      <path id="Trazado_1169498" data-name="Trazado 1169498" d="M7.329,51.946H30.617a2.329,2.329,0,0,0,2.329-2.329V26.329A2.329,2.329,0,0,0,30.617,24H7.329A2.329,2.329,0,0,0,5,26.329V49.617A2.329,2.329,0,0,0,7.329,51.946Zm4.658-5.822a3.493,3.493,0,0,1,3.493-3.493h2.329v6.987H11.987ZM15.48,32.151a1.164,1.164,0,0,1,1.164-1.164H21.3a1.164,1.164,0,0,1,1.164,1.164v2.29a3.009,3.009,0,0,1-2.452-1.648,1.212,1.212,0,0,0-2.083,0,3.01,3.01,0,0,1-2.451,1.648ZM25.96,49.617H20.137V42.631h2.329a3.493,3.493,0,0,1,3.493,3.493ZM15.48,36.809V36.8a5.347,5.347,0,0,0,3.493-1.529A5.342,5.342,0,0,0,22.466,36.8v.007a3.493,3.493,0,1,1-6.987,0ZM7.329,26.329H30.617V49.617H28.288V46.124a5.822,5.822,0,0,0-4.774-5.717,5.762,5.762,0,0,0,1.281-3.6V32.151A3.493,3.493,0,0,0,21.3,28.658H16.644a3.493,3.493,0,0,0-3.493,3.493v4.658a5.755,5.755,0,0,0,1.281,3.6,5.822,5.822,0,0,0-4.774,5.717v3.493H7.329Z" transform="translate(0.658 2.965)"/>
      <path id="Trazado_1169499" data-name="Trazado 1169499" d="M43.822,25.973a1.164,1.164,0,0,0,.823-.34l9.315-9.315a1.164,1.164,0,0,0,0-1.648l-2.329-2.329a1.164,1.164,0,0,0-1.648,0L43.822,18.5,42.317,17a1.164,1.164,0,0,0-1.648,0L38.34,19.327a1.164,1.164,0,0,0,0,1.648L43,25.632A1.164,1.164,0,0,0,43.822,25.973Zm-2.329-6.5L43,20.975a1.164,1.164,0,0,0,1.648,0l6.163-6.164.681.682-7.668,7.668-3.011-3.01Z" transform="translate(6.083 0.992)"/>
      <path id="Trazado_1169500" data-name="Trazado 1169500" d="M5,51H32.946v2.329H5Z" transform="translate(0.658 7.404)"/>
      <path id="Trazado_1169501" data-name="Trazado 1169501" d="M59.782,34H34.164A1.164,1.164,0,0,0,33,35.164v4.658a1.164,1.164,0,0,0,1.164,1.164H59.782a1.164,1.164,0,0,0,1.164-1.164V35.164A1.164,1.164,0,0,0,59.782,34Zm-1.164,4.658H35.329V36.329H58.617Z" transform="translate(5.261 4.609)"/>
      <path id="Trazado_1169502" data-name="Trazado 1169502" d="M59.782,46H34.164A1.164,1.164,0,0,0,33,47.164v4.658a1.164,1.164,0,0,0,1.164,1.164H59.782a1.164,1.164,0,0,0,1.164-1.164V47.164A1.164,1.164,0,0,0,59.782,46Zm-1.164,4.658H35.329V48.329H58.617Z" transform="translate(5.261 6.582)"/>
      <path id="Trazado_1169503" data-name="Trazado 1169503" d="M33,42H56.288v2.329H33Z" transform="translate(5.261 5.924)"/>
      <path id="Trazado_1169504" data-name="Trazado 1169504" d="M55,42h2.329v2.329H55Z" transform="translate(8.879 5.924)"/>
    </g>
  </g>
</svg>
