<svg xmlns="http://www.w3.org/2000/svg" xmlns:xlink="http://www.w3.org/1999/xlink" width="113" height="113" viewBox="0 0 113 113">
  <defs>
    <filter id="Trazado_982547" x="0" y="0" width="113" height="113" filterUnits="userSpaceOnUse">
      <feOffset dy="3" input="SourceAlpha"/>
      <feGaussianBlur stdDeviation="3" result="blur"/>
      <feFlood flood-opacity="0.161"/>
      <feComposite operator="in" in2="blur"/>
      <feComposite in="SourceGraphic"/>
    </filter>
  </defs>
  <g id="Grupo_1220497" data-name="Grupo 1220497" transform="translate(-900 -2793.839)">
    <g id="Grupo_1215867" data-name="Grupo 1215867" transform="translate(0 -6681.075)">
      <g id="Grupo_1214721" data-name="Grupo 1214721" transform="translate(909 9480.914)">
        <g id="Grupo_1209935" data-name="Grupo 1209935">
          <g id="Grupo_1208705" data-name="Grupo 1208705">
            <g id="Grupo_1148633" data-name="Grupo 1148633">
              <g id="Grupo_1148525" data-name="Grupo 1148525">
                <g transform="matrix(1, 0, 0, 1, -9, -6)" filter="url(#Trazado_982547)">
                  <g id="Trazado_982547-2" data-name="Trazado 982547" transform="translate(9 6)" fill="#f9e3d4">
                    <path d="M 47.5 93.5 C 41.28937149047852 93.5 35.26533508300781 92.28397369384766 29.59518623352051 89.88570404052734 C 24.11771965026855 87.56893157958984 19.19813346862793 84.25196075439453 14.97309303283691 80.02691650390625 C 10.74804019927979 75.80186462402344 7.431066513061523 70.88229370117188 5.114293098449707 65.40481567382812 C 2.716026782989502 59.73468017578125 1.5 53.71062850952148 1.5 47.5 C 1.5 41.28937149047852 2.716026782989502 35.26533508300781 5.114293098449707 29.59518623352051 C 7.431066513061523 24.11771965026855 10.74804019927979 19.19813346862793 14.97309303283691 14.97309303283691 C 19.19813346862793 10.74804019927979 24.11771965026855 7.431066513061523 29.59518623352051 5.114293098449707 C 35.26533508300781 2.716026782989502 41.28937149047852 1.5 47.5 1.5 C 53.71062850952148 1.5 59.73468017578125 2.716026782989502 65.40481567382812 5.114293098449707 C 70.88229370117188 7.431066513061523 75.80186462402344 10.74804019927979 80.02691650390625 14.97309303283691 C 84.25196075439453 19.19813346862793 87.56893157958984 24.11771965026855 89.88570404052734 29.59518623352051 C 92.28397369384766 35.26533508300781 93.5 41.28937149047852 93.5 47.5 C 93.5 53.71062850952148 92.28397369384766 59.73468017578125 89.88570404052734 65.40481567382812 C 87.56893157958984 70.88229370117188 84.25196075439453 75.80186462402344 80.02691650390625 80.02691650390625 C 75.80186462402344 84.25196075439453 70.88229370117188 87.56893157958984 65.40481567382812 89.88570404052734 C 59.73468017578125 92.28397369384766 53.71062850952148 93.5 47.5 93.5 Z" stroke="none"/>
                    <path d="M 47.5 3 C 41.49121475219727 3 35.66376876831055 4.176155090332031 30.17950439453125 6.495796203613281 C 24.88084411621094 8.736953735351562 20.12152099609375 11.94598388671875 16.03375244140625 16.03375244140625 C 11.94598388671875 20.12152099609375 8.736953735351562 24.88084411621094 6.495796203613281 30.17950439453125 C 4.176155090332031 35.66376876831055 3 41.49121475219727 3 47.5 C 3 53.50878524780273 4.176155090332031 59.33623123168945 6.495796203613281 64.82049560546875 C 8.736953735351562 70.11915588378906 11.94598388671875 74.87847900390625 16.03375244140625 78.96624755859375 C 20.12152099609375 83.05401611328125 24.88084411621094 86.26304626464844 30.17950439453125 88.50419616699219 C 35.66376876831055 90.82384490966797 41.49121475219727 92 47.5 92 C 53.50878524780273 92 59.33623123168945 90.82384490966797 64.82049560546875 88.50419616699219 C 70.11915588378906 86.26304626464844 74.87847900390625 83.05401611328125 78.96624755859375 78.96624755859375 C 83.05401611328125 74.87847900390625 86.26304626464844 70.11915588378906 88.50419616699219 64.82049560546875 C 90.82384490966797 59.33623123168945 92 53.50878524780273 92 47.5 C 92 41.49121475219727 90.82384490966797 35.66376876831055 88.50419616699219 30.17950439453125 C 86.26304626464844 24.88084411621094 83.05401611328125 20.12152099609375 78.96624755859375 16.03375244140625 C 74.87847900390625 11.94598388671875 70.11915588378906 8.736953735351562 64.82049560546875 6.495796203613281 C 59.33623123168945 4.176155090332031 53.50878524780273 3 47.5 3 M 47.5 0 C 73.7335205078125 0 95 21.2664794921875 95 47.5 C 95 73.7335205078125 73.7335205078125 95 47.5 95 C 21.2664794921875 95 0 73.7335205078125 0 47.5 C 0 21.2664794921875 21.2664794921875 0 47.5 0 Z" stroke="none" fill="#eca675"/>
                  </g>
                </g>
              </g>
            </g>
          </g>
        </g>
      </g>
    </g>
    <g id="contrato_10_" data-name="contrato (10)" transform="translate(918.999 2813.632)">
      <path id="Trazado_1169505" data-name="Trazado 1169505" d="M178.873,80.812h-42.06a1.052,1.052,0,0,1-1.051-1.051V25.082a1.052,1.052,0,0,1,1.051-1.051h42.06a1.052,1.052,0,0,1,1.051,1.051V79.761A1.052,1.052,0,0,1,178.873,80.812Zm0,0" transform="translate(-117.952 -20.444)" fill="#dad8db"/>
      <path id="Trazado_1169506" data-name="Trazado 1169506" d="M211.372,105.079l-7.18,7.18a2.1,2.1,0,0,1-1.487.616H168.876a1.052,1.052,0,0,1-1.051-1.051V57.145a1.052,1.052,0,0,1,1.051-1.052h42.06a1.052,1.052,0,0,1,1.051,1.052v46.446a2.1,2.1,0,0,1-.616,1.487Zm0,0" transform="translate(-145.809 -48.301)" fill="#eceaec"/>
      <path id="Trazado_1169507" data-name="Trazado 1169507" d="M368.623,132.445v7.361h-8.412v-7.361l4.206-4.206Zm0,0" transform="translate(-312.96 -110.983)" fill="#ffe09f"/>
      <path id="Trazado_1169508" data-name="Trazado 1169508" d="M364.417,128.238l-4.206,4.206v4.206l3.206-3.206a1.415,1.415,0,0,1,2,0l3.206,3.206v-4.206Zm0,0" transform="translate(-312.96 -110.982)" fill="#f6d190"/>
      <path id="Trazado_1169509" data-name="Trazado 1169509" d="M440.987,432.633l7.18-7.18a2.112,2.112,0,0,0,.421-.616h-7.165a1.052,1.052,0,0,0-1.051,1.051v7.165A2.1,2.1,0,0,0,440.987,432.633Zm0,0" transform="translate(-382.605 -368.674)" fill="#dad8db"/>
      <path id="Trazado_1169510" data-name="Trazado 1169510" d="M33.4,209.915a2.1,2.1,0,0,1-2.974,0L8.119,187.609a2.1,2.1,0,1,1,2.974-2.974L33.4,206.941A2.1,2.1,0,0,1,33.4,209.915Zm0,0" transform="translate(-6.518 -159.446)" fill="#dad8db"/>
      <path id="Trazado_1169511" data-name="Trazado 1169511" d="M123.7,303.2l-7.127-7.128,2.974-2.974,7.127,7.127Zm0,0" transform="translate(-101.282 -254.213)" fill="#6f6571"/>
      <path id="Trazado_1169512" data-name="Trazado 1169512" d="M25.836,199.377,11.093,184.634a2.1,2.1,0,0,0-2.974,2.974l14.743,14.743Zm0,0" transform="translate(-6.518 -159.445)" fill="#ff8086"/>
      <path id="Trazado_1169513" data-name="Trazado 1169513" d="M25.836,199.377,11.093,184.634a2.1,2.1,0,0,0-2.974,2.974l14.743,14.743Zm0,0" transform="translate(-6.518 -159.445)" fill="#ff8086"/>
      <path id="Trazado_1169514" data-name="Trazado 1169514" d="M65.127,6.809H62.956V4.638A2.038,2.038,0,0,0,60.921,2.6H31.249a3.086,3.086,0,0,0-5.851,0H18.86a2.038,2.038,0,0,0-2.035,2.035v31.41L5.268,24.491A3.087,3.087,0,0,0,.9,28.856l.795.795L.9,30.442a3.088,3.088,0,0,0,0,4.366l5.948,5.948a.984.984,0,0,0,1.391-1.391L2.3,33.416a1.12,1.12,0,0,1,0-1.583l.792-.791L16.825,44.779V59.317a2.038,2.038,0,0,0,2.036,2.035h2.171v2.171a2.038,2.038,0,0,0,2.035,2.035H56.895a3.067,3.067,0,0,0,2.183-.9l7.18-7.18a3.067,3.067,0,0,0,.9-2.183V8.844a2.038,2.038,0,0,0-2.035-2.036ZM18.793,4.638a.068.068,0,0,1,.068-.068H29.443V6.809H23.066a2.038,2.038,0,0,0-2.035,2.036v31.41l-2.238-2.239Zm7.4,45.131-.008.007a1.114,1.114,0,0,1-1.577,0l-.794-.794L25.394,47.4l.794.795a1.115,1.115,0,0,1,0,1.575Zm-3.77-2.178-4.557-4.557,1.583-1.583L24,46.008ZM2.293,27.465a1.119,1.119,0,0,1,1.583-1.583l.794.794L3.088,28.259Zm3.769.6L18.054,40.06l-1.583,1.583L4.479,29.65ZM23,63.523V54.059a.984.984,0,0,0-1.968,0v5.325H18.86a.068.068,0,0,1-.068-.068V46.747l4.421,4.421a3.087,3.087,0,0,0,3.555.581l.9.9a.984.984,0,0,0,1.391-1.391l-.9-.9a3.084,3.084,0,0,0-.58-3.554L23,42.222V8.844a.068.068,0,0,1,.068-.068h6.377V12A1.119,1.119,0,1,1,27.2,12a.984.984,0,1,0-1.968,0,3.087,3.087,0,1,0,6.173,0V8.776H32.53a.984.984,0,0,0,0-1.968H31.411V4.571h29.51a.068.068,0,0,1,.068.068V6.809H36.736a.984.984,0,0,0,0,1.968H65.127a.068.068,0,0,1,.068.068V55.178H58.817a2.038,2.038,0,0,0-2.035,2.035V63.59H23.066A.068.068,0,0,1,23,63.523ZM58.75,62.2V57.213a.068.068,0,0,1,.068-.068H63.8Zm0,0" transform="translate(0 0)"/>
      <path id="Trazado_1169515" data-name="Trazado 1169515" d="M337.662,129.017a.979.979,0,0,0,.7-.288l.424-.424v4.986a.984.984,0,0,0,.984.984h8.412a.984.984,0,0,0,.984-.984v-4.986l.424.424a.984.984,0,1,0,1.391-1.391l-6.309-6.309a.983.983,0,0,0-1.391,0l-6.309,6.309a.984.984,0,0,0,.7,1.679Zm6.309-5.9,3.222,3.222v5.969h-6.444v-5.969Zm0,0" transform="translate(-292.514 -104.468)"/>
      <path id="Trazado_1169516" data-name="Trazado 1169516" d="M249.484,130.726h7.361a.984.984,0,1,0,0-1.968h-7.361a.984.984,0,0,0,0,1.968Zm0,0" transform="translate(-215.903 -111.434)"/>
      <path id="Trazado_1169517" data-name="Trazado 1169517" d="M225.437,170.8h10.515a.984.984,0,1,0,0-1.968H225.437a.984.984,0,1,0,0,1.968Zm0,0" transform="translate(-195.01 -146.255)"/>
      <path id="Trazado_1169518" data-name="Trazado 1169518" d="M225.437,210.886h10.515a.984.984,0,1,0,0-1.968H225.437a.984.984,0,1,0,0,1.968Zm0,0" transform="translate(-195.01 -181.079)"/>
      <path id="Trazado_1169519" data-name="Trazado 1169519" d="M225.437,258.98h27.339a.984.984,0,1,0,0-1.968H225.437a.984.984,0,1,0,0,1.968Zm0,0" transform="translate(-195.01 -222.864)"/>
      <path id="Trazado_1169520" data-name="Trazado 1169520" d="M225.437,299.062h27.339a.984.984,0,0,0,0-1.968H225.437a.984.984,0,0,0,0,1.968Zm0,0" transform="translate(-195.01 -257.688)"/>
      <path id="Trazado_1169521" data-name="Trazado 1169521" d="M225.437,339.144h27.339a.984.984,0,0,0,0-1.968H225.437a.984.984,0,1,0,0,1.968Zm0,0" transform="translate(-195.01 -292.513)"/>
      <path id="Trazado_1169522" data-name="Trazado 1169522" d="M237.4,381.462h-3.742a1.117,1.117,0,0,1-1.062-.766l-.572-1.717a.983.983,0,0,0-1.72-.279l-1.834,2.446-.62-3.1a.984.984,0,0,0-1.752-.4l-5.678,7.571a1.119,1.119,0,0,1-2.015-.672V383.5a.984.984,0,0,0-1.968,0v1.051a3.087,3.087,0,0,0,5.556,1.852l4.358-5.811.62,3.1a.983.983,0,0,0,1.751.4l2.029-2.7a3.083,3.083,0,0,0,2.906,2.047H237.4a.984.984,0,1,0,0-1.968Zm0,0" transform="translate(-188.046 -327.335)"/>
    </g>
  </g>
</svg>
