<svg xmlns="http://www.w3.org/2000/svg" xmlns:xlink="http://www.w3.org/1999/xlink" width="113" height="113" viewBox="0 0 113 113">
  <defs>
    <filter id="Trazado_982547" x="0" y="0" width="113" height="113" filterUnits="userSpaceOnUse">
      <feOffset dy="3" input="SourceAlpha"/>
      <feGaussianBlur stdDeviation="3" result="blur"/>
      <feFlood flood-opacity="0.161"/>
      <feComposite operator="in" in2="blur"/>
      <feComposite in="SourceGraphic"/>
    </filter>
  </defs>
  <g id="Grupo_1220513" data-name="Grupo 1220513" transform="translate(-1215.499 -2793.839)">
    <g id="Grupo_1215875" data-name="Grupo 1215875" transform="translate(0 -6681.075)">
      <g id="Grupo_1214722" data-name="Grupo 1214722" transform="translate(1224.499 9480.914)">
        <g id="Grupo_1209935" data-name="Grupo 1209935">
          <g id="Grupo_1208705" data-name="Grupo 1208705">
            <g id="Grupo_1148633" data-name="Grupo 1148633">
              <g id="Grupo_1148525" data-name="Grupo 1148525">
                <g transform="matrix(1, 0, 0, 1, -9, -6)" filter="url(#Trazado_982547)">
                  <g id="Trazado_982547-2" data-name="Trazado 982547" transform="translate(9 6)" fill="#f9e3d4">
                    <path d="M 47.5 93.5 C 41.28937149047852 93.5 35.26533508300781 92.28397369384766 29.59518623352051 89.88570404052734 C 24.11771965026855 87.56893157958984 19.19813346862793 84.25196075439453 14.97309303283691 80.02691650390625 C 10.74804019927979 75.80186462402344 7.431066513061523 70.88229370117188 5.114293098449707 65.40481567382812 C 2.716026782989502 59.73468017578125 1.5 53.71062850952148 1.5 47.5 C 1.5 41.28937149047852 2.716026782989502 35.26533508300781 5.114293098449707 29.59518623352051 C 7.431066513061523 24.11771965026855 10.74804019927979 19.19813346862793 14.97309303283691 14.97309303283691 C 19.19813346862793 10.74804019927979 24.11771965026855 7.431066513061523 29.59518623352051 5.114293098449707 C 35.26533508300781 2.716026782989502 41.28937149047852 1.5 47.5 1.5 C 53.71062850952148 1.5 59.73468017578125 2.716026782989502 65.40481567382812 5.114293098449707 C 70.88229370117188 7.431066513061523 75.80186462402344 10.74804019927979 80.02691650390625 14.97309303283691 C 84.25196075439453 19.19813346862793 87.56893157958984 24.11771965026855 89.88570404052734 29.59518623352051 C 92.28397369384766 35.26533508300781 93.5 41.28937149047852 93.5 47.5 C 93.5 53.71062850952148 92.28397369384766 59.73468017578125 89.88570404052734 65.40481567382812 C 87.56893157958984 70.88229370117188 84.25196075439453 75.80186462402344 80.02691650390625 80.02691650390625 C 75.80186462402344 84.25196075439453 70.88229370117188 87.56893157958984 65.40481567382812 89.88570404052734 C 59.73468017578125 92.28397369384766 53.71062850952148 93.5 47.5 93.5 Z" stroke="none"/>
                    <path d="M 47.5 3 C 41.49121475219727 3 35.66376876831055 4.176155090332031 30.17950439453125 6.495796203613281 C 24.88084411621094 8.736953735351562 20.12152099609375 11.94598388671875 16.03375244140625 16.03375244140625 C 11.94598388671875 20.12152099609375 8.736953735351562 24.88084411621094 6.495796203613281 30.17950439453125 C 4.176155090332031 35.66376876831055 3 41.49121475219727 3 47.5 C 3 53.50878524780273 4.176155090332031 59.33623123168945 6.495796203613281 64.82049560546875 C 8.736953735351562 70.11915588378906 11.94598388671875 74.87847900390625 16.03375244140625 78.96624755859375 C 20.12152099609375 83.05401611328125 24.88084411621094 86.26304626464844 30.17950439453125 88.50419616699219 C 35.66376876831055 90.82384490966797 41.49121475219727 92 47.5 92 C 53.50878524780273 92 59.33623123168945 90.82384490966797 64.82049560546875 88.50419616699219 C 70.11915588378906 86.26304626464844 74.87847900390625 83.05401611328125 78.96624755859375 78.96624755859375 C 83.05401611328125 74.87847900390625 86.26304626464844 70.11915588378906 88.50419616699219 64.82049560546875 C 90.82384490966797 59.33623123168945 92 53.50878524780273 92 47.5 C 92 41.49121475219727 90.82384490966797 35.66376876831055 88.50419616699219 30.17950439453125 C 86.26304626464844 24.88084411621094 83.05401611328125 20.12152099609375 78.96624755859375 16.03375244140625 C 74.87847900390625 11.94598388671875 70.11915588378906 8.736953735351562 64.82049560546875 6.495796203613281 C 59.33623123168945 4.176155090332031 53.50878524780273 3 47.5 3 M 47.5 0 C 73.7335205078125 0 95 21.2664794921875 95 47.5 C 95 73.7335205078125 73.7335205078125 95 47.5 95 C 21.2664794921875 95 0 73.7335205078125 0 47.5 C 0 21.2664794921875 21.2664794921875 0 47.5 0 Z" stroke="none" fill="#eca675"/>
                  </g>
                </g>
              </g>
            </g>
          </g>
        </g>
      </g>
    </g>
    <g id="ley_18_" data-name="ley (18)" transform="translate(1232.431 2797.461)">
      <g id="Grupo_1220504" data-name="Grupo 1220504" transform="translate(17.192 60.283)">
        <g id="Grupo_1220499" data-name="Grupo 1220499" transform="translate(0 4.215)">
          <path id="Trazado_1169523" data-name="Trazado 1169523" d="M160.13,359.421a13.418,13.418,0,0,0,3.221,8.836H114.8a1.536,1.536,0,0,1-1.254-.641,15.641,15.641,0,0,1,0-16.389,1.536,1.536,0,0,1,1.254-.641h48.553A13.419,13.419,0,0,0,160.13,359.421Z" transform="translate(-111.226 -350.585)" fill="#fb3a82"/>
          <path id="Trazado_1169524" data-name="Trazado 1169524" d="M126.042,350.587l-13.692,14.831a15.515,15.515,0,0,1-1.121-5.994,14.023,14.023,0,0,1,2.319-8.2,1.534,1.534,0,0,1,1.254-.641Z" transform="translate(-111.229 -350.587)" fill="#fb1466"/>
          <path id="Trazado_1169525" data-name="Trazado 1169525" d="M194.7,359.421a13.418,13.418,0,0,0,3.221,8.836H148.624s-2.833-2.869-2.833-8.836,2.833-8.836,2.833-8.836h49.292A13.419,13.419,0,0,0,194.7,359.421Z" transform="translate(-140.448 -350.585)" fill="#e0d3ce"/>
          <g id="Grupo_1220498" data-name="Grupo 1220498" transform="translate(5.343 0)">
            <path id="Trazado_1169526" data-name="Trazado 1169526" d="M155.26,350.587l-9.419,10.2c-.032-.436-.051-.892-.051-1.366,0-5.968,2.833-8.837,2.833-8.837Z" transform="translate(-145.79 -350.587)" fill="#cdbfbb"/>
            <path id="Trazado_1169527" data-name="Trazado 1169527" d="M430.24,359.428a13.416,13.416,0,0,0,3.221,8.836H427.62a13.729,13.729,0,0,1,0-17.671h5.841A13.412,13.412,0,0,0,430.24,359.428Z" transform="translate(-381.335 -350.591)" fill="#cdbfbb"/>
          </g>
        </g>
        <g id="Grupo_1220503" data-name="Grupo 1220503" transform="translate(6.651)">
          <g id="Grupo_1220501" data-name="Grupo 1220501" transform="translate(0)">
            <path id="Trazado_1169528" data-name="Trazado 1169528" d="M208.394,325.883a2.565,2.565,0,0,1-2.564,2.564H156.824a2.565,2.565,0,0,1,0-5.13H205.83A2.565,2.565,0,0,1,208.394,325.883Z" transform="translate(-154.26 -323.317)" fill="#fb3a82"/>
            <g id="Grupo_1220500" data-name="Grupo 1220500">
              <path id="Trazado_1169529" data-name="Trazado 1169529" d="M166.312,323.317l-4.734,5.13h-4.753a2.565,2.565,0,0,1,0-5.13Z" transform="translate(-154.26 -323.317)" fill="#fb1466"/>
              <path id="Trazado_1169530" data-name="Trazado 1169530" d="M463.254,325.885a2.567,2.567,0,0,1-2.566,2.566h-4.975a2.565,2.565,0,0,0,0-5.13h4.975A2.566,2.566,0,0,1,463.254,325.885Z" transform="translate(-409.118 -323.32)" fill="#fb1466"/>
            </g>
          </g>
          <g id="Grupo_1220502" data-name="Grupo 1220502" transform="translate(0 20.972)">
            <path id="Trazado_1169531" data-name="Trazado 1169531" d="M205.828,464.126H156.822a2.565,2.565,0,0,1,0-5.13h49.006a2.565,2.565,0,0,1,0,5.13Z" transform="translate(-154.257 -458.996)" fill="#fb3a82"/>
            <path id="Trazado_1169532" data-name="Trazado 1169532" d="M463.254,461.564a2.564,2.564,0,0,1-2.566,2.564h-4.975a2.564,2.564,0,0,0,0-5.128h4.975A2.566,2.566,0,0,1,463.254,461.564Z" transform="translate(-409.117 -458.999)" fill="#fb1466"/>
          </g>
        </g>
      </g>
      <g id="Grupo_1220512" data-name="Grupo 1220512" transform="translate(-0.001 12.193)">
        <g id="Grupo_1220507" data-name="Grupo 1220507" transform="translate(1.159 30.634)">
          <g id="Grupo_1220505" data-name="Grupo 1220505" transform="translate(0 9.811)">
            <path id="Trazado_1169533" data-name="Trazado 1169533" d="M41.265,278l-4.141-4.141L8.936,299.878a4.464,4.464,0,1,0,6.307,6.307Z" transform="translate(-7.5 -273.857)" fill="#873f30"/>
            <path id="Trazado_1169534" data-name="Trazado 1169534" d="M16.317,313.281a4.465,4.465,0,0,1-6.311,0A4.42,4.42,0,0,1,8.918,311.5a4.457,4.457,0,0,0,4.529-1.085c.043-.043.086-.088.127-.132L39.6,282.1l2.867,2.867L16.442,313.151C16.4,313.2,16.359,313.24,16.317,313.281Z" transform="translate(-8.699 -280.823)" fill="#6c3328"/>
          </g>
          <path id="Trazado_1169535" data-name="Trazado 1169535" d="M200.171,210.382l-9.535,11.374,3.9,3.895,11.374-9.535Z" transform="translate(-162.329 -210.382)" fill="#873f30"/>
          <path id="Trazado_1169536" data-name="Trazado 1169536" d="M208.563,210.382l-3.081,3.675.924.924a1.742,1.742,0,0,1,0,2.464l-5.844,5.844,2.361,2.361,11.374-9.535Z" transform="translate(-170.721 -210.382)" fill="#6c3328"/>
          <g id="Grupo_1220506" data-name="Grupo 1220506" transform="translate(25.152 9.045)">
            <path id="Trazado_1169537" data-name="Trazado 1169537" d="M174.823,277.458l-3.781-3.781A2.8,2.8,0,0,1,175,269.719l3.781,3.781a2.8,2.8,0,0,1-3.958,3.958Z" transform="translate(-170.222 -268.899)" fill="#ba5d4f"/>
            <path id="Trazado_1169538" data-name="Trazado 1169538" d="M188.265,286.947a2.8,2.8,0,0,1-3.958,0l-2.866-2.866a2.8,2.8,0,0,0,3.958-3.958l2.866,2.866A2.8,2.8,0,0,1,188.265,286.947Z" transform="translate(-179.707 -278.388)" fill="#a34f41"/>
          </g>
        </g>
        <g id="Grupo_1220508" data-name="Grupo 1220508" transform="translate(30.761 4.638)">
          <path id="Trazado_1169539" data-name="Trazado 1169539" d="M0,0H11.875V18.643H0Z" transform="translate(13.18 0) rotate(45)" fill="#ba5d4f"/>
          <path id="Trazado_1169540" data-name="Trazado 1169540" d="M0,0H11.875V18.643H0Z" transform="translate(26.785 39.977) rotate(-135)" fill="#a34f41"/>
        </g>
        <g id="Grupo_1220511" data-name="Grupo 1220511" transform="translate(0 0)">
          <path id="Trazado_1169541" data-name="Trazado 1169541" d="M177.6,39.246l-.292-.292a2.832,2.832,0,0,1,0-4l14.427-14.427a2.832,2.832,0,0,1,4,0l.292.292a2.832,2.832,0,0,1,0,4L181.606,39.246A2.832,2.832,0,0,1,177.6,39.246Z" transform="translate(-149.202 -18.534)" fill="#873f30"/>
          <path id="Trazado_1169542" data-name="Trazado 1169542" d="M349.073,210.718l.292.292a2.832,2.832,0,0,0,4,0L367.8,196.583a2.832,2.832,0,0,0,0-4l-.292-.292a2.832,2.832,0,0,0-4,0l-14.427,14.427A2.832,2.832,0,0,0,349.073,210.718Z" transform="translate(-294.416 -163.748)" fill="#6c3328"/>
          <g id="Grupo_1220510" data-name="Grupo 1220510">
            <path id="Trazado_1169543" data-name="Trazado 1169543" d="M0,0H13.335V28.156H0Z" transform="translate(55.98 9.95) rotate(45)" fill="#fcc16d"/>
            <path id="Trazado_1169544" data-name="Trazado 1169544" d="M0,0H28.156V6.749H0Z" transform="translate(40.724 34.523) rotate(-45)" fill="#fca62f"/>
            <path id="Trazado_1169545" data-name="Trazado 1169545" d="M245.109,67.968l-2.31-.944a2.124,2.124,0,0,0-2.306.464L224.274,83.707a2.124,2.124,0,0,0-.464,2.306l.944,2.31a1.416,1.416,0,0,0,2.312.465L245.574,70.28A1.416,1.416,0,0,0,245.109,67.968Z" transform="translate(-189.082 -58.415)" fill="#873f30"/>
            <path id="Trazado_1169546" data-name="Trazado 1169546" d="M309.655,132.516l.944,2.31a2.124,2.124,0,0,1-.464,2.306L293.916,153.35a2.124,2.124,0,0,1-2.306.464l-2.31-.944a1.416,1.416,0,0,1-.465-2.312l18.508-18.508A1.416,1.416,0,0,1,309.655,132.516Z" transform="translate(-243.84 -113.173)" fill="#6c3328"/>
            <g id="Grupo_1220509" data-name="Grupo 1220509">
              <path id="Trazado_1169547" data-name="Trazado 1169547" d="M75.413,80.1h-.862a11.99,11.99,0,0,1-1-1.9,1.159,1.159,0,1,0-2.142.887c.143.346.3.684.472,1.016H26.408a3.709,3.709,0,0,0-1.01.14,13.476,13.476,0,0,1-1.7-6.9c0-.505.022-1,.066-1.492H45.97a1.159,1.159,0,1,0,0-2.319H24.736l2.724-2.951H71.876a14.471,14.471,0,0,0-1.116,2.951H55.522a1.159,1.159,0,1,0,0,2.319H70.355c-.045.471-.072.947-.074,1.427a1.159,1.159,0,0,0,1.154,1.164h0A1.159,1.159,0,0,0,72.6,73.278a12.4,12.4,0,0,1,1.949-6.706h.865a3.724,3.724,0,1,0,0-7.448H60.922L74.2,45.847a3.991,3.991,0,0,0,0-5.644l-.292-.292a3.989,3.989,0,0,0-5.439-.19l-2.052-2.052.7-.7a3.275,3.275,0,0,0,.718-3.564l-.944-2.31a2.569,2.569,0,0,0-1.865-1.548l-1.612-1.612a1.159,1.159,0,0,0-1.64,1.639l.793.793-18.27,18.27-5.373-5.373L57.192,25l.711.711a1.159,1.159,0,1,0,1.639-1.639l-1.53-1.53a2.57,2.57,0,0,0-1.548-1.865h0l-2.31-.944a3.276,3.276,0,0,0-3.564.718l-.7.7L47.84,19.093a3.989,3.989,0,0,0-.19-5.439l-.292-.292a3.991,3.991,0,0,0-5.644,0L27.287,27.789a3.991,3.991,0,0,0,0,5.644l.292.292a3.989,3.989,0,0,0,5.439.19l2.052,2.052-.7.7a3.276,3.276,0,0,0-.718,3.564l.944,2.31a2.568,2.568,0,0,0,1.839,1.541l-5.813,6.934a3.96,3.96,0,0,0-5.232,5.021l-2.636,2.434a1.159,1.159,0,0,0,1.573,1.7l2.436-2.249L29.637,60.8,8.05,84.18a3.3,3.3,0,1,1-4.669-4.669L20.314,63.88a1.159,1.159,0,1,0-1.573-1.7L1.808,77.807a5.623,5.623,0,0,0,3.81,9.754h.116a5.575,5.575,0,0,0,4.019-1.808L16.7,78.226A13.361,13.361,0,0,0,18.565,82.2a2.7,2.7,0,0,0,2.2,1.129h1.953a3.718,3.718,0,0,0,3.691,4.214H75.413a3.724,3.724,0,1,0,0-7.448Zm1.405-17.247a1.407,1.407,0,0,1-1.406,1.406H29.6l1.927-2.087a3.962,3.962,0,0,0,3.954-.724H75.413a1.407,1.407,0,0,1,1.405,1.406ZM41.846,49.469,35.133,55.1l-2.669-2.669,5.627-6.713Zm-5.057,9.655a3.981,3.981,0,0,0-.242-2.187l6.934-5.813a2.569,2.569,0,0,0,1.541,1.839l2.31.944A3.277,3.277,0,0,0,50.9,53.19l.7-.7,2.052,2.052a4,4,0,0,0-.461,4.581h-16.4Zm34.3-18.063a1.662,1.662,0,0,1,1.182.49l.292.292a1.672,1.672,0,0,1,0,2.365L58.133,58.634a1.672,1.672,0,0,1-2.365,0l-.292-.292a1.674,1.674,0,0,1,0-2.365L69.9,41.551a1.661,1.661,0,0,1,1.182-.49Zm-4.264.292L55.279,52.9l-2.044-2.044L64.777,39.309ZM45.815,50.4,64.323,31.89a.244.244,0,0,1,.177-.076.283.283,0,0,1,.055.006.247.247,0,0,1,.187.155l.944,2.31a.962.962,0,0,1-.211,1.047L49.256,51.551a.962.962,0,0,1-1.047.211l-2.31-.944a.257.257,0,0,1-.085-.419ZM30.4,32.575a1.661,1.661,0,0,1-1.182-.49l-.292-.292a1.672,1.672,0,0,1,0-2.365L43.354,15a1.672,1.672,0,0,1,2.365,0l.292.292a1.672,1.672,0,0,1,0,2.365L31.584,32.086a1.663,1.663,0,0,1-1.183.49Zm4.264-.292L46.208,20.74l2.044,2.044L36.71,34.327ZM36.011,38.3,52.23,22.085a.962.962,0,0,1,1.047-.211l2.31.944a.257.257,0,0,1,.084.419L37.163,41.746a.256.256,0,0,1-.419-.084l-.944-2.31a.962.962,0,0,1,.211-1.047ZM27.47,54.671a1.64,1.64,0,0,1,2.8-1.159l3.781,3.781a1.64,1.64,0,1,1-2.319,2.319L27.95,55.83a1.629,1.629,0,0,1-.48-1.16ZM20.455,80.857A11.7,11.7,0,0,1,18.6,76.172l2.779-3.01c0,.057,0,.115,0,.172a16.084,16.084,0,0,0,1.8,7.677H20.764A.377.377,0,0,1,20.455,80.857Zm54.959,4.368H26.408a1.406,1.406,0,1,1,0-2.811H75.413a1.406,1.406,0,1,1,0,2.811Z" transform="translate(0.001 -12.193)"/>
              <path id="Trazado_1169548" data-name="Trazado 1169548" d="M203.486,417.166a1.159,1.159,0,0,0,0,2.319h27.007a1.159,1.159,0,1,0,0-2.319Z" transform="translate(-171.054 -354.57)"/>
            </g>
          </g>
        </g>
      </g>
    </g>
  </g>
</svg>
