<svg xmlns="http://www.w3.org/2000/svg" xmlns:xlink="http://www.w3.org/1999/xlink" width="108" height="108" viewBox="0 0 108 108">
  <defs>
    <filter id="Trazado_904820" x="0" y="0" width="108" height="108" filterUnits="userSpaceOnUse">
      <feOffset dy="3" input="SourceAlpha"/>
      <feGaussianBlur stdDeviation="3" result="blur"/>
      <feFlood flood-opacity="0.161"/>
      <feComposite operator="in" in2="blur"/>
      <feComposite in="SourceGraphic"/>
    </filter>
  </defs>
  <g id="Grupo_1220643" data-name="Grupo 1220643" transform="translate(-197 -3924.889)">
    <g id="Grupo_1220081" data-name="Grupo 1220081" transform="translate(200 3930.889)">
      <g id="Grupo_1209015" data-name="Grupo 1209015" transform="translate(5.999 0)">
        <g id="Grupo_1207774" data-name="Grupo 1207774">
          <g id="Grupo_1206630" data-name="Grupo 1206630">
            <g id="Grupo_1185091" data-name="Grupo 1185091">
              <g id="Grupo_1179560" data-name="Grupo 1179560">
                <g id="Grupo_1173787" data-name="Grupo 1173787">
                  <g id="Grupo_1171910" data-name="Grupo 1171910">
                    <g id="Grupo_1167341" data-name="Grupo 1167341">
                      <g id="Grupo_1166792" data-name="Grupo 1166792">
                        <g transform="matrix(1, 0, 0, 1, -9, -6)" filter="url(#Trazado_904820)">
                          <g id="Trazado_904820-2" data-name="Trazado 904820" transform="translate(9 6)" fill="#e7f2f8">
                            <path d="M 44.99996948242188 88.50005340576172 C 39.12684631347656 88.50005340576172 33.43020629882812 87.35012817382812 28.06828117370605 85.08221435546875 C 22.88851928710938 82.89136505126953 18.23629379272461 79.754638671875 14.2408447265625 75.75918579101562 C 10.24540710449219 71.76374053955078 7.108694553375244 67.11151123046875 4.917831897735596 61.93173980712891 C 2.649931907653809 56.56980133056641 1.500007033348083 50.87314987182617 1.500007033348083 45.00002670288086 C 1.500007033348083 39.12690353393555 2.649931907653809 33.43025207519531 4.917831897735596 28.06831359863281 C 7.108694553375244 22.8885383605957 10.24540710449219 18.23631477355957 14.2408447265625 14.24086380004883 C 18.23629379272461 10.2454137802124 22.88851928710938 7.108689308166504 28.06828117370605 4.917839050292969 C 33.43020629882812 2.649926662445068 39.12684631347656 1.500001668930054 44.99996948242188 1.500001668930054 C 50.87309265136719 1.500001668930054 56.56973266601562 2.649926662445068 61.93165588378906 4.917839050292969 C 67.11143493652344 7.108689308166504 71.76364135742188 10.2454137802124 75.75909423828125 14.24086380004883 C 79.75454711914062 18.23631477355957 82.89125823974609 22.8885383605957 85.08212280273438 28.06831359863281 C 87.35002136230469 33.43025207519531 88.49994659423828 39.12690353393555 88.49994659423828 45.00002670288086 C 88.49994659423828 50.87314987182617 87.35002136230469 56.56980133056641 85.08212280273438 61.93173980712891 C 82.89125823974609 67.11151123046875 79.75454711914062 71.76374053955078 75.75909423828125 75.75918579101562 C 71.76364135742188 79.754638671875 67.11143493652344 82.89136505126953 61.93165588378906 85.08221435546875 C 56.56973266601562 87.35012817382812 50.87309265136719 88.50005340576172 44.99996948242188 88.50005340576172 Z" stroke="none"/>
                            <path d="M 44.99996948242188 3 C 39.32868194580078 3 33.82863998413086 4.110054016113281 28.65261077880859 6.299339294433594 C 23.65164184570312 8.414566040039062 19.15968322753906 11.44334411621094 15.301513671875 15.30152893066406 C 11.44332885742188 19.15969848632812 8.414566040039062 23.65167236328125 6.299324035644531 28.65264129638672 C 4.110054016113281 33.82868194580078 3 39.32873916625977 3 45.00002670288086 C 3 50.67131423950195 4.110054016113281 56.17137145996094 6.299324035644531 61.347412109375 C 8.414566040039062 66.34838104248047 11.44332885742188 70.84035491943359 15.301513671875 74.69852447509766 C 19.15968322753906 78.55670928955078 23.65164184570312 81.58547973632812 28.65261077880859 83.70071411132812 C 33.82863998413086 85.88999938964844 39.32868194580078 87.00005340576172 44.99996948242188 87.00005340576172 C 50.67125701904297 87.00005340576172 56.17129898071289 85.88999938964844 61.34732818603516 83.70071411132812 C 66.34829711914062 81.58547973632812 70.84025573730469 78.55670928955078 74.69842529296875 74.69852447509766 C 78.55661010742188 70.84035491943359 81.58537292480469 66.34838104248047 83.70061492919922 61.347412109375 C 85.88988494873047 56.17137145996094 86.99993896484375 50.67131423950195 86.99993896484375 45.00002670288086 C 86.99993896484375 39.32873916625977 85.88988494873047 33.82868194580078 83.70061492919922 28.65264129638672 C 81.58537292480469 23.65167236328125 78.55661010742188 19.15969848632812 74.69842529296875 15.30152893066406 C 70.84025573730469 11.44334411621094 66.34829711914062 8.414566040039062 61.34732818603516 6.299339294433594 C 56.17129898071289 4.110054016113281 50.67125701904297 3 44.99996948242188 3 M 44.99996948242188 0 C 69.85276794433594 0 89.99993896484375 20.14720153808594 89.99993896484375 45.00002670288086 C 89.99993896484375 69.85285949707031 69.85276794433594 90.00005340576172 44.99996948242188 90.00005340576172 C 20.14717102050781 90.00005340576172 0 69.85285949707031 0 45.00002670288086 C 0 20.14720153808594 20.14717102050781 0 44.99996948242188 0 Z" stroke="none" fill="#248abf"/>
                          </g>
                        </g>
                      </g>
                    </g>
                  </g>
                </g>
              </g>
            </g>
          </g>
        </g>
      </g>
    </g>
    <g id="verdict_4078651" transform="translate(218.589 3942.564)">
      <g id="Grupo_1220641" data-name="Grupo 1220641" transform="translate(1.075 1.075)">
        <g id="Grupo_1220623" data-name="Grupo 1220623" transform="translate(8.6)">
          <path id="Trazado_1169959" data-name="Trazado 1169959" d="M42.8,33.251V16.05a2.156,2.156,0,0,1,2.15-2.15H47.1a2.156,2.156,0,0,1,2.15,2.15H55.7V9.6H47.1V1H17V13.9a8.595,8.595,0,0,1,4.3,16.039V39.7L17,37.551V44H40.65a2.156,2.156,0,0,1,2.15,2.15l3.612-2.892a6.425,6.425,0,0,1,4.021-1.408h3.118v-4.3a1.078,1.078,0,0,1-1.075-1.075V33.251H49.251A2.156,2.156,0,0,1,47.1,35.4H44.95A2.156,2.156,0,0,1,42.8,33.251Z" transform="translate(-17 -1)" fill="#e6e9ed"/>
        </g>
        <g id="Grupo_1220624" data-name="Grupo 1220624" transform="translate(38.701)">
          <path id="Trazado_1169960" data-name="Trazado 1169960" d="M17,1V9.6h8.6Z" transform="translate(-17 -1)" fill="#fcd770"/>
        </g>
        <g id="Grupo_1220625" data-name="Grupo 1220625" transform="translate(4.3 28.939)">
          <path id="Trazado_1169961" data-name="Trazado 1169961" d="M49,27.92v9.761l4.3-2.15,4.3,2.15V27.92a8.544,8.544,0,0,1-8.6,0Z" transform="translate(-49 -27.92)" fill="#ff826e"/>
        </g>
        <g id="Grupo_1220626" data-name="Grupo 1220626" transform="translate(0 43.001)">
          <path id="Trazado_1169962" data-name="Trazado 1169962" d="M29,41V56.05H61.251A2.156,2.156,0,0,0,63.4,53.9V43.15A2.156,2.156,0,0,0,61.251,41H29Z" transform="translate(-29 -41)" fill="#fcd770"/>
        </g>
        <g id="Grupo_1220627" data-name="Grupo 1220627" transform="translate(34.401 40.851)">
          <path id="Trazado_1169963" data-name="Trazado 1169963" d="M20.75,43.3H27.2a3.217,3.217,0,0,0,2.279-.946l.753-1.2a2.98,2.98,0,0,0,.194-1.075A1.078,1.078,0,0,0,29.35,39H17.633a6.425,6.425,0,0,0-4.021,1.408L10,43.3V54.05l3.612,2.892a6.425,6.425,0,0,0,4.021,1.408H20.75Z" transform="translate(-10 -39)" fill="#f0d0b4"/>
        </g>
        <g id="Grupo_1220628" data-name="Grupo 1220628" transform="translate(49.451 43.001)">
          <path id="Trazado_1169964" data-name="Trazado 1169964" d="M9.15,43.15H7A2.156,2.156,0,0,0,9.15,45.3h4.3a2.166,2.166,0,0,0,2.15-2.15A2.156,2.156,0,0,0,13.45,41H12.182l-.753,1.2A3.217,3.217,0,0,1,9.15,43.15Z" transform="translate(-7 -41)" fill="#f0d0b4"/>
        </g>
        <g id="Grupo_1220629" data-name="Grupo 1220629" transform="translate(49.451 55.901)">
          <path id="Trazado_1169965" data-name="Trazado 1169965" d="M7.634,53.634A2.1,2.1,0,0,0,7,55.15,2.156,2.156,0,0,0,9.15,57.3h4.3a2.166,2.166,0,0,0,2.15-2.15A2.156,2.156,0,0,0,13.45,53H9.15A2.1,2.1,0,0,0,7.634,53.634Z" transform="translate(-7 -53)" fill="#f0d0b4"/>
        </g>
        <g id="Grupo_1220630" data-name="Grupo 1220630" transform="translate(49.451 51.601)">
          <path id="Trazado_1169966" data-name="Trazado 1169966" d="M7.634,49.634A2.1,2.1,0,0,0,7,51.15,2.156,2.156,0,0,0,9.15,53.3h4.3a2.166,2.166,0,0,0,2.15-2.15A2.156,2.156,0,0,0,13.45,49H9.15A2.1,2.1,0,0,0,7.634,49.634Z" transform="translate(-7 -49)" fill="#f0d0b4"/>
        </g>
        <g id="Grupo_1220631" data-name="Grupo 1220631" transform="translate(49.451 47.301)">
          <path id="Trazado_1169967" data-name="Trazado 1169967" d="M7.634,45.634A2.1,2.1,0,0,0,7,47.15,2.156,2.156,0,0,0,9.15,49.3h4.3a2.166,2.166,0,0,0,2.15-2.15A2.156,2.156,0,0,0,13.45,45H9.15A2.1,2.1,0,0,0,7.634,45.634Z" transform="translate(-7 -45)" fill="#f0d0b4"/>
        </g>
        <g id="Grupo_1220632" data-name="Grupo 1220632" transform="translate(45.151 45.151)">
          <path id="Trazado_1169968" data-name="Trazado 1169968" d="M11,58.05V60.2a2.156,2.156,0,0,0,2.15,2.15h4.3A2.156,2.156,0,0,0,19.6,60.2V58.05H17.45A2.156,2.156,0,0,1,15.3,55.9a2.166,2.166,0,0,1,2.15-2.15A2.156,2.156,0,0,1,15.3,51.6a2.166,2.166,0,0,1,2.15-2.15A2.156,2.156,0,0,1,15.3,47.3a2.166,2.166,0,0,1,2.15-2.15A2.156,2.156,0,0,1,15.3,43H11Z" transform="translate(-11 -43)" fill="#b27946"/>
        </g>
        <g id="Grupo_1220633" data-name="Grupo 1220633" transform="translate(45.151 36.551)">
          <path id="Trazado_1169969" data-name="Trazado 1169969" d="M19.6,35H11v4.3h8.6Z" transform="translate(-11 -35)" fill="#b27946"/>
        </g>
        <g id="Grupo_1220634" data-name="Grupo 1220634" transform="translate(44.076 32.251)">
          <path id="Trazado_1169970" data-name="Trazado 1169970" d="M10,31v3.225A1.078,1.078,0,0,0,11.075,35.3h8.6a1.078,1.078,0,0,0,1.075-1.075V31Z" transform="translate(-10 -31)" fill="#d3a06c"/>
        </g>
        <g id="Grupo_1220635" data-name="Grupo 1220635" transform="translate(40.851 15.05)">
          <path id="Trazado_1169971" data-name="Trazado 1169971" d="M7,15V32.2H24.2V15H7Z" transform="translate(-7 -15)" fill="#cf9e76"/>
        </g>
        <g id="Grupo_1220636" data-name="Grupo 1220636" transform="translate(34.401 12.9)">
          <path id="Trazado_1169972" data-name="Trazado 1169972" d="M23,15.15v17.2a2.156,2.156,0,0,0,2.15,2.15H27.3a2.156,2.156,0,0,0,2.15-2.15V15.15A2.156,2.156,0,0,0,27.3,13H25.15A2.156,2.156,0,0,0,23,15.15Z" transform="translate(-23 -13)" fill="#d3a06c"/>
        </g>
        <g id="Grupo_1220637" data-name="Grupo 1220637" transform="translate(58.051 12.9)">
          <path id="Trazado_1169973" data-name="Trazado 1169973" d="M1,15.15v17.2A2.156,2.156,0,0,0,3.15,34.5H5.3a2.156,2.156,0,0,0,2.15-2.15V15.15A2.156,2.156,0,0,0,5.3,13H3.15A2.156,2.156,0,0,0,1,15.15Z" transform="translate(-1 -13)" fill="#d3a06c"/>
        </g>
        <g id="Grupo_1220638" data-name="Grupo 1220638" transform="translate(12.9 4.3)">
          <path id="Trazado_1169974" data-name="Trazado 1169974" d="M50.5,5H29V9.3H50.5Z" transform="translate(-29 -5)" fill="#ff826e"/>
        </g>
        <g id="Grupo_1220639" data-name="Grupo 1220639" transform="translate(0 12.9)">
          <path id="Trazado_1169975" data-name="Trazado 1169975" d="M53.6,13a8.595,8.595,0,0,0-4.3,16.039,8.544,8.544,0,0,0,8.6,0A8.595,8.595,0,0,0,53.6,13Z" transform="translate(-45 -13)" fill="#fcd770"/>
        </g>
        <g id="Grupo_1220640" data-name="Grupo 1220640" transform="translate(3.99 17.173)">
          <ellipse id="Elipse_14471" data-name="Elipse 14471" cx="4.503" cy="4.221" rx="4.503" ry="4.221" transform="translate(0 0)" fill="#ffeaa7"/>
        </g>
      </g>
      <g id="Grupo_1220642" data-name="Grupo 1220642" transform="translate(0)">
        <path id="Trazado_1169976" data-name="Trazado 1169976" d="M8.6,39.365l-4.3,2.15v-10.9A9.669,9.669,0,0,1,8.6,12.964V0H40.221l9.23,9.23v5.82h8.8a3.221,3.221,0,0,1,3.027-2.15h2.15a3.229,3.229,0,0,1,3.225,3.225v17.2a3.229,3.229,0,0,1-3.225,3.225h-2.15a3.221,3.221,0,0,1-3.027-2.15H56.976v2.15A2.143,2.143,0,0,1,55.9,38.4V41.15A2.143,2.143,0,0,1,56.976,43a3.211,3.211,0,0,1,2.387,5.375,3.176,3.176,0,0,1,0,4.3,3.176,3.176,0,0,1,0,4.3,3.211,3.211,0,0,1-2.387,5.375H55.9v1.075a3.229,3.229,0,0,1-3.225,3.225h-4.3a3.229,3.229,0,0,1-3.225-3.225V62.351H43.113a7.556,7.556,0,0,1-4.7-1.649L36,58.773A3.22,3.22,0,0,1,33.326,60.2H0V43H8.6ZM6.45,38.036l3.225-1.613L12.9,38.036v-6.35a9.5,9.5,0,0,1-6.45,0ZM2.15,22.575A7.525,7.525,0,1,0,9.675,15.05,7.533,7.533,0,0,0,2.15,22.575ZM40.851,3.67V8.6h4.93Zm6.45,7.08H38.7V2.15H10.75V12.964a9.669,9.669,0,0,1,4.3,17.651v10.9l-4.3-2.15V43H33.326A3.223,3.223,0,0,1,36,44.428L38.413,42.5a7.551,7.551,0,0,1,4.7-1.649h2.038V38.4a2.143,2.143,0,0,1-1.075-1.851V34.4H42.8a3.221,3.221,0,0,1-3.027,2.15h-2.15A3.229,3.229,0,0,1,34.4,33.326v-17.2A3.229,3.229,0,0,1,37.626,12.9h2.15A3.221,3.221,0,0,1,42.8,15.05h4.5Zm0,27.95v2.15h6.45V38.7ZM43,32.251h15.05V17.2H43Zm-2.15,1.075v-17.2a1.077,1.077,0,0,0-1.075-1.075h-2.15a1.077,1.077,0,0,0-1.075,1.075v17.2A1.077,1.077,0,0,0,37.626,34.4h2.15A1.077,1.077,0,0,0,40.851,33.326Zm19.35,0A1.077,1.077,0,0,0,61.276,34.4h2.15A1.077,1.077,0,0,0,64.5,33.326v-17.2a1.077,1.077,0,0,0-1.075-1.075h-2.15A1.077,1.077,0,0,0,60.2,16.125ZM46.226,34.4v2.15h8.6V34.4Zm10.75,10.75h-.6a4.286,4.286,0,0,1-3.7,2.15h4.3a1.075,1.075,0,1,0,0-2.15Zm1.075,9.675a1.077,1.077,0,0,0-1.075-1.075h-4.3a1.075,1.075,0,0,0,0,2.15h4.3A1.077,1.077,0,0,0,58.051,54.826Zm0-4.3a1.077,1.077,0,0,0-1.075-1.075h-4.3a1.075,1.075,0,1,0,0,2.15h4.3A1.077,1.077,0,0,0,58.051,50.526Zm0,8.6a1.077,1.077,0,0,0-1.075-1.075h-4.3a1.075,1.075,0,0,0,0,2.15h4.3A1.077,1.077,0,0,0,58.051,59.126ZM48.376,64.5h4.3a1.077,1.077,0,0,0,1.075-1.075V62.351H52.676a3.211,3.211,0,0,1-2.387-5.375,3.176,3.176,0,0,1,0-4.3,3.176,3.176,0,0,1,0-4.3,3.213,3.213,0,0,1-.641-1.075H47.3V63.426A1.077,1.077,0,0,0,48.376,64.5Zm-8.621-5.478A5.4,5.4,0,0,0,43.113,60.2h2.038V48.878a8.289,8.289,0,0,1-4.95,1.648h-.425v-2.15H40.2a6.154,6.154,0,0,0,5.131-2.747l.319-.478h7.025A2.152,2.152,0,0,0,54.826,43H43.113a5.4,5.4,0,0,0-3.358,1.178l-3.2,2.563v9.717ZM2.15,58.051H33.326A1.077,1.077,0,0,0,34.4,56.976V46.226a1.077,1.077,0,0,0-1.075-1.075H2.15Z" transform="translate(0)"/>
        <path id="Trazado_1169977" data-name="Trazado 1169977" d="M58.75,21.375A5.375,5.375,0,1,1,53.375,16,5.381,5.381,0,0,1,58.75,21.375Zm-8.6,0a3.225,3.225,0,1,0,3.225-3.225A3.229,3.229,0,0,0,50.15,21.375Z" transform="translate(-43.7 1.2)"/>
        <path id="Trazado_1169978" data-name="Trazado 1169978" d="M28,4H51.65v6.45H28Zm2.15,4.3H49.5V6.15H30.15Z" transform="translate(-15.1 0.3)"/>
        <path id="Trazado_1169979" data-name="Trazado 1169979" d="M42.75,12H32v2.15H42.75Z" transform="translate(-10.5 0.9)"/>
        <path id="Trazado_1169980" data-name="Trazado 1169980" d="M42.75,16H32v2.15H42.75Z" transform="translate(-10.5 1.2)"/>
        <path id="Trazado_1169981" data-name="Trazado 1169981" d="M42.75,20H32v2.15H42.75Z" transform="translate(-10.5 1.5)"/>
        <path id="Trazado_1169982" data-name="Trazado 1169982" d="M42.75,24H32v2.15H42.75Z" transform="translate(-10.5 1.8)"/>
        <path id="Trazado_1169983" data-name="Trazado 1169983" d="M34.3,32.277V30h2.15v3.484a4.574,4.574,0,0,1,.848,1.184l.783,1.565a.408.408,0,0,0,.739-.111l.628-3.765a2.821,2.821,0,0,1,5.6.463V34.3a2.152,2.152,0,0,0,2.15,2.15V38.6a4.3,4.3,0,0,1-4.3-4.3V32.821a.671.671,0,0,0-1.333-.111l-.628,3.765a2.542,2.542,0,0,1-4.782.72l-.12-.242a3.225,3.225,0,1,1-2.812-4.8,4.625,4.625,0,0,1,1.075.127Zm-2.15,3.1a1.075,1.075,0,1,0,2.15,0v-.823a2.414,2.414,0,0,0-1.075-.252A1.077,1.077,0,0,0,32.15,35.375Z" transform="translate(-12.8 2.251)"/>
      </g>
    </g>
  </g>
</svg>
