<svg xmlns="http://www.w3.org/2000/svg" xmlns:xlink="http://www.w3.org/1999/xlink" width="295" height="238" viewBox="0 0 295 238">
  <defs>
    <clipPath id="clip-path">
      <rect id="Rectángulo_421291" data-name="Rectángulo 421291" width="295" height="238" transform="translate(180 4174)" fill="#fff" stroke="#707070" stroke-width="1"/>
    </clipPath>
  </defs>
  <g id="Enmascarar_grupo_1211477" data-name="Enmascarar grupo 1211477" transform="translate(-180 -4174)" clip-path="url(#clip-path)">
    <g id="Grupo_1220664" data-name="Grupo 1220664">
      <rect id="Rectángulo_421290" data-name="Rectángulo 421290" width="262" height="111" rx="15" transform="translate(201 4265)" fill="#899e78"/>
      <g id="Grupo_1220663" data-name="Grupo 1220663" transform="translate(-5957.992 5606.526)">
        <ellipse id="Elipse_14465" data-name="Elipse 14465" cx="135.563" cy="5.938" rx="135.563" ry="5.938" transform="translate(6149.73 -1239.401)" fill="#cfd7c8"/>
        <path id="Trazado_1169651" data-name="Trazado 1169651" d="M1917.914,1213.267c-1.545-1.934-3.722-3.533-4.36-5.926-.753-2.824.906-5.8.494-8.693-.516-3.644-4.024-6-5.93-9.152-1.865-3.082-.992-4.12-1.161-7.718-.256-5.422-4.7-12.27-10.63-10.433-6.018,1.867-5.036,7.459-3.975,11.668.754,3,.262,3.427-.471,6.43-.886,3.626-3.741,7.13-2.547,10.669.739,2.189,2.884,3.665,3.659,5.838.879,2.464-.186,5.137-.6,7.72-.864,5.44.375,9.964,4.327,14.456a15.59,15.59,0,0,0,1.323,1.126c5.535-.312,11.766-.6,18.594-.86l.05-.053C1920.309,1224.39,1921.389,1217.616,1917.914,1213.267Z" transform="translate(4280.051 -2466.35)" fill="#dbe5f2" fill-rule="evenodd"/>
        <path id="Trazado_1169652" data-name="Trazado 1169652" d="M1917.451,1196.921a.476.476,0,0,0-.889.341,34.152,34.152,0,0,1,1.2,3.856c-.136-.123-.276-.243-.423-.36a10.9,10.9,0,0,0-2.2-1.361.476.476,0,0,0-.406.86,10.054,10.054,0,0,1,2.01,1.24,8.054,8.054,0,0,1,1.448,1.5c.609,2.9,1.005,6.022,1.363,9.312a16.749,16.749,0,0,0-1.763-2.3,12.332,12.332,0,0,0-3.608-2.751.474.474,0,0,0-.421.85,11.394,11.394,0,0,1,3.33,2.546,17.777,17.777,0,0,1,2.709,4.006l.092.892c.2,1.961.411,3.973.654,6.026a.334.334,0,0,0,.008.06c.257,2.146.555,4.339.935,6.568a27.327,27.327,0,0,0-3.317-4.207,20.19,20.19,0,0,0-5.708-4.176.475.475,0,0,0-.411.856,19.12,19.12,0,0,1,5.437,3.981,28.5,28.5,0,0,1,4.492,6.23,77.834,77.834,0,0,0,2.321,9h0l0,.014h0c.486,1.492,1.03,2.991,1.643,4.5a27.409,27.409,0,0,0-11.835-5.982.476.476,0,1,0-.216.927,26.73,26.73,0,0,1,7.008,2.681,27.376,27.376,0,0,1,5.963,4.513q.632,1.4,1.352,2.813l1.045-.046a63.328,63.328,0,0,1-4.04-9.654,18.3,18.3,0,0,1,.826-6.956,25.446,25.446,0,0,1,3.617-7.061.474.474,0,1,0-.773-.55,26.41,26.41,0,0,0-3.747,7.326,19.908,19.908,0,0,0-.844,4.166,100.7,100.7,0,0,1-2.8-14.99,29.894,29.894,0,0,1,1.871-5.17,11.159,11.159,0,0,1,2.231-3.242.475.475,0,1,0-.653-.691,12.1,12.1,0,0,0-2.435,3.517,26.139,26.139,0,0,0-1.287,3.205c-.14-1.267-.268-2.52-.4-3.751l-.1-.957a.252.252,0,0,0-.006-.054c-.678-6.529-1.359-12.471-3.289-17.518Z" transform="translate(4261.663 -2487.028)" fill="#fff" fill-rule="evenodd"/>
        <path id="Trazado_1169653" data-name="Trazado 1169653" d="M1832.694,1303.7c-1.651-.889-3.64-1.359-4.792-2.836-1.362-1.746-1.088-4.308-2.231-6.2-1.44-2.385-4.584-2.991-6.843-4.618-2.212-1.6-1.911-2.575-3.1-5.032-1.786-3.7-6.912-7.153-10.5-4.118-3.638,3.082-1.3,6.688.687,9.306,1.413,1.863,1.2,2.309,1.576,4.618.457,2.788-.492,6.075,1.386,8.185,1.162,1.3,3.095,1.7,4.28,2.983,1.342,1.455,1.392,3.632,1.873,5.553a12.377,12.377,0,0,0,3.506,6.256c4.743-.358,10.318-.693,16.608-1a9.34,9.34,0,0,0,1.157-2.236c1.35-3.822.094-8.861-3.615-10.858Z" transform="translate(4349.357 -2554.228)" fill="#c4ddf7" fill-rule="evenodd"/>
        <path id="Trazado_1169654" data-name="Trazado 1169654" d="M1825.544,1298.914a.36.36,0,1,0-.517.5,25.724,25.724,0,0,1,1.98,2.328c-.132-.044-.264-.088-.4-.126a8.4,8.4,0,0,0-1.934-.294.36.36,0,0,0-.029.719,7.628,7.628,0,0,1,1.769.27,6.1,6.1,0,0,1,1.453.615c1.283,1.84,2.483,3.9,3.709,6.083a12.918,12.918,0,0,0-1.911-1.084,9.386,9.386,0,0,0-3.328-.848.359.359,0,1,0-.042.716,8.631,8.631,0,0,1,3.071.789,13.465,13.465,0,0,1,3.075,1.987l.329.6c.722,1.306,1.463,2.646,2.242,4,.008.013.015.025.023.038.816,1.417,1.672,2.857,2.6,4.3a20.594,20.594,0,0,0-3.557-1.948,15.182,15.182,0,0,0-5.214-1.218.36.36,0,0,0-.03.72,14.5,14.5,0,0,1,4.965,1.16,21.528,21.528,0,0,1,4.974,3.01,58.834,58.834,0,0,0,4.283,5.583h0l.005.008h0q1.169,1.341,2.476,2.646a20.745,20.745,0,0,0-10.018-.659.36.36,0,1,0,.125.708,20.2,20.2,0,0,1,5.676-.208,20.555,20.555,0,0,1,5.491,1.378q.936.865,1.949,1.7l1.072-.056a47.88,47.88,0,0,1-6.205-5.958,13.83,13.83,0,0,1-1.484-5.088,19.178,19.178,0,0,1,.427-5.991.36.36,0,0,0-.7-.153,19.984,19.984,0,0,0-.439,6.213,15.176,15.176,0,0,0,.643,3.152,76.409,76.409,0,0,1-6.389-9.614,22.863,22.863,0,0,1-.228-4.155,8.459,8.459,0,0,1,.594-2.92.359.359,0,1,0-.659-.287,9.208,9.208,0,0,0-.654,3.173,19.645,19.645,0,0,0,.053,2.614c-.475-.842-.934-1.676-1.388-2.495l-.352-.638-.019-.035c-2.407-4.346-4.641-8.283-7.483-11.228Z" transform="translate(4332.402 -2569.65)" fill="#fff" fill-rule="evenodd"/>
        <path id="Trazado_1169655" data-name="Trazado 1169655" d="M2910.951,1187.4c1.689-2.112,4.061-3.858,4.758-6.47.824-3.082-.987-6.326-.54-9.485.563-3.975,4.393-6.552,6.472-9.987,2.036-3.366,1.08-4.5,1.268-8.425.279-5.918,5.134-13.388,11.6-11.385,6.566,2.037,5.493,8.14,4.338,12.733-.824,3.27-.286,3.739.515,7.015.967,3.958,4.082,7.781,2.78,11.641-.806,2.386-3.146,4-3.993,6.372-.958,2.687.2,5.6.65,8.423.942,5.938-.41,10.874-4.722,15.776a17.016,17.016,0,0,1-1.635,1.371c-5.964-.3-12.622-.58-19.861-.827-.1-.1-.2-.207-.3-.312-3.946-4.31-5.123-11.7-1.334-16.446Z" transform="translate(3455.682 -2442.316)" fill="#dbe5f2" fill-rule="evenodd"/>
        <path id="Trazado_1169656" data-name="Trazado 1169656" d="M2971.438,1169.566a.52.52,0,0,1,.971.371,37.547,37.547,0,0,0-1.314,4.207q.225-.2.46-.393a12.094,12.094,0,0,1,2.4-1.484.519.519,0,1,1,.443.938,11.013,11.013,0,0,0-2.193,1.354,8.871,8.871,0,0,0-1.581,1.635c-.663,3.165-1.1,6.572-1.488,10.162a18.441,18.441,0,0,1,1.924-2.514,13.523,13.523,0,0,1,3.935-3,.518.518,0,0,1,.461.929,12.442,12.442,0,0,0-3.632,2.779,19.446,19.446,0,0,0-2.958,4.371l-.1.975c-.22,2.139-.448,4.333-.715,6.575a.373.373,0,0,1-.008.065c-.279,2.342-.606,4.735-1.018,7.167a29.794,29.794,0,0,1,3.619-4.592,21.931,21.931,0,0,1,6.229-4.555.518.518,0,1,1,.45.934,20.96,20.96,0,0,0-5.936,4.345,31.206,31.206,0,0,0-4.9,6.8,84.959,84.959,0,0,1-2.532,9.823h0l0,.013h0q-.792,2.444-1.792,4.906a29.967,29.967,0,0,1,12.917-6.528.519.519,0,1,1,.236,1.011,29.226,29.226,0,0,0-7.648,2.925,29.832,29.832,0,0,0-6.506,4.927q-.735,1.638-1.582,3.278l-1.147-.044a69.074,69.074,0,0,0,4.521-10.751,19.96,19.96,0,0,0-.9-7.588,27.8,27.8,0,0,0-3.944-7.707.518.518,0,1,1,.844-.6,28.839,28.839,0,0,1,4.087,7.994,21.73,21.73,0,0,1,.923,4.547,109.625,109.625,0,0,0,3.05-16.36,32.559,32.559,0,0,0-2.041-5.643,12.267,12.267,0,0,0-2.434-3.54.518.518,0,0,1,.711-.753,13.217,13.217,0,0,1,2.659,3.839,28.842,28.842,0,0,1,1.4,3.5c.151-1.384.292-2.749.433-4.094l.106-1.045a.547.547,0,0,1,.006-.059c.739-7.125,1.483-13.608,3.59-19.119Z" transform="translate(3415.768 -2464.889)" fill="#fff" fill-rule="evenodd"/>
        <path id="Trazado_1169657" data-name="Trazado 1169657" d="M2992.34,1286.089c1.8-.971,3.971-1.482,5.231-3.1,1.487-1.9,1.187-4.7,2.436-6.767,1.57-2.6,5-3.263,7.468-5.04,2.414-1.741,2.085-2.811,3.377-5.491,1.948-4.04,7.542-7.807,11.454-4.494,3.969,3.364,1.415,7.3-.751,10.156-1.542,2.033-1.308,2.522-1.719,5.039-.5,3.042.538,6.631-1.512,8.934-1.27,1.425-3.376,1.854-4.668,3.255-1.465,1.589-1.52,3.963-2.043,6.06a13.467,13.467,0,0,1-3.91,6.9c-5.179-.352-11.188-.678-17.9-.975a10.254,10.254,0,0,1-1.4-2.634c-1.474-4.17-.1-9.669,3.942-11.851Z" transform="translate(3391.661 -2538.222)" fill="#c4ddf7" fill-rule="evenodd"/>
        <path id="Trazado_1169658" data-name="Trazado 1169658" d="M3035.992,1280.874a.393.393,0,1,1,.565.546,27.941,27.941,0,0,0-2.161,2.543c.142-.05.289-.1.437-.138a9.146,9.146,0,0,1,2.11-.323.393.393,0,0,1,.03.785,8.533,8.533,0,0,0-1.93.293,6.638,6.638,0,0,0-1.585.672c-1.4,2.01-2.711,4.253-4.046,6.636a13.848,13.848,0,0,1,2.085-1.179,10.2,10.2,0,0,1,3.631-.925.392.392,0,1,1,.045.783,9.394,9.394,0,0,0-3.353.858,14.725,14.725,0,0,0-3.357,2.168l-.357.647c-.787,1.424-1.6,2.887-2.446,4.369a.219.219,0,0,1-.025.042c-.888,1.549-1.824,3.119-2.831,4.689a22.61,22.61,0,0,1,3.881-2.125,16.567,16.567,0,0,1,5.688-1.327.393.393,0,0,1,.037.785,15.839,15.839,0,0,0-5.421,1.268,23.516,23.516,0,0,0-5.428,3.285,64.581,64.581,0,0,1-4.673,6.091h0l-.009.008h0q-1.278,1.465-2.7,2.887a22.63,22.63,0,0,1,10.931-.72.393.393,0,1,1-.136.773,22.057,22.057,0,0,0-6.194-.23,22.6,22.6,0,0,0-5.992,1.5q-1.113,1.028-2.322,2.02l-1.183-.056a52.318,52.318,0,0,0,6.981-6.667,15.123,15.123,0,0,0,1.622-5.553,21.008,21.008,0,0,0-.465-6.537.392.392,0,1,1,.766-.168,21.836,21.836,0,0,1,.48,6.778,16.518,16.518,0,0,1-.7,3.441,83.419,83.419,0,0,0,6.972-10.491,24.6,24.6,0,0,0,.248-4.536,9.18,9.18,0,0,0-.646-3.186.393.393,0,1,1,.72-.314,10.018,10.018,0,0,1,.714,3.464,21.941,21.941,0,0,1-.06,2.853c.518-.921,1.019-1.829,1.514-2.723l.385-.7c.006-.014.014-.025.021-.038,2.625-4.745,5.064-9.042,8.164-12.253Z" transform="translate(3374.313 -2555.057)" fill="#fff" fill-rule="evenodd"/>
        <path id="Trazado_1169659" data-name="Trazado 1169659" d="M2411.476,679.04c-.484,6.659-1.469,7.577-7.816,8.09,6.349.513,7.332,1.43,7.816,8.09.484-6.659,1.469-7.577,7.816-8.09-6.349-.513-7.332-1.432-7.816-8.09Zm25.806,17.564c-.258,3.556-.783,4.046-4.172,4.32,3.389.273,3.914.764,4.172,4.319.261-3.555.785-4.046,4.173-4.319-3.389-.274-3.914-.764-4.173-4.32Zm-11.3-27.364c-.263,3.6-.8,4.1-4.226,4.373,3.433.278,3.963.775,4.226,4.375.262-3.6.792-4.1,4.225-4.375C2426.775,673.338,2426.242,672.84,2425.982,669.24Z" transform="translate(3863.973 -2060.631)" fill="#fff" fill-rule="evenodd"/>
        <path id="Trazado_1169660" data-name="Trazado 1169660" d="M2293.049,1257.1c.392,5.4,1.189,6.139,6.332,6.554-5.143.416-5.938,1.16-6.332,6.554-.4-5.394-1.189-6.139-6.334-6.554,5.145-.416,5.939-1.158,6.334-6.554Zm-20.909,14.229c.211,2.88.634,3.276,3.381,3.5-2.748.222-3.17.62-3.381,3.5-.211-2.88-.634-3.276-3.379-3.5,2.745-.222,3.17-.619,3.379-3.5Zm9.156-22.169c.213,2.918.643,3.318,3.423,3.544-2.78.224-3.211.626-3.423,3.542-.213-2.916-.642-3.318-3.424-3.542C2280.654,1252.478,2281.085,1252.076,2281.3,1249.16Z" transform="translate(3973.043 -2529.512)" fill="#fff" fill-rule="evenodd"/>
        <path id="Trazado_1169661" data-name="Trazado 1169661" d="M2804.268,1195.508c-.3,4.13-.91,4.7-4.849,5.019,3.939.318,4.548.888,4.849,5.018.3-4.13.909-4.7,4.848-5.018-3.939-.318-4.548-.889-4.848-5.019Zm16.007,10.893c-.161,2.206-.487,2.51-2.589,2.681,2.1.169,2.428.473,2.589,2.681.161-2.206.486-2.51,2.588-2.681-2.1-.168-2.428-.475-2.588-2.681Zm-7.011-16.97c-.162,2.233-.491,2.541-2.62,2.713,2.129.172,2.458.481,2.62,2.713.163-2.233.492-2.541,2.623-2.713C2813.757,1191.971,2813.429,1191.663,2813.265,1189.43Z" transform="translate(3543.991 -2481.218)" fill="#fff" fill-rule="evenodd"/>
        <path id="Trazado_1169662" data-name="Trazado 1169662" d="M2397.188,1268.965c.58,7.954,1.751,9.051,9.334,9.664-7.583.61-8.756,1.71-9.334,9.662-.579-7.952-1.754-9.051-9.334-9.662,7.58-.613,8.756-1.71,9.334-9.664Zm-30.824,20.976c.31,4.247.937,4.833,4.982,5.158-4.047.328-4.674.911-4.982,5.158-.31-4.247-.937-4.831-4.984-5.158,4.049-.327,4.675-.913,4.984-5.158Zm13.5-32.681c.314,4.3.948,4.894,5.047,5.225-4.1.331-4.735.924-5.047,5.225-.314-4.3-.948-4.894-5.05-5.225C2378.915,1262.154,2379.549,1261.561,2379.863,1257.26Z" transform="translate(3898.157 -2536.061)" fill="#fff" fill-rule="evenodd"/>
        <path id="Trazado_1169663" data-name="Trazado 1169663" d="M2309.8,972.933l-149.515.864a5.411,5.411,0,0,1-5.442-5.378l-.582-100.843a5.412,5.412,0,0,1,5.379-5.442l149.517-.863a5.412,5.412,0,0,1,5.442,5.378l.582,100.843a5.409,5.409,0,0,1-5.379,5.442Z" transform="translate(4065.62 -2215.892)" fill="#a3cffb" fill-rule="evenodd"/>
        <path id="Trazado_1169664" data-name="Trazado 1169664" d="M2328.2,992.16l-139.4.8a4.935,4.935,0,0,1-4.963-4.906l-.519-89.962a4.934,4.934,0,0,1,4.906-4.963l139.4-.8a4.934,4.934,0,0,1,4.963,4.906l.519,89.961A4.933,4.933,0,0,1,2328.2,992.16Z" transform="translate(4042.125 -2241.005)" fill="#eef8fb" fill-rule="evenodd"/>
        <path id="Trazado_1169665" data-name="Trazado 1169665" d="M2331.831,897.142l.015,2.552-149.452.861-.016-2.552a5.243,5.243,0,0,1,5.558-5.446l138.27-.8c3.721-.021,5.6,1.836,5.622,5.38Z" transform="translate(4042.885 -2240.543)" fill="#d1e4f6" fill-rule="evenodd"/>
        <path id="Trazado_1169666" data-name="Trazado 1169666" d="M2858.222,906.342a1.506,1.506,0,1,1-1.515-1.5,1.5,1.5,0,0,1,1.515,1.5Zm10.824-.063a1.507,1.507,0,1,1-1.515-1.5,1.5,1.5,0,0,1,1.515,1.5h0Zm-5.411.031a1.508,1.508,0,1,1-1.517-1.5A1.508,1.508,0,0,1,2863.635,906.31Z" transform="translate(3498.882 -2251.071)" fill="#fff" fill-rule="evenodd"/>
        <path id="Trazado_1169667" data-name="Trazado 1169667" d="M1954.94,1416.15h198.293v5.788a5.8,5.8,0,0,1-5.786,5.786h-186.72a5.8,5.8,0,0,1-5.786-5.786Z" transform="translate(4226.775 -2664.528)" fill="#93bafb" fill-rule="evenodd"/>
        <path id="Trazado_1169668" data-name="Trazado 1169668" d="M2279.332,650.62l34.067,30.2,34.065,30.2H2211.2l34.066-30.2Z" transform="translate(4019.582 -2045.576)" fill="#8ab9e8" fill-rule="evenodd"/>
        <path id="Trazado_1169669" data-name="Trazado 1169669" d="M2358.665,707.11l-49.345,43.752h98.689Z" transform="translate(3940.25 -2091.25)" fill="#badaf9" fill-rule="evenodd"/>
        <rect id="Rectángulo_421264" data-name="Rectángulo 421264" width="85.629" height="62.866" transform="translate(6256.099 -1334.548)" fill="#badaf9"/>
        <rect id="Rectángulo_421265" data-name="Rectángulo 421265" width="16.319" height="62.866" transform="translate(6290.755 -1334.548)" fill="#a3cffb"/>
        <rect id="Rectángulo_421266" data-name="Rectángulo 421266" width="16.319" height="62.866" transform="translate(6325.408 -1334.548)" fill="#a3cffb"/>
        <rect id="Rectángulo_421267" data-name="Rectángulo 421267" width="16.319" height="62.866" transform="translate(6255.519 -1334.548)" fill="#a3cffb"/>
        <rect id="Rectángulo_421268" data-name="Rectángulo 421268" width="130.269" height="10.613" transform="translate(6233.781 -1271.68)" fill="#8ab9e8"/>
        <rect id="Rectángulo_421269" data-name="Rectángulo 421269" width="155.244" height="12.8" transform="translate(6221.293 -1261.068)" fill="#619fdf"/>
        <path id="Trazado_1169670" data-name="Trazado 1169670" d="M2158.737,642.42a22.989,22.989,0,1,1-16.252,6.732,22.909,22.909,0,0,1,16.252-6.732Zm12.226,10.761a17.288,17.288,0,1,0,5.063,12.224A17.233,17.233,0,0,0,2170.962,653.181Z" transform="translate(4080.586 -2038.946)" fill="#fb9674" fill-rule="evenodd"/>
        <path id="Trazado_1169671" data-name="Trazado 1169671" d="M2216.953,711.757a4.071,4.071,0,0,0,1.1,1.612,4.533,4.533,0,0,0,3.052.969,4.673,4.673,0,0,0,3.061-.862,2.571,2.571,0,0,0,1.032-2.014,1.927,1.927,0,0,0-.435-1.266,3.432,3.432,0,0,0-1.512-.9c-.493-.176-1.611-.477-3.363-.915a11.4,11.4,0,0,1-4.746-2.078,5.539,5.539,0,0,1-1.015-7.219,5.661,5.661,0,0,1,2.6-2.121,9.251,9.251,0,0,1,2.822-.674v-2.34h3.575v2.458a7.107,7.107,0,0,1,3.608,1.566,5.882,5.882,0,0,1,1.635,2.328l-3.987,1.63a3.056,3.056,0,0,0-.951-1.486,4.185,4.185,0,0,0-2.654-.71,4.8,4.8,0,0,0-2.854.76,1.537,1.537,0,0,0-.668,1.3,1.6,1.6,0,0,0,.628,1.27,10.911,10.911,0,0,0,3.867,1.405,20.376,20.376,0,0,1,4.542,1.5,5.854,5.854,0,0,1,2.305,2.127,6.228,6.228,0,0,1,.831,3.328,6.137,6.137,0,0,1-1,3.366,5.954,5.954,0,0,1-2.823,2.33,9.69,9.69,0,0,1-2.483.639v2.409h-3.575v-2.357a8.06,8.06,0,0,1-4.578-1.756,6.884,6.884,0,0,1-1.907-2.729l3.881-1.585Z" transform="translate(4018.07 -2080.609)" fill="#fb9674" fill-rule="evenodd"/>
        <path id="Trazado_1169672" data-name="Trazado 1169672" d="M2513.543,780.279a4.669,4.669,0,0,0,1.269,1.852,5.2,5.2,0,0,0,3.5,1.112,5.361,5.361,0,0,0,3.516-.99,2.953,2.953,0,0,0,1.185-2.313,2.215,2.215,0,0,0-.5-1.453,3.947,3.947,0,0,0-1.737-1.034c-.565-.2-1.85-.548-3.862-1.051a13.08,13.08,0,0,1-5.451-2.386,6.359,6.359,0,0,1-1.166-8.289,6.5,6.5,0,0,1,2.991-2.438,10.623,10.623,0,0,1,3.242-.773V759.83h4.106v2.824a8.156,8.156,0,0,1,4.143,1.8,6.763,6.763,0,0,1,1.878,2.675l-4.58,1.87a3.492,3.492,0,0,0-1.093-1.706,4.818,4.818,0,0,0-3.048-.818,5.518,5.518,0,0,0-3.28.873,1.765,1.765,0,0,0-.766,1.5,1.841,1.841,0,0,0,.721,1.459,12.528,12.528,0,0,0,4.443,1.614,23.286,23.286,0,0,1,5.216,1.727,6.718,6.718,0,0,1,2.648,2.443,7.156,7.156,0,0,1,.956,3.822,7.059,7.059,0,0,1-1.147,3.868,6.839,6.839,0,0,1-3.242,2.677,11.025,11.025,0,0,1-2.853.734v2.767h-4.105v-2.707a9.255,9.255,0,0,1-5.26-2.018,7.913,7.913,0,0,1-2.19-3.134l4.459-1.821Z" transform="translate(3778.737 -2133.875)" fill="#fff" fill-rule="evenodd"/>
        <path id="Trazado_1169673" data-name="Trazado 1169673" d="M2030.06,1428.88h46.163a3.532,3.532,0,0,1,3.523,3.523v6.2a3.8,3.8,0,0,1-3.783,3.785h-45.9Z" transform="translate(4166.04 -2674.821)" fill="#f2a07f" fill-rule="evenodd"/>
        <rect id="Rectángulo_421270" data-name="Rectángulo 421270" width="42.114" height="11.452" transform="translate(6196.1 -1244.912)" fill="#fff"/>
        <rect id="Rectángulo_421271" data-name="Rectángulo 421271" width="32.143" height="0.927" transform="translate(6201.085 -1239.65)" fill="#f2a07f"/>
        <rect id="Rectángulo_421272" data-name="Rectángulo 421272" width="32.143" height="0.927" transform="translate(6201.085 -1242.513)" fill="#a3cffb"/>
        <rect id="Rectángulo_421273" data-name="Rectángulo 421273" width="32.143" height="0.927" transform="translate(6201.085 -1236.786)" fill="#f2a07f"/>
        <g id="Grupo_1220542" data-name="Grupo 1220542" transform="translate(6165.098 -1257.756)">
          <path id="Trazado_1169674" data-name="Trazado 1169674" d="M1889.453,1401.264l7.986-1.974,10.954,2.763,29.223,1.216v6.152l-29.286,7.236-40.181-10.131v-6.15Z" transform="translate(-1868.15 -1393.14)" fill="#badaf9" fill-rule="evenodd"/>
          <path id="Trazado_1169675" data-name="Trazado 1169675" d="M1879.209,1413.6l-2.079-.525,1.1-6.221h2.171Z" transform="translate(-1875.411 -1399.252)" fill="#619fdf" fill-rule="evenodd"/>
          <path id="Trazado_1169676" data-name="Trazado 1169676" d="M1895.2,1414.368l-2.078-.523,1.229-6.995h2.172Z" transform="translate(-1888.339 -1399.252)" fill="#619fdf" fill-rule="evenodd"/>
          <path id="Trazado_1169677" data-name="Trazado 1169677" d="M2035.409,1452.959l-2.079-.523,1.1-6.227h2.171Z" transform="translate(-2001.703 -1431.076)" fill="#619fdf" fill-rule="evenodd"/>
          <path id="Trazado_1169678" data-name="Trazado 1169678" d="M2050.6,1453.693l-2.079-.523,1.223-6.96h2.172Z" transform="translate(-2013.984 -1431.076)" fill="#619fdf" fill-rule="evenodd"/>
          <path id="Trazado_1169679" data-name="Trazado 1169679" d="M2102.221,1419.13l4.329.18v6.152l-29.285,7.236-.174-.044v-7.042Z" transform="translate(-2037.084 -1409.181)" fill="#e8edf7" fill-rule="evenodd"/>
          <path id="Trazado_1169680" data-name="Trazado 1169680" d="M1868.15,1374.406l29.29-7.236,40.177,10.129-29.286,7.238Z" transform="translate(-1868.15 -1367.17)" fill="#a3cffb" fill-rule="evenodd"/>
          <path id="Trazado_1169681" data-name="Trazado 1169681" d="M1923.568,1433.492l17.953,4.281a.829.829,0,0,1,.574.685h0a.365.365,0,0,1-.461.437l-17.953-4.279a.824.824,0,0,1-.574-.685h0A.366.366,0,0,1,1923.568,1433.492Z" transform="translate(-1912.581 -1420.782)" fill="#619fdf" fill-rule="evenodd"/>
        </g>
        <g id="Grupo_1220543" data-name="Grupo 1220543" transform="translate(6181.462 -1268.143)">
          <path id="Trazado_1169682" data-name="Trazado 1169682" d="M1974.922,1347.024l7.986-1.974,10.956,2.761,29.223,1.218v6.15l-29.288,7.238-40.179-10.131v-6.15Z" transform="translate(-1953.62 -1338.898)" fill="#ffb17d" fill-rule="evenodd"/>
          <path id="Trazado_1169683" data-name="Trazado 1169683" d="M1964.678,1359.356l-2.077-.525,1.1-6.221h2.172Z" transform="translate(-1960.881 -1345.01)" fill="#f2a07f" fill-rule="evenodd"/>
          <path id="Trazado_1169684" data-name="Trazado 1169684" d="M1980.659,1360.127l-2.079-.523,1.231-6.995h2.169Z" transform="translate(-1973.801 -1345.01)" fill="#f2a07f" fill-rule="evenodd"/>
          <path id="Trazado_1169685" data-name="Trazado 1169685" d="M2120.878,1398.727l-2.077-.523,1.1-6.225h2.169Z" transform="translate(-2087.173 -1376.842)" fill="#f2a07f" fill-rule="evenodd"/>
          <path id="Trazado_1169686" data-name="Trazado 1169686" d="M2136.059,1399.461l-2.079-.523,1.226-6.958h2.169Z" transform="translate(-2099.446 -1376.842)" fill="#f2a07f" fill-rule="evenodd"/>
          <path id="Trazado_1169687" data-name="Trazado 1169687" d="M2187.681,1364.89l4.331.18v6.15l-29.287,7.238-.174-.044v-7.042Z" transform="translate(-2122.546 -1354.939)" fill="#e8edf7" fill-rule="evenodd"/>
          <path id="Trazado_1169688" data-name="Trazado 1169688" d="M1953.62,1320.158l29.288-7.237,40.179,10.131-29.288,7.238Z" transform="translate(-1953.62 -1312.92)" fill="#ef8161" fill-rule="evenodd"/>
          <path id="Trazado_1169689" data-name="Trazado 1169689" d="M2009.031,1379.252l17.953,4.279a.829.829,0,0,1,.574.685h0c.031.31-.176.508-.463.439l-17.951-4.281a.83.83,0,0,1-.576-.686h0A.366.366,0,0,1,2009.031,1379.252Z" transform="translate(-1998.044 -1366.54)" fill="#f2a07f" fill-rule="evenodd"/>
        </g>
        <g id="Grupo_1220544" data-name="Grupo 1220544" transform="translate(6169.947 -1277.753)">
          <path id="Trazado_1169690" data-name="Trazado 1169690" d="M1914.781,1296.814l7.987-1.974,10.956,2.763,29.225,1.22v6.148l-29.29,7.238-40.179-10.131v-6.15Z" transform="translate(-1893.48 -1288.692)" fill="#ffb17d" fill-rule="evenodd"/>
          <path id="Trazado_1169691" data-name="Trazado 1169691" d="M1904.548,1309.148l-2.077-.525,1.093-6.223h2.169Z" transform="translate(-1900.749 -1294.804)" fill="#f2a07f" fill-rule="evenodd"/>
          <path id="Trazado_1169692" data-name="Trazado 1169692" d="M1920.528,1309.919l-2.078-.525,1.229-6.995h2.171Z" transform="translate(-1913.669 -1294.804)" fill="#f2a07f" fill-rule="evenodd"/>
          <path id="Trazado_1169693" data-name="Trazado 1169693" d="M2060.74,1348.52l-2.079-.525,1.1-6.225h2.171Z" transform="translate(-2027.033 -1326.636)" fill="#f2a07f" fill-rule="evenodd"/>
          <path id="Trazado_1169694" data-name="Trazado 1169694" d="M2075.927,1349.253l-2.077-.525,1.224-6.958h2.171Z" transform="translate(-2039.314 -1326.636)" fill="#f2a07f" fill-rule="evenodd"/>
          <path id="Trazado_1169695" data-name="Trazado 1169695" d="M2127.541,1314.69l4.333.182v6.148l-29.289,7.238-.174-.044v-7.042Z" transform="translate(-2062.406 -1304.741)" fill="#e8edf7" fill-rule="evenodd"/>
          <path id="Trazado_1169696" data-name="Trazado 1169696" d="M1893.48,1269.966l29.288-7.236,40.181,10.131-29.29,7.234Z" transform="translate(-1893.48 -1262.73)" fill="#ef8161" fill-rule="evenodd"/>
          <path id="Trazado_1169697" data-name="Trazado 1169697" d="M1948.89,1329.042l17.95,4.281a.832.832,0,0,1,.576.685h0c.031.31-.176.508-.464.439L1949,1330.166a.829.829,0,0,1-.574-.685h0A.367.367,0,0,1,1948.89,1329.042Z" transform="translate(-1937.903 -1316.334)" fill="#f2a07f" fill-rule="evenodd"/>
        </g>
        <path id="Trazado_1169698" data-name="Trazado 1169698" d="M2288.741,1044.254h0a.679.679,0,0,1,.911.3l4.657,9.271-1.216.611-4.657-9.271a.681.681,0,0,1,.3-.911Z" transform="translate(3957.194 -2363.781)" fill="#f4a86c" fill-rule="evenodd"/>
        <path id="Trazado_1169699" data-name="Trazado 1169699" d="M2290.8,1044.186a.681.681,0,0,1,.676.372l4.655,9.271-.781.394-4.657-9.273A.679.679,0,0,1,2290.8,1044.186Z" transform="translate(3955.367 -2363.782)" fill="#e3c285" fill-rule="evenodd"/>
        <path id="Trazado_1169700" data-name="Trazado 1169700" d="M2313.06,1095.155l1.224-.615.762,3.071Z" transform="translate(3937.226 -2404.497)" fill="#f4d1b7" fill-rule="evenodd"/>
        <path id="Trazado_1169701" data-name="Trazado 1169701" d="M2318.093,1101.22l.444,1.794-1.157-1.432a1.818,1.818,0,0,1,.343-.22,1.838,1.838,0,0,1,.37-.14Z" transform="translate(3933.733 -2409.898)" fill="#f4a86c" fill-rule="evenodd"/>
        <path id="Trazado_1169702" data-name="Trazado 1169702" d="M2306.958,1440.2a4.118,4.118,0,0,1-2.943-.678q-.98-.164-1,1.811-1.826,2.346-.007,3.067a21.3,21.3,0,0,1,4.427.693q6.39,2.3,8.306-.752-.374-1.841-2.544-1.076a9.105,9.105,0,0,1-4.507-4.443Q2307.624,1438.392,2306.958,1440.2Z" transform="translate(3946.086 -2682.793)" fill="#222d4c" fill-rule="evenodd"/>
        <path id="Trazado_1169703" data-name="Trazado 1169703" d="M2266.582,1448.223a4.126,4.126,0,0,1-2.981-.471q-.988-.1-.871,1.876-1.66,2.467.205,3.062a21.431,21.431,0,0,1,4.465.385c3.086.6,5.579,1.335,7.63.272,3.148-1.631-.29-2.853-2.593-2.348-.831.182-1.556-.8-2.261-1.3-.952-.674-1.532-2.181-1.961-2.962q-1.091-.359-1.631,1.492Z" transform="translate(3978.551 -2689.208)" fill="#222d4c" fill-rule="evenodd"/>
        <path id="Trazado_1169704" data-name="Trazado 1169704" d="M2177.916,1248.81a3.992,3.992,0,0,0-.6.256c-1.8.967.6,4.781.564,5.011l5.548,1.318a24.023,24.023,0,0,1,17.267,11.083,162.073,162.073,0,0,1,1.083,17.491c1.451-4.591,2.942-15.111,1.662-17.355-9.946-17.462-23.972-9.811-25.439-15.549-1.03-.245.726-2.156-.08-2.254Z" transform="translate(4047.52 -2529.229)" fill="#275093" fill-rule="evenodd"/>
        <path id="Trazado_1169705" data-name="Trazado 1169705" d="M2151.886,1256.48c-8.546-2.03-8.931,1.57-8.931,1.57q-3,16.443,11.548,13.2c6.206-.561,8.906-.829,11.243-.015-.527,8.034.793,14.732.81,19.3l5.838.126q2.031-17.132,2.029-17.131c2.175-12.875-18.044-10.521-22.538-17.053Z" transform="translate(4075.174 -2534.928)" fill="#2b478a" fill-rule="evenodd"/>
        <path id="Trazado_1169706" data-name="Trazado 1169706" d="M2274.288,1440.071a8.533,8.533,0,0,0-.058-2.981l3.255.071a6.856,6.856,0,0,0-.571,2.424,2.484,2.484,0,0,0-.387.839,3.048,3.048,0,0,1-2.206-.35h-.034Z" transform="translate(3968.621 -2681.458)" fill="#ffb17d" fill-rule="evenodd"/>
        <path id="Trazado_1169707" data-name="Trazado 1169707" d="M2186.444,1246.379c.749.45-6.426-.779-9.129.672-1.8.967.6,4.781.564,5.011l5.548,1.319c7.565,1.132,15.29,4.53,18.879,10.4.2.063-.551,16.83-.543,18.981l5.838.126a77.942,77.942,0,0,0-.486-21.175c-.879-10.452-19.532-6.227-20.67-15.331Z" transform="translate(4047.52 -2527.213)" fill="#2b478a" fill-rule="evenodd"/>
        <path id="Trazado_1169708" data-name="Trazado 1169708" d="M2316.455,1438.4a8.09,8.09,0,0,0-.015-1.576l2.82.062a6.586,6.586,0,0,0-.209.955,2.036,2.036,0,0,0-.593.946,3.146,3.146,0,0,1-2-.385Z" transform="translate(3934.493 -2681.24)" fill="#ffb17d" fill-rule="evenodd"/>
        <path id="Trazado_1169709" data-name="Trazado 1169709" d="M2273.8,1061.956a19.749,19.749,0,0,0,2.757-2.871,6.392,6.392,0,0,0-.025-3.6s.219-.515.7.015a5.786,5.786,0,0,1,.689,2.214,23.657,23.657,0,0,1,4.023-1.593c.708-.193.921-.23,1.181-.084.157.088.489.5-.1.71a12.077,12.077,0,0,0-2.518,1.218s.372-.065.531.458a.8.8,0,0,1-.228.734.592.592,0,0,1,.383.35.557.557,0,0,1-.14.611s.312.45.015.758a9.281,9.281,0,0,1-2.238,1.193,2.619,2.619,0,0,1-1.76,0l-1.7,1.472-1.564-1.583Z" transform="translate(3968.968 -2372.736)" fill="#ffb17d" fill-rule="evenodd"/>
        <path id="Trazado_1169710" data-name="Trazado 1169710" d="M2270.34,1084.531a11.781,11.781,0,0,1,1.147-.831l1.842,2.828-1.237.975-1.752-2.97Z" transform="translate(3971.766 -2395.733)" fill="#4f8dcb" fill-rule="evenodd"/>
        <path id="Trazado_1169711" data-name="Trazado 1169711" d="M2193.995,1114.365c-.492.014-.226.548-.69,1.446-1.209,2.346,4.625,8.274,8.5,12.356,2,2.114,3.989,2.9,5.354,2.372a2.773,2.773,0,0,0,.78-4.385,101.468,101.468,0,0,0-7.879-8.415c-1.773-1.83-3.978-3.426-6.061-3.374Z" transform="translate(4034.182 -2420.525)" fill="#4f8dcb" fill-rule="evenodd"/>
        <path id="Trazado_1169712" data-name="Trazado 1169712" d="M2174.891,1111.348a31.18,31.18,0,0,0-4.264-2.979l-.013.662c-.029,1.379-.433,2.82-1.536,2.8-1.134-.025-3.64-1.528-3.611-2.907l.013-.663a2.438,2.438,0,0,0-1.187.572l-.3,29.016a35.114,35.114,0,0,0,6.4-.931c3.485-.764,4.411-2.417,4.411-2.417l.088-23.151Z" transform="translate(4057.753 -2415.59)" fill="#e8edf7" fill-rule="evenodd"/>
        <path id="Trazado_1169713" data-name="Trazado 1169713" d="M2186.323,1130.163l.748-2.636-1.426-.886-1.294,1.365,1.16,2.215s.35,4.327.462,8.3c.109,3.839.405,9.174.405,9.174l2.086,2.673.858-3.581s-.82-4.812-1.143-6.891c-.952-6.087-1.854-9.736-1.854-9.736Z" transform="translate(4041.291 -2430.451)" fill="#4f8dcb" fill-rule="evenodd"/>
        <path id="Trazado_1169714" data-name="Trazado 1169714" d="M2198.108,1130.394l.172-3c-.029-.226-.058-.452-.088-.676l-.17,3.23-1.046-1.507-.076.266Z" transform="translate(4031.144 -2430.516)" fill="#e8edf7" fill-rule="evenodd"/>
        <path id="Trazado_1169715" data-name="Trazado 1169715" d="M2178.848,1137.9l.839-1.616-.14-.268-.742,1.336-.714-1.415q.121.471.233.972Z" transform="translate(4046.352 -2437.97)" fill="#a7bac0" fill-rule="evenodd"/>
        <path id="Trazado_1169716" data-name="Trazado 1169716" d="M2187.844,1128.734l.074-.266-1.181-1.7-.016-.016-1.022,1.838.139.268.879-1.691Z" transform="translate(4040.199 -2430.54)" fill="#4a75ca" fill-rule="evenodd"/>
        <path id="Trazado_1169717" data-name="Trazado 1169717" d="M2193.61,1107.786l-1.3-1.026-1.256,3.824,2.242,3.228Z" transform="translate(4035.874 -2414.377)" fill="#e8edf7" fill-rule="evenodd"/>
        <path id="Trazado_1169718" data-name="Trazado 1169718" d="M2174.514,1084.079l-1.664,4.31s1.317,5.861,2.9,5.731c1.331-.115,1.6-4.98,1.6-4.98a13.183,13.183,0,0,1,.358-3.9C2178.194,1084.031,2174.514,1084.079,2174.514,1084.079Z" transform="translate(4050.589 -2396.039)" fill="#ffb17d" fill-rule="evenodd"/>
        <path id="Trazado_1169719" data-name="Trazado 1169719" d="M2165.61,1107.211l1.347-.971,3.523,3.923-1.767,3.178Z" transform="translate(4056.443 -2413.957)" fill="#e8edf7" fill-rule="evenodd"/>
        <path id="Trazado_1169720" data-name="Trazado 1169720" d="M2129.1,1124.526a101.648,101.648,0,0,0,1.992,17.849c1.441,1.114,8.333,2.058,10.977,1.871,0,0-.993-7.785-1.827-15.3-.2-1.779-.26-3.7-.427-4.837a125.867,125.867,0,0,0-3.238-13.88,8.606,8.606,0,0,0-1.514.44c-1.791.747-6.169,1.817-5.962,13.853Z" transform="translate(4085.968 -2417.183)" fill="#4f8dcb" fill-rule="evenodd"/>
        <path id="Trazado_1169721" data-name="Trazado 1169721" d="M2217.161,1250.69a2.462,2.462,0,0,0,.4-.333,33.22,33.22,0,0,1-1.166-3.747,4.423,4.423,0,0,1-.739.689,9.527,9.527,0,0,0,1.237,3.317l.266.074Z" transform="translate(4015.977 -2527.45)" fill="#3b5bb2" fill-rule="evenodd"/>
        <path id="Trazado_1169722" data-name="Trazado 1169722" d="M2206.32,1149.4a4.36,4.36,0,0,0,.739-.689c-.241-.959-.475-2.058-.661-3.247-.264,0-.522,0-.771-.008a39.25,39.25,0,0,0,.691,3.946h0Zm-1.12-8.386.823-.159c-.052-1.194-.322-6.96-.848-10.439-.034-.214-.069-.427-.1-.638s-.076-.41-.116-.6c-.3-1.4-.571-2.635-.793-3.653l-.051.9c.431,3.414.7,7,.812,8.113.084.814.168,4.6.278,6.47Z" transform="translate(4025.314 -2429.554)" fill="#e8edf7" fill-rule="evenodd"/>
        <path id="Trazado_1169723" data-name="Trazado 1169723" d="M2203.739,1124.445l.051-.9c-.034-.163-.069-.32-.1-.471l-.036.7c.031.222.06.448.088.676Z" transform="translate(4025.686 -2427.565)" fill="#e8edf7" fill-rule="evenodd"/>
        <path id="Trazado_1169724" data-name="Trazado 1169724" d="M2201.928,1115.571l.037-.7c-.182-.835-.327-1.494-.427-1.943l-.017.005c.15.818.285,1.714.408,2.637Z" transform="translate(4027.409 -2419.366)" fill="#e8edf7" fill-rule="evenodd"/>
        <path id="Trazado_1169725" data-name="Trazado 1169725" d="M2207.341,1125.988c-1.083,7.766-.258,8.817.9,9.731.45.352-.423,4-2.193,5.114a34.6,34.6,0,0,1-2.259-11.549c-.012-1.658-.151-2.991-.176-3.874a74.479,74.479,0,0,0-2.274-14.469,11.791,11.791,0,0,1,1.5.5c1.683.689,5.97,4.046,4.5,14.546Z" transform="translate(4027.554 -2417.757)" fill="#4f8dcb" fill-rule="evenodd"/>
        <path id="Trazado_1169726" data-name="Trazado 1169726" d="M2203.333,1110.495l-2.523-1.155s.6,2.69,1.478,6.753a105.647,105.647,0,0,1,1.076,11.894l1.589-10.257-1.622-1.438,1.438-1.132-1.438-4.668Z" transform="translate(4027.983 -2416.463)" fill="#c4ddf7" fill-rule="evenodd"/>
        <path id="Trazado_1169727" data-name="Trazado 1169727" d="M2217.586,1212.957a.448.448,0,1,1-.438-.458A.448.448,0,0,1,2217.586,1212.957Z" transform="translate(4015.144 -2499.871)" fill="#334f57" fill-rule="evenodd"/>
        <path id="Trazado_1169728" data-name="Trazado 1169728" d="M2159.225,1123.332l1.038-1.248-1.8-.314c.054.117.108.229.161.345l1.365.235-.781.938c.008.015.016.029.021.042h0Zm-1.4-2.87-.739-3.881.44,3.42c.1.149.2.3.3.462Z" transform="translate(4063.331 -2422.317)" fill="#163560" fill-rule="evenodd"/>
        <path id="Trazado_1169729" data-name="Trazado 1169729" d="M2156.53,1109.6l2.348-.942a34.852,34.852,0,0,1,2.495,8.816c.648,4.639,1.038,10.068,1.038,10.068l-4.252-9.882,1.652-1.986-2.2-.381-1.081-5.694Z" transform="translate(4063.784 -2415.914)" fill="#c4ddf7" fill-rule="evenodd"/>
        <path id="Trazado_1169730" data-name="Trazado 1169730" d="M2184.341,1177.861l-.021-.031h0Z" transform="translate(4041.316 -2471.84)" fill="#acbdc2" fill-rule="evenodd"/>
        <path id="Trazado_1169731" data-name="Trazado 1169731" d="M2170.842,1155.871h0a.1.1,0,0,0-.007-.014h0a.075.075,0,0,1,.007.014Zm-3.1-5.019h0l-.092-.182h0C2167.681,1150.731,2167.713,1150.793,2167.742,1150.852Z" transform="translate(4054.793 -2449.88)" fill="#192c32" fill-rule="evenodd"/>
        <path id="Trazado_1169732" data-name="Trazado 1169732" d="M2171.311,1156.8h0a43.381,43.381,0,0,1-3.071-4.965h0a43.625,43.625,0,0,0,3.073,4.965Z" transform="translate(4054.316 -2450.826)" fill="#294047" fill-rule="evenodd"/>
        <path id="Trazado_1169733" data-name="Trazado 1169733" d="M2230.19,1221.981l-.111-1.407s-.011-.1-.029-.283a10.191,10.191,0,0,0,.138,1.693Z" transform="translate(4004.341 -2506.169)" fill="#b5bcbd" fill-rule="evenodd"/>
        <path id="Trazado_1169734" data-name="Trazado 1169734" d="M2214.11,1205.77l.034-.23-.044.008c.008.142.01.22.01.222h0Z" transform="translate(4017.238 -2494.244)" fill="#253a41" fill-rule="evenodd"/>
        <path id="Trazado_1169735" data-name="Trazado 1169735" d="M2217.191,1213.394a.449.449,0,0,0-.044-.894.365.365,0,0,0-.063,0,.448.448,0,0,0,.044.892C2217.149,1213.4,2217.17,1213.4,2217.191,1213.394Z" transform="translate(4015.144 -2499.872)" fill="#253a41" fill-rule="evenodd"/>
        <path id="Trazado_1169736" data-name="Trazado 1169736" d="M2197.27,1130.774a11.454,11.454,0,0,1,.728-1.214l2.805,1.876-.754,1.381-2.776-2.043Z" transform="translate(4030.845 -2432.812)" fill="#d7e9ee" fill-rule="evenodd"/>
        <path id="Trazado_1169737" data-name="Trazado 1169737" d="M2216.514,1092.3l9.639-8.107,2.336,3.228s-6.685,7.123-8.961,8.693c-2.525,1.741-3.544-.082-3.812-1.442A3.618,3.618,0,0,1,2216.514,1092.3Z" transform="translate(4015.955 -2396.129)" fill="#4f8dcb" fill-rule="evenodd"/>
        <path id="Trazado_1169738" data-name="Trazado 1169738" d="M2144.744,1126.539a60.81,60.81,0,0,0,12.214-.691c4.246-.142,4.158-4.234.306-4.984-2.334-.454-5.032.122-10.657-1.074a5.905,5.905,0,0,0-3.3.213C2141.4,1120.8,2141.356,1126.239,2144.744,1126.539Z" transform="translate(4075.529 -2424.801)" fill="#4f8dcb" fill-rule="evenodd"/>
        <path id="Trazado_1169739" data-name="Trazado 1169739" d="M2184.279,1092.52c.406-1.239-3.264-.967-3.264-.967l-.115.364a2.063,2.063,0,0,0,.285.693,4.731,4.731,0,0,0,2.876,1.876A7.072,7.072,0,0,1,2184.279,1092.52Z" transform="translate(4044.081 -2402.062)" fill="#ffb17d" fill-rule="evenodd"/>
        <path id="Trazado_1169740" data-name="Trazado 1169740" d="M2179.885,1053.671c-.092-.052-1.6,5.011-.5,6.646s3.63,2.5,4.739,1.528a4.111,4.111,0,0,0,1.338-3.747c-.377-1.88-.117-3.7-1.137-4.695-1.84-1.785-4.442.27-4.442.27Z" transform="translate(4045.631 -2370.647)" fill="#ffb17d" fill-rule="evenodd"/>
        <path id="Trazado_1169741" data-name="Trazado 1169741" d="M2182.613,1074.271c-.088.634-.46,1.109-.825,1.051s-.6-.605-.508-1.237.458-1.1.825-1.051.594.6.506,1.237Z" transform="translate(4043.789 -2387.106)" fill="#ffb17d" fill-rule="evenodd"/>
        <path id="Trazado_1169742" data-name="Trazado 1169742" d="M2171.579,1055.007q-5.4,1.051-6.612-.67-1.419-.572-1.509-2.907c-.655-2.458.789-6,1.93-3.954,1.653-2.834,6.112-.341,9.043-1.6,1.456,1.312.429,3.831-.875,4.534C2173.132,1053.431,2172.715,1055.013,2171.579,1055.007Z" transform="translate(4058.315 -2365.154)" fill="#22407a" fill-rule="evenodd"/>
        <path id="Trazado_1169743" data-name="Trazado 1169743" d="M2165.277,1049.941q.62-.339.5-.875a1.549,1.549,0,0,0-1.608-.283Q2164.63,1048.883,2165.277,1049.941Z" transform="translate(4057.607 -2367.41)" fill="#22407a" stroke="#22407a" stroke-miterlimit="2.61" stroke-width="0.22" fill-rule="evenodd"/>
        <path id="Trazado_1169744" data-name="Trazado 1169744" d="M2171.054,1046.089c-.308.253-.557.28-.752.082a1.735,1.735,0,0,1,.467-1.421A2.248,2.248,0,0,0,2171.054,1046.089Z" transform="translate(4052.657 -2364.24)" fill="#22407a" fill-rule="evenodd"/>
        <path id="Trazado_1169745" data-name="Trazado 1169745" d="M2176.167,1058.7a1.155,1.155,0,0,0-1.5.025c-.126.967.073,2.981.772,3.523a30.288,30.288,0,0,0,.726-3.55Z" transform="translate(4049.147 -2375.312)" fill="#284190" fill-rule="evenodd"/>
        <path id="Trazado_1169746" data-name="Trazado 1169746" d="M2178.784,1055.132q-1.753.534-1.3,1.256a9.069,9.069,0,0,0,4.785.2,7.822,7.822,0,0,1-3.489-1.463Z" transform="translate(4046.916 -2372.634)" fill="#284190" fill-rule="evenodd"/>
        <path id="Trazado_1169747" data-name="Trazado 1169747" d="M2180.752,1044.88c-1.034-1.432-3.33-1.945-6.705-1.279-1.943-.818-2.25-1.823-1.158-3.209C2175.5,1037.074,2186.533,1041.432,2180.752,1044.88Z" transform="translate(4051.064 -2359.76)" fill="#22407a" fill-rule="evenodd"/>
        <path id="Trazado_1169748" data-name="Trazado 1169748" d="M2173.02,1068.056c.875-.048.525,1.679.323,2.533C2172.953,1072.264,2171.641,1068.13,2173.02,1068.056Z" transform="translate(4050.95 -2383.083)" fill="#ffb17d" fill-rule="evenodd"/>
        <path id="Trazado_1169749" data-name="Trazado 1169749" d="M2172.683,1069.6a1.4,1.4,0,0,1-.612-1.551c.082-.55.165-1.066.186-1.358-.053-.293-.1-.659-.14-1.1q-2.424-2.269-.314-2.843a3.575,3.575,0,0,1,.772,1.526.816.816,0,0,0,.789-.37,24.216,24.216,0,0,1-.236-3.265c1.1-1.185,3.213-1.048,5.917-.258.011.756,0,1.549-.052,2.384.293.37.464,5.819-2.96,5.5a4.234,4.234,0,0,0-.1.923c.027.09-.6.911-.419,1.011.32-5.145-.038.145-2.823-.6Z" transform="translate(4052.23 -2376.388)" fill="#ffb17d" fill-rule="evenodd"/>
        <path id="Trazado_1169750" data-name="Trazado 1169750" d="M2171.677,1046.678c-2.7-.789-4.819-.927-5.916.258a23.874,23.874,0,0,0,.235,3.265.818.818,0,0,1-.789.37,3.57,3.57,0,0,0-.772-1.526q-2.108.574.317,2.843c.038.44.086.806.139,1.1a5.059,5.059,0,0,1-2.8-2.948c-1.312-4.038,1.054-5.287,2.274-5.685,1.081-3.626,5.947.49,8.921-.873.838,1.646-.776,3.3-1.616,3.2Z" transform="translate(4059.596 -2362.677)" fill="#22407a" fill-rule="evenodd"/>
        <path id="Trazado_1169751" data-name="Trazado 1169751" d="M2188.88,1100.7a4.761,4.761,0,0,0,1.754.664,6.056,6.056,0,0,0-.106.747A2.88,2.88,0,0,1,2188.88,1100.7Z" transform="translate(4037.628 -2409.478)" fill="#ef8161" fill-rule="evenodd"/>
        <path id="Trazado_1169752" data-name="Trazado 1169752" d="M2183.291,1055.95c-.49.207-1.622,1.264-1.576,1.676,1.612-.984,3.4-.186,4.054-.366-.337-.109-2.074-.465-2.478-1.308Z" transform="translate(4043.424 -2373.296)" fill="#22407a" fill-rule="evenodd"/>
        <path id="Trazado_1169753" data-name="Trazado 1169753" d="M2207.353,1166.28h1.247l-.115.812a.532.532,0,0,0,.553.607h5.863a.746.746,0,0,0,.724-.607l.115-.812h1.246a1.622,1.622,0,0,1,1.693,1.859l-2.28,16.177a2.279,2.279,0,0,1-2.218,1.859h-9.633a1.621,1.621,0,0,1-1.692-1.859l2.28-16.177A2.275,2.275,0,0,1,2207.353,1166.28Z" transform="translate(4026.343 -2462.501)" fill="#f4d1b7" fill-rule="evenodd"/>
        <path id="Trazado_1169754" data-name="Trazado 1169754" d="M2211.268,1166.28h1.247l-.115.81a.532.532,0,0,0,.553.607h5.863a.744.744,0,0,0,.72-.586h.208a.744.744,0,0,0,.724-.607l.032-.224h.4a1.623,1.623,0,0,1,1.693,1.86l-2.28,16.177a2.077,2.077,0,0,1-.588,1.154,2.167,2.167,0,0,1-.7.119h-9.633a1.624,1.624,0,0,1-1.695-1.859l2.281-16.18a2.1,2.1,0,0,1,.588-1.154,2.213,2.213,0,0,1,.7-.117Z" transform="translate(4022.429 -2462.501)" fill="#f4a86c" fill-rule="evenodd"/>
        <path id="Trazado_1169755" data-name="Trazado 1169755" d="M2233.172,1161.3h5.924a.515.515,0,0,1,.521.607l-.163,1.158a.724.724,0,0,1-.692.607h-5.926a.517.517,0,0,1-.521-.607l.163-1.158A.728.728,0,0,1,2233.172,1161.3Z" transform="translate(4002.515 -2458.475)" fill="#f4d1b7" fill-rule="evenodd"/>
        <path id="Trazado_1169756" data-name="Trazado 1169756" d="M2270.335,1175.29a.729.729,0,0,1,.762.837,1.025,1.025,0,0,1-1,.837.728.728,0,0,1-.762-.837,1.022,1.022,0,0,1,1-.837Z" transform="translate(3972.584 -2469.786)" fill="#fdfdfd" fill-rule="evenodd"/>
        <path id="Trazado_1169757" data-name="Trazado 1169757" d="M2259.8,1187.847a16.762,16.762,0,0,0-3.01-.668s-.575-.153-.711.175c-.125.3.038.515.362.647a13.372,13.372,0,0,1,1.438.8,15.872,15.872,0,0,1-3.586,1.551.531.531,0,0,0-.426.626c.1.406.62.4.62.4s-.58.124-.524.54c.067.49.731.471.731.471a.359.359,0,0,0-.132.4c.082.352.613.32.613.32s-.011.427.731.383c1.093-.067,1.831.1,2.734-.469,1.909-1.206,2.642-4.532,1.158-5.17Z" transform="translate(3985.101 -2479.369)" fill="#ffb17d" fill-rule="evenodd"/>
        <path id="Trazado_1169758" data-name="Trazado 1169758" d="M2253.1,1187.513l-.08-.012s-.575-.151-.71.174c-.125.3.038.517.362.649a13.437,13.437,0,0,1,1.438.794,15.875,15.875,0,0,1-3.586,1.551.528.528,0,0,0-.427.626c.1.4.621.4.621.4s-.581.124-.525.54c.067.49.732.471.732.471a.361.361,0,0,0-.132.4c.082.352.612.321.612.321s-.011.427.732.381a4.122,4.122,0,0,0,.506-.061c-.525-.042-.516-.381-.516-.381s-.531.033-.613-.32a.36.36,0,0,1,.132-.4s-.664.019-.731-.471c-.056-.415.524-.54.524-.54s-.513.006-.62-.4a.53.53,0,0,1,.427-.626,15.815,15.815,0,0,0,3.586-1.551,13.6,13.6,0,0,0-1.438-.795c-.324-.134-.486-.352-.362-.649a.289.289,0,0,1,.071-.1Z" transform="translate(3988.149 -2479.631)" fill="#c8c9c9" fill-rule="evenodd"/>
      </g>
    </g>
  </g>
</svg>
