<svg xmlns="http://www.w3.org/2000/svg" xmlns:xlink="http://www.w3.org/1999/xlink" width="108" height="108" viewBox="0 0 108 108">
  <defs>
    <filter id="Trazado_978624" x="0" y="0" width="108" height="108" filterUnits="userSpaceOnUse">
      <feOffset dy="3" input="SourceAlpha"/>
      <feGaussianBlur stdDeviation="3" result="blur"/>
      <feFlood flood-opacity="0.161"/>
      <feComposite operator="in" in2="blur"/>
      <feComposite in="SourceGraphic"/>
    </filter>
    <filter id="Trazado_1076716" x="0" y="0" width="108" height="108" filterUnits="userSpaceOnUse">
      <feOffset dy="3" input="SourceAlpha"/>
      <feGaussianBlur stdDeviation="3" result="blur-2"/>
      <feFlood flood-opacity="0.161"/>
      <feComposite operator="in" in2="blur-2"/>
      <feComposite in="SourceGraphic"/>
    </filter>
  </defs>
  <g id="Grupo_1220483" data-name="Grupo 1220483" transform="translate(-720 -399)">
    <g id="Grupo_1220066" data-name="Grupo 1220066" transform="translate(729 405)">
      <g id="Grupo_1216087" data-name="Grupo 1216087" transform="translate(0)">
        <g id="Grupo_1208503" data-name="Grupo 1208503" transform="translate(0)">
          <g id="Grupo_1200660" data-name="Grupo 1200660">
            <g id="Grupo_1181203" data-name="Grupo 1181203">
              <g id="Grupo_1172348" data-name="Grupo 1172348">
                <g id="Grupo_1171897" data-name="Grupo 1171897">
                  <g id="Grupo_1171052" data-name="Grupo 1171052">
                    <g id="Grupo_1164581" data-name="Grupo 1164581">
                      <g id="Grupo_1144123" data-name="Grupo 1144123">
                        <g transform="matrix(1, 0, 0, 1, -9, -6)" filter="url(#Trazado_978624)">
                          <g id="Trazado_978624-2" data-name="Trazado 978624" transform="translate(9 6)" fill="#f7f5f3">
                            <path d="M 45 88.5 C 39.12687683105469 88.5 33.43022537231445 87.35007476806641 28.06830024719238 85.08217620849609 C 22.88852500915527 82.89131164550781 18.23629951477051 79.75458526611328 14.2408504486084 75.75914764404297 C 10.24541282653809 71.76370239257812 7.108687400817871 67.11147308349609 4.917825222015381 61.93170166015625 C 2.649924993515015 56.56977462768555 1.5 50.87312316894531 1.5 45 C 1.5 39.12687683105469 2.649924993515015 33.43022537231445 4.917825222015381 28.06830024719238 C 7.108687400817871 22.88852500915527 10.24541282653809 18.23629951477051 14.2408504486084 14.2408504486084 C 18.23629951477051 10.24541282653809 22.88852500915527 7.108687400817871 28.06830024719238 4.917825222015381 C 33.43022537231445 2.649924993515015 39.12687683105469 1.5 45 1.5 C 50.87312316894531 1.5 56.56977462768555 2.649924993515015 61.93170166015625 4.917825222015381 C 67.11147308349609 7.108687400817871 71.76370239257812 10.24541282653809 75.75914764404297 14.2408504486084 C 79.75458526611328 18.23629951477051 82.89131164550781 22.88852500915527 85.08217620849609 28.06830024719238 C 87.35007476806641 33.43022537231445 88.5 39.12687683105469 88.5 45 C 88.5 50.87312316894531 87.35007476806641 56.56977462768555 85.08217620849609 61.93170166015625 C 82.89131164550781 67.11147308349609 79.75458526611328 71.76370239257812 75.75914764404297 75.75914764404297 C 71.76370239257812 79.75458526611328 67.11147308349609 82.89131164550781 61.93170166015625 85.08217620849609 C 56.56977462768555 87.35007476806641 50.87312316894531 88.5 45 88.5 Z" stroke="none"/>
                            <path d="M 45 3 C 39.32871246337891 3 33.82865524291992 4.110054016113281 28.65262985229492 6.299339294433594 C 23.65165710449219 8.414573669433594 19.15968322753906 11.44334411621094 15.301513671875 15.301513671875 C 11.44334411621094 19.15968322753906 8.414573669433594 23.65165710449219 6.299339294433594 28.65262985229492 C 4.110054016113281 33.82865524291992 3 39.32871246337891 3 45 C 3 50.67128753662109 4.110054016113281 56.17134475708008 6.299339294433594 61.34737396240234 C 8.414573669433594 66.34834289550781 11.44334411621094 70.84031677246094 15.301513671875 74.698486328125 C 19.15968322753906 78.55665588378906 23.65165710449219 81.58542633056641 28.65262985229492 83.70066070556641 C 33.82865524291992 85.88994598388672 39.32871246337891 87 45 87 C 50.67128753662109 87 56.17134475708008 85.88994598388672 61.34737396240234 83.70066070556641 C 66.34834289550781 81.58542633056641 70.84031677246094 78.55665588378906 74.698486328125 74.698486328125 C 78.55665588378906 70.84031677246094 81.58542633056641 66.34834289550781 83.70066070556641 61.34737396240234 C 85.88994598388672 56.17134475708008 87 50.67128753662109 87 45 C 87 39.32871246337891 85.88994598388672 33.82865524291992 83.70066070556641 28.65262985229492 C 81.58542633056641 23.65165710449219 78.55665588378906 19.15968322753906 74.698486328125 15.301513671875 C 70.84031677246094 11.44334411621094 66.34834289550781 8.414573669433594 61.34737396240234 6.299339294433594 C 56.17134475708008 4.110054016113281 50.67128753662109 3 45 3 M 45 0 C 69.85281372070312 0 90 20.14718627929688 90 45 C 90 69.85281372070312 69.85281372070312 90 45 90 C 20.14718627929688 90 0 69.85281372070312 0 45 C 0 20.14718627929688 20.14718627929688 0 45 0 Z" stroke="none" fill="#665b4e"/>
                          </g>
                        </g>
                        <g transform="matrix(1, 0, 0, 1, -9, -6)" filter="url(#Trazado_1076716)">
                          <g id="Trazado_1076716-2" data-name="Trazado 1076716" transform="translate(9 6)" fill="#f7f5f3">
                            <path d="M 45 88.5 C 39.12687683105469 88.5 33.43022537231445 87.35007476806641 28.06830024719238 85.08217620849609 C 22.88852500915527 82.89131164550781 18.23629951477051 79.75458526611328 14.2408504486084 75.75914764404297 C 10.24541282653809 71.76370239257812 7.108687400817871 67.11147308349609 4.917825222015381 61.93170166015625 C 2.649924993515015 56.56977462768555 1.5 50.87312316894531 1.5 45 C 1.5 39.12687683105469 2.649924993515015 33.43022537231445 4.917825222015381 28.06830024719238 C 7.108687400817871 22.88852500915527 10.24541282653809 18.23629951477051 14.2408504486084 14.2408504486084 C 18.23629951477051 10.24541282653809 22.88852500915527 7.108687400817871 28.06830024719238 4.917825222015381 C 33.43022537231445 2.649924993515015 39.12687683105469 1.5 45 1.5 C 50.87312316894531 1.5 56.56977462768555 2.649924993515015 61.93170166015625 4.917825222015381 C 67.11147308349609 7.108687400817871 71.76370239257812 10.24541282653809 75.75914764404297 14.2408504486084 C 79.75458526611328 18.23629951477051 82.89131164550781 22.88852500915527 85.08217620849609 28.06830024719238 C 87.35007476806641 33.43022537231445 88.5 39.12687683105469 88.5 45 C 88.5 50.87312316894531 87.35007476806641 56.56977462768555 85.08217620849609 61.93170166015625 C 82.89131164550781 67.11147308349609 79.75458526611328 71.76370239257812 75.75914764404297 75.75914764404297 C 71.76370239257812 79.75458526611328 67.11147308349609 82.89131164550781 61.93170166015625 85.08217620849609 C 56.56977462768555 87.35007476806641 50.87312316894531 88.5 45 88.5 Z" stroke="none"/>
                            <path d="M 45 3 C 39.32871246337891 3 33.82865524291992 4.110054016113281 28.65262985229492 6.299339294433594 C 23.65165710449219 8.414573669433594 19.15968322753906 11.44334411621094 15.301513671875 15.301513671875 C 11.44334411621094 19.15968322753906 8.414573669433594 23.65165710449219 6.299339294433594 28.65262985229492 C 4.110054016113281 33.82865524291992 3 39.32871246337891 3 45 C 3 50.67128753662109 4.110054016113281 56.17134475708008 6.299339294433594 61.34737396240234 C 8.414573669433594 66.34834289550781 11.44334411621094 70.84031677246094 15.301513671875 74.698486328125 C 19.15968322753906 78.55665588378906 23.65165710449219 81.58542633056641 28.65262985229492 83.70066070556641 C 33.82865524291992 85.88994598388672 39.32871246337891 87 45 87 C 50.67128753662109 87 56.17134475708008 85.88994598388672 61.34737396240234 83.70066070556641 C 66.34834289550781 81.58542633056641 70.84031677246094 78.55665588378906 74.698486328125 74.698486328125 C 78.55665588378906 70.84031677246094 81.58542633056641 66.34834289550781 83.70066070556641 61.34737396240234 C 85.88994598388672 56.17134475708008 87 50.67128753662109 87 45 C 87 39.32871246337891 85.88994598388672 33.82865524291992 83.70066070556641 28.65262985229492 C 81.58542633056641 23.65165710449219 78.55665588378906 19.15968322753906 74.698486328125 15.301513671875 C 70.84031677246094 11.44334411621094 66.34834289550781 8.414573669433594 61.34737396240234 6.299339294433594 C 56.17134475708008 4.110054016113281 50.67128753662109 3 45 3 M 45 0 C 69.85281372070312 0 90 20.14718627929688 90 45 C 90 69.85281372070312 69.85281372070312 90 45 90 C 20.14718627929688 90 0 69.85281372070312 0 45 C 0 20.14718627929688 20.14718627929688 0 45 0 Z" stroke="none" fill="#665b4e"/>
                          </g>
                        </g>
                      </g>
                    </g>
                  </g>
                </g>
              </g>
            </g>
          </g>
        </g>
      </g>
    </g>
    <g id="equilibrar_5_" data-name="equilibrar (5)" transform="translate(737.648 422.302)">
      <path id="Trazado_1169432" data-name="Trazado 1169432" d="M113.476,107.253a1.205,1.205,0,0,1-.672-.2,13.167,13.167,0,0,0-7.324-2.22H77.86a13.167,13.167,0,0,0-7.33,2.22,1.221,1.221,0,0,1-1.212.076L64.472,104.7l1.083-2.169,4.241,2.118a15.584,15.584,0,0,1,8.065-2.245h27.619a15.59,15.59,0,0,1,8.073,2.245l4.235-2.118,1.083,2.169-4.846,2.423A1.239,1.239,0,0,1,113.476,107.253Z" transform="translate(-55.314 -87.866)" fill="#91562f"/>
      <path id="Trazado_1169433" data-name="Trazado 1169433" d="M170.46,474.18H136.535a4.847,4.847,0,0,1,4.846-4.846h24.232A4.846,4.846,0,0,1,170.46,474.18Z" transform="translate(-117.145 -402.694)" fill="#f9b44d"/>
      <path id="Trazado_1169434" data-name="Trazado 1169434" d="M282.759,469.334h-9.693a4.847,4.847,0,0,1,4.847,4.846h9.693A4.846,4.846,0,0,0,282.759,469.334Z" transform="translate(-234.29 -402.694)" fill="#fa982f"/>
      <path id="Trazado_1169435" data-name="Trazado 1169435" d="M219.34,440.047H204.8l4.846-4.846h4.846Z" transform="translate(-175.718 -373.407)" fill="#f9b44d"/>
      <rect id="Rect치ngulo_421255" data-name="Rect치ngulo 421255" width="4.846" height="50.888" transform="translate(33.929 10.905)" fill="#91562f"/>
      <path id="Trazado_1169436" data-name="Trazado 1169436" d="M235.548,18.234H230.7l-1.248-4.991a3.783,3.783,0,0,1,3.671-4.7h0a3.785,3.785,0,0,1,3.671,4.7Z" transform="translate(-196.773 -7.328)" fill="#f9b44d"/>
      <path id="Trazado_1169437" data-name="Trazado 1169437" d="M249.132,8.542A3.78,3.78,0,0,0,248,8.736a3.772,3.772,0,0,1,2.535,4.508l-1.247,4.991h2.272l1.248-4.991a3.782,3.782,0,0,0-3.671-4.7Z" transform="translate(-212.78 -7.329)" fill="#fa982f"/>
      <rect id="Rect치ngulo_421256" data-name="Rect치ngulo 421256" width="12.116" height="2.423" transform="translate(30.294 9.693)" fill="#f9b44d"/>
      <g id="Grupo_1220482" data-name="Grupo 1220482" transform="translate(0.509 14.54)">
        <path id="Trazado_1169438" data-name="Trazado 1169438" d="M29.317,132.1,17.6,106.524,5.875,132.1a1.212,1.212,0,0,1-1.607.6h0a1.212,1.212,0,0,1-.6-1.607h0l12.823-27.977a1.212,1.212,0,0,1,2.2,0L31.52,131.089a1.21,1.21,0,0,1-.6,1.605h0a1.211,1.211,0,0,1-1.607-.595Z" transform="translate(-3.562 -102.405)" fill="#f0e4d6"/>
        <path id="Trazado_1169439" data-name="Trazado 1169439" d="M336.511,132.1,324.79,106.524,313.069,132.1a1.212,1.212,0,0,1-1.607.6h0a1.212,1.212,0,0,1-.6-1.607h0l12.823-27.977a1.212,1.212,0,0,1,2.2,0l12.823,27.977a1.21,1.21,0,0,1-.6,1.605h0a1.211,1.211,0,0,1-1.607-.595Z" transform="translate(-267.138 -102.405)" fill="#f0e4d6"/>
      </g>
      <path id="Trazado_1169440" data-name="Trazado 1169440" d="M315.732,315.736h26.656a7.269,7.269,0,0,1-7.27,7.27H323a7.271,7.271,0,0,1-7.27-7.27Z" transform="translate(-270.898 -270.905)" fill="#f9b44d"/>
      <path id="Trazado_1169441" data-name="Trazado 1169441" d="M408.334,315.736a7.269,7.269,0,0,1-7.27,7.27h7.27a7.269,7.269,0,0,0,7.27-7.27Z" transform="translate(-344.114 -270.905)" fill="#fa982f"/>
      <path id="Trazado_1169442" data-name="Trazado 1169442" d="M8.537,315.736H35.192a7.269,7.269,0,0,1-7.27,7.27H15.807a7.271,7.271,0,0,1-7.27-7.27Z" transform="translate(-7.322 -270.905)" fill="#f9b44d"/>
      <path id="Trazado_1169443" data-name="Trazado 1169443" d="M101.139,315.736a7.269,7.269,0,0,1-7.27,7.27h7.27a7.269,7.269,0,0,0,7.27-7.27Z" transform="translate(-80.537 -270.905)" fill="#fa982f"/>
      <path id="Trazado_1169444" data-name="Trazado 1169444" d="M72.59,44.326,60.655,18.283l2.895-1.441-1.083-2.169-2.822,1.405-.382-.832a1.212,1.212,0,0,0-2.2,0l-.34.744a15.583,15.583,0,0,0-6.555-1.45H39.987V12.117H42.41V9.694H40.328L41.2,6.208a5,5,0,1,0-9.693,0l.871,3.486H30.294v2.423h2.423v2.423H22.546a15.575,15.575,0,0,0-6.561,1.454l-.34-.744a1.212,1.212,0,0,0-2.2,0l-.382.832L10.238,14.67,9.155,16.842l2.895,1.447L.114,44.326h0a1.191,1.191,0,0,0-.11.505,8.491,8.491,0,0,0,8.481,8.481H20.6a8.491,8.491,0,0,0,8.481-8.481,1.182,1.182,0,0,0-.121-.5h0L16.993,18.189a13.2,13.2,0,0,1,5.553-1.225H32.717V61.292l-4.136,4.136H24.236a6.065,6.065,0,0,0-6.058,6.058A1.212,1.212,0,0,0,19.39,72.7H53.315a1.212,1.212,0,0,0,1.212-1.212,6.065,6.065,0,0,0-6.058-6.058H44.123l-4.136-4.136V16.964H50.165a13.2,13.2,0,0,1,5.553,1.225L43.732,44.326h0a1.176,1.176,0,0,0-.11.505A8.491,8.491,0,0,0,52.1,53.312H64.22A8.491,8.491,0,0,0,72.7,44.831a1.182,1.182,0,0,0-.121-.5ZM20.6,50.889H8.485a6.068,6.068,0,0,1-5.937-4.846h23.99A6.068,6.068,0,0,1,20.6,50.889Zm5.382-7.27H3.1l11.13-24.282a1.2,1.2,0,0,0,.62,0ZM34.325,3.413a2.651,2.651,0,0,1,4.054,0,2.562,2.562,0,0,1,.469,2.207L37.829,9.694H34.875L33.856,5.621A2.56,2.56,0,0,1,34.325,3.413Zm.815,11.127V12.117h2.423v2.423H35.141Zm2.423,2.423V60.582H35.141V16.964Zm10.9,50.888A3.642,3.642,0,0,1,51.9,70.275H20.809a3.642,3.642,0,0,1,3.428-2.423ZM40.7,65.429h-8.69l2.423-2.423h3.843ZM57.849,19.341a.826.826,0,0,0,.613-.025l11.14,24.3H46.721Zm6.371,31.548H52.1a6.068,6.068,0,0,1-5.937-4.846h23.99A6.068,6.068,0,0,1,64.219,50.889Z" transform="translate(0 0)"/>
    </g>
  </g>
</svg>
