<svg xmlns="http://www.w3.org/2000/svg" xmlns:xlink="http://www.w3.org/1999/xlink" width="108" height="108" viewBox="0 0 108 108">
  <defs>
    <filter id="Trazado_904820" x="0" y="0" width="108" height="108" filterUnits="userSpaceOnUse">
      <feOffset dy="3" input="SourceAlpha"/>
      <feGaussianBlur stdDeviation="3" result="blur"/>
      <feFlood flood-opacity="0.161"/>
      <feComposite operator="in" in2="blur"/>
      <feComposite in="SourceGraphic"/>
    </filter>
  </defs>
  <g id="Grupo_1220591" data-name="Grupo 1220591" transform="translate(-197 -462.856)">
    <g id="Grupo_1220075" data-name="Grupo 1220075" transform="translate(200 468.856)">
      <g id="Grupo_1209015" data-name="Grupo 1209015" transform="translate(5.999 0)">
        <g id="Grupo_1207774" data-name="Grupo 1207774">
          <g id="Grupo_1206630" data-name="Grupo 1206630">
            <g id="Grupo_1185091" data-name="Grupo 1185091">
              <g id="Grupo_1179560" data-name="Grupo 1179560">
                <g id="Grupo_1173787" data-name="Grupo 1173787">
                  <g id="Grupo_1171910" data-name="Grupo 1171910">
                    <g id="Grupo_1167341" data-name="Grupo 1167341">
                      <g id="Grupo_1166792" data-name="Grupo 1166792">
                        <g transform="matrix(1, 0, 0, 1, -9, -6)" filter="url(#Trazado_904820)">
                          <g id="Trazado_904820-2" data-name="Trazado 904820" transform="translate(9 6)" fill="#f7f5f3">
                            <path d="M 44.99996948242188 88.50005340576172 C 39.12684631347656 88.50005340576172 33.43020629882812 87.35012817382812 28.06828117370605 85.08221435546875 C 22.88851928710938 82.89136505126953 18.23629379272461 79.754638671875 14.2408447265625 75.75918579101562 C 10.24540710449219 71.76374053955078 7.108694553375244 67.11151123046875 4.917831897735596 61.93173980712891 C 2.649931907653809 56.56980133056641 1.500007033348083 50.87314987182617 1.500007033348083 45.00002670288086 C 1.500007033348083 39.12690353393555 2.649931907653809 33.43025207519531 4.917831897735596 28.06831359863281 C 7.108694553375244 22.8885383605957 10.24540710449219 18.23631477355957 14.2408447265625 14.24086380004883 C 18.23629379272461 10.2454137802124 22.88851928710938 7.108689308166504 28.06828117370605 4.917839050292969 C 33.43020629882812 2.649926662445068 39.12684631347656 1.500001668930054 44.99996948242188 1.500001668930054 C 50.87309265136719 1.500001668930054 56.56973266601562 2.649926662445068 61.93165588378906 4.917839050292969 C 67.11143493652344 7.108689308166504 71.76364135742188 10.2454137802124 75.75909423828125 14.24086380004883 C 79.75454711914062 18.23631477355957 82.89125823974609 22.8885383605957 85.08212280273438 28.06831359863281 C 87.35002136230469 33.43025207519531 88.49994659423828 39.12690353393555 88.49994659423828 45.00002670288086 C 88.49994659423828 50.87314987182617 87.35002136230469 56.56980133056641 85.08212280273438 61.93173980712891 C 82.89125823974609 67.11151123046875 79.75454711914062 71.76374053955078 75.75909423828125 75.75918579101562 C 71.76364135742188 79.754638671875 67.11143493652344 82.89136505126953 61.93165588378906 85.08221435546875 C 56.56973266601562 87.35012817382812 50.87309265136719 88.50005340576172 44.99996948242188 88.50005340576172 Z" stroke="none"/>
                            <path d="M 44.99996948242188 3 C 39.32868194580078 3 33.82863998413086 4.110054016113281 28.65261077880859 6.299339294433594 C 23.65164184570312 8.414566040039062 19.15968322753906 11.44334411621094 15.301513671875 15.30152893066406 C 11.44332885742188 19.15969848632812 8.414566040039062 23.65167236328125 6.299324035644531 28.65264129638672 C 4.110054016113281 33.82868194580078 3 39.32873916625977 3 45.00002670288086 C 3 50.67131423950195 4.110054016113281 56.17137145996094 6.299324035644531 61.347412109375 C 8.414566040039062 66.34838104248047 11.44332885742188 70.84035491943359 15.301513671875 74.69852447509766 C 19.15968322753906 78.55670928955078 23.65164184570312 81.58547973632812 28.65261077880859 83.70071411132812 C 33.82863998413086 85.88999938964844 39.32868194580078 87.00005340576172 44.99996948242188 87.00005340576172 C 50.67125701904297 87.00005340576172 56.17129898071289 85.88999938964844 61.34732818603516 83.70071411132812 C 66.34829711914062 81.58547973632812 70.84025573730469 78.55670928955078 74.69842529296875 74.69852447509766 C 78.55661010742188 70.84035491943359 81.58537292480469 66.34838104248047 83.70061492919922 61.347412109375 C 85.88988494873047 56.17137145996094 86.99993896484375 50.67131423950195 86.99993896484375 45.00002670288086 C 86.99993896484375 39.32873916625977 85.88988494873047 33.82868194580078 83.70061492919922 28.65264129638672 C 81.58537292480469 23.65167236328125 78.55661010742188 19.15969848632812 74.69842529296875 15.30152893066406 C 70.84025573730469 11.44334411621094 66.34829711914062 8.414566040039062 61.34732818603516 6.299339294433594 C 56.17129898071289 4.110054016113281 50.67125701904297 3 44.99996948242188 3 M 44.99996948242188 0 C 69.85276794433594 0 89.99993896484375 20.14720153808594 89.99993896484375 45.00002670288086 C 89.99993896484375 69.85285949707031 69.85276794433594 90.00005340576172 44.99996948242188 90.00005340576172 C 20.14717102050781 90.00005340576172 0 69.85285949707031 0 45.00002670288086 C 0 20.14720153808594 20.14717102050781 0 44.99996948242188 0 Z" stroke="none" fill="#665b4e"/>
                          </g>
                        </g>
                      </g>
                    </g>
                  </g>
                </g>
              </g>
            </g>
          </g>
        </g>
      </g>
    </g>
    <g id="libro-de-leyes_5_" data-name="libro-de-leyes (5)" transform="translate(220.927 485.195)">
      <g id="Grupo_1220589" data-name="Grupo 1220589" transform="translate(1.308 0.949)">
        <g id="Grupo_1220582" data-name="Grupo 1220582" transform="translate(0)">
          <path id="Trazado_1169912" data-name="Trazado 1169912" d="M324.656,320.711v16.351H313.64V321.83Z" transform="translate(-274.936 -281.067)" fill="gray"/>
          <path id="Trazado_1169913" data-name="Trazado 1169913" d="M85.144,361.706a6.288,6.288,0,0,1,0-6.738l-18.672-3.255H43.123V364.14h32.3Z" transform="translate(-38.659 -308.145)" fill="#f6f6f6"/>
          <path id="Trazado_1169914" data-name="Trazado 1169914" d="M57.575,9.933V51.888l-41.483,1-2.374.068L7.855,57.691V15.736A8.246,8.246,0,0,1,16.091,7.5H55.142a2.433,2.433,0,0,1,2.432,2.433Z" transform="translate(-7.855 -7.5)" fill="gray"/>
          <path id="Trazado_1169915" data-name="Trazado 1169915" d="M16.091,7.5V52.892l-2.374.068L7.855,57.691V15.736A8.246,8.246,0,0,1,16.091,7.5Z" transform="translate(-7.855 -7.5)" fill="#595959"/>
          <path id="Trazado_1169916" data-name="Trazado 1169916" d="M55.145,355.449H16.094a8.236,8.236,0,1,1,0-16.472H55.145a2.433,2.433,0,1,1,0,4.866H16.094a3.37,3.37,0,0,0,0,6.74H55.145a2.433,2.433,0,1,1,0,4.866Z" transform="translate(-7.858 -297.021)" fill="#595959"/>
          <path id="Trazado_1169917" data-name="Trazado 1169917" d="M89.969,377.426v14.529a1.552,1.552,0,0,1-2.51,1.22l-1.938-1.52a1.555,1.555,0,0,0-1.916,0l-1.938,1.52a1.55,1.55,0,0,1-2.508-1.22V377.426Z" transform="translate(-70.135 -330.604)" fill="#ffe07d"/>
          <path id="Trazado_1169918" data-name="Trazado 1169918" d="M79.159,377.426H89.968v5.988H79.159Z" transform="translate(-70.134 -330.604)" fill="#ffd064"/>
        </g>
        <g id="Grupo_1220583" data-name="Grupo 1220583" transform="translate(15.332 4.863)">
          <path id="Trazado_1169919" data-name="Trazado 1169919" d="M227.892,72.659h-4.015V47.925a2.007,2.007,0,1,1,4.015,0Z" transform="translate(-211.867 -45.918)" fill="#ffd064"/>
          <path id="Trazado_1169920" data-name="Trazado 1169920" d="M164.11,86.223h-19.4a2.664,2.664,0,1,0,0,5.328h4.373a5.328,5.328,0,0,0,10.656,0h4.373a2.664,2.664,0,1,0,0-5.328Z" transform="translate(-140.391 -81.122)" fill="#ffe07d"/>
          <path id="Trazado_1169921" data-name="Trazado 1169921" d="M128.988,184.481a4.317,4.317,0,1,0,8.633,0Z" transform="translate(-128.988 -166.943)" fill="#ffe07d"/>
          <circle id="Elipse_14468" data-name="Elipse 14468" cx="1.886" cy="1.886" r="1.886" transform="translate(12.132 8.516)" fill="#ffd064"/>
          <path id="Trazado_1169922" data-name="Trazado 1169922" d="M187.594,245.4h-13a2,2,0,1,1,0-4h13a2,2,0,0,1,0,4Z" transform="translate(-167.076 -216.661)" fill="#ffe07d"/>
        </g>
        <g id="Grupo_1220588" data-name="Grupo 1220588" transform="translate(23.157 18.45)">
          <g id="Grupo_1220584" data-name="Grupo 1220584" transform="translate(0 0.001)">
            <path id="Trazado_1169923" data-name="Trazado 1169923" d="M230.471,168.5v16.172a14.481,14.481,0,0,1-2.333,7.883h0a8.958,8.958,0,0,0-1.444,4.878v.294H206.8v-1.138a4.369,4.369,0,0,0-1.28-3.088l-13.485-13.484a4.185,4.185,0,0,1,5.917-5.918l3.79,3.79V160.328a3.766,3.766,0,1,1,7.532,0V157.1a3.828,3.828,0,0,1,3.8-3.833,3.764,3.764,0,0,1,3.734,3.766v3.891a3.766,3.766,0,1,1,7.531,0V168.5a3.065,3.065,0,1,1,6.13,0Z" transform="translate(-190.812 -153.269)" fill="#ffddce"/>
          </g>
          <g id="Grupo_1220585" data-name="Grupo 1220585" transform="translate(33.529 12.162)">
            <path id="Trazado_1169924" data-name="Trazado 1169924" d="M455.717,261.3v-8.884a3.064,3.064,0,0,1,3.782-2.98,3.066,3.066,0,0,0-2.347,2.98v7.449A1.435,1.435,0,0,1,455.717,261.3Z" transform="translate(-455.717 -249.353)" fill="#ffcbbe"/>
          </g>
          <g id="Grupo_1220586" data-name="Grupo 1220586" transform="translate(10.933)">
            <path id="Trazado_1169925" data-name="Trazado 1169925" d="M281.855,179.392a3.768,3.768,0,0,0-2.869,3.658v18.43h-.921l-.873-.873V183.051a3.765,3.765,0,0,1,4.663-3.658Z" transform="translate(-277.192 -175.991)" fill="#ffcbbe"/>
            <path id="Trazado_1169926" data-name="Trazado 1169926" d="M336.7,173.646V157.031a3.766,3.766,0,0,1,4.663-3.658,3.768,3.768,0,0,0-2.869,3.658v14.822A1.793,1.793,0,0,1,336.7,173.646Z" transform="translate(-329.168 -153.264)" fill="#ffcbbe"/>
            <path id="Trazado_1169927" data-name="Trazado 1169927" d="M396.208,200.613V187.771a3.766,3.766,0,0,1,4.663-3.658A3.768,3.768,0,0,0,398,187.771v11.049A1.793,1.793,0,0,1,396.208,200.613Z" transform="translate(-381.144 -180.113)" fill="#ffcbbe"/>
          </g>
          <g id="Grupo_1220587" data-name="Grupo 1220587" transform="translate(0.001 19.983)">
            <path id="Trazado_1169928" data-name="Trazado 1169928" d="M211.824,332.414v3.2h-5.012v-1.138a4.361,4.361,0,0,0-1.28-3.087L192.047,317.9a4.186,4.186,0,0,1,1.215-6.764,4.188,4.188,0,0,0,.848,4.7l16.434,13.485A4.369,4.369,0,0,1,211.824,332.414Z" transform="translate(-190.822 -311.14)" fill="#ffcbbe"/>
          </g>
        </g>
      </g>
      <g id="Grupo_1220590" data-name="Grupo 1220590" transform="translate(0.359 0)">
        <path id="Trazado_1169929" data-name="Trazado 1169929" d="M223.007,108.535a2.835,2.835,0,1,0-2.835,2.835A2.839,2.839,0,0,0,223.007,108.535Zm-3.772,0a.937.937,0,1,1,.937.937A.938.938,0,0,1,219.234,108.535Z" transform="translate(-189.873 -92.321)"/>
        <path id="Trazado_1169930" data-name="Trazado 1169930" d="M61.059,30.613a3.989,3.989,0,0,0-2.116.6V27.056a4.712,4.712,0,0,0-6.966-4.141V3.382A3.386,3.386,0,0,0,48.6,0H17.636a.949.949,0,1,0,0,1.9H48.6a1.485,1.485,0,0,1,1.483,1.483v16.5l-.048-.05a4.7,4.7,0,0,0-3.294-1.38H46.7a4.647,4.647,0,0,0-3.29,1.37q-.141.14-.269.29l-1.433-3.183a3.613,3.613,0,0,0-1.35-6.964H33.614V7.82a2.956,2.956,0,1,0-5.912,0V9.964H20.956a3.613,3.613,0,0,0-1.35,6.964L17.143,22.4h-.5a.949.949,0,0,0-.949.949,5.266,5.266,0,1,0,10.532,0,.949.949,0,0,0-.949-.949h-.5l-2.345-5.21h2.027a6.293,6.293,0,0,0,3.25,4.587v7.829H24.157a2.947,2.947,0,1,0,0,5.893H34.449v6.225L32.28,39.556a5.137,5.137,0,0,0-8.616,2.4H10.493V1.9h3.346a.949.949,0,1,0,0-1.9H9.544A9.2,9.2,0,0,0,.359,9.185V51.141a9.194,9.194,0,0,0,9.024,9.18V62.3a2.5,2.5,0,0,0,4.044,1.968l1.938-1.52a.6.6,0,0,1,.744,0l1.938,1.52A2.5,2.5,0,0,0,22.092,62.3V60.325H38.529a3.442,3.442,0,0,1,.978,2.392v1.138a.949.949,0,1,0,1.9,0V62.717a5.353,5.353,0,0,0-1.558-3.76L26.363,45.474A3.235,3.235,0,0,1,30.938,40.9l3.789,3.79a.949.949,0,0,0,1.621-.671V26.459a2.817,2.817,0,1,1,5.634,0V39.781a.949.949,0,1,0,1.9,0V23.232a2.931,2.931,0,0,1,.867-2.064,2.762,2.762,0,0,1,1.953-.819h.022a2.815,2.815,0,0,1,2.793,2.816v8.056a.949.949,0,1,0,1.9,0V27.066s0-.006,0-.01a2.816,2.816,0,1,1,5.632,0V43.511a.949.949,0,1,0,1.9,0V34.627s0,0,0,0a2.115,2.115,0,0,1,4.231.005V50.8a13.5,13.5,0,0,1-2.18,7.366l-.02.032A9.887,9.887,0,0,0,59.4,63.562v.294a.949.949,0,1,0,1.9,0v-.294A7.993,7.993,0,0,1,62.587,59.2l.02-.032A15.4,15.4,0,0,0,65.073,50.8V34.627a4.019,4.019,0,0,0-4.014-4.015ZM2.258,9.185A7.3,7.3,0,0,1,8.595,1.962V6.077A9.183,9.183,0,0,0,2.258,9.63Zm0,6.009a7.3,7.3,0,0,1,6.337-7.2V12.4a9.183,9.183,0,0,0-6.337,3.553Zm0,6.326a7.3,7.3,0,0,1,6.337-7.2V27.443A9.183,9.183,0,0,0,2.258,31Zm0,15.04a7.3,7.3,0,0,1,6.337-7.2v4.412a9.183,9.183,0,0,0-6.337,3.553Zm0,6.326a7.3,7.3,0,0,1,6.337-7.2V42a9.183,9.183,0,0,0-6.337,3.553Zm0,8.256a7.3,7.3,0,0,1,7.287-7.287H23.56a5.1,5.1,0,0,0,1.46,2.962l0,0H9.544a4.319,4.319,0,0,0-.161,8.634v2.967a7.293,7.293,0,0,1-7.125-7.281ZM22.091,48.72h4.832l4.842,4.841H22.091V48.72ZM9.383,53.553a2.418,2.418,0,0,1,0-4.825Zm10.471,9.289a.587.587,0,0,1-.635-.068l-1.938-1.52a2.5,2.5,0,0,0-3.087,0l-1.938,1.52a.6.6,0,0,1-.974-.474V48.72h8.911V62.3A.586.586,0,0,1,19.854,62.843Zm2.238-7.383H33.664l2.967,2.967H22.091ZM29.6,7.82a1.058,1.058,0,1,1,2.115,0V9.964H29.6Zm-8.644,18.9A3.373,3.373,0,0,1,17.725,24.3h6.462a3.374,3.374,0,0,1-3.231,2.418ZM19.225,22.4l1.731-3.846L22.688,22.4Zm7.053-6.159a.949.949,0,0,0-.949-.949H20.956a1.715,1.715,0,0,1,0-3.43h19.4a1.715,1.715,0,0,1,0,3.43H35.985a.949.949,0,0,0-.949.949,4.379,4.379,0,0,1-8.757,0ZM29.6,22.428a6.223,6.223,0,0,0,2.115,0v7.178H29.6V22.428ZM24.157,33.6a1.05,1.05,0,0,1-1.049-1.048A1.049,1.049,0,0,1,24.157,31.5H34.449v2.1ZM35.83,23.125a4.69,4.69,0,0,0-1.381,3.334v3.148h-.835V21.778a6.294,6.294,0,0,0,3.249-4.587H38.89L36.459,22.6A4.745,4.745,0,0,0,35.83,23.125Zm3.335-1.382c-.081,0-.162,0-.243.006l1.437-3.194,1.708,3.793c-.022.117-.041.234-.055.353A4.688,4.688,0,0,0,39.165,21.742Z" transform="translate(-0.359 0)"/>
        <path id="Trazado_1169931" data-name="Trazado 1169931" d="M389.657,269.17a.949.949,0,0,0-.949.949V275a.949.949,0,0,0,1.9,0v-4.879A.949.949,0,0,0,389.657,269.17Z" transform="translate(-339.554 -235.101)"/>
      </g>
    </g>
  </g>
</svg>
