<svg xmlns="http://www.w3.org/2000/svg" width="105" height="118" viewBox="0 0 105 118">
  <g id="Grupo_1220441" data-name="Grupo 1220441" transform="translate(-180 -6496)">
    <rect id="Rectángulo_421252" data-name="Rectángulo 421252" width="71" height="118" transform="translate(214 6496)" fill="#248abf"/>
    <g id="contrato-comercial" transform="translate(175.999 6491.673)">
      <g id="Grupo_1220430" data-name="Grupo 1220430" transform="translate(5.469 19.799)">
        <path id="Trazado_1169244" data-name="Trazado 1169244" d="M159.557,27.114l16.719,16.719a4.817,4.817,0,0,1,1.571,3.545v59.67H114.011v-81.5h42a4.817,4.817,0,0,1,3.545,1.571Z" transform="translate(-93.042 -25.543)" fill="#e3f1ff" fill-rule="evenodd"/>
        <path id="Trazado_1169245" data-name="Trazado 1169245" d="M395.408,104.825l2.121,2.121a4.817,4.817,0,0,1,1.571,3.545v59.67h-2.45V108.41c0-1-.29-3.518-4.7-3.585Z" transform="translate(-314.294 -88.656)" fill="#b6dbff" fill-rule="evenodd"/>
        <path id="Trazado_1169246" data-name="Trazado 1169246" d="M338.016,33.931l16.439,16.44a5.57,5.57,0,0,0-3.88-1.572H339.588V37.811a5.57,5.57,0,0,0-1.572-3.88Z" transform="translate(-271.362 -32.22)" fill="#61a0e0" fill-rule="evenodd"/>
        <path id="Trazado_1169247" data-name="Trazado 1169247" d="M338.016,33.93,351.1,47.015a5.547,5.547,0,0,0-2.42-.553h-9.092V37.81a5.571,5.571,0,0,0-1.572-3.88Z" transform="translate(-271.362 -32.219)" fill="#7cb5ef" fill-rule="evenodd"/>
        <path id="Trazado_1169248" data-name="Trazado 1169248" d="M52.388,339.2l2.73,1.552c3.524,2.034,5.654-2.291,2.9-3.894l1.533.885a2.57,2.57,0,0,0,2.579-4.447l.82.473a2.737,2.737,0,0,0,2.748-4.734h0l.815.47a2.732,2.732,0,0,0,4.008-3.077,3.071,3.071,0,0,0-1.271-1.663l-8.224-4.748a100.145,100.145,0,0,1-9.958-8.8c-5.648-4.06-9.714.991-17.186-3.212l-5.315-2.989c-4.743,3.865-7.435,8.7-5.767,16.589l9.492,4.893,2.447,2.633L52.388,339.2Z" transform="translate(-20.04 -248.016)" fill="#f29988" fill-rule="evenodd"/>
        <path id="Trazado_1169249" data-name="Trazado 1169249" d="M138.43,348.894a2.72,2.72,0,0,0,.464-.595,2.748,2.748,0,0,0,.269-2.076,3.071,3.071,0,0,0-1.271-1.663l-8.224-4.748a100.179,100.179,0,0,1-9.958-8.8,9.234,9.234,0,0,0-2.052-1.13l-7.185,4.48a4.073,4.073,0,0,0-.276,6.76,6.566,6.566,0,0,0,4.515,1.634c3.4-.132,6.088-2.958,9.175-2.977,1.762-.01,3.287.956,4.758,1.805l8.129,4.694c.7.444,2.079,1.234,1.655,2.617Z" transform="translate(-88.68 -267.812)" fill="#ea806f" fill-rule="evenodd"/>
        <path id="Trazado_1169250" data-name="Trazado 1169250" d="M189.273,459.475a1.061,1.061,0,0,0-1.061,1.837l2.5,1.441a2.333,2.333,0,0,0-1.041-3.05Z" transform="translate(-151.689 -370.862)" fill="#ea806f" fill-rule="evenodd"/>
        <path id="Trazado_1169251" data-name="Trazado 1169251" d="M203.223,438.778a1.184,1.184,0,0,0-1.184,2.051l3.725,2.15a2.582,2.582,0,0,0-1.027-3.327l-1.514-.874Z" transform="translate(-162.646 -354.373)" fill="#ea806f" fill-rule="evenodd"/>
        <path id="Trazado_1169252" data-name="Trazado 1169252" d="M219.014,416.905l-2.337-1.349a1.184,1.184,0,1,0-1.184,2.051l4.675,2.7a2.75,2.75,0,0,0-1.153-3.4Z" transform="translate(-173.356 -335.888)" fill="#ea806f" fill-rule="evenodd"/>
        <path id="Trazado_1169253" data-name="Trazado 1169253" d="M79.625,408.736a2.706,2.706,0,1,0,4.687,2.706l1.945-3.369a2.706,2.706,0,1,0-4.687-2.706l-1.945,3.369Z" transform="translate(-65.382 -326.828)" fill="#ffcec0" fill-rule="evenodd"/>
        <path id="Trazado_1169254" data-name="Trazado 1169254" d="M148.573,448.544a2.706,2.706,0,0,0,4.687,2.706l1.945-3.369a2.706,2.706,0,1,0-4.687-2.706Z" transform="translate(-120.268 -358.517)" fill="#ffcec0" fill-rule="evenodd"/>
        <path id="Trazado_1169255" data-name="Trazado 1169255" d="M122.37,436.412a2.706,2.706,0,0,0,4.687,2.706l2.6-4.506a2.706,2.706,0,0,0-4.687-2.706Z" transform="translate(-99.409 -347.954)" fill="#ffcec0" fill-rule="evenodd"/>
        <path id="Trazado_1169256" data-name="Trazado 1169256" d="M96.685,424.1a2.706,2.706,0,1,0,4.687,2.706l3.153-5.461a2.706,2.706,0,0,0-4.687-2.706Z" transform="translate(-78.963 -337.39)" fill="#ffcec0" fill-rule="evenodd"/>
        <path id="Trazado_1169257" data-name="Trazado 1169257" d="M157.566,321.6l-10.429,4.825a3.071,3.071,0,0,0-1.271-1.663l-8.224-4.748c-1.8-1.038-3.53-2.093-5.793-2.079-4.922.029-8.229,5.245-12.374,1.813a2.043,2.043,0,0,1,.054-3.451l8.794-5.483c2.933-1.829,6.091-2.7,9.3-1.644a9.681,9.681,0,0,0,8-.72l6.184-3.439a14.874,14.874,0,0,1,5.767,16.589Z" transform="translate(-96.654 -248.017)" fill="#ffcec0" fill-rule="evenodd"/>
        <path id="Trazado_1169258" data-name="Trazado 1169258" d="M273.3,317.34l-2.613,1.11a1.042,1.042,0,0,1-1.449-.949,19.313,19.313,0,0,0-7.108-15.087,1.042,1.042,0,0,1,.165-1.708l3.332-1.853a1.536,1.536,0,0,1,1.728.139c5.27,4.157,8.054,11.409,6.866,17.223a1.521,1.521,0,0,1-.921,1.126Z" transform="translate(-210.657 -242.95)" fill="#8bbd00" fill-rule="evenodd"/>
        <path id="Trazado_1169259" data-name="Trazado 1169259" d="M278.3,317.339l-1.8.764-.031-.02a1.076,1.076,0,0,1-.5-.913,20.476,20.476,0,0,0-7.536-16,1.072,1.072,0,0,1-.393-.884l2.587-1.439a1.536,1.536,0,0,1,1.728.139c5.27,4.157,8.054,11.409,6.866,17.223a1.521,1.521,0,0,1-.921,1.126Z" transform="translate(-215.655 -242.95)" fill="#a8e304" fill-rule="evenodd"/>
        <path id="Trazado_1169260" data-name="Trazado 1169260" d="M12.389,317.34,15,318.45a1.042,1.042,0,0,0,1.449-.949,19.313,19.313,0,0,1,7.108-15.087,1.042,1.042,0,0,0-.165-1.708l-3.332-1.853a1.536,1.536,0,0,0-1.728.139c-5.27,4.157-8.054,11.409-6.866,17.223a1.521,1.521,0,0,0,.921,1.126Z" transform="translate(-11.197 -242.95)" fill="#2a92fa" fill-rule="evenodd"/>
        <path id="Trazado_1169261" data-name="Trazado 1169261" d="M12.389,317.339l1.8.764.031-.02a1.076,1.076,0,0,0,.5-.913,20.476,20.476,0,0,1,7.536-16,1.072,1.072,0,0,0,.393-.884l-2.587-1.439a1.536,1.536,0,0,0-1.728.139c-5.27,4.157-8.054,11.409-6.866,17.223a1.521,1.521,0,0,0,.921,1.126Z" transform="translate(-11.197 -242.95)" fill="#4eb1fc" fill-rule="evenodd"/>
        <path id="Trazado_1169262" data-name="Trazado 1169262" d="M88.355,415.322a2.72,2.72,0,0,0,3.194-1.216l1.945-3.369a2.717,2.717,0,0,0-.544-3.374Z" transform="translate(-72.619 -329.492)" fill="#fdb0a0" fill-rule="evenodd"/>
        <path id="Trazado_1169263" data-name="Trazado 1169263" d="M157.3,455.13a2.72,2.72,0,0,0,3.194-1.216l1.945-3.369a2.717,2.717,0,0,0-.544-3.374L157.3,455.13Z" transform="translate(-127.505 -361.181)" fill="#fdb0a0" fill-rule="evenodd"/>
        <path id="Trazado_1169264" data-name="Trazado 1169264" d="M131.1,443a2.72,2.72,0,0,0,3.194-1.216l2.6-4.506a2.717,2.717,0,0,0-.544-3.374Z" transform="translate(-106.647 -350.618)" fill="#fdb0a0" fill-rule="evenodd"/>
        <path id="Trazado_1169265" data-name="Trazado 1169265" d="M105.414,430.683a2.72,2.72,0,0,0,3.19-1.21l3.157-5.467a2.717,2.717,0,0,0-.544-3.374l-5.8,10.051Z" transform="translate(-86.198 -340.054)" fill="#fdb0a0" fill-rule="evenodd"/>
      </g>
      <rect id="Rectángulo_421249" data-name="Rectángulo 421249" width="30.184" height="8.477" rx="4.239" transform="translate(75.217 97.099)" fill="#f19a00"/>
      <path id="Trazado_1169266" data-name="Trazado 1169266" d="M355.239,362.995h26.074a2.056,2.056,0,0,1,2.055,2.055v4.367a2.056,2.056,0,0,1-2.055,2.055H355.239a2.056,2.056,0,0,1-2.055-2.055V365.05a2.056,2.056,0,0,1,2.055-2.055Z" transform="translate(-277.967 -274.373)" fill="#fdc72e"/>
      <rect id="Rectángulo_421250" data-name="Rectángulo 421250" width="30.184" height="8.477" rx="4.239" transform="translate(75.217 80.144)" fill="#f19a00"/>
      <path id="Trazado_1169267" data-name="Trazado 1169267" d="M355.24,321.429h23.124a.578.578,0,0,1,.577.577v4.333a2.061,2.061,0,0,1-2.055,2.055H353.762a.578.578,0,0,1-.577-.577v-4.333A2.061,2.061,0,0,1,355.24,321.429Z" transform="translate(-277.968 -241.285)" fill="#f9ac00" fill-rule="evenodd"/>
      <path id="Trazado_1169268" data-name="Trazado 1169268" d="M355.24,362.995h23.124a.578.578,0,0,1,.577.577v4.333a2.061,2.061,0,0,1-2.055,2.055H353.762a.578.578,0,0,1-.577-.577V365.05A2.061,2.061,0,0,1,355.24,363Z" transform="translate(-277.968 -274.373)" fill="#fcdb35" fill-rule="evenodd"/>
      <path id="Trazado_1169269" data-name="Trazado 1169269" d="M355.24,404.561h23.124a.578.578,0,0,1,.577.577v4.333a2.061,2.061,0,0,1-2.055,2.055H353.762a.578.578,0,0,1-.577-.577v-4.333a2.061,2.061,0,0,1,2.055-2.055Z" transform="translate(-277.968 -307.462)" fill="#f9ac00" fill-rule="evenodd"/>
      <circle id="Elipse_14456" data-name="Elipse 14456" cx="15.092" cy="15.092" r="15.092" transform="translate(71.693 75.048) rotate(-74.102)" fill="#f9ac00"/>
      <path id="Trazado_1169270" data-name="Trazado 1169270" d="M367.806,201.729a15.092,15.092,0,1,1,14.621-15.084A15.092,15.092,0,0,1,367.806,201.729Z" transform="translate(-277.968 -121.981)" fill="#fcdb35" fill-rule="evenodd"/>
      <circle id="Elipse_14457" data-name="Elipse 14457" cx="11.003" cy="11.003" r="11.003" transform="translate(76.757 72.244) rotate(-74.102)" fill="#f19a00"/>
      <path id="Trazado_1169271" data-name="Trazado 1169271" d="M389.705,191.659a11,11,0,1,1-10.382,10.985A11,11,0,0,1,389.705,191.659Z" transform="translate(-298.775 -137.981)" fill="#f9ac00" fill-rule="evenodd"/>
      <path id="Trazado_1169272" data-name="Trazado 1169272" d="M90.311,73.2a1.428,1.428,0,0,0,1.428-1.427v-.712a5.441,5.441,0,0,0,1.4-.455,3.627,3.627,0,0,0,1.993-2.722,3.334,3.334,0,0,0-1.049-2.964,6.284,6.284,0,0,0-2.549-1.3c-.3-.085-.622-.16-.928-.234a5.912,5.912,0,0,1-1.905-.655.694.694,0,0,1-.308-.448.558.558,0,0,1,.179-.394,2.906,2.906,0,0,1,2.254-.471,1.979,1.979,0,0,1,1.446.7,1.428,1.428,0,0,0,2.515-1.354,4.418,4.418,0,0,0-3.045-2.076v-.749a1.428,1.428,0,0,0-2.855,0v.736a4.546,4.546,0,0,0-2.374,1.241,3.355,3.355,0,0,0-.968,2.58,3.49,3.49,0,0,0,1.407,2.5,7.645,7.645,0,0,0,3,1.177c.289.069.562.135.805.2a3.41,3.41,0,0,1,1.4.655.5.5,0,0,1,.157.459.754.754,0,0,1-.438.569c-1.126.56-3.283.222-3.724-.586a1.428,1.428,0,1,0-2.5,1.372A4.779,4.779,0,0,0,88.883,71v.773A1.428,1.428,0,0,0,90.31,73.2Zm6.257,2.368a12.4,12.4,0,1,1,4.461-4.458,1.429,1.429,0,0,1-2.466-1.442A9.545,9.545,0,1,0,95.127,73.1a1.427,1.427,0,1,1,1.441,2.464Zm6.747,20.13a.631.631,0,0,0,.622-.622V90.716a.631.631,0,0,0-.622-.622H77.309a.63.63,0,0,0-.622.622v4.356a.63.63,0,0,0,.622.622ZM76.687,86.616a.629.629,0,0,0,.622.622h26.006a.629.629,0,0,0,.622-.622V82.262a.63.63,0,0,0-.622-.622H77.309a.629.629,0,0,0-.622.622ZM50.455,102.037l0,0-2.036-1.177a1.427,1.427,0,1,1,1.428-2.471l2.039,1.177.826.477a1.312,1.312,0,0,0,1.781-.477,1.318,1.318,0,0,0,.141-.928,1.6,1.6,0,0,0-.683-.89L45.6,92.927c-1.636-.947-3.049-1.765-4.817-1.765h-.033a11.022,11.022,0,0,0-4.629,1.477c-2.42,1.184-5.435,2.655-8.637,0A3.807,3.807,0,0,1,26.047,89.5a3.318,3.318,0,0,1,1.646-2.612l6.034-3.761a11.429,11.429,0,0,0-4.783-.239c-2.828.245-6.035.525-10.207-1.824l-.472-.262a17.732,17.732,0,0,0-6.126,12.922L18.5,97.006a1.377,1.377,0,0,1,.391.3l1.127,1.211.518-.9a4.125,4.125,0,0,1,7.472.713,4.122,4.122,0,0,1,4.679,2.7,4.112,4.112,0,0,1,4.674,2.7,4.081,4.081,0,0,1,2.843.474,4.128,4.128,0,0,1,2.061,3.687.008.008,0,0,0,0,0,1.427,1.427,0,0,1,1.95-.521.01.01,0,0,1,.008,0l1.532.883a1.137,1.137,0,0,0,1.14-1.968l-.952-.549a1.427,1.427,0,0,1,1.427-2.472l.951.549v0s0,0,0,0l.824.475a1.3,1.3,0,0,0,1.78-.478,1.318,1.318,0,0,0-.477-1.778Zm-7.663,7.805a1.419,1.419,0,0,1-.678-.941,4.142,4.142,0,0,1-.4.947l-.708,1.23.313.176c.864.5,1.568.456,1.89-.1a.913.913,0,0,0-.421-1.307Zm-5.487,1.94a1.289,1.289,0,0,1-1.738.467,1.274,1.274,0,0,1-.467-1.736l1.943-3.367a1.273,1.273,0,0,1,2.2,1.275l-1.942,3.361Zm-5.332-1.564a1.273,1.273,0,0,1-2.2-1.273s0,0,0-.006l2.592-4.487s0,0,0,0v0a1.279,1.279,0,0,1,1.737-.463,1.28,1.28,0,0,1,.468,1.735v0h0l-1.938,3.359,0,0-.655,1.136Zm-5.227-1.748a1.273,1.273,0,0,1-2.2-1.273l.9-1.564,2.246-3.887a1.291,1.291,0,0,1,1.737-.465,1.275,1.275,0,0,1,.465,1.739v0l-2.727,4.722Zm-3.473-4.789a1.272,1.272,0,0,1-2.2-1.272l1.94-3.361a1.273,1.273,0,0,1,2.207,1.27l-1.943,3.363Zm14.7-19.84c2.936-1.829,5.578-2.319,8.077-1.5a11.134,11.134,0,0,0,9.119-.826l1.321-.736a17.728,17.728,0,0,1,6.141,12.781L56.6,96.351a5.254,5.254,0,0,0-1.042-.962,1.236,1.236,0,0,0-.12-.078l-8.412-4.856c-1.825-1.056-3.711-2.148-6.244-2.148h-.053a13.359,13.359,0,0,0-5.864,1.767c-2.553,1.247-3.856,1.783-5.564.372a1.029,1.029,0,0,1-.407-.753c0-.053.014-.2.306-.381l8.774-5.47ZM58.31,78.576A20.791,20.791,0,0,1,65.5,93.828l2.095-.89a.107.107,0,0,0,.082-.1c1.1-5.4-1.573-12.062-6.362-15.84a.115.115,0,0,0-.151-.012L58.31,78.576Zm32-.1a13.625,13.625,0,1,1,13.626-13.624A13.639,13.639,0,0,1,90.311,78.473Zm16.481,3.789v4.354a3.458,3.458,0,0,1-.674,2.05,3.46,3.46,0,0,1,.674,2.05v4.356a3.455,3.455,0,0,1-.674,2.05,3.455,3.455,0,0,1,.674,2.05v4.357a3.481,3.481,0,0,1-3.477,3.477H89.578a1.428,1.428,0,0,1,0-2.856h13.736a.631.631,0,0,0,.622-.621V99.171a.631.631,0,0,0-.622-.621H77.309a.63.63,0,0,0-.622.621v4.357a.63.63,0,0,0,.622.621h6.686a1.428,1.428,0,0,1,0,2.856H77.309a3.48,3.48,0,0,1-3.477-3.477v-.751H54.881a4.017,4.017,0,0,1-.444.149,4.425,4.425,0,0,1-.484.1,4.1,4.1,0,0,1-.548,2.219,4.147,4.147,0,0,1-3.088,2.045,4,4,0,0,1-4.164,3.973,3.862,3.862,0,0,1-.466,1.315,3.773,3.773,0,0,1-3.3,1.877,4.962,4.962,0,0,1-2.482-.72l-.345-.195a4.137,4.137,0,0,1-3.369,1.734,4.124,4.124,0,0,1-3.518-1.983,4.128,4.128,0,0,1-3.871-.137,4.076,4.076,0,0,1-1.523-1.536,4.213,4.213,0,0,1-.571.2,4.121,4.121,0,0,1-5.135-4.686,4.124,4.124,0,0,1-3.044-6.023l-1.56-1.678L11.1,96.4c-.032.022-.063.049-.1.071a2.444,2.444,0,0,1-1.347.408,2.484,2.484,0,0,1-.972-.2l-2.617-1.11A2.953,2.953,0,0,1,4.3,93.412a18.235,18.235,0,0,1,1.44-10.9A1.428,1.428,0,1,1,8.35,83.67,15.364,15.364,0,0,0,7.1,92.839a.1.1,0,0,0,.082.1l2.094.89a20.794,20.794,0,0,1,7.192-15.252l-2.856-1.589A.118.118,0,0,0,13.46,77,16.678,16.678,0,0,0,11.1,79.28,1.427,1.427,0,1,1,8.93,77.43a19.451,19.451,0,0,1,2.761-2.672A2.954,2.954,0,0,1,15,74.494l3.336,1.856A2.439,2.439,0,0,1,19.6,78.271v0l.539.3c3.4,1.915,5.908,1.7,8.562,1.467,2.481-.214,5.041-.435,7.911,1.291,3.6-2.2,7.075-2.777,10.339-1.7a8.254,8.254,0,0,0,6.836-.61l1.4-.783a2.437,2.437,0,0,1,1.254-1.89l3.336-1.856a2.95,2.95,0,0,1,3.308.265c5.591,4.41,8.7,12.254,7.389,18.653a2.954,2.954,0,0,1-1.762,2.156L66.1,96.677a2.486,2.486,0,0,1-.973.2,2.441,2.441,0,0,1-1.346-.408,2.3,2.3,0,0,1-.243-.181l-6.027,2.788a4.068,4.068,0,0,1-.12.844H73.832v-.751a3.454,3.454,0,0,1,.672-2.05,3.454,3.454,0,0,1-.672-2.05V90.716a3.458,3.458,0,0,1,.672-2.05,3.456,3.456,0,0,1-.672-2.05V82.262a3.48,3.48,0,0,1,3.477-3.477h4.222a16.481,16.481,0,1,1,17.559,0h4.224a3.481,3.481,0,0,1,3.477,3.477ZM37.809,33.126H62.6a1.427,1.427,0,1,0,0-2.855H37.809a1.427,1.427,0,1,0,0,2.855Zm0,9.618H62.6a1.427,1.427,0,0,0,0-2.855H37.809a1.427,1.427,0,0,0,0,2.855ZM68.578,59.124H37.809a1.428,1.428,0,0,0,0,2.856H68.578a1.428,1.428,0,1,0,0-2.856Zm0,9.618H37.809a1.428,1.428,0,0,0,0,2.856H68.578a1.428,1.428,0,1,0,0-2.856Zm6.888-17.809a1.429,1.429,0,0,0-1.428-1.427H37.809a1.427,1.427,0,0,0,0,2.855H74.038a1.428,1.428,0,0,0,1.428-1.427Zm8.113-16.01-8.436-8.437v8.437Zm-58.6-.579V19.753A1.428,1.428,0,0,1,26.4,18.327H68.452a6.257,6.257,0,0,1,4.566,2L89.739,37.047a6.258,6.258,0,0,1,2,4.566v2.921a1.428,1.428,0,0,1-2.855,0V41.613a3.377,3.377,0,0,0-1.136-2.521l-.018-.019-.123-.125a4.153,4.153,0,0,0-2.892-1.171h-11a1.428,1.428,0,0,1-1.428-1.427v-11a4.137,4.137,0,0,0-1.173-2.889l-.124-.125c-.007-.006-.01-.012-.017-.018a3.384,3.384,0,0,0-2.522-1.136H27.832V34.344a1.428,1.428,0,0,1-2.855,0Zm0,41.489a1.428,1.428,0,0,0,2.855,0V39.928a1.428,1.428,0,0,0-2.855,0V75.834Z" transform="translate(0)" fill-rule="evenodd"/>
    </g>
  </g>
</svg>
