<svg xmlns="http://www.w3.org/2000/svg" xmlns:xlink="http://www.w3.org/1999/xlink" width="93.934" height="93.934" viewBox="0 0 93.934 93.934">
  <defs>
    <filter id="Trazado_982547" x="0" y="0" width="93.934" height="93.934" filterUnits="userSpaceOnUse">
      <feOffset dy="3" input="SourceAlpha"/>
      <feGaussianBlur stdDeviation="3" result="blur"/>
      <feFlood flood-opacity="0.161"/>
      <feComposite operator="in" in2="blur"/>
      <feComposite in="SourceGraphic"/>
    </filter>
  </defs>
  <g id="Grupo_1220452" data-name="Grupo 1220452" transform="translate(-193.066 -8201.533)">
    <g id="Grupo_1220004" data-name="Grupo 1220004" transform="translate(2 7158.685)">
      <g id="Grupo_1215981" data-name="Grupo 1215981" transform="translate(-0.229 -2679.151)">
        <g id="Grupo_1214594" data-name="Grupo 1214594" transform="translate(0 -1406)">
          <g id="Grupo_1214432" data-name="Grupo 1214432" transform="translate(-0.771 -2738.674)">
            <g id="Grupo_1183196" data-name="Grupo 1183196" transform="translate(1 1016.674)">
              <g id="Grupo_1179610" data-name="Grupo 1179610" transform="translate(8 4723.467)">
                <g id="Grupo_1175227" data-name="Grupo 1175227" transform="translate(-5.967 140.533)">
                  <g id="Grupo_1167337" data-name="Grupo 1167337" transform="translate(198.033 1992)">
                    <g id="Grupo_1166720" data-name="Grupo 1166720">
                      <g id="Grupo_1164305" data-name="Grupo 1164305">
                        <g id="Grupo_1163948" data-name="Grupo 1163948">
                          <g id="Grupo_1158168" data-name="Grupo 1158168">
                            <g id="Grupo_1152576" data-name="Grupo 1152576">
                              <g id="Grupo_1148633" data-name="Grupo 1148633">
                                <g id="Grupo_1148525" data-name="Grupo 1148525">
                                  <g transform="matrix(1, 0, 0, 1, -9, -6)" filter="url(#Trazado_982547)">
                                    <g id="Trazado_982547-2" data-name="Trazado 982547" transform="translate(9 6)" fill="#eae4dc">
                                      <path d="M 37.966796875 74.43359375 C 33.04315185546875 74.43359375 28.26757431030273 73.46962738037109 23.77274131774902 71.56847381591797 C 19.43047523498535 69.73184967041016 15.53040790557861 67.10224914550781 12.18087482452393 63.75271987915039 C 8.831341743469238 60.4031867980957 6.201741218566895 56.50312042236328 4.365118980407715 52.16086196899414 C 2.463963508605957 47.66601943969727 1.499996900558472 42.89044189453125 1.499996900558472 37.966796875 C 1.499996900558472 33.04315185546875 2.463963508605957 28.26757431030273 4.365118980407715 23.77274131774902 C 6.201741218566895 19.43047523498535 8.831341743469238 15.53040790557861 12.18087482452393 12.18087482452393 C 15.53040790557861 8.831341743469238 19.43047523498535 6.201741218566895 23.77274131774902 4.365118980407715 C 28.26757431030273 2.463963508605957 33.04315185546875 1.499996900558472 37.966796875 1.499996900558472 C 42.89044189453125 1.499996900558472 47.66601943969727 2.463963508605957 52.16086196899414 4.365118980407715 C 56.50312042236328 6.201741218566895 60.4031867980957 8.831341743469238 63.75271987915039 12.18087482452393 C 67.10224914550781 15.53040790557861 69.73184967041016 19.43047523498535 71.56847381591797 23.77274131774902 C 73.46962738037109 28.26757431030273 74.43359375 33.04315185546875 74.43359375 37.966796875 C 74.43359375 42.89044189453125 73.46962738037109 47.66601943969727 71.56847381591797 52.16086196899414 C 69.73184967041016 56.50313186645508 67.10224914550781 60.4031867980957 63.75271987915039 63.75271987915039 C 60.4031867980957 67.10224914550781 56.50313186645508 69.73184967041016 52.16086196899414 71.56847381591797 C 47.66601943969727 73.46962738037109 42.89044189453125 74.43359375 37.966796875 74.43359375 Z" stroke="none"/>
                                      <path d="M 37.966796875 3 C 33.2449836730957 3 28.66600799560547 3.924095153808594 24.35705947875977 5.746635437011719 C 20.19359588623047 7.507637023925781 16.45379638671875 10.02928161621094 13.24153518676758 13.24153518676758 C 10.02927398681641 16.45379638671875 7.507621765136719 20.19359588623047 5.746635437011719 24.35705947875977 C 3.924095153808594 28.66600799560547 3 33.2449836730957 3 37.966796875 C 3 42.6886100769043 3.924095153808594 47.26758575439453 5.746635437011719 51.57653427124023 C 7.507621765136719 55.73999786376953 10.02927398681641 59.47979736328125 13.24153518676758 62.69205856323242 C 16.45379638671875 65.90431976318359 20.19359588623047 68.42597198486328 24.35705947875977 70.18695831298828 C 28.66600799560547 72.00949859619141 33.2449836730957 72.93359375 37.966796875 72.93359375 C 42.6886100769043 72.93359375 47.26758575439453 72.00949859619141 51.57653427124023 70.18695831298828 C 55.73999786376953 68.42597198486328 59.47979736328125 65.90431976318359 62.69205856323242 62.69205856323242 C 65.90431976318359 59.47979736328125 68.42597198486328 55.73999786376953 70.18695831298828 51.57653427124023 C 72.00949859619141 47.26758575439453 72.93359375 42.6886100769043 72.93359375 37.966796875 C 72.93359375 33.2449836730957 72.00949859619141 28.66600799560547 70.18695831298828 24.35705947875977 C 68.42597198486328 20.19359588623047 65.90431976318359 16.45379638671875 62.69205856323242 13.24153518676758 C 59.47979736328125 10.02928161621094 55.73999786376953 7.507637023925781 51.57653427124023 5.746635437011719 C 47.26758575439453 3.924095153808594 42.6886100769043 3 37.966796875 3 M 37.966796875 0 C 58.93528366088867 0 75.93359375 16.99832153320312 75.93359375 37.966796875 C 75.93359375 58.93528366088867 58.93528366088867 75.93359375 37.966796875 75.93359375 C 16.99831008911133 75.93359375 0 58.93528366088867 0 37.966796875 C 0 16.99832153320312 16.99831008911133 0 37.966796875 0 Z" stroke="none" fill="#665b4e"/>
                                    </g>
                                  </g>
                                </g>
                              </g>
                            </g>
                          </g>
                        </g>
                      </g>
                    </g>
                  </g>
                </g>
              </g>
            </g>
          </g>
        </g>
      </g>
    </g>
    <g id="poliza-de-seguros" transform="translate(194.07 8207.621)">
      <g id="Grupo_1220451" data-name="Grupo 1220451" transform="translate(9.055 11.187)">
        <g id="Grupo_1220445" data-name="Grupo 1220445" transform="translate(11.02 0)">
          <g id="Grupo_1220444" data-name="Grupo 1220444">
            <path id="Trazado_1169361" data-name="Trazado 1169361" d="M139.769,51.94a2.639,2.639,0,0,1,2.634,2.634V103.04a2.639,2.639,0,0,1-2.634,2.634H99.2a2.639,2.639,0,0,1-2.634-2.634V54.574A2.639,2.639,0,0,1,99.2,51.94Z" transform="translate(-96.571 -47.325)" fill="#a79ba7" fill-rule="evenodd"/>
            <path id="Trazado_1169362" data-name="Trazado 1169362" d="M393.161,51.94a2.639,2.639,0,0,1,2.634,2.634V103.04a2.639,2.639,0,0,1-2.634,2.634h-3.187V51.94Z" transform="translate(-349.963 -47.325)" fill="#837683" fill-rule="evenodd"/>
            <path id="Trazado_1169363" data-name="Trazado 1169363" d="M160.754,78.811H124.632A1.193,1.193,0,0,0,123.441,80v44.024a1.193,1.193,0,0,0,1.191,1.191h36.122a1.193,1.193,0,0,0,1.191-1.191V80A1.193,1.193,0,0,0,160.754,78.811Z" transform="translate(-119.777 -70.532)" fill="#eceff1" fill-rule="evenodd"/>
            <path id="Trazado_1169364" data-name="Trazado 1169364" d="M390.94,78.811h-.966v46.406h.966a1.193,1.193,0,0,0,1.191-1.191V80A1.193,1.193,0,0,0,390.94,78.811Z" transform="translate(-349.963 -70.532)" fill="#d1d1d6" fill-rule="evenodd"/>
            <g id="Grupo_1220443" data-name="Grupo 1220443" transform="translate(12.775)">
              <path id="Trazado_1169365" data-name="Trazado 1169365" d="M191.442,21.521h4.6a4.479,4.479,0,0,1,8.706,0h4.6a1.193,1.193,0,0,1,1.191,1.191v4.467a1.193,1.193,0,0,1-1.191,1.191h-17.9a1.193,1.193,0,0,1-1.191-1.191V22.712a1.193,1.193,0,0,1,1.191-1.191Z" transform="translate(-190.251 -18.097)" fill="#e3a76f" fill-rule="evenodd"/>
              <path id="Trazado_1169366" data-name="Trazado 1169366" d="M209.342,43.207a1.193,1.193,0,0,1,1.191,1.191v4.467a1.193,1.193,0,0,1-1.191,1.191h-17.9a1.193,1.193,0,0,1-1.191-1.191h17.9a1.193,1.193,0,0,0,1.191-1.191Z" transform="translate(-190.251 -39.783)" fill="#c48958" fill-rule="evenodd"/>
            </g>
          </g>
        </g>
        <g id="Grupo_1220450" data-name="Grupo 1220450" transform="translate(0 15.087)">
          <g id="Grupo_1220448" data-name="Grupo 1220448" transform="translate(0 22.365)">
            <g id="Grupo_1220446" data-name="Grupo 1220446">
              <path id="Trazado_1169367" data-name="Trazado 1169367" d="M27.829,292.851l10.333,4.428a1.071,1.071,0,0,1,.661,1v8.6c0,6.844-4.9,12.127-11.531,13.283-6.631-1.156-11.531-6.439-11.531-13.283v-8.6a1.071,1.071,0,0,1,.661-1l10.333-4.428A1.319,1.319,0,0,1,27.829,292.851Z" transform="translate(-15.761 -292.736)" fill="#8ac9fe" fill-rule="evenodd"/>
              <path id="Trazado_1169368" data-name="Trazado 1169368" d="M96.539,292.851l10.333,4.428a1.071,1.071,0,0,1,.661,1v8.6c0,6.844-4.9,12.127-11.531,13.283q-.344-.06-.682-.135a13.391,13.391,0,0,0,10.849-13.147v-8.6a1.071,1.071,0,0,0-.661-1L95.32,292.913l.145-.062A1.319,1.319,0,0,1,96.539,292.851Z" transform="translate(-84.471 -292.736)" fill="#60b7ff" fill-rule="evenodd"/>
            </g>
            <g id="Grupo_1220447" data-name="Grupo 1220447" transform="translate(1.219 3.317)">
              <circle id="Elipse_14460" data-name="Elipse 14460" cx="7.396" cy="7.396" r="7.396" transform="translate(0 8.653) rotate(-35.804)" fill="#eceff1"/>
              <path id="Trazado_1169369" data-name="Trazado 1169369" d="M53.483,338.661a7.4,7.4,0,0,0,0,14.792c.23,0,.457-.011.682-.032a7.4,7.4,0,0,1,0-14.728C53.94,338.672,53.713,338.661,53.483,338.661Z" transform="translate(-43.17 -335.716)" fill="#d1d1d6" fill-rule="evenodd"/>
            </g>
          </g>
          <g id="Grupo_1220449" data-name="Grupo 1220449" transform="translate(44.135)">
            <path id="Trazado_1169370" data-name="Trazado 1169370" d="M339.4,156,354.3,130.2a2.939,2.939,0,0,1,4.007-1.073l1.016.587a2.939,2.939,0,0,1,1.074,4.007l-14.9,25.807-5.665,3.271a.288.288,0,0,1-.431-.249V156Z" transform="translate(-339.404 -128.733)" fill="#e3a76f" fill-rule="evenodd"/>
            <path id="Trazado_1169371" data-name="Trazado 1169371" d="M357.935,130.268a2.932,2.932,0,0,1,.375.182l1.016.587a2.939,2.939,0,0,1,1.073,4.007L345.5,160.85l-5.665,3.271a.288.288,0,0,1-.431-.249v-1.507l4.359-2.517,14.9-25.807A2.941,2.941,0,0,0,357.935,130.268Z" transform="translate(-339.404 -130.059)" fill="#c48958" fill-rule="evenodd"/>
            <path id="Trazado_1169372" data-name="Trazado 1169372" d="M339.4,335.261V328.72l6.1,3.52-5.665,3.271A.288.288,0,0,1,339.4,335.261Z" transform="translate(-339.404 -301.448)" fill="#837683" fill-rule="evenodd"/>
            <path id="Trazado_1169373" data-name="Trazado 1169373" d="M339.4,351.2v-1.507l4.359-2.517,1.737,1-5.665,3.271a.288.288,0,0,1-.431-.249Z" transform="translate(-339.404 -317.388)" fill="#685e68" fill-rule="evenodd"/>
            <path id="Trazado_1169374" data-name="Trazado 1169374" d="M439.635,132.331l1.231-2.133a2.939,2.939,0,0,1,4.007-1.073l1.016.587a2.939,2.939,0,0,1,1.073,4.007l-1.231,2.133Z" transform="translate(-425.967 -128.733)" fill="#837683" fill-rule="evenodd"/>
            <path id="Trazado_1169375" data-name="Trazado 1169375" d="M472.105,130.268a2.932,2.932,0,0,1,.375.182l1.016.587a2.939,2.939,0,0,1,1.073,4.007l-1.231,2.133-1.737-1,1.231-2.133a2.94,2.94,0,0,0-.728-3.773Z" transform="translate(-453.574 -130.059)" fill="#685e68" fill-rule="evenodd"/>
          </g>
        </g>
      </g>
      <path id="Trazado_1169376" data-name="Trazado 1169376" d="M23.2,59.431,19.431,62.85l-1.354-1.356a1.091,1.091,0,1,0-1.544,1.542l2.091,2.091a1.092,1.092,0,0,0,1.5.037l4.537-4.117A1.091,1.091,0,1,0,23.2,59.431ZM26.923,62.3a6.305,6.305,0,1,1-6.3-6.3A6.312,6.312,0,0,1,26.923,62.3Zm2.182,0a8.487,8.487,0,1,1-8.486-8.486A8.5,8.5,0,0,1,29.1,62.3Zm44.286-33a1.817,1.817,0,0,0-.848-1.109l-1.01-.582a1.831,1.831,0,0,0-2.492.667l-1.156,2,4.17,2.407,1.156-2a1.819,1.819,0,0,0,.18-1.384Zm-8.7,20.5-1.458,2.524V65.9a1.091,1.091,0,0,1-1.091,1.091H32.624a14.359,14.359,0,0,1-.524,1.458H63.167a1.527,1.527,0,0,0,1.524-1.525ZM31.059,62.789a12.393,12.393,0,0,1-10.44,12.175,12.393,12.393,0,0,1-10.44-12.175v-8.6l10.441-4.474,10.44,4.474v8.6Zm-9.7-44V47.652l1.456.625V19.808A1.091,1.091,0,0,1,23.9,18.717H31.86V17.261H22.879a1.525,1.525,0,0,0-1.524,1.525Zm11.6,3.7H53.094a1.091,1.091,0,0,0,1.091-1.091V20.9h6.866v16.85L54.715,48.725H30.453a1.091,1.091,0,1,0,0,2.182h23l-1.113,1.927a1.1,1.1,0,0,0-.146.545V54.3H43.123a1.091,1.091,0,1,0,0,2.182H52.2v3.9a1.094,1.094,0,0,0,1.091,1.091,1.1,1.1,0,0,0,.546-.146l6.059-3.5a1.087,1.087,0,0,0,.4-.4l.761-1.32v8.7H33.1a14.88,14.88,0,0,0,.138-2.017V53.465a1.091,1.091,0,0,0-.661-1l-7.586-3.251V20.9H31.86v.491a1.091,1.091,0,0,0,1.091,1.091ZM34.043,20.3H52v-4.62H47.345a1.09,1.09,0,0,1-1.06-.835,3.357,3.357,0,0,0-6.525,0,1.091,1.091,0,0,1-1.061.835H34.043Zm20.143-3.038v1.456h7.957a1.091,1.091,0,0,1,1.091,1.091v14.16l1.458-2.523V18.785a1.526,1.526,0,0,0-1.525-1.525Zm.192,41.226V55.269l2.786,1.608ZM70.963,34.575,58.946,55.388l-4.169-2.407L66.794,32.167Zm4.136-2.8L66.873,46.022v20.9a3.711,3.711,0,0,1-3.707,3.706H30.937a15.026,15.026,0,0,1-10.132,6.52,1.069,1.069,0,0,1-.187.016,1.1,1.1,0,0,1-.188-.016A14.557,14.557,0,0,1,8,62.789V53.465a1.091,1.091,0,0,1,.661-1l10.515-4.507V18.785a3.71,3.71,0,0,1,3.707-3.706h8.981v-.491A1.091,1.091,0,0,1,32.951,13.5h4.96a5.542,5.542,0,0,1,10.223,0h4.96a1.091,1.091,0,0,1,1.091,1.091v.491h8.981a3.711,3.711,0,0,1,3.706,3.707v8.88l.278-.481a4.01,4.01,0,0,1,5.471-1.466l1.011.584A4.012,4.012,0,0,1,75.1,31.774ZM29.362,27.533a1.091,1.091,0,0,1,1.091-1.091h25.14a1.091,1.091,0,0,1,0,2.182H30.453A1.091,1.091,0,0,1,29.362,27.533Zm26.231,4.48a1.091,1.091,0,1,1,0,2.182H30.453a1.091,1.091,0,1,1,0-2.182Zm0,5.571a1.091,1.091,0,1,1,0,2.182H30.453a1.091,1.091,0,1,1,0-2.182Zm0,5.571a1.091,1.091,0,0,1,0,2.182H30.453a1.091,1.091,0,0,1,0-2.182ZM44.2,14.833a1.176,1.176,0,1,1-1.177-1.177A1.176,1.176,0,0,1,44.2,14.833Z" fill="#242222" fill-rule="evenodd"/>
    </g>
  </g>
</svg>
