<svg xmlns="http://www.w3.org/2000/svg" xmlns:xlink="http://www.w3.org/1999/xlink" width="108" height="108" viewBox="0 0 108 108">
  <defs>
    <filter id="Trazado_904820" x="0" y="0" width="108" height="108" filterUnits="userSpaceOnUse">
      <feOffset dy="3" input="SourceAlpha"/>
      <feGaussianBlur stdDeviation="3" result="blur"/>
      <feFlood flood-opacity="0.161"/>
      <feComposite operator="in" in2="blur"/>
      <feComposite in="SourceGraphic"/>
    </filter>
  </defs>
  <g id="Grupo_1220528" data-name="Grupo 1220528" transform="translate(-197 -765)">
    <g id="Grupo_1220072" data-name="Grupo 1220072" transform="translate(200 771)">
      <g id="Grupo_1209015" data-name="Grupo 1209015" transform="translate(5.999 0)">
        <g id="Grupo_1207774" data-name="Grupo 1207774">
          <g id="Grupo_1206630" data-name="Grupo 1206630">
            <g id="Grupo_1185091" data-name="Grupo 1185091">
              <g id="Grupo_1179560" data-name="Grupo 1179560">
                <g id="Grupo_1173787" data-name="Grupo 1173787">
                  <g id="Grupo_1171910" data-name="Grupo 1171910">
                    <g id="Grupo_1167341" data-name="Grupo 1167341">
                      <g id="Grupo_1166792" data-name="Grupo 1166792">
                        <g transform="matrix(1, 0, 0, 1, -9, -6)" filter="url(#Trazado_904820)">
                          <g id="Trazado_904820-2" data-name="Trazado 904820" transform="translate(9 6)" fill="#e7f2f8">
                            <path d="M 44.99996948242188 88.50005340576172 C 39.12684631347656 88.50005340576172 33.43020629882812 87.35012817382812 28.06828117370605 85.08221435546875 C 22.88851928710938 82.89136505126953 18.23629379272461 79.754638671875 14.2408447265625 75.75918579101562 C 10.24540710449219 71.76374053955078 7.108694553375244 67.11151123046875 4.917831897735596 61.93173980712891 C 2.649931907653809 56.56980133056641 1.500007033348083 50.87314987182617 1.500007033348083 45.00002670288086 C 1.500007033348083 39.12690353393555 2.649931907653809 33.43025207519531 4.917831897735596 28.06831359863281 C 7.108694553375244 22.8885383605957 10.24540710449219 18.23631477355957 14.2408447265625 14.24086380004883 C 18.23629379272461 10.2454137802124 22.88851928710938 7.108689308166504 28.06828117370605 4.917839050292969 C 33.43020629882812 2.649926662445068 39.12684631347656 1.500001668930054 44.99996948242188 1.500001668930054 C 50.87309265136719 1.500001668930054 56.56973266601562 2.649926662445068 61.93165588378906 4.917839050292969 C 67.11143493652344 7.108689308166504 71.76364135742188 10.2454137802124 75.75909423828125 14.24086380004883 C 79.75454711914062 18.23631477355957 82.89125823974609 22.8885383605957 85.08212280273438 28.06831359863281 C 87.35002136230469 33.43025207519531 88.49994659423828 39.12690353393555 88.49994659423828 45.00002670288086 C 88.49994659423828 50.87314987182617 87.35002136230469 56.56980133056641 85.08212280273438 61.93173980712891 C 82.89125823974609 67.11151123046875 79.75454711914062 71.76374053955078 75.75909423828125 75.75918579101562 C 71.76364135742188 79.754638671875 67.11143493652344 82.89136505126953 61.93165588378906 85.08221435546875 C 56.56973266601562 87.35012817382812 50.87309265136719 88.50005340576172 44.99996948242188 88.50005340576172 Z" stroke="none"/>
                            <path d="M 44.99996948242188 3 C 39.32868194580078 3 33.82863998413086 4.110054016113281 28.65261077880859 6.299339294433594 C 23.65164184570312 8.414566040039062 19.15968322753906 11.44334411621094 15.301513671875 15.30152893066406 C 11.44332885742188 19.15969848632812 8.414566040039062 23.65167236328125 6.299324035644531 28.65264129638672 C 4.110054016113281 33.82868194580078 3 39.32873916625977 3 45.00002670288086 C 3 50.67131423950195 4.110054016113281 56.17137145996094 6.299324035644531 61.347412109375 C 8.414566040039062 66.34838104248047 11.44332885742188 70.84035491943359 15.301513671875 74.69852447509766 C 19.15968322753906 78.55670928955078 23.65164184570312 81.58547973632812 28.65261077880859 83.70071411132812 C 33.82863998413086 85.88999938964844 39.32868194580078 87.00005340576172 44.99996948242188 87.00005340576172 C 50.67125701904297 87.00005340576172 56.17129898071289 85.88999938964844 61.34732818603516 83.70071411132812 C 66.34829711914062 81.58547973632812 70.84025573730469 78.55670928955078 74.69842529296875 74.69852447509766 C 78.55661010742188 70.84035491943359 81.58537292480469 66.34838104248047 83.70061492919922 61.347412109375 C 85.88988494873047 56.17137145996094 86.99993896484375 50.67131423950195 86.99993896484375 45.00002670288086 C 86.99993896484375 39.32873916625977 85.88988494873047 33.82868194580078 83.70061492919922 28.65264129638672 C 81.58537292480469 23.65167236328125 78.55661010742188 19.15969848632812 74.69842529296875 15.30152893066406 C 70.84025573730469 11.44334411621094 66.34829711914062 8.414566040039062 61.34732818603516 6.299339294433594 C 56.17129898071289 4.110054016113281 50.67125701904297 3 44.99996948242188 3 M 44.99996948242188 0 C 69.85276794433594 0 89.99993896484375 20.14720153808594 89.99993896484375 45.00002670288086 C 89.99993896484375 69.85285949707031 69.85276794433594 90.00005340576172 44.99996948242188 90.00005340576172 C 20.14717102050781 90.00005340576172 0 69.85285949707031 0 45.00002670288086 C 0 20.14720153808594 20.14717102050781 0 44.99996948242188 0 Z" stroke="none" fill="#248abf"/>
                          </g>
                        </g>
                      </g>
                    </g>
                  </g>
                </g>
              </g>
            </g>
          </g>
        </g>
      </g>
    </g>
    <g id="ley_19_" data-name="ley (19)" transform="translate(221.166 786.166)">
      <g id="Grupo_1220526" data-name="Grupo 1220526" transform="translate(1.096 1.096)">
        <g id="Grupo_1220525" data-name="Grupo 1220525">
          <g id="Grupo_1220519" data-name="Grupo 1220519">
            <g id="Grupo_1220518" data-name="Grupo 1220518">
              <path id="Trazado_1169565" data-name="Trazado 1169565" d="M16.807,75.406H13.919A6.419,6.419,0,0,1,7.5,68.986V13.919A6.419,6.419,0,0,1,13.919,7.5h2.888Z" transform="translate(-7.5 -7.5)" fill="#964f09"/>
              <path id="Trazado_1169566" data-name="Trazado 1169566" d="M109.347,75.406H71.178V7.5h38.169a2.885,2.885,0,0,1,2.885,2.885V72.521A2.885,2.885,0,0,1,109.347,75.406Z" transform="translate(-61.871 -7.5)" fill="#e68d35"/>
              <path id="Trazado_1169567" data-name="Trazado 1169567" d="M298.169,7.5h-5.846a2.885,2.885,0,0,1,2.885,2.885V72.52a2.885,2.885,0,0,1-2.885,2.885h5.846a2.885,2.885,0,0,0,2.885-2.885V10.385A2.885,2.885,0,0,0,298.169,7.5Z" transform="translate(-250.693 -7.5)" fill="#d47619"/>
              <path id="Trazado_1169568" data-name="Trazado 1169568" d="M80.453,393.068h-43.6a2.9,2.9,0,0,1-2.9-2.9V387.09a2.9,2.9,0,0,1,2.9-2.9h43.6Z" transform="translate(-30.089 -329.137)" fill="#fff"/>
              <path id="Trazado_1169569" data-name="Trazado 1169569" d="M77.058,423.552l-5.88,4.707V415.208h5.88Z" transform="translate(-61.871 -355.617)" fill="#73a4ff"/>
            </g>
            <path id="Trazado_1169570" data-name="Trazado 1169570" d="M133.115,73.465h22.949V88.684H133.115Z" transform="translate(-114.755 -63.824)" fill="#fff"/>
          </g>
          <g id="Grupo_1220524" data-name="Grupo 1220524" transform="translate(28.034 29.607)">
            <path id="Trazado_1169571" data-name="Trazado 1169571" d="M273.362,476.834h-26.73a2.367,2.367,0,0,1-2.367-2.367h0a2.367,2.367,0,0,1,2.367-2.367h26.73a2.367,2.367,0,0,1,2.367,2.367h0A2.367,2.367,0,0,1,273.362,476.834Z" transform="translate(-237.694 -433.799)" fill="#73a4ff"/>
            <path id="Trazado_1169572" data-name="Trazado 1169572" d="M409.189,472.1h-5.846a2.367,2.367,0,0,1,2.367,2.367h0a2.367,2.367,0,0,1-2.367,2.367h5.846a2.367,2.367,0,0,0,2.367-2.367h0A2.367,2.367,0,0,0,409.189,472.1Z" transform="translate(-373.521 -433.798)" fill="#5c95ff"/>
            <path id="Trazado_1169573" data-name="Trazado 1169573" d="M304.786,443.128H285.324a4.966,4.966,0,0,1,4.966-4.966h9.531a4.966,4.966,0,0,1,4.966,4.966h0Z" transform="translate(-272.751 -404.822)" fill="#ffd52b"/>
            <path id="Trazado_1169574" data-name="Trazado 1169574" d="M350.351,438.16h-5.846a4.966,4.966,0,0,1,4.966,4.966h5.846A4.966,4.966,0,0,0,350.351,438.16Z" transform="translate(-323.283 -404.821)" fill="#fcca00"/>
            <g id="Grupo_1220520" data-name="Grupo 1220520" transform="translate(19.916)">
              <path id="Trazado_1169575" data-name="Trazado 1169575" d="M340.341,243.33h-4.776V212.45a2.388,2.388,0,0,1,4.776,0Z" transform="translate(-335.565 -210.062)" fill="#73a4ff"/>
            </g>
            <path id="Trazado_1169576" data-name="Trazado 1169576" d="M313.136,251.966H297.123v0a7.868,7.868,0,0,1,7.868-7.868h.277a7.868,7.868,0,0,1,7.868,7.868Z" transform="translate(-282.826 -239.122)" fill="#ffd52b"/>
            <path id="Trazado_1169577" data-name="Trazado 1169577" d="M334.964,244.1h-.277a7.846,7.846,0,0,0-2.785.509,7.87,7.87,0,0,1,5.083,7.359v0h5.846v0A7.868,7.868,0,0,0,334.964,244.1Z" transform="translate(-312.522 -239.121)" fill="#fcca00"/>
            <g id="Grupo_1220523" data-name="Grupo 1220523" transform="translate(0 23.618)">
              <g id="Grupo_1220521" data-name="Grupo 1220521">
                <path id="Trazado_1169578" data-name="Trazado 1169578" d="M211.1,376.427h-9.411a2.389,2.389,0,0,1,0-4.778H211.1a2.389,2.389,0,0,1,0,4.778Z" transform="translate(-199.305 -371.649)" fill="#ffd52b"/>
              </g>
              <path id="Trazado_1169579" data-name="Trazado 1169579" d="M245.88,371.649h-5.846a2.389,2.389,0,0,1,0,4.778h5.846a2.389,2.389,0,0,0,0-4.778Z" transform="translate(-234.081 -371.649)" fill="#fcca00"/>
              <g id="Grupo_1220522" data-name="Grupo 1220522" transform="translate(30.42)">
                <path id="Trazado_1169580" data-name="Trazado 1169580" d="M419.232,376.427h-9.411a2.389,2.389,0,0,1,0-4.778h9.411a2.389,2.389,0,0,1,0,4.778Z" transform="translate(-407.433 -371.649)" fill="#ffd52b"/>
              </g>
              <path id="Trazado_1169581" data-name="Trazado 1169581" d="M454.008,371.649h-5.846a2.389,2.389,0,0,1,0,4.778h5.846a2.389,2.389,0,0,0,0-4.778Z" transform="translate(-411.789 -371.649)" fill="#fcca00"/>
            </g>
          </g>
        </g>
        <path id="Trazado_1169582" data-name="Trazado 1169582" d="M251.982,291.4H213.353a1.1,1.1,0,1,0,0,2.192h38.629a1.1,1.1,0,0,0,0-2.192Z" transform="translate(-182.33 -249.907)" fill="#ffd52b"/>
      </g>
      <g id="Grupo_1220527" data-name="Grupo 1220527" transform="translate(0 0)">
        <path id="Trazado_1169583" data-name="Trazado 1169583" d="M149.66,83.376a1.1,1.1,0,0,0,1.1-1.1V67.061a1.1,1.1,0,0,0-1.1-1.1H126.711a1.1,1.1,0,0,0-1.1,1.1V82.28a1.1,1.1,0,0,0,1.1,1.1ZM127.807,68.157h20.756V81.184H127.807Z" transform="translate(-107.255 -56.324)" fill="#060606"/>
        <path id="Trazado_1169584" data-name="Trazado 1169584" d="M71.62,53.236l-3.36-8.452h2.489a1.1,1.1,0,1,0,0-2.192H60.486a8.985,8.985,0,0,0-5.567-7.36v-2.14a3.49,3.49,0,0,0-2.365-3.3V3.981A3.986,3.986,0,0,0,48.572,0H7.515A7.524,7.524,0,0,0,0,7.515v5.347a1.1,1.1,0,0,0,2.192,0V7.515A5.329,5.329,0,0,1,7.515,2.192H9.307V55.058H7.858a4,4,0,0,0-3.991,3.991v3.083a4,4,0,0,0,3.991,3.991H9.307v1.782H7.515a5.329,5.329,0,0,1-5.323-5.323V18.416a1.1,1.1,0,1,0-2.192,0V62.583A7.524,7.524,0,0,0,7.515,70.1H9.307v3.64a1.1,1.1,0,0,0,1.781.856l5.617-4.5H34.848a3.5,3.5,0,0,0,3.221,4.736H56.563a1.1,1.1,0,1,0,0-2.192H38.069a1.273,1.273,0,0,1,0-2.543H64.8a1.273,1.273,0,0,1,0,2.543H62.4a1.1,1.1,0,1,0,0,2.192h2.4c4.456,0,4.464-6.928,0-6.928h-2.64a6.071,6.071,0,0,0-5.96-4.96H54.918V44.784H65.029l-3.36,8.452a3.485,3.485,0,0,0,.27,6.959H71.35a3.485,3.485,0,0,0,.27-6.959ZM47.95,55.058H44a3.489,3.489,0,0,0-2.8-1.822l-3.36-8.452H47.95Zm-16.432.358H40.93a1.293,1.293,0,0,1,0,2.586H31.518a1.293,1.293,0,0,1,0-2.586Zm2.094-2.192,2.612-6.569,2.612,6.569ZM58.256,42.451H44.612A6.783,6.783,0,0,1,51.3,36.773,6.878,6.878,0,0,1,58.256,42.451Zm-5.53-7.793a10.588,10.588,0,0,0-2.584,0V33.091a1.292,1.292,0,0,1,2.584,0ZM11.5,2.192H48.572a1.791,1.791,0,0,1,1.789,1.789V29.776a3.49,3.49,0,0,0-2.411,3.314v2.14a8.986,8.986,0,0,0-5.567,7.36H32.12a1.1,1.1,0,0,0,0,2.192h2.489l-3.36,8.452a3.489,3.489,0,0,0-2.8,1.822H11.5Zm0,59.591h3.688V68.5L11.5,71.457Zm5.88,6.123V66.124H41.338a6.018,6.018,0,0,0-.629,1.782H17.38Zm42.529,0H42.959a3.876,3.876,0,0,1,3.71-2.768H56.2A3.876,3.876,0,0,1,59.909,67.906Zm-13.24-4.96a6.025,6.025,0,0,0-3.307.986H17.38V60.687a1.1,1.1,0,0,0-1.1-1.1H10.4a1.1,1.1,0,0,0-1.1,1.1v3.244H7.858a1.8,1.8,0,0,1-1.8-1.8V59.049a1.8,1.8,0,0,1,1.8-1.8H28.077a3.49,3.49,0,0,0,3.442,2.944H40.93a3.49,3.49,0,0,0,3.442-2.944H47.95v5.695H46.669Zm6.057-.071H50.143V44.784h2.584Zm16.53-9.65H64.033l2.612-6.569ZM71.35,58H61.939a1.293,1.293,0,0,1,0-2.586H71.35a1.293,1.293,0,0,1,0,2.586Z" transform="translate(0 0)" fill="#060606"/>
      </g>
    </g>
  </g>
</svg>
