<svg xmlns="http://www.w3.org/2000/svg" xmlns:xlink="http://www.w3.org/1999/xlink" width="93.934" height="93.934" viewBox="0 0 93.934 93.934">
  <defs>
    <filter id="Trazado_982547" x="0" y="0" width="93.934" height="93.934" filterUnits="userSpaceOnUse">
      <feOffset dy="3" input="SourceAlpha"/>
      <feGaussianBlur stdDeviation="3" result="blur"/>
      <feFlood flood-opacity="0.161"/>
      <feComposite operator="in" in2="blur"/>
      <feComposite in="SourceGraphic"/>
    </filter>
  </defs>
  <g id="Grupo_1220370" data-name="Grupo 1220370" transform="translate(-611.066 -1179.849)">
    <g id="Grupo_1219859" data-name="Grupo 1219859" transform="translate(0 137)">
      <g id="Grupo_1215982" data-name="Grupo 1215982" transform="translate(-0.229 -2679.151)">
        <g id="Grupo_1214640" data-name="Grupo 1214640" transform="translate(0 -1406)">
          <g id="Grupo_1214433" data-name="Grupo 1214433" transform="translate(-0.771 -2738.674)">
            <g id="Grupo_1183190" data-name="Grupo 1183190" transform="translate(1 1016.674)">
              <g id="Grupo_1179611" data-name="Grupo 1179611" transform="translate(428 4723.467)">
                <g id="Grupo_1175227" data-name="Grupo 1175227" transform="translate(-5.967 140.533)">
                  <g id="Grupo_1167337" data-name="Grupo 1167337" transform="translate(198.033 1992)">
                    <g id="Grupo_1166720" data-name="Grupo 1166720">
                      <g id="Grupo_1164305" data-name="Grupo 1164305">
                        <g id="Grupo_1163948" data-name="Grupo 1163948">
                          <g id="Grupo_1158168" data-name="Grupo 1158168">
                            <g id="Grupo_1152576" data-name="Grupo 1152576">
                              <g id="Grupo_1148633" data-name="Grupo 1148633">
                                <g id="Grupo_1148525" data-name="Grupo 1148525">
                                  <g transform="matrix(1, 0, 0, 1, -9, -6)" filter="url(#Trazado_982547)">
                                    <g id="Trazado_982547-2" data-name="Trazado 982547" transform="translate(9 6)" fill="#eae4dc">
                                      <path d="M 37.966796875 74.43359375 C 33.04315185546875 74.43359375 28.26757431030273 73.46962738037109 23.77274131774902 71.56847381591797 C 19.43047523498535 69.73184967041016 15.53040790557861 67.10224914550781 12.18087482452393 63.75271987915039 C 8.831341743469238 60.4031867980957 6.201741218566895 56.50312042236328 4.365118980407715 52.16086196899414 C 2.463963508605957 47.66601943969727 1.499996900558472 42.89044189453125 1.499996900558472 37.966796875 C 1.499996900558472 33.04315185546875 2.463963508605957 28.26757431030273 4.365118980407715 23.77274131774902 C 6.201741218566895 19.43047523498535 8.831341743469238 15.53040790557861 12.18087482452393 12.18087482452393 C 15.53040790557861 8.831341743469238 19.43047523498535 6.201741218566895 23.77274131774902 4.365118980407715 C 28.26757431030273 2.463963508605957 33.04315185546875 1.499996900558472 37.966796875 1.499996900558472 C 42.89044189453125 1.499996900558472 47.66601943969727 2.463963508605957 52.16086196899414 4.365118980407715 C 56.50312042236328 6.201741218566895 60.4031867980957 8.831341743469238 63.75271987915039 12.18087482452393 C 67.10224914550781 15.53040790557861 69.73184967041016 19.43047523498535 71.56847381591797 23.77274131774902 C 73.46962738037109 28.26757431030273 74.43359375 33.04315185546875 74.43359375 37.966796875 C 74.43359375 42.89044189453125 73.46962738037109 47.66601943969727 71.56847381591797 52.16086196899414 C 69.73184967041016 56.50313186645508 67.10224914550781 60.4031867980957 63.75271987915039 63.75271987915039 C 60.4031867980957 67.10224914550781 56.50313186645508 69.73184967041016 52.16086196899414 71.56847381591797 C 47.66601943969727 73.46962738037109 42.89044189453125 74.43359375 37.966796875 74.43359375 Z" stroke="none"/>
                                      <path d="M 37.966796875 3 C 33.2449836730957 3 28.66600799560547 3.924095153808594 24.35705947875977 5.746635437011719 C 20.19359588623047 7.507637023925781 16.45379638671875 10.02928161621094 13.24153518676758 13.24153518676758 C 10.02927398681641 16.45379638671875 7.507621765136719 20.19359588623047 5.746635437011719 24.35705947875977 C 3.924095153808594 28.66600799560547 3 33.2449836730957 3 37.966796875 C 3 42.6886100769043 3.924095153808594 47.26758575439453 5.746635437011719 51.57653427124023 C 7.507621765136719 55.73999786376953 10.02927398681641 59.47979736328125 13.24153518676758 62.69205856323242 C 16.45379638671875 65.90431976318359 20.19359588623047 68.42597198486328 24.35705947875977 70.18695831298828 C 28.66600799560547 72.00949859619141 33.2449836730957 72.93359375 37.966796875 72.93359375 C 42.6886100769043 72.93359375 47.26758575439453 72.00949859619141 51.57653427124023 70.18695831298828 C 55.73999786376953 68.42597198486328 59.47979736328125 65.90431976318359 62.69205856323242 62.69205856323242 C 65.90431976318359 59.47979736328125 68.42597198486328 55.73999786376953 70.18695831298828 51.57653427124023 C 72.00949859619141 47.26758575439453 72.93359375 42.6886100769043 72.93359375 37.966796875 C 72.93359375 33.2449836730957 72.00949859619141 28.66600799560547 70.18695831298828 24.35705947875977 C 68.42597198486328 20.19359588623047 65.90431976318359 16.45379638671875 62.69205856323242 13.24153518676758 C 59.47979736328125 10.02928161621094 55.73999786376953 7.507637023925781 51.57653427124023 5.746635437011719 C 47.26758575439453 3.924095153808594 42.6886100769043 3 37.966796875 3 M 37.966796875 0 C 58.93528366088867 0 75.93359375 16.99832153320312 75.93359375 37.966796875 C 75.93359375 58.93528366088867 58.93528366088867 75.93359375 37.966796875 75.93359375 C 16.99831008911133 75.93359375 0 58.93528366088867 0 37.966796875 C 0 16.99832153320312 16.99831008911133 0 37.966796875 0 Z" stroke="none" fill="#665b4e"/>
                                    </g>
                                  </g>
                                </g>
                              </g>
                            </g>
                          </g>
                        </g>
                      </g>
                    </g>
                  </g>
                </g>
              </g>
            </g>
          </g>
        </g>
      </g>
    </g>
    <g id="Support_Color_Line_Outline" data-name="Support_Color Line Outline" transform="translate(629.376 1201.514)">
      <g id="_15_Request_Support" data-name="15_Request Support" transform="translate(3)">
        <path id="Trazado_1169042" data-name="Trazado 1169042" d="M49.2,59.385H4V1H43.551L49.2,6.65Z" transform="translate(-3.058 -0.058)" fill="#e6e6e6"/>
        <path id="Trazado_1169043" data-name="Trazado 1169043" d="M51.533,8.559V6.65L45.883,1H43.989V8.559Z" transform="translate(-5.39 -0.058)" fill="#e6e6e6"/>
        <path id="Trazado_1169044" data-name="Trazado 1169044" d="M6.825,14.184V1H4V59.385H49.2V56.56A42.376,42.376,0,0,1,6.825,14.184Z" transform="translate(-3.058 -0.058)" fill="#f2f2f2"/>
        <path id="Trazado_1169045" data-name="Trazado 1169045" d="M49.143,60.269H3.942A.942.942,0,0,1,3,59.327V.942A.942.942,0,0,1,3.942,0H43.493a.942.942,0,0,1,.666.276l5.65,5.65a.942.942,0,0,1,.276.666V16.951H48.2V6.982l-5.1-5.1H4.883v56.5H48.2V38.61h1.883V59.327A.942.942,0,0,1,49.143,60.269Z" transform="translate(-3)" fill="#383838"/>
        <path id="Trazado_1169046" data-name="Trazado 1169046" d="M51.533,8.559V6.65L45.883,1H43.989V8.559Z" transform="translate(-5.39 -0.058)" fill="#f2f2f2"/>
        <path id="Trazado_1169047" data-name="Trazado 1169047" d="M8,31h5.65v5.65H8Z" transform="translate(-3.292 -1.807)" fill="#f29500"/>
        <path id="Trazado_1169048" data-name="Trazado 1169048" d="M8,42h5.65v5.65H8Z" transform="translate(-3.292 -2.449)" fill="#f29500"/>
        <path id="Trazado_1169049" data-name="Trazado 1169049" d="M8,53h5.65v5.65H8Z" transform="translate(-3.292 -3.09)" fill="#f29500"/>
        <path id="Trazado_1169050" data-name="Trazado 1169050" d="M51.475,9.442H43.93a.942.942,0,0,1-.942-.942V.942A.942.942,0,0,1,43.93,0h1.895a.942.942,0,0,1,.666.276l5.65,5.65a.942.942,0,0,1,.276.666V8.5A.942.942,0,0,1,51.475,9.442Zm-6.6-1.883h5.661V6.982l-5.1-5.1H44.87Z" transform="translate(-5.331)" fill="#383838"/>
        <circle id="Elipse_14448" data-name="Elipse 14448" cx="10.359" cy="10.359" r="10.359" transform="translate(13.184 4.708)" fill="#f4b400"/>
        <path id="Trazado_1169051" data-name="Trazado 1169051" d="M30.184,23a10.359,10.359,0,0,1-8.6-16.133A10.359,10.359,0,1,0,35.958,21.242,10.307,10.307,0,0,1,30.184,23Z" transform="translate(-3.816 -0.4)" fill="#f29500"/>
        <g id="Grupo_1220369" data-name="Grupo 1220369" transform="translate(3.767 3.766)">
          <path id="Trazado_1169052" data-name="Trazado 1169052" d="M27.3,26.6A11.3,11.3,0,1,1,31.185,4.686l-.648,1.769a9.429,9.429,0,1,0,3.144,1.921l1.277-1.384A11.3,11.3,0,0,1,27.3,26.6Z" transform="translate(-7.525 -4)" fill="#383838"/>
          <path id="Trazado_1169053" data-name="Trazado 1169053" d="M13.592,37.534H7.942A.942.942,0,0,1,7,36.592v-5.65A.942.942,0,0,1,7.942,30H9.825v1.883H8.883V35.65H12.65v-.841h1.883v1.783A.942.942,0,0,1,13.592,37.534Z" transform="translate(-7 -5.516)" fill="#383838"/>
          <path id="Trazado_1169054" data-name="Trazado 1169054" d="M13.592,48.534H7.942A.942.942,0,0,1,7,47.592v-5.65A.942.942,0,0,1,7.942,41H9.825v1.883H8.883V46.65H12.65v-.841h1.883v1.783A.942.942,0,0,1,13.592,48.534Z" transform="translate(-7 -6.157)" fill="#383838"/>
          <path id="Trazado_1169055" data-name="Trazado 1169055" d="M13.592,59.534H7.942A.942.942,0,0,1,7,58.592v-5.65A.942.942,0,0,1,7.942,52H9.825v1.883H8.883V57.65H12.65v-.841h1.883v1.783A.942.942,0,0,1,13.592,59.534Z" transform="translate(-7 -6.798)" fill="#383838"/>
          <path id="Trazado_1169056" data-name="Trazado 1169056" d="M0,0H6.659V1.883H0Z" transform="translate(3.096 27.584) rotate(-45)" fill="#383838"/>
          <path id="Trazado_1169057" data-name="Trazado 1169057" d="M0,0H6.659V1.883H0Z" transform="translate(3.095 37.941) rotate(-45)" fill="#383838"/>
          <path id="Trazado_1169058" data-name="Trazado 1169058" d="M0,0H7.325V1.883H0Z" transform="translate(3.095 48.298) rotate(-45)" fill="#383838"/>
          <path id="Trazado_1169059" data-name="Trazado 1169059" d="M18,33H31.184v1.883H18Z" transform="translate(-7.641 -5.69)" fill="#383838"/>
          <path id="Trazado_1169060" data-name="Trazado 1169060" d="M18,44h8.475v1.883H18Z" transform="translate(-7.641 -6.332)" fill="#383838"/>
          <path id="Trazado_1169061" data-name="Trazado 1169061" d="M18,55H33.067v1.883H18Z" transform="translate(-7.641 -6.973)" fill="#383838"/>
          <path id="Trazado_1169062" data-name="Trazado 1169062" d="M42.3,40.5a.942.942,0,0,1-.667-.283l-4.049-4.049a.942.942,0,0,1,0-1.332L51.092,21.319a.941.941,0,0,1,1.331,0l4.049,4.054a.942.942,0,0,1,0,1.332L42.965,40.213A.942.942,0,0,1,42.3,40.5ZM39.578,35.5,42.3,38.227l12.18-12.188-2.722-2.722Z" transform="translate(-8.767 -4.993)" fill="#383838"/>
        </g>
        <path id="Trazado_1169063" data-name="Trazado 1169063" d="M0,0H19.108V5.732H0Z" transform="translate(33.239 34.271) rotate(-45)" fill="#f4b400"/>
        <path id="Trazado_1169064" data-name="Trazado 1169064" d="M42.3,40.5a.942.942,0,0,1-.667-.283l-4.049-4.049a.942.942,0,0,1,0-1.332L51.092,21.319a.941.941,0,0,1,1.331,0l4.049,4.054a.942.942,0,0,1,0,1.332L42.965,40.213A.942.942,0,0,1,42.3,40.5ZM39.578,35.5,42.3,38.227l12.18-12.188-2.722-2.722Z" transform="translate(-5 -1.227)" fill="#383838"/>
        <path id="Trazado_1169065" data-name="Trazado 1169065" d="M56.705,25.92,52.656,21.87l2.019-2.031a2.867,2.867,0,0,1,4.054,4.054Z" transform="translate(-5.895 -1.108)" fill="#db4437"/>
        <path id="Trazado_1169066" data-name="Trazado 1169066" d="M56.647,26.8a.942.942,0,0,1-.666-.276l-4.049-4.049a.942.942,0,0,1,0-1.332l2.026-2.03a3.807,3.807,0,1,1,5.382,5.382l-2.027,2.027A.942.942,0,0,1,56.647,26.8Zm-2.722-4.991,2.722,2.722,1.36-1.365a1.926,1.926,0,0,0,0-2.722,1.968,1.968,0,0,0-2.721,0Z" transform="translate(-5.837 -1.044)" fill="#383838"/>
        <path id="Trazado_1169067" data-name="Trazado 1169067" d="M34,44.665l5.4-1.351-4.053-4.053Z" transform="translate(-4.807 -2.289)" fill="#f4b400"/>
        <path id="Trazado_1169068" data-name="Trazado 1169068" d="M33.942,45.549a.942.942,0,0,1-.913-1.171l1.351-5.4a.942.942,0,0,1,1.579-.437l4.049,4.049a.942.942,0,0,1-.438,1.58l-5.4,1.354a.942.942,0,0,1-.228.028Zm1.862-4.5-.565,2.268,2.269-.565Z" transform="translate(-4.749 -2.231)" fill="#383838"/>
        <path id="Trazado_1169069" data-name="Trazado 1169069" d="M0,0H3.821V5.732H0Z" transform="translate(30.536 36.971) rotate(-45)" fill="#db4437"/>
        <path id="Trazado_1169070" data-name="Trazado 1169070" d="M39.43,44.03a.942.942,0,0,1-.666-.276l-4.049-4.049a.942.942,0,0,1,0-1.332l2.7-2.7a.942.942,0,0,1,1.332,0L42.8,39.721a.942.942,0,0,1,0,1.332l-2.7,2.7A.942.942,0,0,1,39.43,44.03Zm-2.722-4.991,2.722,2.722,1.37-1.37L38.08,37.669Z" transform="translate(-4.833 -2.064)" fill="#383838"/>
        <path id="Trazado_1169071" data-name="Trazado 1169071" d="M25.3,20.49a.942.942,0,0,1-.666-.276L21.765,17.35,23.1,16.018l2.2,2.2,6.881-6.882,1.332,1.332-7.547,7.548A.942.942,0,0,1,25.3,20.49Z" transform="translate(-4.094 -0.661)" fill="#383838"/>
        <path id="Trazado_1169072" data-name="Trazado 1169072" d="M51,37h1.883v1.883H51Z" transform="translate(-5.799 -2.157)" fill="#383838"/>
        <path id="Trazado_1169073" data-name="Trazado 1169073" d="M29,44h1.883v1.883H29Z" transform="translate(-4.516 -2.565)" fill="#383838"/>
      </g>
    </g>
  </g>
</svg>
