<svg xmlns="http://www.w3.org/2000/svg" xmlns:xlink="http://www.w3.org/1999/xlink" width="93.934" height="93.934" viewBox="0 0 93.934 93.934">
  <defs>
    <filter id="Trazado_978624" x="0" y="0" width="93.934" height="93.934" filterUnits="userSpaceOnUse">
      <feOffset dy="3" input="SourceAlpha"/>
      <feGaussianBlur stdDeviation="3" result="blur"/>
      <feFlood flood-opacity="0.161"/>
      <feComposite operator="in" in2="blur"/>
      <feComposite in="SourceGraphic"/>
    </filter>
  </defs>
  <g id="Grupo_1220423" data-name="Grupo 1220423" transform="translate(-609 -2435.533)">
    <g id="Grupo_1219894" data-name="Grupo 1219894" transform="translate(420 -31)">
      <g id="Grupo_1208657" data-name="Grupo 1208657" transform="translate(198 2472.533)">
        <g id="Grupo_1208063" data-name="Grupo 1208063">
          <g id="Grupo_1144123" data-name="Grupo 1144123">
            <g transform="matrix(1, 0, 0, 1, -9, -6)" filter="url(#Trazado_978624)">
              <g id="Trazado_978624-2" data-name="Trazado 978624" transform="translate(9 6)" fill="#f1ede8">
                <path d="M 37.966796875 74.43359375 C 33.04315185546875 74.43359375 28.26757431030273 73.46962738037109 23.77274131774902 71.56847381591797 C 19.43047523498535 69.73184967041016 15.53040790557861 67.10224914550781 12.18087482452393 63.75271987915039 C 8.831341743469238 60.4031867980957 6.201741218566895 56.50312042236328 4.365118980407715 52.16086196899414 C 2.463963508605957 47.66601943969727 1.499996900558472 42.89044189453125 1.499996900558472 37.966796875 C 1.499996900558472 33.04315185546875 2.463963508605957 28.26757431030273 4.365118980407715 23.77274131774902 C 6.201741218566895 19.43047523498535 8.831341743469238 15.53040790557861 12.18087482452393 12.18087482452393 C 15.53040790557861 8.831341743469238 19.43047523498535 6.201741218566895 23.77274131774902 4.365118980407715 C 28.26757431030273 2.463963508605957 33.04315185546875 1.499996900558472 37.966796875 1.499996900558472 C 42.89044189453125 1.499996900558472 47.66601943969727 2.463963508605957 52.16086196899414 4.365118980407715 C 56.50312042236328 6.201741218566895 60.4031867980957 8.831341743469238 63.75271987915039 12.18087482452393 C 67.10224914550781 15.53040790557861 69.73184967041016 19.43047523498535 71.56847381591797 23.77274131774902 C 73.46962738037109 28.26757431030273 74.43359375 33.04315185546875 74.43359375 37.966796875 C 74.43359375 42.89044189453125 73.46962738037109 47.66601943969727 71.56847381591797 52.16086196899414 C 69.73184967041016 56.50313186645508 67.10224914550781 60.4031867980957 63.75271987915039 63.75271987915039 C 60.4031867980957 67.10224914550781 56.50313186645508 69.73184967041016 52.16086196899414 71.56847381591797 C 47.66601943969727 73.46962738037109 42.89044189453125 74.43359375 37.966796875 74.43359375 Z" stroke="none"/>
                <path d="M 37.966796875 3 C 33.2449836730957 3 28.66600799560547 3.924095153808594 24.35705947875977 5.746635437011719 C 20.19359588623047 7.507621765136719 16.45379638671875 10.02927398681641 13.24153518676758 13.24153518676758 C 10.02927398681641 16.45379638671875 7.507621765136719 20.19359588623047 5.746635437011719 24.35705947875977 C 3.924095153808594 28.66600799560547 3 33.2449836730957 3 37.966796875 C 3 42.6886100769043 3.924095153808594 47.26758575439453 5.746635437011719 51.57653427124023 C 7.507621765136719 55.73999786376953 10.02927398681641 59.47979736328125 13.24153518676758 62.69205856323242 C 16.45379638671875 65.90431976318359 20.19359588623047 68.42597198486328 24.35705947875977 70.18695831298828 C 28.66600799560547 72.00949859619141 33.2449836730957 72.93359375 37.966796875 72.93359375 C 42.6886100769043 72.93359375 47.26758575439453 72.00949859619141 51.57653427124023 70.18695831298828 C 55.73999786376953 68.42597198486328 59.47979736328125 65.90431976318359 62.69205856323242 62.69205856323242 C 65.90431976318359 59.47979736328125 68.42597198486328 55.73999786376953 70.18695831298828 51.57653427124023 C 72.00949859619141 47.26758575439453 72.93359375 42.6886100769043 72.93359375 37.966796875 C 72.93359375 33.2449836730957 72.00949859619141 28.66600799560547 70.18695831298828 24.35705947875977 C 68.42597198486328 20.19359588623047 65.90431976318359 16.45379638671875 62.69205856323242 13.24153518676758 C 59.47979736328125 10.02927398681641 55.73999786376953 7.507621765136719 51.57653427124023 5.746635437011719 C 47.26758575439453 3.924095153808594 42.6886100769043 3 37.966796875 3 M 37.966796875 0 C 58.93528366088867 0 75.93359375 16.99831008911133 75.93359375 37.966796875 C 75.93359375 58.93528366088867 58.93528366088867 75.93359375 37.966796875 75.93359375 C 16.99831008911133 75.93359375 0 58.93528366088867 0 37.966796875 C 0 16.99831008911133 16.99831008911133 0 37.966796875 0 Z" stroke="none" fill="#665b4e"/>
              </g>
            </g>
          </g>
        </g>
      </g>
    </g>
    <g id="contrato_8_" data-name="contrato (8)" transform="translate(633 2449.507)">
      <g id="Grupo_1220416" data-name="Grupo 1220416" transform="translate(6.061 9.886)">
        <path id="Trazado_1169200" data-name="Trazado 1169200" d="M92.166,77.9v26.177A2.227,2.227,0,0,1,89.94,106.3h-29a2.227,2.227,0,0,1-2.227-2.227V63.435A2.226,2.226,0,0,1,60.94,61.21H83.867a10.4,10.4,0,1,0,8.3,16.686Z" transform="translate(-58.713 -61.21)" fill="#fff"/>
      </g>
      <g id="Grupo_1220417" data-name="Grupo 1220417" transform="translate(1.032 5.01)">
        <path id="Trazado_1169201" data-name="Trazado 1169201" d="M12.226,13.978A2.226,2.226,0,0,0,10,16.2V56.9a2.226,2.226,0,0,0,2.226,2.226h2.8V21.08a2.226,2.226,0,0,1,2.226-2.226H43.489V16.2a2.226,2.226,0,0,0-2.226-2.226Z" transform="translate(-10 -13.978)" fill="#e0e7ef"/>
      </g>
      <g id="Grupo_1220421" data-name="Grupo 1220421" transform="translate(16.494 5.579)">
        <g id="Grupo_1220418" data-name="Grupo 1220418" transform="translate(23.436 23.429)">
          <path id="Trazado_1169202" data-name="Trazado 1169202" d="M397.819,257.458a3.044,3.044,0,0,1-4.26,0l-6.748-6.748,4.26-4.26,6.748,6.748A3.012,3.012,0,0,1,397.819,257.458Z" transform="translate(-386.811 -246.449)" fill="#e0a083"/>
        </g>
        <g id="Grupo_1220419" data-name="Grupo 1220419" transform="translate(0 0)">
          <circle id="Elipse_14455" data-name="Elipse 14455" cx="10.407" cy="10.407" r="10.407" transform="translate(0 14.715) rotate(-45)" fill="#b2daff"/>
        </g>
        <g id="Grupo_1220420" data-name="Grupo 1220420" transform="translate(20.477 20.471)">
          <path id="Trazado_1169203" data-name="Trazado 1169203" d="M364.694,221.42l-2.915,2.915-3.631-3.631a10.469,10.469,0,0,0,2.914-2.915Z" transform="translate(-358.147 -217.789)" fill="#fff"/>
        </g>
      </g>
      <g id="Grupo_1220422" data-name="Grupo 1220422" transform="translate(0 3.978)">
        <path id="Trazado_1169204" data-name="Trazado 1169204" d="M256.266,392.443h-6.338a1.032,1.032,0,1,0,0,2.065h6.338a1.032,1.032,0,1,0,0-2.065Z" transform="translate(-223.202 -352.342)"/>
        <path id="Trazado_1169205" data-name="Trazado 1169205" d="M113.324,391.79h-.766v-.661a2.225,2.225,0,0,0-3.972-1.378l-.076.1v-1.459a2.122,2.122,0,0,0-3.929-1.114l-3.086,5.006a1.032,1.032,0,1,0,1.757,1.083l3.086-5.006a.056.056,0,0,1,.107.03v2.154a1.823,1.823,0,0,0,3.255,1.13l.507-.643a.161.161,0,0,1,.286.1v1.693a1.032,1.032,0,0,0,1.032,1.032h1.8a1.032,1.032,0,1,0,0-2.065Z" transform="translate(-90.88 -346.801)"/>
        <path id="Trazado_1169206" data-name="Trazado 1169206" d="M110.685,111.78a3.739,3.739,0,0,0,1.456.62v.277a1.032,1.032,0,1,0,2.065,0v-.393a3.055,3.055,0,0,0,1.975-2.37,2.746,2.746,0,0,0-1.864-3.11l-.312-.109a4.562,4.562,0,0,1-1.333-.591.558.558,0,0,1-.134-.51.668.668,0,0,1,.426-.475.846.846,0,0,1,.923.169,1.032,1.032,0,1,0,1.547-1.367l0,0a2.982,2.982,0,0,0-1.229-.788v-.353a1.032,1.032,0,1,0-2.065,0v.449a2.752,2.752,0,0,0-1.618,1.915,2.636,2.636,0,0,0,.625,2.357,5.082,5.082,0,0,0,2.177,1.147l.3.106a.687.687,0,0,1,.516.821.978.978,0,0,1-.978.831,1.823,1.823,0,0,1-1.352-.349,1.032,1.032,0,0,0-1.13,1.728Z" transform="translate(-98.84 -91.652)"/>
        <path id="Trazado_1169207" data-name="Trazado 1169207" d="M51.668,35.027,44.92,28.278a1.032,1.032,0,0,0-1.4-.055L41.192,25.9a11.375,11.375,0,0,0,1.461-5.6A11.542,11.542,0,0,0,35.553,9.7V7.236a3.262,3.262,0,0,0-3.258-3.259H21.98a1.032,1.032,0,0,0,0,2.065H32.294a1.2,1.2,0,0,1,1.194,1.194V8.854H8.287a3.292,3.292,0,0,0-3.259,3.259V49.124H3.258A1.2,1.2,0,0,1,2.065,47.93V7.236A1.2,1.2,0,0,1,3.258,6.043H12.88a1.032,1.032,0,1,0,0-2.065H3.258A3.262,3.262,0,0,0,0,7.236V47.93a3.262,3.262,0,0,0,3.259,3.259h1.77v1.56a3.263,3.263,0,0,0,3.259,3.259h29a3.262,3.262,0,0,0,3.259-3.259v-17.4l5.4,5.4a4.045,4.045,0,1,0,5.72-5.72ZM38.482,52.749a1.2,1.2,0,0,1-1.194,1.194h-29a1.2,1.2,0,0,1-1.194-1.194V12.112a1.21,1.21,0,0,1,1.194-1.194H24.654a11.672,11.672,0,0,0-4.879,9.374,11.447,11.447,0,0,0,17.042,9.979l1.664,1.664V52.749Zm.556-27.287a9.376,9.376,0,0,1-17.2-5.17,9.375,9.375,0,0,1,18.749,0A9.308,9.308,0,0,1,39.037,25.462Zm1.509,5.618V28.17l1.511,1.511L40.6,31.136Zm9.662,8.206a2,2,0,0,1-2.8,0L41.39,33.268l2.8-2.8,6.018,6.018A1.982,1.982,0,0,1,50.208,39.287Z" transform="translate(0 -3.978)"/>
        <path id="Trazado_1169208" data-name="Trazado 1169208" d="M111.255,258.014a1.032,1.032,0,0,0,1.032,1.032h8.5a1.032,1.032,0,0,0,0-2.065h-8.5A1.032,1.032,0,0,0,111.255,258.014Z" transform="translate(-99.77 -230.865)"/>
        <path id="Trazado_1169209" data-name="Trazado 1169209" d="M132.834,323.7H112.287a1.032,1.032,0,0,0,0,2.065h20.547a1.032,1.032,0,1,0,0-2.065Z" transform="translate(-99.77 -290.693)"/>
        <path id="Trazado_1169210" data-name="Trazado 1169210" d="M158.97,5.425a1.032,1.032,0,1,0,.444-1.293A1.039,1.039,0,0,0,158.97,5.425Z" transform="translate(-142.491 -3.998)"/>
      </g>
    </g>
  </g>
</svg>
