<svg xmlns="http://www.w3.org/2000/svg" xmlns:xlink="http://www.w3.org/1999/xlink" width="93.934" height="93.934" viewBox="0 0 93.934 93.934">
  <defs>
    <filter id="Trazado_982547" x="0" y="0" width="93.934" height="93.934" filterUnits="userSpaceOnUse">
      <feOffset dy="3" input="SourceAlpha"/>
      <feGaussianBlur stdDeviation="3" result="blur"/>
      <feFlood flood-opacity="0.161"/>
      <feComposite operator="in" in2="blur"/>
      <feComposite in="SourceGraphic"/>
    </filter>
  </defs>
  <g id="Grupo_1220375" data-name="Grupo 1220375" transform="translate(-1031.066 -1179.849)">
    <g id="Grupo_1219858" data-name="Grupo 1219858" transform="translate(0 137)">
      <g id="Grupo_1215983" data-name="Grupo 1215983" transform="translate(-0.229 -2679.151)">
        <g id="Grupo_1214661" data-name="Grupo 1214661" transform="translate(0 -1406)">
          <g id="Grupo_1214434" data-name="Grupo 1214434" transform="translate(-0.771 -2738.522)">
            <g id="Grupo_1183184" data-name="Grupo 1183184" transform="translate(1 1016.523)">
              <g id="Grupo_1179612" data-name="Grupo 1179612" transform="translate(848 4723.467)">
                <g id="Grupo_1175227" data-name="Grupo 1175227" transform="translate(-5.967 140.533)">
                  <g id="Grupo_1167337" data-name="Grupo 1167337" transform="translate(198.033 1992)">
                    <g id="Grupo_1166720" data-name="Grupo 1166720">
                      <g id="Grupo_1164305" data-name="Grupo 1164305">
                        <g id="Grupo_1163948" data-name="Grupo 1163948">
                          <g id="Grupo_1158168" data-name="Grupo 1158168">
                            <g id="Grupo_1152576" data-name="Grupo 1152576">
                              <g id="Grupo_1148633" data-name="Grupo 1148633">
                                <g id="Grupo_1148525" data-name="Grupo 1148525">
                                  <g transform="matrix(1, 0, 0, 1, -9, -6)" filter="url(#Trazado_982547)">
                                    <g id="Trazado_982547-2" data-name="Trazado 982547" transform="translate(9 6)" fill="#eae4dc">
                                      <path d="M 37.966796875 74.43359375 C 33.04315185546875 74.43359375 28.26757431030273 73.46962738037109 23.77274131774902 71.56847381591797 C 19.43047523498535 69.73184967041016 15.53040790557861 67.10224914550781 12.18087482452393 63.75271987915039 C 8.831341743469238 60.4031867980957 6.201741218566895 56.50312042236328 4.365118980407715 52.16086196899414 C 2.463963508605957 47.66601943969727 1.499996900558472 42.89044189453125 1.499996900558472 37.966796875 C 1.499996900558472 33.04315185546875 2.463963508605957 28.26757431030273 4.365118980407715 23.77274131774902 C 6.201741218566895 19.43047523498535 8.831341743469238 15.53040790557861 12.18087482452393 12.18087482452393 C 15.53040790557861 8.831341743469238 19.43047523498535 6.201741218566895 23.77274131774902 4.365118980407715 C 28.26757431030273 2.463963508605957 33.04315185546875 1.499996900558472 37.966796875 1.499996900558472 C 42.89044189453125 1.499996900558472 47.66601943969727 2.463963508605957 52.16086196899414 4.365118980407715 C 56.50312042236328 6.201741218566895 60.4031867980957 8.831341743469238 63.75271987915039 12.18087482452393 C 67.10224914550781 15.53040790557861 69.73184967041016 19.43047523498535 71.56847381591797 23.77274131774902 C 73.46962738037109 28.26757431030273 74.43359375 33.04315185546875 74.43359375 37.966796875 C 74.43359375 42.89044189453125 73.46962738037109 47.66601943969727 71.56847381591797 52.16086196899414 C 69.73184967041016 56.50313186645508 67.10224914550781 60.4031867980957 63.75271987915039 63.75271987915039 C 60.4031867980957 67.10224914550781 56.50313186645508 69.73184967041016 52.16086196899414 71.56847381591797 C 47.66601943969727 73.46962738037109 42.89044189453125 74.43359375 37.966796875 74.43359375 Z" stroke="none"/>
                                      <path d="M 37.966796875 3 C 33.2449836730957 3 28.66600799560547 3.924095153808594 24.35705947875977 5.746635437011719 C 20.19359588623047 7.507637023925781 16.45379638671875 10.02928161621094 13.24153518676758 13.24153518676758 C 10.02927398681641 16.45379638671875 7.507621765136719 20.19359588623047 5.746635437011719 24.35705947875977 C 3.924095153808594 28.66600799560547 3 33.2449836730957 3 37.966796875 C 3 42.6886100769043 3.924095153808594 47.26758575439453 5.746635437011719 51.57653427124023 C 7.507621765136719 55.73999786376953 10.02927398681641 59.47979736328125 13.24153518676758 62.69205856323242 C 16.45379638671875 65.90431976318359 20.19359588623047 68.42597198486328 24.35705947875977 70.18695831298828 C 28.66600799560547 72.00949859619141 33.2449836730957 72.93359375 37.966796875 72.93359375 C 42.6886100769043 72.93359375 47.26758575439453 72.00949859619141 51.57653427124023 70.18695831298828 C 55.73999786376953 68.42597198486328 59.47979736328125 65.90431976318359 62.69205856323242 62.69205856323242 C 65.90431976318359 59.47979736328125 68.42597198486328 55.73999786376953 70.18695831298828 51.57653427124023 C 72.00949859619141 47.26758575439453 72.93359375 42.6886100769043 72.93359375 37.966796875 C 72.93359375 33.2449836730957 72.00949859619141 28.66600799560547 70.18695831298828 24.35705947875977 C 68.42597198486328 20.19359588623047 65.90431976318359 16.45379638671875 62.69205856323242 13.24153518676758 C 59.47979736328125 10.02928161621094 55.73999786376953 7.507637023925781 51.57653427124023 5.746635437011719 C 47.26758575439453 3.924095153808594 42.6886100769043 3 37.966796875 3 M 37.966796875 0 C 58.93528366088867 0 75.93359375 16.99832153320312 75.93359375 37.966796875 C 75.93359375 58.93528366088867 58.93528366088867 75.93359375 37.966796875 75.93359375 C 16.99831008911133 75.93359375 0 58.93528366088867 0 37.966796875 C 0 16.99832153320312 16.99831008911133 0 37.966796875 0 Z" stroke="none" fill="#665b4e"/>
                                    </g>
                                  </g>
                                </g>
                              </g>
                            </g>
                          </g>
                        </g>
                      </g>
                    </g>
                  </g>
                </g>
              </g>
            </g>
          </g>
        </g>
      </g>
    </g>
    <g id="contrato_5_" data-name="contrato (5)" transform="translate(1047.485 1196.485)">
      <g id="Grupo_1220373" data-name="Grupo 1220373" transform="translate(1.96 1.96)">
        <g id="Grupo_1220371" data-name="Grupo 1220371" transform="translate(5.759)">
          <path id="Trazado_1169074" data-name="Trazado 1169074" d="M17,43.84h7.679L20.84,40Z" transform="translate(-8.361 -3.523)" fill="#e6e9ed"/>
          <path id="Trazado_1169075" data-name="Trazado 1169075" d="M47.357,17.359V2.96A.963.963,0,0,0,46.4,2H15.679V9.679H8V42.316H32a.963.963,0,0,1,.96.96v.365L36.414,40.7a9.588,9.588,0,0,1,6.143-2.227h1.92v-9.6H38.717v.96a.963.963,0,0,1-.96.96h-1.92a.963.963,0,0,1-.96-.96V16.4a.963.963,0,0,1,.96-.96h1.92a.963.963,0,0,1,.96.96v.96Z" transform="translate(-8 -2)" fill="#e6e9ed"/>
        </g>
        <path id="Trazado_1169076" data-name="Trazado 1169076" d="M15.679,2V9.679H8Z" transform="translate(-2.241 -2)" fill="#fcd770"/>
        <path id="Trazado_1169077" data-name="Trazado 1169077" d="M24.679,34.75v8.879l-3.84-3.84L17,43.629V34.75a6.743,6.743,0,0,0,7.679,0Z" transform="translate(-2.601 -3.313)" fill="#fcd770"/>
        <path id="Trazado_1169078" data-name="Trazado 1169078" d="M27.439,28.719A6.719,6.719,0,1,1,20.719,22,6.709,6.709,0,0,1,27.439,28.719Z" transform="translate(-2.481 -2.802)" fill="#ff826e"/>
        <circle id="Elipse_14449" data-name="Elipse 14449" cx="3" cy="3" r="3" transform="translate(15.555 22.555)" fill="#fc6e51"/>
        <path id="Trazado_1169079" data-name="Trazado 1169079" d="M32.717,44.96V58.4a.963.963,0,0,1-.96.96H2V44H31.757A.963.963,0,0,1,32.717,44.96Z" transform="translate(-2 -3.684)" fill="#b4dd7f"/>
        <g id="Grupo_1220372" data-name="Grupo 1220372" transform="translate(30.717 36.477)">
          <path id="Trazado_1169080" data-name="Trazado 1169080" d="M57.6,48a1.925,1.925,0,0,1,1.92,1.92,1.934,1.934,0,0,1-1.92,1.92H49.92A1.925,1.925,0,0,1,48,49.92,1.934,1.934,0,0,1,49.92,48H57.6Z" transform="translate(-34.561 -40.321)" fill="#f0d0b4"/>
          <path id="Trazado_1169081" data-name="Trazado 1169081" d="M57.759,56a1.925,1.925,0,0,1,1.92,1.92,1.934,1.934,0,0,1-1.92,1.92H53.92A1.925,1.925,0,0,1,52,57.92,1.934,1.934,0,0,1,53.92,56Z" transform="translate(-34.722 -40.641)" fill="#f0d0b4"/>
          <path id="Trazado_1169082" data-name="Trazado 1169082" d="M57.679,52a1.925,1.925,0,0,1,1.92,1.92,1.934,1.934,0,0,1-1.92,1.92H51.92A1.925,1.925,0,0,1,50,53.92,1.934,1.934,0,0,1,51.92,52Z" transform="translate(-34.641 -40.481)" fill="#f0d0b4"/>
          <path id="Trazado_1169083" data-name="Trazado 1169083" d="M52.88,44h4.8a1.925,1.925,0,0,1,1.92,1.92,1.934,1.934,0,0,1-1.92,1.92H51.92A1.925,1.925,0,0,1,50,45.92,1.934,1.934,0,0,1,51.92,44Z" transform="translate(-34.641 -40.16)" fill="#f0d0b4"/>
          <path id="Trazado_1169084" data-name="Trazado 1169084" d="M45.519,44.339V59.2H43.2A10.488,10.488,0,0,1,38.5,58.085a7.757,7.757,0,0,0-3.436-.806H34V45.164l3.456-2.937A9.588,9.588,0,0,1,43.6,40H54.158a.963.963,0,0,1,.96.96,2.876,2.876,0,0,1-2.88,2.88H46.93A2.238,2.238,0,0,0,45.519,44.339Z" transform="translate(-34 -40)" fill="#f0d0b4"/>
        </g>
        <path id="Trazado_1169085" data-name="Trazado 1169085" d="M46,59.359V44.5a2.238,2.238,0,0,1,1.411-.5h4.348a1.934,1.934,0,0,0-1.92,1.92,1.925,1.925,0,0,0,1.92,1.92H49.84a1.934,1.934,0,0,0-1.92,1.92,1.925,1.925,0,0,0,1.92,1.92h1.92a1.934,1.934,0,0,0-1.92,1.92,1.925,1.925,0,0,0,1.92,1.92v3.84a1.925,1.925,0,0,1-1.92,1.92H47.92A1.925,1.925,0,0,1,46,59.359Z" transform="translate(-3.764 -3.684)" fill="#cf9e76"/>
        <path id="Trazado_1169086" data-name="Trazado 1169086" d="M46,30h5.759v9.6H46Z" transform="translate(-3.764 -3.122)" fill="#cf9e76"/>
        <path id="Trazado_1169087" data-name="Trazado 1169087" d="M57.278,18V29.519H40V18H57.278Z" transform="translate(-3.523 -2.641)" fill="#d3a06c"/>
        <path id="Trazado_1169088" data-name="Trazado 1169088" d="M39.84,29.439v.96a.963.963,0,0,1-.96.96H36.96A.963.963,0,0,1,36,30.4V16.96a.963.963,0,0,1,.96-.96h1.92a.963.963,0,0,1,.96.96V29.439Z" transform="translate(-3.363 -2.561)" fill="#b27946"/>
        <path id="Trazado_1169089" data-name="Trazado 1169089" d="M61.84,16.96V30.4a.963.963,0,0,1-.96.96H58.96A.963.963,0,0,1,58,30.4V16.96a.963.963,0,0,1,.96-.96h1.92A.963.963,0,0,1,61.84,16.96Z" transform="translate(-4.245 -2.561)" fill="#b27946"/>
      </g>
      <g id="Grupo_1220374" data-name="Grupo 1220374" transform="translate(1 1)">
        <path id="Trazado_1169090" data-name="Trazado 1169090" d="M58.595,14.439h-1.92a1.922,1.922,0,0,0-1.92,1.92H48.036V2.92A1.922,1.922,0,0,0,46.116,1H15L6.759,9.242V41.316H1V58.595H31.717a1.922,1.922,0,0,0,1.92-1.92h.107a6.742,6.742,0,0,1,3,.709,11.53,11.53,0,0,0,5.128,1.21h1.537a2.876,2.876,0,0,0,2.7,1.92h1.92A2.874,2.874,0,0,0,50.8,58.384a2.864,2.864,0,0,0,1.071.211h3.84a2.867,2.867,0,0,0,2.131-4.8,2.836,2.836,0,0,0,0-3.84,2.836,2.836,0,0,0,0-3.84,2.867,2.867,0,0,0-2.131-4.8H54.222a3.8,3.8,0,0,0,.534-1.92,1.922,1.922,0,0,0-1.92-1.92h-1.92V29.8h3.84a1.922,1.922,0,0,0,1.92,1.92h1.92a1.922,1.922,0,0,0,1.92-1.92V16.359A1.922,1.922,0,0,0,58.595,14.439ZM14.439,4.277v4.4h-4.4Zm17.278,52.4H2.92V43.236h28.8ZM20.2,33.637a5.759,5.759,0,1,1,5.759-5.759A5.765,5.765,0,0,1,20.2,33.637Zm0,1.92a7.627,7.627,0,0,0,2.88-.565v4.968l-2.88-2.88-2.88,2.88V34.992A7.627,7.627,0,0,0,20.2,35.557Zm1.522,5.759H18.676L20.2,39.794Zm3.277,0V33.863a7.679,7.679,0,1,0-9.6,0v7.454H8.679V10.6h7.679V2.92H46.116V16.359H39.4a1.922,1.922,0,0,0-1.92-1.92h-1.92a1.922,1.922,0,0,0-1.92,1.92V29.8a1.922,1.922,0,0,0,1.92,1.92h1.92A1.922,1.922,0,0,0,39.4,29.8h3.84v7.679h-.96a10.585,10.585,0,0,0-6.767,2.454l-2.376,2.021a1.908,1.908,0,0,0-1.416-.635ZM37.477,16.359V29.8h-1.92V16.359ZM49,57.635a.962.962,0,0,1-.96.96h-1.92a.962.962,0,0,1-.96-.96V43.326a1.308,1.308,0,0,1,.453-.089H47.24a2.853,2.853,0,0,0,.047,2.031,2.864,2.864,0,0,0,0,5.537A2.854,2.854,0,0,0,49,54.579Zm7.679-9.6a.962.962,0,0,1-.96.96H48.036a.96.96,0,1,1,0-1.92h7.679A.962.962,0,0,1,56.675,48.036Zm0,3.84a.962.962,0,0,1-.96.96H49.956a.96.96,0,1,1,0-1.92h5.759A.962.962,0,0,1,56.675,51.876Zm-.96,4.8h-3.84a.96.96,0,1,1,0-1.92h3.84a.96.96,0,1,1,0,1.92Zm.96-12.479a.962.962,0,0,1-.96.96H49.956a.96.96,0,1,1,0-1.92h5.759A.962.962,0,0,1,56.675,44.2Zm-5.759-2.88H45.609a3.226,3.226,0,0,0-2.9,1.8A3.678,3.678,0,0,1,39.4,45.156v1.92a5.579,5.579,0,0,0,3.84-1.528V56.675h-1.36a9.592,9.592,0,0,1-4.269-1.008,8.687,8.687,0,0,0-3.864-.912h-.107V44.044L36.745,41.4a8.659,8.659,0,0,1,5.531-2H52.835A1.922,1.922,0,0,1,50.916,41.316ZM49,37.477h-3.84V29.8H49Zm1.92-9.6H39.4v-9.6H54.755v9.6Zm7.679,1.92h-1.92V16.359h1.92Z" transform="translate(-1 -1)"/>
        <path id="Trazado_1169091" data-name="Trazado 1169091" d="M20.84,25a3.84,3.84,0,1,0,3.84,3.84A3.844,3.844,0,0,0,20.84,25Zm0,5.759a1.92,1.92,0,1,1,1.92-1.92A1.922,1.922,0,0,1,20.84,30.759Z" transform="translate(-1.641 -1.962)"/>
        <path id="Trazado_1169092" data-name="Trazado 1169092" d="M19,5h5.759V6.92H19Z" transform="translate(-1.722 -1.16)"/>
        <path id="Trazado_1169093" data-name="Trazado 1169093" d="M27,5H43.319V6.92H27Z" transform="translate(-2.042 -1.16)"/>
        <path id="Trazado_1169094" data-name="Trazado 1169094" d="M19,9H43v1.92H19Z" transform="translate(-1.722 -1.321)"/>
        <path id="Trazado_1169095" data-name="Trazado 1169095" d="M13,13h7.679v1.92H13Z" transform="translate(-1.481 -1.481)"/>
        <path id="Trazado_1169096" data-name="Trazado 1169096" d="M23,13h7.679v1.92H23Z" transform="translate(-1.882 -1.481)"/>
        <path id="Trazado_1169097" data-name="Trazado 1169097" d="M13,17h7.679v1.92H13Z" transform="translate(-1.481 -1.641)"/>
        <path id="Trazado_1169098" data-name="Trazado 1169098" d="M23,17h7.679v1.92H23Z" transform="translate(-1.882 -1.641)"/>
      </g>
    </g>
  </g>
</svg>
