<svg xmlns="http://www.w3.org/2000/svg" width="86.252" height="113" viewBox="0 0 86.252 113">
  <g id="Grupo_1220574" data-name="Grupo 1220574" transform="translate(-180 -2568)">
    <rect id="Rectángulo_421288" data-name="Rectángulo 421288" width="60" height="113" transform="translate(205 2568)" fill="#eae4dc"/>
    <g id="contrato_11_" data-name="contrato (11)" transform="translate(124.508 2561.758)">
      <g id="Grupo_1220573" data-name="Grupo 1220573" transform="translate(55.492 16)">
        <path id="Trazado_1169892" data-name="Trazado 1169892" d="M88.916,16.826l2.669,6.645a1.175,1.175,0,0,1,.046.739l-2.288,8.629,2.088,5.885H91.8l1.009-6.559a1.178,1.178,0,0,1,.241-.557c.661-.884,1.4-2.042,2.059-2.911l2.818-3.985-3.358-6.939A1.181,1.181,0,0,1,95.591,16H121.66a1.183,1.183,0,0,1,1.183,1.183V56.666l14.72,17.2c1.473,1.423,2.471,4.1,3,6.975a23.931,23.931,0,0,1,.062,9.137l-2.988,11.864v3.97h1.916a2.194,2.194,0,0,1,2.189,2.191v9.045a2.194,2.194,0,0,1-2.19,2.192H115.5a2.194,2.194,0,0,1-2.191-2.192v-9.045a2.194,2.194,0,0,1,2.191-2.191h1.716v-3.844q-.334-.7-.614-1.4H56.675a1.183,1.183,0,0,1-1.183-1.183V17.183A1.183,1.183,0,0,1,56.675,16H87.789a1.183,1.183,0,0,1,1.127.826Z" transform="translate(-55.492 -16)" fill-rule="evenodd"/>
        <path id="Trazado_1169893" data-name="Trazado 1169893" d="M106.1,27l2.859,5.907a1.18,1.18,0,0,1-.078,1.231l-1.945,2.751h13.714a1.183,1.183,0,0,1,0,2.364H105.268l-1.537,2.172-.912,5.931h17.835a1.183,1.183,0,0,1,0,2.364h-18.2l-.514,3.341h0a1.181,1.181,0,0,1-2.28.217L98.4,49.722H89.333a1.183,1.183,0,0,1,0-2.364h8.225l-1.931-5.442a1.175,1.175,0,0,1-.028-.692l.523-1.971h-2.9a1.183,1.183,0,0,1,0-2.364H96.75l1.133-4.27L95.624,27H84.762V37.908a1.183,1.183,0,0,1-2.129.706l-3.476-4.2L75.643,38.66a1.183,1.183,0,0,1-2.09-.753h0V27H66.488v79.845H124.41c-2.269-7.769-.051-15.122.356-23.059a4.6,4.6,0,0,1,4.342-4.524V27ZM74.944,95.578a1.183,1.183,0,0,1,0-2.364h45.711a1.183,1.183,0,0,1,0,2.364Zm0-9.171a1.183,1.183,0,0,1,0-2.364h9.267a1.183,1.183,0,0,1,0,2.364Zm14.328,0a1.183,1.183,0,0,1,0-2.364h31.382a1.183,1.183,0,0,1,0,2.364ZM74.944,77.235a1.183,1.183,0,0,1,0-2.364h45.711a1.183,1.183,0,0,1,0,2.364Zm0-9.171a1.183,1.183,0,0,1,0-2.364h29.725a1.183,1.183,0,1,1,0,2.364Zm34.785,0a1.183,1.183,0,0,1,0-2.364h10.926a1.183,1.183,0,0,1,0,2.364ZM74.944,58.893a1.183,1.183,0,0,1,0-2.364h45.711a1.183,1.183,0,0,1,0,2.364Zm0-9.171a1.183,1.183,0,1,1,0-2.364h9.328a1.183,1.183,0,1,1,0,2.364Z" transform="translate(-64.123 -24.634)" fill="#f7f7f8" fill-rule="evenodd"/>
        <path id="Trazado_1169894" data-name="Trazado 1169894" d="M350.355,247.064a1.183,1.183,0,1,1-2.364,0V236.848c0-3.038-4.383-2.971-4.538.06-.131,2.558-.416,4.924-.693,7.219-.773,6.412-1.477,12.253,1.664,18.7a1.175,1.175,0,0,1,.119.516v4.11h15.692v-4.108h0a1.191,1.191,0,0,1,.035-.286l3.026-12.011a21.453,21.453,0,0,0-.089-8.14c-.455-2.463-1.246-4.69-2.349-5.729-.03-.029-.06-.06-.088-.092L347.8,221.93v10.745a4.354,4.354,0,0,1,2.551,4.173Z" transform="translate(-280.454 -177.637)" fill="#ffd6c3" fill-rule="evenodd"/>
      </g>
      <path id="Trazado_1169895" data-name="Trazado 1169895" d="M335.294,444.563H359v8.7H335.294Z" transform="translate(-219.62 -336.384)" fill="#229ad6"/>
      <path id="Trazado_1169896" data-name="Trazado 1169896" d="M110.318,27v7.626l2.489-2.976a1.181,1.181,0,0,1,1.662.157l2.332,2.819V27Z" transform="translate(-43.034 -8.634)" fill="#f0b248" fill-rule="evenodd"/>
    </g>
  </g>
</svg>
