<svg xmlns="http://www.w3.org/2000/svg" xmlns:xlink="http://www.w3.org/1999/xlink" width="93.934" height="93.934" viewBox="0 0 93.934 93.934">
  <defs>
    <filter id="Trazado_982547" x="0" y="0" width="93.934" height="93.934" filterUnits="userSpaceOnUse">
      <feOffset dy="3" input="SourceAlpha"/>
      <feGaussianBlur stdDeviation="3" result="blur"/>
      <feFlood flood-opacity="0.161"/>
      <feComposite operator="in" in2="blur"/>
      <feComposite in="SourceGraphic"/>
    </filter>
  </defs>
  <g id="Grupo_1220407" data-name="Grupo 1220407" transform="translate(-1031.066 -1331.697)">
    <g id="Grupo_1219862" data-name="Grupo 1219862" transform="translate(420 137)">
      <g id="Grupo_1215985" data-name="Grupo 1215985" transform="translate(-0.229 -2679.151)">
        <g id="Grupo_1214663" data-name="Grupo 1214663" transform="translate(0 -1254.151)">
          <g id="Grupo_1214433" data-name="Grupo 1214433" transform="translate(-0.771 -2738.674)">
            <g id="Grupo_1183190" data-name="Grupo 1183190" transform="translate(1 1016.674)">
              <g id="Grupo_1179611" data-name="Grupo 1179611" transform="translate(428 4723.467)">
                <g id="Grupo_1175227" data-name="Grupo 1175227" transform="translate(-5.967 140.533)">
                  <g id="Grupo_1167337" data-name="Grupo 1167337" transform="translate(198.033 1992)">
                    <g id="Grupo_1166720" data-name="Grupo 1166720">
                      <g id="Grupo_1164305" data-name="Grupo 1164305">
                        <g id="Grupo_1163948" data-name="Grupo 1163948">
                          <g id="Grupo_1158168" data-name="Grupo 1158168">
                            <g id="Grupo_1152576" data-name="Grupo 1152576">
                              <g id="Grupo_1148633" data-name="Grupo 1148633">
                                <g id="Grupo_1148525" data-name="Grupo 1148525">
                                  <g transform="matrix(1, 0, 0, 1, -9, -6)" filter="url(#Trazado_982547)">
                                    <g id="Trazado_982547-2" data-name="Trazado 982547" transform="translate(9 6)" fill="#eae4dc">
                                      <path d="M 37.966796875 74.43359375 C 33.04315185546875 74.43359375 28.26757431030273 73.46962738037109 23.77274131774902 71.56847381591797 C 19.43047523498535 69.73184967041016 15.53040790557861 67.10224914550781 12.18087482452393 63.75271987915039 C 8.831341743469238 60.4031867980957 6.201741218566895 56.50312042236328 4.365118980407715 52.16086196899414 C 2.463963508605957 47.66601943969727 1.499996900558472 42.89044189453125 1.499996900558472 37.966796875 C 1.499996900558472 33.04315185546875 2.463963508605957 28.26757431030273 4.365118980407715 23.77274131774902 C 6.201741218566895 19.43047523498535 8.831341743469238 15.53040790557861 12.18087482452393 12.18087482452393 C 15.53040790557861 8.831341743469238 19.43047523498535 6.201741218566895 23.77274131774902 4.365118980407715 C 28.26757431030273 2.463963508605957 33.04315185546875 1.499996900558472 37.966796875 1.499996900558472 C 42.89044189453125 1.499996900558472 47.66601943969727 2.463963508605957 52.16086196899414 4.365118980407715 C 56.50312042236328 6.201741218566895 60.4031867980957 8.831341743469238 63.75271987915039 12.18087482452393 C 67.10224914550781 15.53040790557861 69.73184967041016 19.43047523498535 71.56847381591797 23.77274131774902 C 73.46962738037109 28.26757431030273 74.43359375 33.04315185546875 74.43359375 37.966796875 C 74.43359375 42.89044189453125 73.46962738037109 47.66601943969727 71.56847381591797 52.16086196899414 C 69.73184967041016 56.50313186645508 67.10224914550781 60.4031867980957 63.75271987915039 63.75271987915039 C 60.4031867980957 67.10224914550781 56.50313186645508 69.73184967041016 52.16086196899414 71.56847381591797 C 47.66601943969727 73.46962738037109 42.89044189453125 74.43359375 37.966796875 74.43359375 Z" stroke="none"/>
                                      <path d="M 37.966796875 3 C 33.2449836730957 3 28.66600799560547 3.924095153808594 24.35705947875977 5.746635437011719 C 20.19359588623047 7.507637023925781 16.45379638671875 10.02928161621094 13.24153518676758 13.24153518676758 C 10.02927398681641 16.45379638671875 7.507621765136719 20.19359588623047 5.746635437011719 24.35705947875977 C 3.924095153808594 28.66600799560547 3 33.2449836730957 3 37.966796875 C 3 42.6886100769043 3.924095153808594 47.26758575439453 5.746635437011719 51.57653427124023 C 7.507621765136719 55.73999786376953 10.02927398681641 59.47979736328125 13.24153518676758 62.69205856323242 C 16.45379638671875 65.90431976318359 20.19359588623047 68.42597198486328 24.35705947875977 70.18695831298828 C 28.66600799560547 72.00949859619141 33.2449836730957 72.93359375 37.966796875 72.93359375 C 42.6886100769043 72.93359375 47.26758575439453 72.00949859619141 51.57653427124023 70.18695831298828 C 55.73999786376953 68.42597198486328 59.47979736328125 65.90431976318359 62.69205856323242 62.69205856323242 C 65.90431976318359 59.47979736328125 68.42597198486328 55.73999786376953 70.18695831298828 51.57653427124023 C 72.00949859619141 47.26758575439453 72.93359375 42.6886100769043 72.93359375 37.966796875 C 72.93359375 33.2449836730957 72.00949859619141 28.66600799560547 70.18695831298828 24.35705947875977 C 68.42597198486328 20.19359588623047 65.90431976318359 16.45379638671875 62.69205856323242 13.24153518676758 C 59.47979736328125 10.02928161621094 55.73999786376953 7.507637023925781 51.57653427124023 5.746635437011719 C 47.26758575439453 3.924095153808594 42.6886100769043 3 37.966796875 3 M 37.966796875 0 C 58.93528366088867 0 75.93359375 16.99832153320312 75.93359375 37.966796875 C 75.93359375 58.93528366088867 58.93528366088867 75.93359375 37.966796875 75.93359375 C 16.99831008911133 75.93359375 0 58.93528366088867 0 37.966796875 C 0 16.99832153320312 16.99831008911133 0 37.966796875 0 Z" stroke="none" fill="#665b4e"/>
                                    </g>
                                  </g>
                                </g>
                              </g>
                            </g>
                          </g>
                        </g>
                      </g>
                    </g>
                  </g>
                </g>
              </g>
            </g>
          </g>
        </g>
      </g>
    </g>
    <g id="contrato_7_" data-name="contrato (7)" transform="translate(1028.008 1345.914)">
      <g id="Grupo_1220392" data-name="Grupo 1220392" transform="translate(24.996 3.098)">
        <g id="Grupo_1220391" data-name="Grupo 1220391" transform="translate(0)">
          <path id="Trazado_1169139" data-name="Trazado 1169139" d="M57.86,152.212H54V188.2a.62.62,0,0,0,.62.62H57.86V152.212Z" transform="translate(-54 -136.45)" fill="#a79ba7"/>
          <path id="Trazado_1169140" data-name="Trazado 1169140" d="M170.478,25h-30.01v4H171.1V25.62A.62.62,0,0,0,170.478,25Z" transform="translate(-129.754 -25)" fill="#a79ba7"/>
        </g>
      </g>
      <path id="Trazado_1169141" data-name="Trazado 1169141" d="M125.877,56.3H92.007V67.569a.62.62,0,0,1-.62.62H85.153v39.868a.62.62,0,0,0,.62.62H116.79A9.239,9.239,0,0,1,126.5,93.783V56.925A.62.62,0,0,0,125.877,56.3Z" transform="translate(-56.297 -49.328)" fill="#fff"/>
      <g id="Grupo_1220393" data-name="Grupo 1220393" transform="translate(28.856 18.86)">
        <path id="Trazado_1169142" data-name="Trazado 1169142" d="M90.338,192.08V152.212H85.153V192.08a.62.62,0,0,0,.62.62h5.185a.619.619,0,0,1-.62-.619Z" transform="translate(-85.153 -152.212)" fill="#f3f0f3"/>
      </g>
      <g id="Grupo_1220396" data-name="Grupo 1220396" transform="translate(74.484 6.976)">
        <g id="Grupo_1220395" data-name="Grupo 1220395">
          <path id="Trazado_1169143" data-name="Trazado 1169143" d="M453.4,259.321a3.1,3.1,0,0,0,.2,1.094l1.44,3.814a.248.248,0,0,0,.464,0l1.44-3.814a3.1,3.1,0,0,0,.2-1.094v-1.356H453.4v1.356Z" transform="translate(-453.396 -232.978)" fill="#fff"/>
          <g id="Grupo_1220394" data-name="Grupo 1220394">
            <path id="Trazado_1169144" data-name="Trazado 1169144" d="M457.139,81.291V58.176a1.872,1.872,0,0,0-3.743,0V81.291Z" transform="translate(-453.396 -56.304)" fill="#fed402"/>
          </g>
        </g>
      </g>
      <g id="Grupo_1220399" data-name="Grupo 1220399" transform="translate(58.212 44.037)">
        <g id="Grupo_1220397" data-name="Grupo 1220397" transform="translate(0)">
          <circle id="Elipse_14453" data-name="Elipse 14453" cx="9.237" cy="9.237" r="9.237" fill="#00c27a"/>
        </g>
        <g id="Grupo_1220398" data-name="Grupo 1220398" transform="translate(0 0)">
          <path id="Trazado_1169145" data-name="Trazado 1169145" d="M327.134,364.646a9.238,9.238,0,0,1,6.707-8.883,9.237,9.237,0,1,0,0,17.766A9.239,9.239,0,0,1,327.134,364.646Z" transform="translate(-322.074 -355.409)" fill="#09a755"/>
        </g>
      </g>
      <g id="Grupo_1220404" data-name="Grupo 1220404" transform="translate(21.823 0.929)">
        <g id="Grupo_1220400" data-name="Grupo 1220400" transform="translate(0)">
          <path id="Trazado_1169146" data-name="Trazado 1169146" d="M41.661,25.431H29.014a.62.62,0,0,1-.62-.62V8.12a.62.62,0,0,1,.62-.62H41.661a.62.62,0,0,1,.62.62V24.811A.62.62,0,0,1,41.661,25.431Z" transform="translate(-28.394 -7.5)" fill="#d8ecfe"/>
        </g>
        <g id="Grupo_1220401" data-name="Grupo 1220401" transform="translate(0 0)">
          <path id="Trazado_1169147" data-name="Trazado 1169147" d="M32.3,19.4V17.56a3.774,3.774,0,0,1,0-4.485V8.12a.62.62,0,0,1,.62-.62H29.014a.62.62,0,0,0-.62.62V24.811a.614.614,0,0,0,.087.312A7.653,7.653,0,0,1,32.3,19.4Z" transform="translate(-28.394 -7.5)" fill="#c4e2ff"/>
        </g>
        <path id="Trazado_1169148" data-name="Trazado 1169148" d="M37.416,98.682a3.784,3.784,0,0,1-2.926,0,7.4,7.4,0,0,0-5.393,6.325.617.617,0,0,0,.532.307H42.277a.617.617,0,0,0,.532-.307A7.4,7.4,0,0,0,37.416,98.682Z" transform="translate(-29.01 -87.384)" fill="#26a6fe"/>
        <g id="Grupo_1220402" data-name="Grupo 1220402" transform="translate(0.087 11.297)">
          <path id="Trazado_1169149" data-name="Trazado 1169149" d="M35.953,98.972a3.763,3.763,0,0,1-1.463-.294A7.4,7.4,0,0,0,29.1,105a.617.617,0,0,0,.532.307H33.5a.617.617,0,0,1-.532-.307,7.477,7.477,0,0,1,4.921-6.194q-.232-.075-.471-.131A3.762,3.762,0,0,1,35.953,98.972Z" transform="translate(-29.097 -98.677)" fill="#0593fc"/>
        </g>
        <g id="Grupo_1220403" data-name="Grupo 1220403" transform="translate(3.169 4.042)">
          <circle id="Elipse_14454" data-name="Elipse 14454" cx="3.775" cy="3.775" r="3.775" fill="#26a6fe"/>
        </g>
      </g>
      <g id="Grupo_1220405" data-name="Grupo 1220405" transform="translate(34.466 43.457)">
        <path id="Trazado_1169150" data-name="Trazado 1169150" d="M136.692,355.971H130.8a.372.372,0,0,1-.372-.372v-4.507a.372.372,0,0,1,.372-.372h5.889a.372.372,0,0,1,.372.372V355.6A.372.372,0,0,1,136.692,355.971Z" transform="translate(-130.431 -350.72)" fill="#f6a96c"/>
      </g>
      <g id="Grupo_1220406" data-name="Grupo 1220406" transform="translate(20.894 0)">
        <path id="Trazado_1169151" data-name="Trazado 1169151" d="M450.569,62.893a.929.929,0,0,0,.929-.929V51.606a2.8,2.8,0,0,0-5.6,0V76.078a4.013,4.013,0,0,0,.26,1.422l1.44,3.814a1.177,1.177,0,0,0,2.2,0l1.44-3.814a4.014,4.014,0,0,0,.26-1.422V66.3a.929.929,0,0,0-1.859,0v7.492h-1.884V51.606a.942.942,0,0,1,1.884,0V61.963a.929.929,0,0,0,.929.929Zm-.929,12.758v.427a2.16,2.16,0,0,1-.14.766l-.8,2.125-.8-2.125a2.16,2.16,0,0,1-.14-.766v-.427Z" transform="translate(-393.236 -42.758)"/>
        <path id="Trazado_1169152" data-name="Trazado 1169152" d="M76.684,54.228a.929.929,0,0,0-1.1.724,8.312,8.312,0,1,1-.134-3.9.929.929,0,0,0,1.791-.5A10.19,10.19,0,0,0,71.129,43.8V7.6A1.551,1.551,0,0,0,69.58,6.047H67.269V3.717A1.551,1.551,0,0,0,65.72,2.168H36.639v-.62A1.551,1.551,0,0,0,35.09,0H22.443a1.551,1.551,0,0,0-1.549,1.549V18.241a1.551,1.551,0,0,0,1.549,1.549h1.624V54.849A1.551,1.551,0,0,0,25.616,56.4h2.311v2.33a1.551,1.551,0,0,0,1.549,1.549H60.09a10.159,10.159,0,0,0,17.318-4.952A.929.929,0,0,0,76.684,54.228ZM22.753,1.859H34.781V14.186a8.255,8.255,0,0,0-.833-.933,7.8,7.8,0,0,0-1.768-1.274,4.7,4.7,0,1,0-6.825,0,7.8,7.8,0,0,0-1.768,1.274,8.266,8.266,0,0,0-.833.933Zm8.86,6.888A2.846,2.846,0,1,1,28.767,5.9,2.849,2.849,0,0,1,31.612,8.747ZM27.927,54.539h-2V19.79h2Zm-4.95-36.608A6.473,6.473,0,0,1,27.264,13.2a4.683,4.683,0,0,0,3.006,0,6.473,6.473,0,0,1,4.287,4.728Zm6.808,40.487V19.79h5.3a1.551,1.551,0,0,0,1.549-1.549V7.906h2.73a.929.929,0,0,0,0-1.859h-2.73V4.027H65.411v2.02h-21.7a.929.929,0,1,0,0,1.859H69.271v35.37A10.158,10.158,0,0,0,58.685,58.418Z" transform="translate(-20.894 0)"/>
        <path id="Trazado_1169153" data-name="Trazado 1169153" d="M361.453,400.411l-5.05,5.05-2.841-2.841a.929.929,0,0,0-1.314,1.314l3.5,3.5a.929.929,0,0,0,1.314,0l5.707-5.707a.929.929,0,1,0-1.314-1.314Z" transform="translate(-310.953 -350.559)"/>
        <path id="Trazado_1169154" data-name="Trazado 1169154" d="M136.02,419.054H123.86a.929.929,0,0,0,0,1.859h12.16a.929.929,0,0,0,0-1.859Z" transform="translate(-110.288 -367.131)"/>
        <path id="Trazado_1169155" data-name="Trazado 1169155" d="M124.232,350.329h5.889a1.3,1.3,0,0,0,1.3-1.3v-4.507a1.3,1.3,0,0,0-1.3-1.3h-5.889a1.3,1.3,0,0,0-1.3,1.3v4.507A1.3,1.3,0,0,0,124.232,350.329Zm.558-5.251h4.774v3.392H124.79Z" transform="translate(-110.288 -300.693)"/>
        <path id="Trazado_1169156" data-name="Trazado 1169156" d="M208.616,108.655h9.12a.929.929,0,1,0,0-1.859h-9.12a.929.929,0,0,0,0,1.859Z" transform="translate(-184.542 -93.563)"/>
        <path id="Trazado_1169157" data-name="Trazado 1169157" d="M182.966,146.572h15.476a.929.929,0,0,0,0-1.859H182.966a.929.929,0,0,0,0,1.859Z" transform="translate(-162.07 -126.782)"/>
        <path id="Trazado_1169158" data-name="Trazado 1169158" d="M123.86,211.254h30.123a.929.929,0,1,0,0-1.859H123.86a.929.929,0,1,0,0,1.859Z" transform="translate(-110.288 -183.45)"/>
        <path id="Trazado_1169159" data-name="Trazado 1169159" d="M123.86,249.171h30.123a.929.929,0,0,0,0-1.859H123.86a.929.929,0,0,0,0,1.859Z" transform="translate(-110.288 -216.668)"/>
        <path id="Trazado_1169160" data-name="Trazado 1169160" d="M123.86,287.088h30.123a.929.929,0,0,0,0-1.859H123.86a.929.929,0,0,0,0,1.859Z" transform="translate(-110.288 -249.887)"/>
      </g>
    </g>
  </g>
</svg>
