<svg xmlns="http://www.w3.org/2000/svg" xmlns:xlink="http://www.w3.org/1999/xlink" width="108" height="108" viewBox="0 0 108 108">
  <defs>
    <filter id="Trazado_904820" x="0" y="0" width="108" height="108" filterUnits="userSpaceOnUse">
      <feOffset dy="3" input="SourceAlpha"/>
      <feGaussianBlur stdDeviation="3" result="blur"/>
      <feFlood flood-opacity="0.161"/>
      <feComposite operator="in" in2="blur"/>
      <feComposite in="SourceGraphic"/>
    </filter>
  </defs>
  <g id="Grupo_1220622" data-name="Grupo 1220622" transform="translate(-197 -2920.078)">
    <g id="Grupo_1220078" data-name="Grupo 1220078" transform="translate(200 2926.078)">
      <g id="Grupo_1209015" data-name="Grupo 1209015" transform="translate(5.999 0)">
        <g id="Grupo_1207774" data-name="Grupo 1207774">
          <g id="Grupo_1206630" data-name="Grupo 1206630">
            <g id="Grupo_1185091" data-name="Grupo 1185091">
              <g id="Grupo_1179560" data-name="Grupo 1179560">
                <g id="Grupo_1173787" data-name="Grupo 1173787">
                  <g id="Grupo_1171910" data-name="Grupo 1171910">
                    <g id="Grupo_1167341" data-name="Grupo 1167341">
                      <g id="Grupo_1166792" data-name="Grupo 1166792">
                        <g transform="matrix(1, 0, 0, 1, -9, -6)" filter="url(#Trazado_904820)">
                          <g id="Trazado_904820-2" data-name="Trazado 904820" transform="translate(9 6)" fill="#fcf5f0">
                            <path d="M 44.99996948242188 88.50005340576172 C 39.12684631347656 88.50005340576172 33.43020629882812 87.35012817382812 28.06828117370605 85.08221435546875 C 22.88851928710938 82.89136505126953 18.23629379272461 79.754638671875 14.2408447265625 75.75918579101562 C 10.24540710449219 71.76374053955078 7.108694553375244 67.11151123046875 4.917831897735596 61.93173980712891 C 2.649931907653809 56.56980133056641 1.500007033348083 50.87314987182617 1.500007033348083 45.00002670288086 C 1.500007033348083 39.12690353393555 2.649931907653809 33.43025207519531 4.917831897735596 28.06831359863281 C 7.108694553375244 22.8885383605957 10.24540710449219 18.23631477355957 14.2408447265625 14.24086380004883 C 18.23629379272461 10.2454137802124 22.88851928710938 7.108689308166504 28.06828117370605 4.917839050292969 C 33.43020629882812 2.649926662445068 39.12684631347656 1.500001668930054 44.99996948242188 1.500001668930054 C 50.87309265136719 1.500001668930054 56.56973266601562 2.649926662445068 61.93165588378906 4.917839050292969 C 67.11143493652344 7.108689308166504 71.76364135742188 10.2454137802124 75.75909423828125 14.24086380004883 C 79.75454711914062 18.23631477355957 82.89125823974609 22.8885383605957 85.08212280273438 28.06831359863281 C 87.35002136230469 33.43025207519531 88.49994659423828 39.12690353393555 88.49994659423828 45.00002670288086 C 88.49994659423828 50.87314987182617 87.35002136230469 56.56980133056641 85.08212280273438 61.93173980712891 C 82.89125823974609 67.11151123046875 79.75454711914062 71.76374053955078 75.75909423828125 75.75918579101562 C 71.76364135742188 79.754638671875 67.11143493652344 82.89136505126953 61.93165588378906 85.08221435546875 C 56.56973266601562 87.35012817382812 50.87309265136719 88.50005340576172 44.99996948242188 88.50005340576172 Z" stroke="none"/>
                            <path d="M 44.99996948242188 3 C 39.32868194580078 3 33.82863998413086 4.110054016113281 28.65261077880859 6.299339294433594 C 23.65164184570312 8.414566040039062 19.15968322753906 11.44334411621094 15.301513671875 15.30152893066406 C 11.44332885742188 19.15969848632812 8.414566040039062 23.65167236328125 6.299324035644531 28.65264129638672 C 4.110054016113281 33.82868194580078 3 39.32873916625977 3 45.00002670288086 C 3 50.67131423950195 4.110054016113281 56.17137145996094 6.299324035644531 61.347412109375 C 8.414566040039062 66.34838104248047 11.44332885742188 70.84035491943359 15.301513671875 74.69852447509766 C 19.15968322753906 78.55670928955078 23.65164184570312 81.58547973632812 28.65261077880859 83.70071411132812 C 33.82863998413086 85.88999938964844 39.32868194580078 87.00005340576172 44.99996948242188 87.00005340576172 C 50.67125701904297 87.00005340576172 56.17129898071289 85.88999938964844 61.34732818603516 83.70071411132812 C 66.34829711914062 81.58547973632812 70.84025573730469 78.55670928955078 74.69842529296875 74.69852447509766 C 78.55661010742188 70.84035491943359 81.58537292480469 66.34838104248047 83.70061492919922 61.347412109375 C 85.88988494873047 56.17137145996094 86.99993896484375 50.67131423950195 86.99993896484375 45.00002670288086 C 86.99993896484375 39.32873916625977 85.88988494873047 33.82868194580078 83.70061492919922 28.65264129638672 C 81.58537292480469 23.65167236328125 78.55661010742188 19.15969848632812 74.69842529296875 15.30152893066406 C 70.84025573730469 11.44334411621094 66.34829711914062 8.414566040039062 61.34732818603516 6.299339294433594 C 56.17129898071289 4.110054016113281 50.67125701904297 3 44.99996948242188 3 M 44.99996948242188 0 C 69.85276794433594 0 89.99993896484375 20.14720153808594 89.99993896484375 45.00002670288086 C 89.99993896484375 69.85285949707031 69.85276794433594 90.00005340576172 44.99996948242188 90.00005340576172 C 20.14717102050781 90.00005340576172 0 69.85285949707031 0 45.00002670288086 C 0 20.14720153808594 20.14717102050781 0 44.99996948242188 0 Z" stroke="none" fill="#815a3f"/>
                          </g>
                        </g>
                      </g>
                    </g>
                  </g>
                </g>
              </g>
            </g>
          </g>
        </g>
      </g>
    </g>
    <g id="subasta_7_" data-name="subasta (7)" transform="translate(224.004 2944.004)">
      <g id="Grupo_1220593" data-name="Grupo 1220593" transform="translate(6.725 2.145)">
        <path id="Trazado_1169933" data-name="Trazado 1169933" d="M56.384,63.835H19.741v2.29a4.58,4.58,0,1,1-9.161,0V6.58A4.581,4.581,0,0,0,6,2H48.368a8.016,8.016,0,0,1,8.016,8.016Z" transform="translate(-6 -2)" fill="#adaba6"/>
      </g>
      <g id="Grupo_1220594" data-name="Grupo 1220594" transform="translate(6.725 2.145)">
        <path id="Trazado_1169934" data-name="Trazado 1169934" d="M10.58,6.58V53.442a25.357,25.357,0,0,0,16.031,5.812c15.178,0,27.482-13.842,27.482-30.917C54.094,17.2,48.858,7.443,41.007,2H6A4.581,4.581,0,0,1,10.58,6.58Z" transform="translate(-6 -2)" fill="#f1efeb"/>
      </g>
      <g id="Grupo_1220596" data-name="Grupo 1220596" transform="translate(15.886 63.98)">
        <g id="Grupo_1220595" data-name="Grupo 1220595">
          <path id="Trazado_1169935" data-name="Trazado 1169935" d="M55.223,56H18.58v2.29A4.581,4.581,0,0,1,14,62.871H55.223a4.581,4.581,0,0,0,4.58-4.58V56Z" transform="translate(-14 -56)" fill="#74726f"/>
        </g>
      </g>
      <g id="Grupo_1220597" data-name="Grupo 1220597" transform="translate(2.145 2.145)">
        <path id="Trazado_1169936" data-name="Trazado 1169936" d="M11.161,15.741H2V6.58a4.58,4.58,0,0,1,9.161,0Z" transform="translate(-2 -2)" fill="#74726f"/>
      </g>
      <g id="Grupo_1220598" data-name="Grupo 1220598" transform="translate(15.886 41.078)">
        <circle id="Elipse_14469" data-name="Elipse 14469" cx="9" cy="9" r="9" transform="translate(0.109 -0.082)" fill="#b57769"/>
      </g>
      <g id="Grupo_1220599" data-name="Grupo 1220599" transform="translate(20.467 45.659)">
        <ellipse id="Elipse_14470" data-name="Elipse 14470" cx="5" cy="4.5" rx="5" ry="4.5" transform="translate(-0.471 0.337)" fill="#f29f8c"/>
      </g>
      <g id="Grupo_1220600" data-name="Grupo 1220600" transform="translate(53.663 42.225)">
        <path id="Trazado_1169937" data-name="Trazado 1169937" d="M0,0H4.049V20.243H0Z" transform="translate(0 2.863) rotate(-45)" fill="#bf8859"/>
      </g>
      <g id="Grupo_1220601" data-name="Grupo 1220601" transform="translate(45.649 34.21)">
        <path id="Trazado_1169938" data-name="Trazado 1169938" d="M0,0H11.335V8.1H0Z" transform="translate(0 8.014) rotate(-45)" fill="#bf8859"/>
      </g>
      <g id="Grupo_1220602" data-name="Grupo 1220602" transform="translate(41.069 41.078)">
        <path id="Trazado_1169939" data-name="Trazado 1169939" d="M0,0H4.859V11.335H0Z" transform="translate(0 3.435) rotate(-45)" fill="#bf8859"/>
      </g>
      <g id="Grupo_1220603" data-name="Grupo 1220603" transform="translate(52.52 29.63)">
        <path id="Trazado_1169940" data-name="Trazado 1169940" d="M0,0H4.859V11.335H0Z" transform="translate(0 3.435) rotate(-45)" fill="#bf8859"/>
      </g>
      <g id="Grupo_1220604" data-name="Grupo 1220604" transform="translate(1 1)">
        <path id="Trazado_1169941" data-name="Trazado 1169941" d="M57.109,72H15.886a5.732,5.732,0,0,1-5.725-5.725V17.031H2.145A1.145,1.145,0,0,1,1,15.886V6.725a5.725,5.725,0,1,1,11.451,0V66.27a3.435,3.435,0,0,0,6.871,0V63.98a1.145,1.145,0,0,1,1.145-1.145H61.69a1.145,1.145,0,0,1,1.145,1.145v2.29A5.732,5.732,0,0,1,57.109,72Zm-36.645-2.29H57.109a3.439,3.439,0,0,0,3.435-3.435V65.125H21.612V66.27a5.7,5.7,0,0,1-1.147,3.435ZM3.29,14.741h6.871V6.725a3.435,3.435,0,1,0-6.871,0Z" transform="translate(-1 -1)"/>
      </g>
      <g id="Grupo_1220605" data-name="Grupo 1220605" transform="translate(55.964 48.521)">
        <path id="Trazado_1169942" data-name="Trazado 1169942" d="M49,42.5h2.29V57.959H49Z" transform="translate(-49 -42.5)"/>
      </g>
      <g id="Grupo_1220606" data-name="Grupo 1220606" transform="translate(6.725 1)">
        <path id="Trazado_1169943" data-name="Trazado 1169943" d="M57.529,30.772h-2.29V9.016A5.732,5.732,0,0,0,49.513,3.29H6V1H49.513a8.025,8.025,0,0,1,8.016,8.016Z" transform="translate(-6 -1)"/>
      </g>
      <g id="Grupo_1220607" data-name="Grupo 1220607" transform="translate(39.933 39.933)">
        <path id="Trazado_1169944" data-name="Trazado 1169944" d="M44.161,48.741a1.142,1.142,0,0,1-.81-.336L35.336,40.39a1.144,1.144,0,0,1,0-1.619l3.435-3.435a1.144,1.144,0,0,1,1.619,0l8.016,8.016a1.144,1.144,0,0,1,0,1.619L44.97,48.406A1.142,1.142,0,0,1,44.161,48.741Zm-6.4-9.161,6.4,6.4,1.816-1.816-6.4-6.4Z" transform="translate(-35 -35)"/>
      </g>
      <g id="Grupo_1220608" data-name="Grupo 1220608" transform="translate(51.384 28.482)">
        <path id="Trazado_1169945" data-name="Trazado 1169945" d="M54.161,38.741a1.142,1.142,0,0,1-.81-.336L45.336,30.39a1.144,1.144,0,0,1,0-1.619l3.435-3.435a1.144,1.144,0,0,1,1.619,0l8.016,8.016a1.144,1.144,0,0,1,0,1.619L54.97,38.406A1.142,1.142,0,0,1,54.161,38.741Zm-6.4-9.161,6.4,6.4,1.816-1.816-6.4-6.4Z" transform="translate(-45 -25)"/>
      </g>
      <g id="Grupo_1220609" data-name="Grupo 1220609" transform="translate(44.84 33.4)">
        <path id="Trazado_1169946" data-name="Trazado 1169946" d="M0,0H11.335V2.29H0Z" transform="translate(0 8.014) rotate(-45)"/>
      </g>
      <g id="Grupo_1220610" data-name="Grupo 1220610" transform="translate(50.564 39.126)">
        <path id="Trazado_1169947" data-name="Trazado 1169947" d="M0,0H11.335V2.29H0Z" transform="translate(0 8.014) rotate(-45)"/>
      </g>
      <g id="Grupo_1220611" data-name="Grupo 1220611" transform="translate(52.865 41.414)">
        <path id="Trazado_1169948" data-name="Trazado 1169948" d="M61.416,55.424a1.142,1.142,0,0,1-.81-.336L46.293,40.775l1.619-1.619,13.5,13.5,1.244-1.244-13.5-13.5,1.619-1.619L65.089,50.607a1.144,1.144,0,0,1,0,1.619l-2.863,2.863A1.142,1.142,0,0,1,61.416,55.424Z" transform="translate(-46.293 -36.293)"/>
      </g>
      <g id="Grupo_1220612" data-name="Grupo 1220612" transform="translate(15.886 21.612)">
        <path id="Trazado_1169949" data-name="Trazado 1169949" d="M14,19H51.788v2.29H14Z" transform="translate(-14 -19)"/>
      </g>
      <g id="Grupo_1220613" data-name="Grupo 1220613" transform="translate(15.886 30.772)">
        <path id="Trazado_1169950" data-name="Trazado 1169950" d="M14,27H47.208v2.29H14Z" transform="translate(-14 -27)"/>
      </g>
      <g id="Grupo_1220614" data-name="Grupo 1220614" transform="translate(15.886 26.192)">
        <path id="Trazado_1169951" data-name="Trazado 1169951" d="M14,23H51.788v2.29H14Z" transform="translate(-14 -23)"/>
      </g>
      <g id="Grupo_1220615" data-name="Grupo 1220615" transform="translate(15.886 12.451)">
        <path id="Trazado_1169952" data-name="Trazado 1169952" d="M14,11H51.788v2.29H14Z" transform="translate(-14 -11)"/>
      </g>
      <g id="Grupo_1220616" data-name="Grupo 1220616" transform="translate(15.886 7.871)">
        <path id="Trazado_1169953" data-name="Trazado 1169953" d="M14,7H51.788V9.29H14Z" transform="translate(-14 -7)"/>
      </g>
      <g id="Grupo_1220617" data-name="Grupo 1220617" transform="translate(15.886 17.031)">
        <path id="Trazado_1169954" data-name="Trazado 1169954" d="M14,15H51.788v2.29H14Z" transform="translate(-14 -15)"/>
      </g>
      <g id="Grupo_1220618" data-name="Grupo 1220618" transform="translate(15.886 35.353)">
        <path id="Trazado_1169955" data-name="Trazado 1169955" d="M14,31H44.917v2.29H14Z" transform="translate(-14 -31)"/>
      </g>
      <g id="Grupo_1220619" data-name="Grupo 1220619" transform="translate(14.741 39.933)">
        <path id="Trazado_1169956" data-name="Trazado 1169956" d="M23.306,55.612A10.306,10.306,0,1,1,33.612,45.306,10.318,10.318,0,0,1,23.306,55.612Zm0-18.321a8.016,8.016,0,1,0,8.016,8.016A8.025,8.025,0,0,0,23.306,37.29Z" transform="translate(-13 -35)"/>
      </g>
      <g id="Grupo_1220620" data-name="Grupo 1220620" transform="translate(19.321 44.513)">
        <path id="Trazado_1169957" data-name="Trazado 1169957" d="M22.725,50.451a5.725,5.725,0,1,1,5.725-5.725A5.732,5.732,0,0,1,22.725,50.451Zm0-9.161a3.435,3.435,0,1,0,3.435,3.435A3.439,3.439,0,0,0,22.725,41.29Z" transform="translate(-17 -39)"/>
      </g>
      <g id="Grupo_1220621" data-name="Grupo 1220621" transform="translate(37.643 54.819)">
        <path id="Trazado_1169958" data-name="Trazado 1169958" d="M46.741,53.726h-4.58a4.582,4.582,0,0,1-3.88-2.147A7.551,7.551,0,0,1,33,53.726v-2.29a5.264,5.264,0,0,0,4.388-2.349l.385-.577a1.145,1.145,0,0,1,2.1.636,2.292,2.292,0,0,0,2.29,2.29h4.58Z" transform="translate(-33 -47.999)"/>
      </g>
    </g>
  </g>
</svg>
