<svg xmlns="http://www.w3.org/2000/svg" xmlns:xlink="http://www.w3.org/1999/xlink" width="108" height="108" viewBox="0 0 108 108">
  <defs>
    <filter id="Trazado_904820" x="0" y="0" width="108" height="108" filterUnits="userSpaceOnUse">
      <feOffset dy="3" input="SourceAlpha"/>
      <feGaussianBlur stdDeviation="3" result="blur"/>
      <feFlood flood-opacity="0.161"/>
      <feComposite operator="in" in2="blur"/>
      <feComposite in="SourceGraphic"/>
    </filter>
  </defs>
  <g id="Grupo_1220581" data-name="Grupo 1220581" transform="translate(-616 -2981)">
    <g id="Grupo_1220102" data-name="Grupo 1220102" transform="translate(619 2987)">
      <g id="Grupo_1209015" data-name="Grupo 1209015" transform="translate(5.999 0)">
        <g id="Grupo_1207774" data-name="Grupo 1207774">
          <g id="Grupo_1206630" data-name="Grupo 1206630">
            <g id="Grupo_1185091" data-name="Grupo 1185091">
              <g id="Grupo_1179560" data-name="Grupo 1179560">
                <g id="Grupo_1173787" data-name="Grupo 1173787">
                  <g id="Grupo_1171910" data-name="Grupo 1171910">
                    <g id="Grupo_1167341" data-name="Grupo 1167341">
                      <g id="Grupo_1166792" data-name="Grupo 1166792">
                        <g transform="matrix(1, 0, 0, 1, -9, -6)" filter="url(#Trazado_904820)">
                          <g id="Trazado_904820-2" data-name="Trazado 904820" transform="translate(9 6)" fill="#e7f2f8">
                            <path d="M 44.99996948242188 88.50005340576172 C 39.12684631347656 88.50005340576172 33.43020629882812 87.35012817382812 28.06828117370605 85.08221435546875 C 22.88851928710938 82.89136505126953 18.23629379272461 79.754638671875 14.2408447265625 75.75918579101562 C 10.24540710449219 71.76374053955078 7.108694553375244 67.11151123046875 4.917831897735596 61.93173980712891 C 2.649931907653809 56.56980133056641 1.500007033348083 50.87314987182617 1.500007033348083 45.00002670288086 C 1.500007033348083 39.12690353393555 2.649931907653809 33.43025207519531 4.917831897735596 28.06831359863281 C 7.108694553375244 22.8885383605957 10.24540710449219 18.23631477355957 14.2408447265625 14.24086380004883 C 18.23629379272461 10.2454137802124 22.88851928710938 7.108689308166504 28.06828117370605 4.917839050292969 C 33.43020629882812 2.649926662445068 39.12684631347656 1.500001668930054 44.99996948242188 1.500001668930054 C 50.87309265136719 1.500001668930054 56.56973266601562 2.649926662445068 61.93165588378906 4.917839050292969 C 67.11143493652344 7.108689308166504 71.76364135742188 10.2454137802124 75.75909423828125 14.24086380004883 C 79.75454711914062 18.23631477355957 82.89125823974609 22.8885383605957 85.08212280273438 28.06831359863281 C 87.35002136230469 33.43025207519531 88.49994659423828 39.12690353393555 88.49994659423828 45.00002670288086 C 88.49994659423828 50.87314987182617 87.35002136230469 56.56980133056641 85.08212280273438 61.93173980712891 C 82.89125823974609 67.11151123046875 79.75454711914062 71.76374053955078 75.75909423828125 75.75918579101562 C 71.76364135742188 79.754638671875 67.11143493652344 82.89136505126953 61.93165588378906 85.08221435546875 C 56.56973266601562 87.35012817382812 50.87309265136719 88.50005340576172 44.99996948242188 88.50005340576172 Z" stroke="none"/>
                            <path d="M 44.99996948242188 3 C 39.32868194580078 3 33.82863998413086 4.110054016113281 28.65261077880859 6.299339294433594 C 23.65164184570312 8.414566040039062 19.15968322753906 11.44334411621094 15.301513671875 15.30152893066406 C 11.44332885742188 19.15969848632812 8.414566040039062 23.65167236328125 6.299324035644531 28.65264129638672 C 4.110054016113281 33.82868194580078 3 39.32873916625977 3 45.00002670288086 C 3 50.67131423950195 4.110054016113281 56.17137145996094 6.299324035644531 61.347412109375 C 8.414566040039062 66.34838104248047 11.44332885742188 70.84035491943359 15.301513671875 74.69852447509766 C 19.15968322753906 78.55670928955078 23.65164184570312 81.58547973632812 28.65261077880859 83.70071411132812 C 33.82863998413086 85.88999938964844 39.32868194580078 87.00005340576172 44.99996948242188 87.00005340576172 C 50.67125701904297 87.00005340576172 56.17129898071289 85.88999938964844 61.34732818603516 83.70071411132812 C 66.34829711914062 81.58547973632812 70.84025573730469 78.55670928955078 74.69842529296875 74.69852447509766 C 78.55661010742188 70.84035491943359 81.58537292480469 66.34838104248047 83.70061492919922 61.347412109375 C 85.88988494873047 56.17137145996094 86.99993896484375 50.67131423950195 86.99993896484375 45.00002670288086 C 86.99993896484375 39.32873916625977 85.88988494873047 33.82868194580078 83.70061492919922 28.65264129638672 C 81.58537292480469 23.65167236328125 78.55661010742188 19.15969848632812 74.69842529296875 15.30152893066406 C 70.84025573730469 11.44334411621094 66.34829711914062 8.414566040039062 61.34732818603516 6.299339294433594 C 56.17129898071289 4.110054016113281 50.67125701904297 3 44.99996948242188 3 M 44.99996948242188 0 C 69.85276794433594 0 89.99993896484375 20.14720153808594 89.99993896484375 45.00002670288086 C 89.99993896484375 69.85285949707031 69.85276794433594 90.00005340576172 44.99996948242188 90.00005340576172 C 20.14717102050781 90.00005340576172 0 69.85285949707031 0 45.00002670288086 C 0 20.14720153808594 20.14717102050781 0 44.99996948242188 0 Z" stroke="none" fill="#248abf"/>
                          </g>
                        </g>
                      </g>
                    </g>
                  </g>
                </g>
              </g>
            </g>
          </g>
        </g>
      </g>
    </g>
    <g id="orden" transform="translate(634.178 2995.933)">
      <path id="Trazado_1169897" data-name="Trazado 1169897" d="M52.3,27.8l9.454,16.379A4.475,4.475,0,0,1,60.1,50.225l-7.8,4.507" transform="translate(4.737 2.563)" fill="#64c4f6" stroke="#101f2d" stroke-linecap="round" stroke-linejoin="round" stroke-miterlimit="10" stroke-width="2"/>
      <g id="Grupo_1220580" data-name="Grupo 1220580" transform="translate(4.577 1.977)">
        <g id="Grupo_1220575" data-name="Grupo 1220575">
          <path id="Trazado_1169898" data-name="Trazado 1169898" d="M25.9,7.059l7.8-4.507A4.475,4.475,0,0,1,39.751,4.2L41.4,7.059" transform="translate(-2.461 -1.977)" fill="#64c4f6" stroke="#101f2d" stroke-linecap="round" stroke-linejoin="round" stroke-miterlimit="10" stroke-width="2"/>
          <path id="Trazado_1169899" data-name="Trazado 1169899" d="M14.605,40.522,5.152,24.253A4.475,4.475,0,0,1,6.8,18.207l7.8-4.507" transform="translate(-4.577 -0.814)" fill="#64c4f6" stroke="#101f2d" stroke-linecap="round" stroke-linejoin="round" stroke-miterlimit="10" stroke-width="2"/>
          <path id="Trazado_1169900" data-name="Trazado 1169900" d="M41.28,59.4l-7.695,4.4a4.475,4.475,0,0,1-6.046-1.649L26,59.51" transform="translate(-2.451 3.722)" fill="#64c4f6" stroke="#101f2d" stroke-linecap="round" stroke-linejoin="round" stroke-miterlimit="10" stroke-width="2"/>
          <path id="Trazado_1169901" data-name="Trazado 1169901" d="M56.131,11V60.134a4.41,4.41,0,0,1-4.4,4.4H18.1a4.41,4.41,0,0,1-4.4-4.4V11a4.41,4.41,0,0,1,4.4-4.4H51.624A4.435,4.435,0,0,1,56.131,11Z" transform="translate(-3.672 -1.518)" fill="none" stroke="#101f2d" stroke-linecap="round" stroke-linejoin="round" stroke-miterlimit="10" stroke-width="2"/>
          <path id="Trazado_1169902" data-name="Trazado 1169902" d="M19.025,56.9v7.8L14.957,62.4,11,64.7V56.9" transform="translate(-3.94 3.474)" fill="#64c4f6" stroke="#101f2d" stroke-linecap="round" stroke-linejoin="round" stroke-miterlimit="10" stroke-width="2"/>
          <circle id="Elipse_14466" data-name="Elipse 14466" cx="6.705" cy="6.705" r="6.705" transform="translate(4.312 47.623)" fill="#ef6561" stroke="#101f2d" stroke-linecap="round" stroke-linejoin="round" stroke-miterlimit="10" stroke-width="2"/>
        </g>
        <circle id="Elipse_14467" data-name="Elipse 14467" cx="2.748" cy="2.748" r="2.748" transform="translate(8.269 51.58)" fill="#fff"/>
        <g id="Grupo_1220579" data-name="Grupo 1220579" transform="translate(15.964 8.764)">
          <g id="Grupo_1220577" data-name="Grupo 1220577">
            <path id="Trazado_1169903" data-name="Trazado 1169903" d="M32.841,34.467H19.1V33.038A2.675,2.675,0,0,1,21.738,30.4H30.2a2.675,2.675,0,0,1,2.638,2.638Z" transform="translate(-19.1 -7.92)" fill="#ef6561" stroke="#101f2d" stroke-linecap="round" stroke-linejoin="round" stroke-miterlimit="10" stroke-width="2"/>
            <g id="Grupo_1220576" data-name="Grupo 1220576" transform="translate(6.211)">
              <path id="Trazado_1169904" data-name="Trazado 1169904" d="M0,0H10.113V7.475H0Z" transform="translate(2.981 10.116) rotate(-45)" fill="#64c4f6" stroke="#101f2d" stroke-linecap="round" stroke-linejoin="round" stroke-miterlimit="10" stroke-width="2"/>
              <path id="Trazado_1169905" data-name="Trazado 1169905" d="M32.939,26.839a1.725,1.725,0,0,0,0-2.418l-5.276-5.276a1.71,1.71,0,0,0-2.418,2.418l5.276,5.276a1.725,1.725,0,0,0,2.418,0Z" transform="translate(-24.75 -9.086)" fill="#ef6561" stroke="#101f2d" stroke-linecap="round" stroke-linejoin="round" stroke-miterlimit="10" stroke-width="2"/>
              <path id="Trazado_1169906" data-name="Trazado 1169906" d="M41.639,18.139a1.725,1.725,0,0,0,0-2.418l-5.276-5.276a1.71,1.71,0,0,0-2.418,2.418l5.276,5.276A1.725,1.725,0,0,0,41.639,18.139Z" transform="translate(-23.886 -9.95)" fill="#ef6561" stroke="#101f2d" stroke-linecap="round" stroke-linejoin="round" stroke-miterlimit="10" stroke-width="2"/>
              <path id="Trazado_1169907" data-name="Trazado 1169907" d="M47.491,32.7a2.327,2.327,0,0,1-3.408-.11L34.3,22.038,36.938,19.4l10.553,9.783a2.675,2.675,0,0,1,0,3.518Z" transform="translate(-23.802 -9.012)" fill="none" stroke="#101f2d" stroke-linecap="round" stroke-linejoin="round" stroke-miterlimit="10" stroke-width="2"/>
            </g>
          </g>
          <g id="Grupo_1220578" data-name="Grupo 1220578" transform="translate(0 32.483)">
            <path id="Trazado_1169908" data-name="Trazado 1169908" d="M22.6,43.9H49.2" transform="translate(-18.753 -39.063)" fill="none" stroke="#101f2d" stroke-linecap="round" stroke-linejoin="round" stroke-miterlimit="10" stroke-width="2"/>
            <path id="Trazado_1169909" data-name="Trazado 1169909" d="M19.1,39.5H49.549" transform="translate(-19.1 -39.5)" fill="none" stroke="#101f2d" stroke-linecap="round" stroke-linejoin="round" stroke-miterlimit="10" stroke-width="2"/>
            <path id="Trazado_1169910" data-name="Trazado 1169910" d="M24.6,48.9H49" transform="translate(-18.554 -38.567)" fill="none" stroke="#101f2d" stroke-linecap="round" stroke-linejoin="round" stroke-miterlimit="10" stroke-width="2"/>
            <path id="Trazado_1169911" data-name="Trazado 1169911" d="M24.6,53.8H49" transform="translate(-18.554 -38.081)" fill="none" stroke="#101f2d" stroke-linecap="round" stroke-linejoin="round" stroke-miterlimit="10" stroke-width="2"/>
          </g>
        </g>
      </g>
    </g>
  </g>
</svg>
